ISO-10303-21;
HEADER;
/* Generated by software containing ST-Developer
 * from STEP Tools, Inc. (www.steptools.com) 
 */

FILE_DESCRIPTION(
/* description */ (''),
/* implementation_level */ '2;1');

FILE_NAME(
/* name */ 'Box Bridge1.step',
/* time_stamp */ '2026-01-25T10:37:16-05:00',
/* author */ (''),
/* organization */ (''),
/* preprocessor_version */ 'ST-DEVELOPER v20.1',
/* originating_system */ 'Autodesk Translation Framework v14.24.0.0',
/* authorisation */ '');

FILE_SCHEMA (('AUTOMOTIVE_DESIGN { 1 0 10303 214 3 1 1 }'));
ENDSEC;

DATA;
#10=MECHANICAL_DESIGN_GEOMETRIC_PRESENTATION_REPRESENTATION('',(#13),#689);
#11=SHAPE_REPRESENTATION_RELATIONSHIP('SRR','None',#696,#12);
#12=ADVANCED_BREP_SHAPE_REPRESENTATION('',(#14),#688);
#13=STYLED_ITEM('',(#706),#14);
#14=MANIFOLD_SOLID_BREP('Body1',#397);
#15=FACE_BOUND('',#55,.T.);
#16=FACE_BOUND('',#58,.T.);
#17=FACE_BOUND('',#70,.T.);
#18=FACE_BOUND('',#78,.T.);
#19=PLANE('',#414);
#20=PLANE('',#418);
#21=PLANE('',#425);
#22=PLANE('',#428);
#23=PLANE('',#431);
#24=PLANE('',#434);
#25=PLANE('',#438);
#26=PLANE('',#439);
#27=PLANE('',#445);
#28=PLANE('',#448);
#29=PLANE('',#451);
#30=PLANE('',#452);
#31=FACE_OUTER_BOUND('',#53,.T.);
#32=FACE_OUTER_BOUND('',#54,.T.);
#33=FACE_OUTER_BOUND('',#56,.T.);
#34=FACE_OUTER_BOUND('',#57,.T.);
#35=FACE_OUTER_BOUND('',#59,.T.);
#36=FACE_OUTER_BOUND('',#60,.T.);
#37=FACE_OUTER_BOUND('',#61,.T.);
#38=FACE_OUTER_BOUND('',#62,.T.);
#39=FACE_OUTER_BOUND('',#63,.T.);
#40=FACE_OUTER_BOUND('',#64,.T.);
#41=FACE_OUTER_BOUND('',#65,.T.);
#42=FACE_OUTER_BOUND('',#66,.T.);
#43=FACE_OUTER_BOUND('',#67,.T.);
#44=FACE_OUTER_BOUND('',#68,.T.);
#45=FACE_OUTER_BOUND('',#69,.T.);
#46=FACE_OUTER_BOUND('',#71,.T.);
#47=FACE_OUTER_BOUND('',#72,.T.);
#48=FACE_OUTER_BOUND('',#73,.T.);
#49=FACE_OUTER_BOUND('',#74,.T.);
#50=FACE_OUTER_BOUND('',#75,.T.);
#51=FACE_OUTER_BOUND('',#76,.T.);
#52=FACE_OUTER_BOUND('',#77,.T.);
#53=EDGE_LOOP('',(#257,#258,#259,#260));
#54=EDGE_LOOP('',(#261));
#55=EDGE_LOOP('',(#262));
#56=EDGE_LOOP('',(#263,#264,#265,#266));
#57=EDGE_LOOP('',(#267,#268,#269,#270,#271,#272,#273,#274));
#58=EDGE_LOOP('',(#275));
#59=EDGE_LOOP('',(#276,#277,#278,#279));
#60=EDGE_LOOP('',(#280,#281,#282,#283));
#61=EDGE_LOOP('',(#284,#285,#286,#287));
#62=EDGE_LOOP('',(#288,#289,#290,#291));
#63=EDGE_LOOP('',(#292,#293,#294,#295));
#64=EDGE_LOOP('',(#296,#297,#298,#299));
#65=EDGE_LOOP('',(#300,#301,#302,#303));
#66=EDGE_LOOP('',(#304,#305,#306,#307));
#67=EDGE_LOOP('',(#308,#309,#310,#311));
#68=EDGE_LOOP('',(#312,#313,#314,#315));
#69=EDGE_LOOP('',(#316,#317,#318,#319,#320,#321,#322,#323));
#70=EDGE_LOOP('',(#324));
#71=EDGE_LOOP('',(#325,#326,#327,#328));
#72=EDGE_LOOP('',(#329,#330,#331,#332));
#73=EDGE_LOOP('',(#333,#334,#335,#336));
#74=EDGE_LOOP('',(#337,#338,#339,#340));
#75=EDGE_LOOP('',(#341,#342,#343,#344));
#76=EDGE_LOOP('',(#345,#346,#347,#348));
#77=EDGE_LOOP('',(#349,#350,#351,#352,#353,#354,#355,#356));
#78=EDGE_LOOP('',(#357,#358,#359,#360,#361,#362,#363,#364));
#79=LINE('',#578,#113);
#80=LINE('',#585,#114);
#81=LINE('',#592,#115);
#82=LINE('',#596,#116);
#83=LINE('',#600,#117);
#84=LINE('',#603,#118);
#85=LINE('',#606,#119);
#86=LINE('',#609,#120);
#87=LINE('',#612,#121);
#88=LINE('',#613,#122);
#89=LINE('',#616,#123);
#90=LINE('',#620,#124);
#91=LINE('',#621,#125);
#92=LINE('',#624,#126);
#93=LINE('',#628,#127);
#94=LINE('',#629,#128);
#95=LINE('',#633,#129);
#96=LINE('',#635,#130);
#97=LINE('',#641,#131);
#98=LINE('',#644,#132);
#99=LINE('',#647,#133);
#100=LINE('',#649,#134);
#101=LINE('',#650,#135);
#102=LINE('',#653,#136);
#103=LINE('',#657,#137);
#104=LINE('',#661,#138);
#105=LINE('',#666,#139);
#106=LINE('',#669,#140);
#107=LINE('',#670,#141);
#108=LINE('',#674,#142);
#109=LINE('',#677,#143);
#110=LINE('',#678,#144);
#111=LINE('',#682,#145);
#112=LINE('',#684,#146);
#113=VECTOR('',#459,10.);
#114=VECTOR('',#468,5.);
#115=VECTOR('',#475,10.);
#116=VECTOR('',#478,10.);
#117=VECTOR('',#481,10.);
#118=VECTOR('',#484,10.);
#119=VECTOR('',#487,10.);
#120=VECTOR('',#490,10.);
#121=VECTOR('',#493,10.);
#122=VECTOR('',#494,10.);
#123=VECTOR('',#497,10.);
#124=VECTOR('',#502,10.);
#125=VECTOR('',#503,10.);
#126=VECTOR('',#506,10.);
#127=VECTOR('',#511,10.);
#128=VECTOR('',#512,10.);
#129=VECTOR('',#517,10.);
#130=VECTOR('',#520,10.);
#131=VECTOR('',#525,10.);
#132=VECTOR('',#528,10.);
#133=VECTOR('',#531,10.);
#134=VECTOR('',#532,10.);
#135=VECTOR('',#533,10.);
#136=VECTOR('',#536,10.);
#137=VECTOR('',#539,10.);
#138=VECTOR('',#542,10.);
#139=VECTOR('',#549,10.);
#140=VECTOR('',#552,10.);
#141=VECTOR('',#553,10.);
#142=VECTOR('',#558,10.);
#143=VECTOR('',#561,10.);
#144=VECTOR('',#562,10.);
#145=VECTOR('',#567,10.);
#146=VECTOR('',#570,10.);
#147=CIRCLE('',#412,10.);
#148=CIRCLE('',#413,10.);
#149=CIRCLE('',#415,5.);
#150=CIRCLE('',#417,5.);
#151=CIRCLE('',#419,5.9);
#152=CIRCLE('',#420,5.9);
#153=CIRCLE('',#421,5.9);
#154=CIRCLE('',#422,5.9);
#155=CIRCLE('',#424,5.9);
#156=CIRCLE('',#427,5.9);
#157=CIRCLE('',#430,5.9);
#158=CIRCLE('',#433,5.9);
#159=CIRCLE('',#436,8.);
#160=CIRCLE('',#437,8.);
#161=CIRCLE('',#440,8.);
#162=CIRCLE('',#441,8.);
#163=CIRCLE('',#442,8.);
#164=CIRCLE('',#444,8.);
#165=CIRCLE('',#447,8.);
#166=CIRCLE('',#450,8.);
#167=VERTEX_POINT('',#575);
#168=VERTEX_POINT('',#577);
#169=VERTEX_POINT('',#581);
#170=VERTEX_POINT('',#584);
#171=VERTEX_POINT('',#588);
#172=VERTEX_POINT('',#589);
#173=VERTEX_POINT('',#591);
#174=VERTEX_POINT('',#593);
#175=VERTEX_POINT('',#595);
#176=VERTEX_POINT('',#597);
#177=VERTEX_POINT('',#599);
#178=VERTEX_POINT('',#601);
#179=VERTEX_POINT('',#605);
#180=VERTEX_POINT('',#607);
#181=VERTEX_POINT('',#611);
#182=VERTEX_POINT('',#615);
#183=VERTEX_POINT('',#619);
#184=VERTEX_POINT('',#623);
#185=VERTEX_POINT('',#627);
#186=VERTEX_POINT('',#631);
#187=VERTEX_POINT('',#637);
#188=VERTEX_POINT('',#638);
#189=VERTEX_POINT('',#640);
#190=VERTEX_POINT('',#642);
#191=VERTEX_POINT('',#646);
#192=VERTEX_POINT('',#648);
#193=VERTEX_POINT('',#652);
#194=VERTEX_POINT('',#654);
#195=VERTEX_POINT('',#656);
#196=VERTEX_POINT('',#658);
#197=VERTEX_POINT('',#660);
#198=VERTEX_POINT('',#664);
#199=VERTEX_POINT('',#668);
#200=VERTEX_POINT('',#672);
#201=VERTEX_POINT('',#676);
#202=VERTEX_POINT('',#680);
#203=EDGE_CURVE('',#167,#167,#147,.T.);
#204=EDGE_CURVE('',#167,#168,#79,.T.);
#205=EDGE_CURVE('',#168,#168,#148,.F.);
#206=EDGE_CURVE('',#169,#169,#149,.T.);
#207=EDGE_CURVE('',#169,#170,#80,.T.);
#208=EDGE_CURVE('',#170,#170,#150,.T.);
#209=EDGE_CURVE('',#171,#172,#151,.T.);
#210=EDGE_CURVE('',#173,#171,#81,.T.);
#211=EDGE_CURVE('',#174,#173,#152,.T.);
#212=EDGE_CURVE('',#175,#174,#82,.T.);
#213=EDGE_CURVE('',#176,#175,#153,.T.);
#214=EDGE_CURVE('',#177,#176,#83,.T.);
#215=EDGE_CURVE('',#178,#177,#154,.T.);
#216=EDGE_CURVE('',#172,#178,#84,.T.);
#217=EDGE_CURVE('',#179,#175,#85,.T.);
#218=EDGE_CURVE('',#180,#179,#155,.T.);
#219=EDGE_CURVE('',#176,#180,#86,.T.);
#220=EDGE_CURVE('',#174,#181,#87,.T.);
#221=EDGE_CURVE('',#179,#181,#88,.T.);
#222=EDGE_CURVE('',#182,#173,#89,.T.);
#223=EDGE_CURVE('',#181,#182,#156,.T.);
#224=EDGE_CURVE('',#171,#183,#90,.T.);
#225=EDGE_CURVE('',#182,#183,#91,.T.);
#226=EDGE_CURVE('',#184,#172,#92,.T.);
#227=EDGE_CURVE('',#183,#184,#157,.T.);
#228=EDGE_CURVE('',#185,#180,#93,.T.);
#229=EDGE_CURVE('',#185,#177,#94,.T.);
#230=EDGE_CURVE('',#186,#185,#158,.T.);
#231=EDGE_CURVE('',#178,#186,#95,.T.);
#232=EDGE_CURVE('',#184,#186,#96,.T.);
#233=EDGE_CURVE('',#187,#188,#159,.T.);
#234=EDGE_CURVE('',#188,#189,#97,.T.);
#235=EDGE_CURVE('',#189,#190,#160,.T.);
#236=EDGE_CURVE('',#190,#187,#98,.T.);
#237=EDGE_CURVE('',#190,#191,#99,.T.);
#238=EDGE_CURVE('',#192,#191,#100,.T.);
#239=EDGE_CURVE('',#187,#192,#101,.T.);
#240=EDGE_CURVE('',#193,#189,#102,.T.);
#241=EDGE_CURVE('',#194,#193,#161,.T.);
#242=EDGE_CURVE('',#195,#194,#103,.T.);
#243=EDGE_CURVE('',#196,#195,#162,.T.);
#244=EDGE_CURVE('',#197,#196,#104,.T.);
#245=EDGE_CURVE('',#191,#197,#163,.T.);
#246=EDGE_CURVE('',#198,#192,#164,.T.);
#247=EDGE_CURVE('',#197,#198,#105,.T.);
#248=EDGE_CURVE('',#199,#196,#106,.T.);
#249=EDGE_CURVE('',#198,#199,#107,.T.);
#250=EDGE_CURVE('',#200,#199,#165,.T.);
#251=EDGE_CURVE('',#195,#200,#108,.T.);
#252=EDGE_CURVE('',#201,#194,#109,.T.);
#253=EDGE_CURVE('',#200,#201,#110,.T.);
#254=EDGE_CURVE('',#202,#201,#166,.T.);
#255=EDGE_CURVE('',#193,#202,#111,.T.);
#256=EDGE_CURVE('',#202,#188,#112,.T.);
#257=ORIENTED_EDGE('',*,*,#203,.F.);
#258=ORIENTED_EDGE('',*,*,#204,.T.);
#259=ORIENTED_EDGE('',*,*,#205,.F.);
#260=ORIENTED_EDGE('',*,*,#204,.F.);
#261=ORIENTED_EDGE('',*,*,#205,.T.);
#262=ORIENTED_EDGE('',*,*,#206,.F.);
#263=ORIENTED_EDGE('',*,*,#206,.T.);
#264=ORIENTED_EDGE('',*,*,#207,.T.);
#265=ORIENTED_EDGE('',*,*,#208,.F.);
#266=ORIENTED_EDGE('',*,*,#207,.F.);
#267=ORIENTED_EDGE('',*,*,#209,.F.);
#268=ORIENTED_EDGE('',*,*,#210,.F.);
#269=ORIENTED_EDGE('',*,*,#211,.F.);
#270=ORIENTED_EDGE('',*,*,#212,.F.);
#271=ORIENTED_EDGE('',*,*,#213,.F.);
#272=ORIENTED_EDGE('',*,*,#214,.F.);
#273=ORIENTED_EDGE('',*,*,#215,.F.);
#274=ORIENTED_EDGE('',*,*,#216,.F.);
#275=ORIENTED_EDGE('',*,*,#208,.T.);
#276=ORIENTED_EDGE('',*,*,#213,.T.);
#277=ORIENTED_EDGE('',*,*,#217,.F.);
#278=ORIENTED_EDGE('',*,*,#218,.F.);
#279=ORIENTED_EDGE('',*,*,#219,.F.);
#280=ORIENTED_EDGE('',*,*,#212,.T.);
#281=ORIENTED_EDGE('',*,*,#220,.T.);
#282=ORIENTED_EDGE('',*,*,#221,.F.);
#283=ORIENTED_EDGE('',*,*,#217,.T.);
#284=ORIENTED_EDGE('',*,*,#211,.T.);
#285=ORIENTED_EDGE('',*,*,#222,.F.);
#286=ORIENTED_EDGE('',*,*,#223,.F.);
#287=ORIENTED_EDGE('',*,*,#220,.F.);
#288=ORIENTED_EDGE('',*,*,#210,.T.);
#289=ORIENTED_EDGE('',*,*,#224,.T.);
#290=ORIENTED_EDGE('',*,*,#225,.F.);
#291=ORIENTED_EDGE('',*,*,#222,.T.);
#292=ORIENTED_EDGE('',*,*,#209,.T.);
#293=ORIENTED_EDGE('',*,*,#226,.F.);
#294=ORIENTED_EDGE('',*,*,#227,.F.);
#295=ORIENTED_EDGE('',*,*,#224,.F.);
#296=ORIENTED_EDGE('',*,*,#214,.T.);
#297=ORIENTED_EDGE('',*,*,#219,.T.);
#298=ORIENTED_EDGE('',*,*,#228,.F.);
#299=ORIENTED_EDGE('',*,*,#229,.T.);
#300=ORIENTED_EDGE('',*,*,#215,.T.);
#301=ORIENTED_EDGE('',*,*,#229,.F.);
#302=ORIENTED_EDGE('',*,*,#230,.F.);
#303=ORIENTED_EDGE('',*,*,#231,.F.);
#304=ORIENTED_EDGE('',*,*,#216,.T.);
#305=ORIENTED_EDGE('',*,*,#231,.T.);
#306=ORIENTED_EDGE('',*,*,#232,.F.);
#307=ORIENTED_EDGE('',*,*,#226,.T.);
#308=ORIENTED_EDGE('',*,*,#233,.T.);
#309=ORIENTED_EDGE('',*,*,#234,.T.);
#310=ORIENTED_EDGE('',*,*,#235,.T.);
#311=ORIENTED_EDGE('',*,*,#236,.T.);
#312=ORIENTED_EDGE('',*,*,#236,.F.);
#313=ORIENTED_EDGE('',*,*,#237,.T.);
#314=ORIENTED_EDGE('',*,*,#238,.F.);
#315=ORIENTED_EDGE('',*,*,#239,.F.);
#316=ORIENTED_EDGE('',*,*,#235,.F.);
#317=ORIENTED_EDGE('',*,*,#240,.F.);
#318=ORIENTED_EDGE('',*,*,#241,.F.);
#319=ORIENTED_EDGE('',*,*,#242,.F.);
#320=ORIENTED_EDGE('',*,*,#243,.F.);
#321=ORIENTED_EDGE('',*,*,#244,.F.);
#322=ORIENTED_EDGE('',*,*,#245,.F.);
#323=ORIENTED_EDGE('',*,*,#237,.F.);
#324=ORIENTED_EDGE('',*,*,#203,.T.);
#325=ORIENTED_EDGE('',*,*,#246,.T.);
#326=ORIENTED_EDGE('',*,*,#238,.T.);
#327=ORIENTED_EDGE('',*,*,#245,.T.);
#328=ORIENTED_EDGE('',*,*,#247,.T.);
#329=ORIENTED_EDGE('',*,*,#247,.F.);
#330=ORIENTED_EDGE('',*,*,#244,.T.);
#331=ORIENTED_EDGE('',*,*,#248,.F.);
#332=ORIENTED_EDGE('',*,*,#249,.F.);
#333=ORIENTED_EDGE('',*,*,#250,.T.);
#334=ORIENTED_EDGE('',*,*,#248,.T.);
#335=ORIENTED_EDGE('',*,*,#243,.T.);
#336=ORIENTED_EDGE('',*,*,#251,.T.);
#337=ORIENTED_EDGE('',*,*,#251,.F.);
#338=ORIENTED_EDGE('',*,*,#242,.T.);
#339=ORIENTED_EDGE('',*,*,#252,.F.);
#340=ORIENTED_EDGE('',*,*,#253,.F.);
#341=ORIENTED_EDGE('',*,*,#254,.T.);
#342=ORIENTED_EDGE('',*,*,#252,.T.);
#343=ORIENTED_EDGE('',*,*,#241,.T.);
#344=ORIENTED_EDGE('',*,*,#255,.T.);
#345=ORIENTED_EDGE('',*,*,#234,.F.);
#346=ORIENTED_EDGE('',*,*,#256,.F.);
#347=ORIENTED_EDGE('',*,*,#255,.F.);
#348=ORIENTED_EDGE('',*,*,#240,.T.);
#349=ORIENTED_EDGE('',*,*,#233,.F.);
#350=ORIENTED_EDGE('',*,*,#239,.T.);
#351=ORIENTED_EDGE('',*,*,#246,.F.);
#352=ORIENTED_EDGE('',*,*,#249,.T.);
#353=ORIENTED_EDGE('',*,*,#250,.F.);
#354=ORIENTED_EDGE('',*,*,#253,.T.);
#355=ORIENTED_EDGE('',*,*,#254,.F.);
#356=ORIENTED_EDGE('',*,*,#256,.T.);
#357=ORIENTED_EDGE('',*,*,#227,.T.);
#358=ORIENTED_EDGE('',*,*,#232,.T.);
#359=ORIENTED_EDGE('',*,*,#230,.T.);
#360=ORIENTED_EDGE('',*,*,#228,.T.);
#361=ORIENTED_EDGE('',*,*,#218,.T.);
#362=ORIENTED_EDGE('',*,*,#221,.T.);
#363=ORIENTED_EDGE('',*,*,#223,.T.);
#364=ORIENTED_EDGE('',*,*,#225,.T.);
#365=CYLINDRICAL_SURFACE('',#411,10.);
#366=CYLINDRICAL_SURFACE('',#416,5.);
#367=CYLINDRICAL_SURFACE('',#423,5.9);
#368=CYLINDRICAL_SURFACE('',#426,5.9);
#369=CYLINDRICAL_SURFACE('',#429,5.9);
#370=CYLINDRICAL_SURFACE('',#432,5.9);
#371=CYLINDRICAL_SURFACE('',#435,8.);
#372=CYLINDRICAL_SURFACE('',#443,8.);
#373=CYLINDRICAL_SURFACE('',#446,8.);
#374=CYLINDRICAL_SURFACE('',#449,8.);
#375=ADVANCED_FACE('',(#31),#365,.F.);
#376=ADVANCED_FACE('',(#32,#15),#19,.F.);
#377=ADVANCED_FACE('',(#33),#366,.F.);
#378=ADVANCED_FACE('',(#34,#16),#20,.T.);
#379=ADVANCED_FACE('',(#35),#367,.F.);
#380=ADVANCED_FACE('',(#36),#21,.F.);
#381=ADVANCED_FACE('',(#37),#368,.F.);
#382=ADVANCED_FACE('',(#38),#22,.F.);
#383=ADVANCED_FACE('',(#39),#369,.F.);
#384=ADVANCED_FACE('',(#40),#23,.F.);
#385=ADVANCED_FACE('',(#41),#370,.F.);
#386=ADVANCED_FACE('',(#42),#24,.F.);
#387=ADVANCED_FACE('',(#43),#371,.T.);
#388=ADVANCED_FACE('',(#44),#25,.T.);
#389=ADVANCED_FACE('',(#45,#17),#26,.F.);
#390=ADVANCED_FACE('',(#46),#372,.T.);
#391=ADVANCED_FACE('',(#47),#27,.T.);
#392=ADVANCED_FACE('',(#48),#373,.T.);
#393=ADVANCED_FACE('',(#49),#28,.T.);
#394=ADVANCED_FACE('',(#50),#374,.T.);
#395=ADVANCED_FACE('',(#51),#29,.T.);
#396=ADVANCED_FACE('',(#52,#18),#30,.T.);
#397=CLOSED_SHELL('',(#375,#376,#377,#378,#379,#380,#381,#382,#383,#384,
#385,#386,#387,#388,#389,#390,#391,#392,#393,#394,#395,#396));
#398=DERIVED_UNIT_ELEMENT(#400,1.);
#399=DERIVED_UNIT_ELEMENT(#691,-3.);
#400=(
MASS_UNIT()
NAMED_UNIT(*)
SI_UNIT(.KILO.,.GRAM.)
);
#401=DERIVED_UNIT((#398,#399));
#402=MEASURE_REPRESENTATION_ITEM('density measure',
POSITIVE_RATIO_MEASURE(7850.),#401);
#403=PROPERTY_DEFINITION_REPRESENTATION(#408,#405);
#404=PROPERTY_DEFINITION_REPRESENTATION(#409,#406);
#405=REPRESENTATION('material name',(#407),#688);
#406=REPRESENTATION('density',(#402),#688);
#407=DESCRIPTIVE_REPRESENTATION_ITEM('Steel','Steel');
#408=PROPERTY_DEFINITION('material property','material name',#698);
#409=PROPERTY_DEFINITION('material property','density of part',#698);
#410=AXIS2_PLACEMENT_3D('',#573,#453,#454);
#411=AXIS2_PLACEMENT_3D('',#574,#455,#456);
#412=AXIS2_PLACEMENT_3D('',#576,#457,#458);
#413=AXIS2_PLACEMENT_3D('',#579,#460,#461);
#414=AXIS2_PLACEMENT_3D('',#580,#462,#463);
#415=AXIS2_PLACEMENT_3D('',#582,#464,#465);
#416=AXIS2_PLACEMENT_3D('',#583,#466,#467);
#417=AXIS2_PLACEMENT_3D('',#586,#469,#470);
#418=AXIS2_PLACEMENT_3D('',#587,#471,#472);
#419=AXIS2_PLACEMENT_3D('',#590,#473,#474);
#420=AXIS2_PLACEMENT_3D('',#594,#476,#477);
#421=AXIS2_PLACEMENT_3D('',#598,#479,#480);
#422=AXIS2_PLACEMENT_3D('',#602,#482,#483);
#423=AXIS2_PLACEMENT_3D('',#604,#485,#486);
#424=AXIS2_PLACEMENT_3D('',#608,#488,#489);
#425=AXIS2_PLACEMENT_3D('',#610,#491,#492);
#426=AXIS2_PLACEMENT_3D('',#614,#495,#496);
#427=AXIS2_PLACEMENT_3D('',#617,#498,#499);
#428=AXIS2_PLACEMENT_3D('',#618,#500,#501);
#429=AXIS2_PLACEMENT_3D('',#622,#504,#505);
#430=AXIS2_PLACEMENT_3D('',#625,#507,#508);
#431=AXIS2_PLACEMENT_3D('',#626,#509,#510);
#432=AXIS2_PLACEMENT_3D('',#630,#513,#514);
#433=AXIS2_PLACEMENT_3D('',#632,#515,#516);
#434=AXIS2_PLACEMENT_3D('',#634,#518,#519);
#435=AXIS2_PLACEMENT_3D('',#636,#521,#522);
#436=AXIS2_PLACEMENT_3D('',#639,#523,#524);
#437=AXIS2_PLACEMENT_3D('',#643,#526,#527);
#438=AXIS2_PLACEMENT_3D('',#645,#529,#530);
#439=AXIS2_PLACEMENT_3D('',#651,#534,#535);
#440=AXIS2_PLACEMENT_3D('',#655,#537,#538);
#441=AXIS2_PLACEMENT_3D('',#659,#540,#541);
#442=AXIS2_PLACEMENT_3D('',#662,#543,#544);
#443=AXIS2_PLACEMENT_3D('',#663,#545,#546);
#444=AXIS2_PLACEMENT_3D('',#665,#547,#548);
#445=AXIS2_PLACEMENT_3D('',#667,#550,#551);
#446=AXIS2_PLACEMENT_3D('',#671,#554,#555);
#447=AXIS2_PLACEMENT_3D('',#673,#556,#557);
#448=AXIS2_PLACEMENT_3D('',#675,#559,#560);
#449=AXIS2_PLACEMENT_3D('',#679,#563,#564);
#450=AXIS2_PLACEMENT_3D('',#681,#565,#566);
#451=AXIS2_PLACEMENT_3D('',#683,#568,#569);
#452=AXIS2_PLACEMENT_3D('',#685,#571,#572);
#453=DIRECTION('axis',(0.,0.,1.));
#454=DIRECTION('refdir',(1.,0.,0.));
#455=DIRECTION('center_axis',(0.,0.,1.));
#456=DIRECTION('ref_axis',(1.,0.,0.));
#457=DIRECTION('center_axis',(0.,0.,1.));
#458=DIRECTION('ref_axis',(1.,0.,0.));
#459=DIRECTION('',(0.,0.,1.));
#460=DIRECTION('center_axis',(0.,0.,1.));
#461=DIRECTION('ref_axis',(1.,0.,0.));
#462=DIRECTION('center_axis',(0.,0.,1.));
#463=DIRECTION('ref_axis',(1.,0.,0.));
#464=DIRECTION('center_axis',(0.,0.,-1.));
#465=DIRECTION('ref_axis',(1.,0.,0.));
#466=DIRECTION('center_axis',(0.,0.,1.));
#467=DIRECTION('ref_axis',(1.,0.,0.));
#468=DIRECTION('',(0.,0.,1.));
#469=DIRECTION('center_axis',(0.,0.,-1.));
#470=DIRECTION('ref_axis',(1.,0.,0.));
#471=DIRECTION('center_axis',(0.,0.,1.));
#472=DIRECTION('ref_axis',(1.,0.,0.));
#473=DIRECTION('center_axis',(0.,0.,-1.));
#474=DIRECTION('ref_axis',(0.707106781186547,-0.707106781186548,0.));
#475=DIRECTION('',(-1.77635683940025E-15,-1.,0.));
#476=DIRECTION('center_axis',(0.,0.,-1.));
#477=DIRECTION('ref_axis',(0.707106781186548,0.707106781186547,0.));
#478=DIRECTION('',(1.,1.48029736616688E-15,0.));
#479=DIRECTION('center_axis',(0.,0.,-1.));
#480=DIRECTION('ref_axis',(-0.707106781186549,0.707106781186546,0.));
#481=DIRECTION('',(-3.15544362088405E-31,1.,0.));
#482=DIRECTION('center_axis',(0.,0.,-1.));
#483=DIRECTION('ref_axis',(-0.707106781186548,-0.707106781186548,0.));
#484=DIRECTION('',(-1.,0.,0.));
#485=DIRECTION('center_axis',(0.,0.,1.));
#486=DIRECTION('ref_axis',(-0.707106781186549,0.707106781186546,0.));
#487=DIRECTION('',(0.,0.,-1.));
#488=DIRECTION('center_axis',(0.,0.,-1.));
#489=DIRECTION('ref_axis',(-0.707106781186549,0.707106781186546,0.));
#490=DIRECTION('',(0.,0.,1.));
#491=DIRECTION('center_axis',(-1.48029736616688E-15,1.,0.));
#492=DIRECTION('ref_axis',(-1.,-1.48029736616688E-15,0.));
#493=DIRECTION('',(0.,0.,1.));
#494=DIRECTION('',(1.,1.48029736616688E-15,0.));
#495=DIRECTION('center_axis',(0.,0.,1.));
#496=DIRECTION('ref_axis',(0.707106781186548,0.707106781186547,0.));
#497=DIRECTION('',(0.,0.,-1.));
#498=DIRECTION('center_axis',(0.,0.,-1.));
#499=DIRECTION('ref_axis',(0.707106781186548,0.707106781186547,0.));
#500=DIRECTION('center_axis',(1.,-1.77635683940025E-15,0.));
#501=DIRECTION('ref_axis',(1.77635683940025E-15,1.,0.));
#502=DIRECTION('',(0.,0.,1.));
#503=DIRECTION('',(-1.77635683940025E-15,-1.,0.));
#504=DIRECTION('center_axis',(0.,0.,1.));
#505=DIRECTION('ref_axis',(0.707106781186547,-0.707106781186548,0.));
#506=DIRECTION('',(0.,0.,-1.));
#507=DIRECTION('center_axis',(0.,0.,-1.));
#508=DIRECTION('ref_axis',(0.707106781186547,-0.707106781186548,0.));
#509=DIRECTION('center_axis',(-1.,-3.15544362088405E-31,0.));
#510=DIRECTION('ref_axis',(3.15544362088405E-31,-1.,0.));
#511=DIRECTION('',(-3.15544362088405E-31,1.,0.));
#512=DIRECTION('',(0.,0.,-1.));
#513=DIRECTION('center_axis',(0.,0.,1.));
#514=DIRECTION('ref_axis',(-0.707106781186548,-0.707106781186548,0.));
#515=DIRECTION('center_axis',(0.,0.,-1.));
#516=DIRECTION('ref_axis',(-0.707106781186548,-0.707106781186548,0.));
#517=DIRECTION('',(0.,0.,1.));
#518=DIRECTION('center_axis',(0.,-1.,0.));
#519=DIRECTION('ref_axis',(1.,0.,0.));
#520=DIRECTION('',(-1.,0.,0.));
#521=DIRECTION('center_axis',(0.,0.,1.));
#522=DIRECTION('ref_axis',(0.707106781186547,-0.707106781186548,0.));
#523=DIRECTION('center_axis',(0.,0.,-1.));
#524=DIRECTION('ref_axis',(0.707106781186547,-0.707106781186548,0.));
#525=DIRECTION('',(0.,0.,-1.));
#526=DIRECTION('center_axis',(0.,0.,1.));
#527=DIRECTION('ref_axis',(0.707106781186547,-0.707106781186548,0.));
#528=DIRECTION('',(0.,0.,1.));
#529=DIRECTION('center_axis',(1.,-1.77635683940025E-15,0.));
#530=DIRECTION('ref_axis',(1.77635683940025E-15,1.,0.));
#531=DIRECTION('',(1.77635683940025E-15,1.,0.));
#532=DIRECTION('',(0.,0.,-1.));
#533=DIRECTION('',(1.77635683940025E-15,1.,0.));
#534=DIRECTION('center_axis',(0.,0.,1.));
#535=DIRECTION('ref_axis',(1.,0.,0.));
#536=DIRECTION('',(1.,0.,0.));
#537=DIRECTION('center_axis',(0.,0.,1.));
#538=DIRECTION('ref_axis',(-0.707106781186547,-0.707106781186548,0.));
#539=DIRECTION('',(3.15544362088405E-31,-1.,0.));
#540=DIRECTION('center_axis',(0.,0.,1.));
#541=DIRECTION('ref_axis',(-0.707106781186549,0.707106781186546,0.));
#542=DIRECTION('',(-1.,-1.48029736616688E-15,0.));
#543=DIRECTION('center_axis',(0.,0.,1.));
#544=DIRECTION('ref_axis',(0.707106781186548,0.707106781186547,0.));
#545=DIRECTION('center_axis',(0.,0.,1.));
#546=DIRECTION('ref_axis',(0.707106781186548,0.707106781186547,0.));
#547=DIRECTION('center_axis',(0.,0.,-1.));
#548=DIRECTION('ref_axis',(0.707106781186548,0.707106781186547,0.));
#549=DIRECTION('',(0.,0.,1.));
#550=DIRECTION('center_axis',(-1.48029736616688E-15,1.,0.));
#551=DIRECTION('ref_axis',(-1.,-1.48029736616688E-15,0.));
#552=DIRECTION('',(0.,0.,-1.));
#553=DIRECTION('',(-1.,-1.48029736616688E-15,0.));
#554=DIRECTION('center_axis',(0.,0.,1.));
#555=DIRECTION('ref_axis',(-0.707106781186549,0.707106781186546,0.));
#556=DIRECTION('center_axis',(0.,0.,-1.));
#557=DIRECTION('ref_axis',(-0.707106781186549,0.707106781186546,0.));
#558=DIRECTION('',(0.,0.,1.));
#559=DIRECTION('center_axis',(-1.,-3.15544362088405E-31,0.));
#560=DIRECTION('ref_axis',(3.15544362088405E-31,-1.,0.));
#561=DIRECTION('',(0.,0.,-1.));
#562=DIRECTION('',(3.15544362088405E-31,-1.,0.));
#563=DIRECTION('center_axis',(0.,0.,1.));
#564=DIRECTION('ref_axis',(-0.707106781186547,-0.707106781186548,0.));
#565=DIRECTION('center_axis',(0.,0.,-1.));
#566=DIRECTION('ref_axis',(-0.707106781186547,-0.707106781186548,0.));
#567=DIRECTION('',(0.,0.,1.));
#568=DIRECTION('center_axis',(0.,-1.,0.));
#569=DIRECTION('ref_axis',(1.,0.,0.));
#570=DIRECTION('',(1.,0.,0.));
#571=DIRECTION('center_axis',(0.,0.,1.));
#572=DIRECTION('ref_axis',(1.,0.,0.));
#573=CARTESIAN_POINT('',(0.,0.,0.));
#574=CARTESIAN_POINT('Origin',(29.9999999999999,25.0000000000001,0.));
#575=CARTESIAN_POINT('',(19.9999999999999,25.0000000000001,0.));
#576=CARTESIAN_POINT('Origin',(29.9999999999999,25.0000000000001,0.));
#577=CARTESIAN_POINT('',(19.9999999999999,25.0000000000001,5.));
#578=CARTESIAN_POINT('',(19.9999999999999,25.0000000000001,0.));
#579=CARTESIAN_POINT('Origin',(29.9999999999999,25.0000000000001,5.));
#580=CARTESIAN_POINT('Origin',(29.9999999999999,25.0000000000001,5.));
#581=CARTESIAN_POINT('',(24.9999999999999,25.0000000000001,5.));
#582=CARTESIAN_POINT('Origin',(29.9999999999999,25.0000000000001,5.));
#583=CARTESIAN_POINT('Origin',(29.9999999999999,25.0000000000001,0.));
#584=CARTESIAN_POINT('',(24.9999999999999,25.0000000000001,8.));
#585=CARTESIAN_POINT('',(24.9999999999999,25.0000000000001,0.));
#586=CARTESIAN_POINT('Origin',(29.9999999999999,25.0000000000001,8.));
#587=CARTESIAN_POINT('Origin',(30.,25.,8.));
#588=CARTESIAN_POINT('',(57.8999999999999,7.99999999999999,8.));
#589=CARTESIAN_POINT('',(51.9999999999999,2.1,8.));
#590=CARTESIAN_POINT('Origin',(51.9999999999999,8.,8.));
#591=CARTESIAN_POINT('',(57.9,42.,8.));
#592=CARTESIAN_POINT('',(57.8999999999999,12.5,8.));
#593=CARTESIAN_POINT('',(52.,47.9,8.));
#594=CARTESIAN_POINT('Origin',(52.,42.,8.));
#595=CARTESIAN_POINT('',(7.99999999999999,47.8999999999999,8.));
#596=CARTESIAN_POINT('',(45.,47.9,8.));
#597=CARTESIAN_POINT('',(2.1,41.9999999999999,8.));
#598=CARTESIAN_POINT('Origin',(8.,41.9999999999999,8.));
#599=CARTESIAN_POINT('',(2.1,8.,8.));
#600=CARTESIAN_POINT('',(2.1,37.5,8.));
#601=CARTESIAN_POINT('',(8.,2.1,8.));
#602=CARTESIAN_POINT('Origin',(8.,8.,8.));
#603=CARTESIAN_POINT('',(15.,2.1,8.));
#604=CARTESIAN_POINT('Origin',(8.,41.9999999999999,0.));
#605=CARTESIAN_POINT('',(7.99999999999999,47.8999999999999,30.));
#606=CARTESIAN_POINT('',(7.99999999999999,47.8999999999999,0.));
#607=CARTESIAN_POINT('',(2.1,41.9999999999999,30.));
#608=CARTESIAN_POINT('Origin',(8.,41.9999999999999,30.));
#609=CARTESIAN_POINT('',(2.1,41.9999999999999,0.));
#610=CARTESIAN_POINT('Origin',(60.,47.9,0.));
#611=CARTESIAN_POINT('',(52.,47.9,30.));
#612=CARTESIAN_POINT('',(52.,47.9,0.));
#613=CARTESIAN_POINT('',(45.,47.9,30.));
#614=CARTESIAN_POINT('Origin',(52.,42.,0.));
#615=CARTESIAN_POINT('',(57.9,42.,30.));
#616=CARTESIAN_POINT('',(57.9,42.,0.));
#617=CARTESIAN_POINT('Origin',(52.,42.,30.));
#618=CARTESIAN_POINT('Origin',(57.8999999999999,3.73034936274053E-15,0.));
#619=CARTESIAN_POINT('',(57.8999999999999,7.99999999999999,30.));
#620=CARTESIAN_POINT('',(57.8999999999999,7.99999999999999,0.));
#621=CARTESIAN_POINT('',(57.8999999999999,12.5,30.));
#622=CARTESIAN_POINT('Origin',(51.9999999999999,8.,0.));
#623=CARTESIAN_POINT('',(51.9999999999999,2.1,30.));
#624=CARTESIAN_POINT('',(51.9999999999999,2.1,0.));
#625=CARTESIAN_POINT('Origin',(51.9999999999999,8.,30.));
#626=CARTESIAN_POINT('Origin',(2.1,49.9999999999999,0.));
#627=CARTESIAN_POINT('',(2.1,8.,30.));
#628=CARTESIAN_POINT('',(2.1,37.5,30.));
#629=CARTESIAN_POINT('',(2.1,8.,0.));
#630=CARTESIAN_POINT('Origin',(8.,8.,0.));
#631=CARTESIAN_POINT('',(8.,2.1,30.));
#632=CARTESIAN_POINT('Origin',(8.,8.,30.));
#633=CARTESIAN_POINT('',(8.,2.1,0.));
#634=CARTESIAN_POINT('Origin',(0.,2.1,0.));
#635=CARTESIAN_POINT('',(15.,2.1,30.));
#636=CARTESIAN_POINT('Origin',(51.9999999999999,8.,0.));
#637=CARTESIAN_POINT('',(59.9999999999999,7.99999999999999,30.));
#638=CARTESIAN_POINT('',(51.9999999999999,0.,30.));
#639=CARTESIAN_POINT('Origin',(51.9999999999999,8.,30.));
#640=CARTESIAN_POINT('',(51.9999999999999,0.,0.));
#641=CARTESIAN_POINT('',(51.9999999999999,0.,0.));
#642=CARTESIAN_POINT('',(59.9999999999999,7.99999999999999,0.));
#643=CARTESIAN_POINT('Origin',(51.9999999999999,8.,0.));
#644=CARTESIAN_POINT('',(59.9999999999999,7.99999999999999,0.));
#645=CARTESIAN_POINT('Origin',(59.9999999999999,0.,0.));
#646=CARTESIAN_POINT('',(60.,42.,0.));
#647=CARTESIAN_POINT('',(59.9999999999999,0.,0.));
#648=CARTESIAN_POINT('',(60.,42.,30.));
#649=CARTESIAN_POINT('',(60.,42.,0.));
#650=CARTESIAN_POINT('',(59.9999999999999,0.,30.));
#651=CARTESIAN_POINT('Origin',(30.,25.,0.));
#652=CARTESIAN_POINT('',(8.,0.,0.));
#653=CARTESIAN_POINT('',(0.,0.,0.));
#654=CARTESIAN_POINT('',(-2.52435489670725E-30,8.00000000000001,0.));
#655=CARTESIAN_POINT('Origin',(8.,8.,0.));
#656=CARTESIAN_POINT('',(-1.3252863207713E-29,41.9999999999999,0.));
#657=CARTESIAN_POINT('',(-1.57772181044202E-29,49.9999999999999,0.));
#658=CARTESIAN_POINT('',(7.99999999999999,49.9999999999999,0.));
#659=CARTESIAN_POINT('Origin',(8.,41.9999999999999,0.));
#660=CARTESIAN_POINT('',(52.,50.,0.));
#661=CARTESIAN_POINT('',(60.,50.,0.));
#662=CARTESIAN_POINT('Origin',(52.,42.,0.));
#663=CARTESIAN_POINT('Origin',(52.,42.,0.));
#664=CARTESIAN_POINT('',(52.,50.,30.));
#665=CARTESIAN_POINT('Origin',(52.,42.,30.));
#666=CARTESIAN_POINT('',(52.,50.,0.));
#667=CARTESIAN_POINT('Origin',(60.,50.,0.));
#668=CARTESIAN_POINT('',(7.99999999999999,49.9999999999999,30.));
#669=CARTESIAN_POINT('',(7.99999999999999,49.9999999999999,0.));
#670=CARTESIAN_POINT('',(60.,50.,30.));
#671=CARTESIAN_POINT('Origin',(8.,41.9999999999999,0.));
#672=CARTESIAN_POINT('',(-1.3252863207713E-29,41.9999999999999,30.));
#673=CARTESIAN_POINT('Origin',(8.,41.9999999999999,30.));
#674=CARTESIAN_POINT('',(0.,41.9999999999999,0.));
#675=CARTESIAN_POINT('Origin',(-1.57772181044202E-29,49.9999999999999,0.));
#676=CARTESIAN_POINT('',(-2.52435489670725E-30,8.00000000000001,30.));
#677=CARTESIAN_POINT('',(0.,8.,0.));
#678=CARTESIAN_POINT('',(-1.57772181044202E-29,49.9999999999999,30.));
#679=CARTESIAN_POINT('Origin',(8.,8.,0.));
#680=CARTESIAN_POINT('',(8.,0.,30.));
#681=CARTESIAN_POINT('Origin',(8.,8.,30.));
#682=CARTESIAN_POINT('',(8.,0.,0.));
#683=CARTESIAN_POINT('Origin',(0.,0.,0.));
#684=CARTESIAN_POINT('',(0.,0.,30.));
#685=CARTESIAN_POINT('Origin',(30.,25.,30.));
#686=UNCERTAINTY_MEASURE_WITH_UNIT(LENGTH_MEASURE(0.01),#690,
'DISTANCE_ACCURACY_VALUE',
'Maximum model space distance between geometric entities at asserted c
onnectivities');
#687=UNCERTAINTY_MEASURE_WITH_UNIT(LENGTH_MEASURE(0.01),#690,
'DISTANCE_ACCURACY_VALUE',
'Maximum model space distance between geometric entities at asserted c
onnectivities');
#688=(
GEOMETRIC_REPRESENTATION_CONTEXT(3)
GLOBAL_UNCERTAINTY_ASSIGNED_CONTEXT((#686))
GLOBAL_UNIT_ASSIGNED_CONTEXT((#690,#692,#693))
REPRESENTATION_CONTEXT('','3D')
);
#689=(
GEOMETRIC_REPRESENTATION_CONTEXT(3)
GLOBAL_UNCERTAINTY_ASSIGNED_CONTEXT((#687))
GLOBAL_UNIT_ASSIGNED_CONTEXT((#690,#692,#693))
REPRESENTATION_CONTEXT('','3D')
);
#690=(
LENGTH_UNIT()
NAMED_UNIT(*)
SI_UNIT(.MILLI.,.METRE.)
);
#691=(
LENGTH_UNIT()
NAMED_UNIT(*)
SI_UNIT($,.METRE.)
);
#692=(
NAMED_UNIT(*)
PLANE_ANGLE_UNIT()
SI_UNIT($,.RADIAN.)
);
#693=(
NAMED_UNIT(*)
SI_UNIT($,.STERADIAN.)
SOLID_ANGLE_UNIT()
);
#694=SHAPE_DEFINITION_REPRESENTATION(#695,#696);
#695=PRODUCT_DEFINITION_SHAPE('',$,#698);
#696=SHAPE_REPRESENTATION('',(#410),#688);
#697=PRODUCT_DEFINITION_CONTEXT('part definition',#702,'design');
#698=PRODUCT_DEFINITION('Bridges2','Bridges2 v4',#699,#697);
#699=PRODUCT_DEFINITION_FORMATION('',$,#704);
#700=PRODUCT_RELATED_PRODUCT_CATEGORY('Bridges2 v4','Bridges2 v4',(#704));
#701=APPLICATION_PROTOCOL_DEFINITION('international standard',
'automotive_design',2009,#702);
#702=APPLICATION_CONTEXT(
'Core Data for Automotive Mechanical Design Process');
#703=PRODUCT_CONTEXT('part definition',#702,'mechanical');
#704=PRODUCT('Bridges2','Bridges2 v4',$,(#703));
#705=PRESENTATION_STYLE_ASSIGNMENT((#707));
#706=PRESENTATION_STYLE_ASSIGNMENT((#708));
#707=SURFACE_STYLE_USAGE(.BOTH.,#709);
#708=SURFACE_STYLE_USAGE(.BOTH.,#710);
#709=SURFACE_SIDE_STYLE('',(#711));
#710=SURFACE_SIDE_STYLE('',(#712));
#711=SURFACE_STYLE_FILL_AREA(#713);
#712=SURFACE_STYLE_FILL_AREA(#714);
#713=FILL_AREA_STYLE('Steel - Satin',(#715));
#714=FILL_AREA_STYLE('Tough 2000 Light Grey',(#716));
#715=FILL_AREA_STYLE_COLOUR('Steel - Satin',#717);
#716=FILL_AREA_STYLE_COLOUR('Tough 2000 Light Grey',#718);
#717=COLOUR_RGB('Steel - Satin',0.627450980392157,0.627450980392157,0.627450980392157);
#718=COLOUR_RGB('Tough 2000 Light Grey',0.682352941176471,0.682352941176471,
0.682352941176471);
ENDSEC;
END-ISO-10303-21;
