ISO-10303-21;
HEADER;
/* Generated by software containing ST-Developer
 * from STEP Tools, Inc. (www.steptools.com) 
 */

FILE_DESCRIPTION(
/* description */ (''),
/* implementation_level */ '2;1');

FILE_NAME(
/* name */ 'Box Bridge2.step',
/* time_stamp */ '2026-01-25T10:38:13-05:00',
/* author */ (''),
/* organization */ (''),
/* preprocessor_version */ 'ST-DEVELOPER v20.1',
/* originating_system */ 'Autodesk Translation Framework v14.24.0.0',
/* authorisation */ '');

FILE_SCHEMA (('AUTOMOTIVE_DESIGN { 1 0 10303 214 3 1 1 }'));
ENDSEC;

DATA;
#10=MECHANICAL_DESIGN_GEOMETRIC_PRESENTATION_REPRESENTATION('',(#13),#1037);
#11=SHAPE_REPRESENTATION_RELATIONSHIP('SRR','None',#1044,#12);
#12=ADVANCED_BREP_SHAPE_REPRESENTATION('',(#14),#1036);
#13=STYLED_ITEM('',(#1054),#14);
#14=MANIFOLD_SOLID_BREP('Body1',#606);
#15=FACE_BOUND('',#103,.T.);
#16=FACE_BOUND('',#115,.T.);
#17=FACE_BOUND('',#123,.T.);
#18=CYLINDRICAL_SURFACE('',#639,10.);
#19=CYLINDRICAL_SURFACE('',#643,5.);
#20=CYLINDRICAL_SURFACE('',#650,5.9);
#21=CYLINDRICAL_SURFACE('',#653,5.9);
#22=CYLINDRICAL_SURFACE('',#656,5.9);
#23=CYLINDRICAL_SURFACE('',#659,5.9);
#24=CYLINDRICAL_SURFACE('',#662,8.);
#25=CYLINDRICAL_SURFACE('',#670,8.);
#26=CYLINDRICAL_SURFACE('',#673,8.);
#27=CYLINDRICAL_SURFACE('',#676,8.);
#28=CIRCLE('',#622,5.);
#29=CIRCLE('',#624,5.);
#30=CIRCLE('',#627,5.);
#31=CIRCLE('',#629,5.);
#32=CIRCLE('',#631,10.);
#33=CIRCLE('',#632,10.);
#34=CIRCLE('',#635,10.);
#35=CIRCLE('',#638,10.);
#36=CIRCLE('',#640,10.);
#37=CIRCLE('',#641,10.);
#38=CIRCLE('',#644,5.);
#39=CIRCLE('',#646,5.9);
#40=CIRCLE('',#647,5.9);
#41=CIRCLE('',#648,5.9);
#42=CIRCLE('',#649,5.9);
#43=CIRCLE('',#651,5.9);
#44=CIRCLE('',#654,5.9);
#45=CIRCLE('',#657,5.9);
#46=CIRCLE('',#660,5.9);
#47=CIRCLE('',#663,8.);
#48=CIRCLE('',#664,8.);
#49=CIRCLE('',#667,8.);
#50=CIRCLE('',#668,8.);
#51=CIRCLE('',#669,8.);
#52=CIRCLE('',#671,8.);
#53=CIRCLE('',#674,8.);
#54=CIRCLE('',#677,8.);
#55=FACE_OUTER_BOUND('',#88,.T.);
#56=FACE_OUTER_BOUND('',#89,.T.);
#57=FACE_OUTER_BOUND('',#90,.T.);
#58=FACE_OUTER_BOUND('',#91,.T.);
#59=FACE_OUTER_BOUND('',#92,.T.);
#60=FACE_OUTER_BOUND('',#93,.T.);
#61=FACE_OUTER_BOUND('',#94,.T.);
#62=FACE_OUTER_BOUND('',#95,.T.);
#63=FACE_OUTER_BOUND('',#96,.T.);
#64=FACE_OUTER_BOUND('',#97,.T.);
#65=FACE_OUTER_BOUND('',#98,.T.);
#66=FACE_OUTER_BOUND('',#99,.T.);
#67=FACE_OUTER_BOUND('',#100,.T.);
#68=FACE_OUTER_BOUND('',#101,.T.);
#69=FACE_OUTER_BOUND('',#102,.T.);
#70=FACE_OUTER_BOUND('',#104,.T.);
#71=FACE_OUTER_BOUND('',#105,.T.);
#72=FACE_OUTER_BOUND('',#106,.T.);
#73=FACE_OUTER_BOUND('',#107,.T.);
#74=FACE_OUTER_BOUND('',#108,.T.);
#75=FACE_OUTER_BOUND('',#109,.T.);
#76=FACE_OUTER_BOUND('',#110,.T.);
#77=FACE_OUTER_BOUND('',#111,.T.);
#78=FACE_OUTER_BOUND('',#112,.T.);
#79=FACE_OUTER_BOUND('',#113,.T.);
#80=FACE_OUTER_BOUND('',#114,.T.);
#81=FACE_OUTER_BOUND('',#116,.T.);
#82=FACE_OUTER_BOUND('',#117,.T.);
#83=FACE_OUTER_BOUND('',#118,.T.);
#84=FACE_OUTER_BOUND('',#119,.T.);
#85=FACE_OUTER_BOUND('',#120,.T.);
#86=FACE_OUTER_BOUND('',#121,.T.);
#87=FACE_OUTER_BOUND('',#122,.T.);
#88=EDGE_LOOP('',(#380,#381,#382,#383,#384));
#89=EDGE_LOOP('',(#385,#386,#387));
#90=EDGE_LOOP('',(#388,#389,#390));
#91=EDGE_LOOP('',(#391,#392,#393,#394,#395));
#92=EDGE_LOOP('',(#396,#397,#398));
#93=EDGE_LOOP('',(#399,#400,#401));
#94=EDGE_LOOP('',(#402,#403,#404,#405,#406));
#95=EDGE_LOOP('',(#407,#408,#409,#410,#411,#412,#413,#414,#415));
#96=EDGE_LOOP('',(#416,#417,#418,#419));
#97=EDGE_LOOP('',(#420,#421,#422,#423,#424,#425,#426,#427,#428));
#98=EDGE_LOOP('',(#429,#430));
#99=EDGE_LOOP('',(#431,#432,#433,#434,#435,#436,#437,#438,#439,#440,#441,
#442));
#100=EDGE_LOOP('',(#443,#444));
#101=EDGE_LOOP('',(#445,#446,#447,#448,#449,#450,#451));
#102=EDGE_LOOP('',(#452,#453,#454,#455,#456,#457,#458,#459));
#103=EDGE_LOOP('',(#460));
#104=EDGE_LOOP('',(#461,#462,#463,#464));
#105=EDGE_LOOP('',(#465,#466,#467,#468));
#106=EDGE_LOOP('',(#469,#470,#471,#472));
#107=EDGE_LOOP('',(#473,#474,#475,#476));
#108=EDGE_LOOP('',(#477,#478,#479,#480));
#109=EDGE_LOOP('',(#481,#482,#483,#484));
#110=EDGE_LOOP('',(#485,#486,#487,#488));
#111=EDGE_LOOP('',(#489,#490,#491,#492));
#112=EDGE_LOOP('',(#493,#494,#495,#496));
#113=EDGE_LOOP('',(#497,#498,#499,#500));
#114=EDGE_LOOP('',(#501,#502,#503,#504,#505,#506,#507,#508));
#115=EDGE_LOOP('',(#509));
#116=EDGE_LOOP('',(#510,#511,#512,#513));
#117=EDGE_LOOP('',(#514,#515,#516,#517));
#118=EDGE_LOOP('',(#518,#519,#520,#521));
#119=EDGE_LOOP('',(#522,#523,#524,#525));
#120=EDGE_LOOP('',(#526,#527,#528,#529));
#121=EDGE_LOOP('',(#530,#531,#532,#533));
#122=EDGE_LOOP('',(#534,#535,#536,#537,#538,#539,#540,#541));
#123=EDGE_LOOP('',(#542,#543,#544,#545,#546,#547,#548,#549));
#124=LINE('',#864,#182);
#125=LINE('',#866,#183);
#126=LINE('',#868,#184);
#127=LINE('',#870,#185);
#128=LINE('',#871,#186);
#129=LINE('',#875,#187);
#130=LINE('',#879,#188);
#131=LINE('',#881,#189);
#132=LINE('',#885,#190);
#133=LINE('',#887,#191);
#134=LINE('',#888,#192);
#135=LINE('',#889,#193);
#136=LINE('',#893,#194);
#137=LINE('',#896,#195);
#138=LINE('',#899,#196);
#139=LINE('',#904,#197);
#140=LINE('',#908,#198);
#141=LINE('',#910,#199);
#142=LINE('',#911,#200);
#143=LINE('',#912,#201);
#144=LINE('',#916,#202);
#145=LINE('',#920,#203);
#146=LINE('',#921,#204);
#147=LINE('',#922,#205);
#148=LINE('',#928,#206);
#149=LINE('',#933,#207);
#150=LINE('',#940,#208);
#151=LINE('',#944,#209);
#152=LINE('',#948,#210);
#153=LINE('',#951,#211);
#154=LINE('',#954,#212);
#155=LINE('',#957,#213);
#156=LINE('',#960,#214);
#157=LINE('',#961,#215);
#158=LINE('',#964,#216);
#159=LINE('',#968,#217);
#160=LINE('',#969,#218);
#161=LINE('',#972,#219);
#162=LINE('',#976,#220);
#163=LINE('',#977,#221);
#164=LINE('',#981,#222);
#165=LINE('',#983,#223);
#166=LINE('',#989,#224);
#167=LINE('',#992,#225);
#168=LINE('',#995,#226);
#169=LINE('',#997,#227);
#170=LINE('',#998,#228);
#171=LINE('',#1001,#229);
#172=LINE('',#1005,#230);
#173=LINE('',#1009,#231);
#174=LINE('',#1014,#232);
#175=LINE('',#1017,#233);
#176=LINE('',#1018,#234);
#177=LINE('',#1022,#235);
#178=LINE('',#1025,#236);
#179=LINE('',#1026,#237);
#180=LINE('',#1030,#238);
#181=LINE('',#1032,#239);
#182=VECTOR('',#684,10.);
#183=VECTOR('',#685,10.);
#184=VECTOR('',#686,10.);
#185=VECTOR('',#687,10.);
#186=VECTOR('',#688,10.);
#187=VECTOR('',#693,10.);
#188=VECTOR('',#696,10.);
#189=VECTOR('',#699,10.);
#190=VECTOR('',#702,10.);
#191=VECTOR('',#703,10.);
#192=VECTOR('',#704,10.);
#193=VECTOR('',#705,10.);
#194=VECTOR('',#710,10.);
#195=VECTOR('',#715,10.);
#196=VECTOR('',#718,10.);
#197=VECTOR('',#723,10.);
#198=VECTOR('',#726,10.);
#199=VECTOR('',#727,10.);
#200=VECTOR('',#728,10.);
#201=VECTOR('',#729,10.);
#202=VECTOR('',#734,10.);
#203=VECTOR('',#737,10.);
#204=VECTOR('',#738,10.);
#205=VECTOR('',#739,10.);
#206=VECTOR('',#748,10.);
#207=VECTOR('',#755,5.);
#208=VECTOR('',#762,10.);
#209=VECTOR('',#765,10.);
#210=VECTOR('',#768,10.);
#211=VECTOR('',#771,10.);
#212=VECTOR('',#774,10.);
#213=VECTOR('',#777,10.);
#214=VECTOR('',#780,10.);
#215=VECTOR('',#781,10.);
#216=VECTOR('',#784,10.);
#217=VECTOR('',#789,10.);
#218=VECTOR('',#790,10.);
#219=VECTOR('',#793,10.);
#220=VECTOR('',#798,10.);
#221=VECTOR('',#799,10.);
#222=VECTOR('',#804,10.);
#223=VECTOR('',#807,10.);
#224=VECTOR('',#812,10.);
#225=VECTOR('',#815,10.);
#226=VECTOR('',#818,10.);
#227=VECTOR('',#819,10.);
#228=VECTOR('',#820,10.);
#229=VECTOR('',#823,10.);
#230=VECTOR('',#826,10.);
#231=VECTOR('',#829,10.);
#232=VECTOR('',#836,10.);
#233=VECTOR('',#839,10.);
#234=VECTOR('',#840,10.);
#235=VECTOR('',#845,10.);
#236=VECTOR('',#848,10.);
#237=VECTOR('',#849,10.);
#238=VECTOR('',#854,10.);
#239=VECTOR('',#857,10.);
#240=VERTEX_POINT('',#862);
#241=VERTEX_POINT('',#863);
#242=VERTEX_POINT('',#865);
#243=VERTEX_POINT('',#867);
#244=VERTEX_POINT('',#869);
#245=VERTEX_POINT('',#873);
#246=VERTEX_POINT('',#877);
#247=VERTEX_POINT('',#878);
#248=VERTEX_POINT('',#883);
#249=VERTEX_POINT('',#884);
#250=VERTEX_POINT('',#886);
#251=VERTEX_POINT('',#891);
#252=VERTEX_POINT('',#898);
#253=VERTEX_POINT('',#900);
#254=VERTEX_POINT('',#902);
#255=VERTEX_POINT('',#906);
#256=VERTEX_POINT('',#907);
#257=VERTEX_POINT('',#909);
#258=VERTEX_POINT('',#914);
#259=VERTEX_POINT('',#918);
#260=VERTEX_POINT('',#919);
#261=VERTEX_POINT('',#926);
#262=VERTEX_POINT('',#932);
#263=VERTEX_POINT('',#936);
#264=VERTEX_POINT('',#937);
#265=VERTEX_POINT('',#939);
#266=VERTEX_POINT('',#941);
#267=VERTEX_POINT('',#943);
#268=VERTEX_POINT('',#945);
#269=VERTEX_POINT('',#947);
#270=VERTEX_POINT('',#949);
#271=VERTEX_POINT('',#953);
#272=VERTEX_POINT('',#955);
#273=VERTEX_POINT('',#959);
#274=VERTEX_POINT('',#963);
#275=VERTEX_POINT('',#967);
#276=VERTEX_POINT('',#971);
#277=VERTEX_POINT('',#975);
#278=VERTEX_POINT('',#979);
#279=VERTEX_POINT('',#985);
#280=VERTEX_POINT('',#986);
#281=VERTEX_POINT('',#988);
#282=VERTEX_POINT('',#990);
#283=VERTEX_POINT('',#994);
#284=VERTEX_POINT('',#996);
#285=VERTEX_POINT('',#1000);
#286=VERTEX_POINT('',#1002);
#287=VERTEX_POINT('',#1004);
#288=VERTEX_POINT('',#1006);
#289=VERTEX_POINT('',#1008);
#290=VERTEX_POINT('',#1012);
#291=VERTEX_POINT('',#1016);
#292=VERTEX_POINT('',#1020);
#293=VERTEX_POINT('',#1024);
#294=VERTEX_POINT('',#1028);
#295=EDGE_CURVE('',#240,#241,#124,.T.);
#296=EDGE_CURVE('',#240,#242,#125,.T.);
#297=EDGE_CURVE('',#242,#243,#126,.T.);
#298=EDGE_CURVE('',#243,#244,#127,.T.);
#299=EDGE_CURVE('',#241,#244,#128,.T.);
#300=EDGE_CURVE('',#243,#245,#28,.T.);
#301=EDGE_CURVE('',#245,#242,#129,.T.);
#302=EDGE_CURVE('',#246,#247,#130,.T.);
#303=EDGE_CURVE('',#245,#246,#29,.T.);
#304=EDGE_CURVE('',#247,#245,#131,.T.);
#305=EDGE_CURVE('',#248,#249,#132,.T.);
#306=EDGE_CURVE('',#248,#250,#133,.T.);
#307=EDGE_CURVE('',#250,#246,#134,.T.);
#308=EDGE_CURVE('',#249,#247,#135,.T.);
#309=EDGE_CURVE('',#246,#251,#30,.T.);
#310=EDGE_CURVE('',#251,#250,#136,.T.);
#311=EDGE_CURVE('',#251,#243,#31,.T.);
#312=EDGE_CURVE('',#244,#251,#137,.T.);
#313=EDGE_CURVE('',#252,#249,#138,.T.);
#314=EDGE_CURVE('',#253,#252,#32,.T.);
#315=EDGE_CURVE('',#254,#253,#33,.T.);
#316=EDGE_CURVE('',#248,#254,#139,.T.);
#317=EDGE_CURVE('',#255,#256,#140,.T.);
#318=EDGE_CURVE('',#255,#257,#141,.T.);
#319=EDGE_CURVE('',#257,#241,#142,.T.);
#320=EDGE_CURVE('',#256,#254,#143,.T.);
#321=EDGE_CURVE('',#258,#257,#34,.T.);
#322=EDGE_CURVE('',#240,#258,#144,.T.);
#323=EDGE_CURVE('',#259,#260,#145,.T.);
#324=EDGE_CURVE('',#259,#252,#146,.T.);
#325=EDGE_CURVE('',#260,#258,#147,.T.);
#326=EDGE_CURVE('',#260,#259,#35,.F.);
#327=EDGE_CURVE('',#261,#261,#36,.T.);
#328=EDGE_CURVE('',#261,#253,#148,.T.);
#329=EDGE_CURVE('',#256,#255,#37,.F.);
#330=EDGE_CURVE('',#246,#262,#149,.T.);
#331=EDGE_CURVE('',#262,#262,#38,.T.);
#332=EDGE_CURVE('',#263,#264,#39,.T.);
#333=EDGE_CURVE('',#265,#263,#150,.T.);
#334=EDGE_CURVE('',#266,#265,#40,.T.);
#335=EDGE_CURVE('',#267,#266,#151,.T.);
#336=EDGE_CURVE('',#268,#267,#41,.T.);
#337=EDGE_CURVE('',#269,#268,#152,.T.);
#338=EDGE_CURVE('',#270,#269,#42,.T.);
#339=EDGE_CURVE('',#264,#270,#153,.T.);
#340=EDGE_CURVE('',#271,#267,#154,.T.);
#341=EDGE_CURVE('',#272,#271,#43,.T.);
#342=EDGE_CURVE('',#268,#272,#155,.T.);
#343=EDGE_CURVE('',#266,#273,#156,.T.);
#344=EDGE_CURVE('',#271,#273,#157,.T.);
#345=EDGE_CURVE('',#274,#265,#158,.T.);
#346=EDGE_CURVE('',#273,#274,#44,.T.);
#347=EDGE_CURVE('',#263,#275,#159,.T.);
#348=EDGE_CURVE('',#274,#275,#160,.T.);
#349=EDGE_CURVE('',#276,#264,#161,.T.);
#350=EDGE_CURVE('',#275,#276,#45,.T.);
#351=EDGE_CURVE('',#277,#272,#162,.T.);
#352=EDGE_CURVE('',#277,#269,#163,.T.);
#353=EDGE_CURVE('',#278,#277,#46,.T.);
#354=EDGE_CURVE('',#270,#278,#164,.T.);
#355=EDGE_CURVE('',#276,#278,#165,.T.);
#356=EDGE_CURVE('',#279,#280,#47,.T.);
#357=EDGE_CURVE('',#280,#281,#166,.T.);
#358=EDGE_CURVE('',#281,#282,#48,.T.);
#359=EDGE_CURVE('',#282,#279,#167,.T.);
#360=EDGE_CURVE('',#282,#283,#168,.T.);
#361=EDGE_CURVE('',#284,#283,#169,.T.);
#362=EDGE_CURVE('',#279,#284,#170,.T.);
#363=EDGE_CURVE('',#285,#281,#171,.T.);
#364=EDGE_CURVE('',#286,#285,#49,.T.);
#365=EDGE_CURVE('',#287,#286,#172,.T.);
#366=EDGE_CURVE('',#288,#287,#50,.T.);
#367=EDGE_CURVE('',#289,#288,#173,.T.);
#368=EDGE_CURVE('',#283,#289,#51,.T.);
#369=EDGE_CURVE('',#290,#284,#52,.T.);
#370=EDGE_CURVE('',#289,#290,#174,.T.);
#371=EDGE_CURVE('',#291,#288,#175,.T.);
#372=EDGE_CURVE('',#290,#291,#176,.T.);
#373=EDGE_CURVE('',#292,#291,#53,.T.);
#374=EDGE_CURVE('',#287,#292,#177,.T.);
#375=EDGE_CURVE('',#293,#286,#178,.T.);
#376=EDGE_CURVE('',#292,#293,#179,.T.);
#377=EDGE_CURVE('',#294,#293,#54,.T.);
#378=EDGE_CURVE('',#285,#294,#180,.T.);
#379=EDGE_CURVE('',#294,#280,#181,.T.);
#380=ORIENTED_EDGE('',*,*,#295,.F.);
#381=ORIENTED_EDGE('',*,*,#296,.T.);
#382=ORIENTED_EDGE('',*,*,#297,.T.);
#383=ORIENTED_EDGE('',*,*,#298,.T.);
#384=ORIENTED_EDGE('',*,*,#299,.F.);
#385=ORIENTED_EDGE('',*,*,#300,.F.);
#386=ORIENTED_EDGE('',*,*,#297,.F.);
#387=ORIENTED_EDGE('',*,*,#301,.F.);
#388=ORIENTED_EDGE('',*,*,#302,.F.);
#389=ORIENTED_EDGE('',*,*,#303,.F.);
#390=ORIENTED_EDGE('',*,*,#304,.F.);
#391=ORIENTED_EDGE('',*,*,#305,.F.);
#392=ORIENTED_EDGE('',*,*,#306,.T.);
#393=ORIENTED_EDGE('',*,*,#307,.T.);
#394=ORIENTED_EDGE('',*,*,#302,.T.);
#395=ORIENTED_EDGE('',*,*,#308,.F.);
#396=ORIENTED_EDGE('',*,*,#309,.F.);
#397=ORIENTED_EDGE('',*,*,#307,.F.);
#398=ORIENTED_EDGE('',*,*,#310,.F.);
#399=ORIENTED_EDGE('',*,*,#311,.F.);
#400=ORIENTED_EDGE('',*,*,#312,.F.);
#401=ORIENTED_EDGE('',*,*,#298,.F.);
#402=ORIENTED_EDGE('',*,*,#305,.T.);
#403=ORIENTED_EDGE('',*,*,#313,.F.);
#404=ORIENTED_EDGE('',*,*,#314,.F.);
#405=ORIENTED_EDGE('',*,*,#315,.F.);
#406=ORIENTED_EDGE('',*,*,#316,.F.);
#407=ORIENTED_EDGE('',*,*,#317,.F.);
#408=ORIENTED_EDGE('',*,*,#318,.T.);
#409=ORIENTED_EDGE('',*,*,#319,.T.);
#410=ORIENTED_EDGE('',*,*,#299,.T.);
#411=ORIENTED_EDGE('',*,*,#312,.T.);
#412=ORIENTED_EDGE('',*,*,#310,.T.);
#413=ORIENTED_EDGE('',*,*,#306,.F.);
#414=ORIENTED_EDGE('',*,*,#316,.T.);
#415=ORIENTED_EDGE('',*,*,#320,.F.);
#416=ORIENTED_EDGE('',*,*,#295,.T.);
#417=ORIENTED_EDGE('',*,*,#319,.F.);
#418=ORIENTED_EDGE('',*,*,#321,.F.);
#419=ORIENTED_EDGE('',*,*,#322,.F.);
#420=ORIENTED_EDGE('',*,*,#323,.F.);
#421=ORIENTED_EDGE('',*,*,#324,.T.);
#422=ORIENTED_EDGE('',*,*,#313,.T.);
#423=ORIENTED_EDGE('',*,*,#308,.T.);
#424=ORIENTED_EDGE('',*,*,#304,.T.);
#425=ORIENTED_EDGE('',*,*,#301,.T.);
#426=ORIENTED_EDGE('',*,*,#296,.F.);
#427=ORIENTED_EDGE('',*,*,#322,.T.);
#428=ORIENTED_EDGE('',*,*,#325,.F.);
#429=ORIENTED_EDGE('',*,*,#323,.T.);
#430=ORIENTED_EDGE('',*,*,#326,.T.);
#431=ORIENTED_EDGE('',*,*,#327,.F.);
#432=ORIENTED_EDGE('',*,*,#328,.T.);
#433=ORIENTED_EDGE('',*,*,#314,.T.);
#434=ORIENTED_EDGE('',*,*,#324,.F.);
#435=ORIENTED_EDGE('',*,*,#326,.F.);
#436=ORIENTED_EDGE('',*,*,#325,.T.);
#437=ORIENTED_EDGE('',*,*,#321,.T.);
#438=ORIENTED_EDGE('',*,*,#318,.F.);
#439=ORIENTED_EDGE('',*,*,#329,.F.);
#440=ORIENTED_EDGE('',*,*,#320,.T.);
#441=ORIENTED_EDGE('',*,*,#315,.T.);
#442=ORIENTED_EDGE('',*,*,#328,.F.);
#443=ORIENTED_EDGE('',*,*,#317,.T.);
#444=ORIENTED_EDGE('',*,*,#329,.T.);
#445=ORIENTED_EDGE('',*,*,#300,.T.);
#446=ORIENTED_EDGE('',*,*,#303,.T.);
#447=ORIENTED_EDGE('',*,*,#330,.T.);
#448=ORIENTED_EDGE('',*,*,#331,.F.);
#449=ORIENTED_EDGE('',*,*,#330,.F.);
#450=ORIENTED_EDGE('',*,*,#309,.T.);
#451=ORIENTED_EDGE('',*,*,#311,.T.);
#452=ORIENTED_EDGE('',*,*,#332,.F.);
#453=ORIENTED_EDGE('',*,*,#333,.F.);
#454=ORIENTED_EDGE('',*,*,#334,.F.);
#455=ORIENTED_EDGE('',*,*,#335,.F.);
#456=ORIENTED_EDGE('',*,*,#336,.F.);
#457=ORIENTED_EDGE('',*,*,#337,.F.);
#458=ORIENTED_EDGE('',*,*,#338,.F.);
#459=ORIENTED_EDGE('',*,*,#339,.F.);
#460=ORIENTED_EDGE('',*,*,#331,.T.);
#461=ORIENTED_EDGE('',*,*,#336,.T.);
#462=ORIENTED_EDGE('',*,*,#340,.F.);
#463=ORIENTED_EDGE('',*,*,#341,.F.);
#464=ORIENTED_EDGE('',*,*,#342,.F.);
#465=ORIENTED_EDGE('',*,*,#335,.T.);
#466=ORIENTED_EDGE('',*,*,#343,.T.);
#467=ORIENTED_EDGE('',*,*,#344,.F.);
#468=ORIENTED_EDGE('',*,*,#340,.T.);
#469=ORIENTED_EDGE('',*,*,#334,.T.);
#470=ORIENTED_EDGE('',*,*,#345,.F.);
#471=ORIENTED_EDGE('',*,*,#346,.F.);
#472=ORIENTED_EDGE('',*,*,#343,.F.);
#473=ORIENTED_EDGE('',*,*,#333,.T.);
#474=ORIENTED_EDGE('',*,*,#347,.T.);
#475=ORIENTED_EDGE('',*,*,#348,.F.);
#476=ORIENTED_EDGE('',*,*,#345,.T.);
#477=ORIENTED_EDGE('',*,*,#332,.T.);
#478=ORIENTED_EDGE('',*,*,#349,.F.);
#479=ORIENTED_EDGE('',*,*,#350,.F.);
#480=ORIENTED_EDGE('',*,*,#347,.F.);
#481=ORIENTED_EDGE('',*,*,#337,.T.);
#482=ORIENTED_EDGE('',*,*,#342,.T.);
#483=ORIENTED_EDGE('',*,*,#351,.F.);
#484=ORIENTED_EDGE('',*,*,#352,.T.);
#485=ORIENTED_EDGE('',*,*,#338,.T.);
#486=ORIENTED_EDGE('',*,*,#352,.F.);
#487=ORIENTED_EDGE('',*,*,#353,.F.);
#488=ORIENTED_EDGE('',*,*,#354,.F.);
#489=ORIENTED_EDGE('',*,*,#339,.T.);
#490=ORIENTED_EDGE('',*,*,#354,.T.);
#491=ORIENTED_EDGE('',*,*,#355,.F.);
#492=ORIENTED_EDGE('',*,*,#349,.T.);
#493=ORIENTED_EDGE('',*,*,#356,.T.);
#494=ORIENTED_EDGE('',*,*,#357,.T.);
#495=ORIENTED_EDGE('',*,*,#358,.T.);
#496=ORIENTED_EDGE('',*,*,#359,.T.);
#497=ORIENTED_EDGE('',*,*,#359,.F.);
#498=ORIENTED_EDGE('',*,*,#360,.T.);
#499=ORIENTED_EDGE('',*,*,#361,.F.);
#500=ORIENTED_EDGE('',*,*,#362,.F.);
#501=ORIENTED_EDGE('',*,*,#358,.F.);
#502=ORIENTED_EDGE('',*,*,#363,.F.);
#503=ORIENTED_EDGE('',*,*,#364,.F.);
#504=ORIENTED_EDGE('',*,*,#365,.F.);
#505=ORIENTED_EDGE('',*,*,#366,.F.);
#506=ORIENTED_EDGE('',*,*,#367,.F.);
#507=ORIENTED_EDGE('',*,*,#368,.F.);
#508=ORIENTED_EDGE('',*,*,#360,.F.);
#509=ORIENTED_EDGE('',*,*,#327,.T.);
#510=ORIENTED_EDGE('',*,*,#369,.T.);
#511=ORIENTED_EDGE('',*,*,#361,.T.);
#512=ORIENTED_EDGE('',*,*,#368,.T.);
#513=ORIENTED_EDGE('',*,*,#370,.T.);
#514=ORIENTED_EDGE('',*,*,#370,.F.);
#515=ORIENTED_EDGE('',*,*,#367,.T.);
#516=ORIENTED_EDGE('',*,*,#371,.F.);
#517=ORIENTED_EDGE('',*,*,#372,.F.);
#518=ORIENTED_EDGE('',*,*,#373,.T.);
#519=ORIENTED_EDGE('',*,*,#371,.T.);
#520=ORIENTED_EDGE('',*,*,#366,.T.);
#521=ORIENTED_EDGE('',*,*,#374,.T.);
#522=ORIENTED_EDGE('',*,*,#374,.F.);
#523=ORIENTED_EDGE('',*,*,#365,.T.);
#524=ORIENTED_EDGE('',*,*,#375,.F.);
#525=ORIENTED_EDGE('',*,*,#376,.F.);
#526=ORIENTED_EDGE('',*,*,#377,.T.);
#527=ORIENTED_EDGE('',*,*,#375,.T.);
#528=ORIENTED_EDGE('',*,*,#364,.T.);
#529=ORIENTED_EDGE('',*,*,#378,.T.);
#530=ORIENTED_EDGE('',*,*,#357,.F.);
#531=ORIENTED_EDGE('',*,*,#379,.F.);
#532=ORIENTED_EDGE('',*,*,#378,.F.);
#533=ORIENTED_EDGE('',*,*,#363,.T.);
#534=ORIENTED_EDGE('',*,*,#356,.F.);
#535=ORIENTED_EDGE('',*,*,#362,.T.);
#536=ORIENTED_EDGE('',*,*,#369,.F.);
#537=ORIENTED_EDGE('',*,*,#372,.T.);
#538=ORIENTED_EDGE('',*,*,#373,.F.);
#539=ORIENTED_EDGE('',*,*,#376,.T.);
#540=ORIENTED_EDGE('',*,*,#377,.F.);
#541=ORIENTED_EDGE('',*,*,#379,.T.);
#542=ORIENTED_EDGE('',*,*,#350,.T.);
#543=ORIENTED_EDGE('',*,*,#355,.T.);
#544=ORIENTED_EDGE('',*,*,#353,.T.);
#545=ORIENTED_EDGE('',*,*,#351,.T.);
#546=ORIENTED_EDGE('',*,*,#341,.T.);
#547=ORIENTED_EDGE('',*,*,#344,.T.);
#548=ORIENTED_EDGE('',*,*,#346,.T.);
#549=ORIENTED_EDGE('',*,*,#348,.T.);
#550=PLANE('',#620);
#551=PLANE('',#621);
#552=PLANE('',#623);
#553=PLANE('',#625);
#554=PLANE('',#626);
#555=PLANE('',#628);
#556=PLANE('',#630);
#557=PLANE('',#633);
#558=PLANE('',#634);
#559=PLANE('',#636);
#560=PLANE('',#637);
#561=PLANE('',#642);
#562=PLANE('',#645);
#563=PLANE('',#652);
#564=PLANE('',#655);
#565=PLANE('',#658);
#566=PLANE('',#661);
#567=PLANE('',#665);
#568=PLANE('',#666);
#569=PLANE('',#672);
#570=PLANE('',#675);
#571=PLANE('',#678);
#572=PLANE('',#679);
#573=ADVANCED_FACE('',(#55),#550,.F.);
#574=ADVANCED_FACE('',(#56),#551,.T.);
#575=ADVANCED_FACE('',(#57),#552,.T.);
#576=ADVANCED_FACE('',(#58),#553,.F.);
#577=ADVANCED_FACE('',(#59),#554,.T.);
#578=ADVANCED_FACE('',(#60),#555,.T.);
#579=ADVANCED_FACE('',(#61),#556,.T.);
#580=ADVANCED_FACE('',(#62),#557,.F.);
#581=ADVANCED_FACE('',(#63),#558,.T.);
#582=ADVANCED_FACE('',(#64),#559,.F.);
#583=ADVANCED_FACE('',(#65),#560,.F.);
#584=ADVANCED_FACE('',(#66),#18,.F.);
#585=ADVANCED_FACE('',(#67),#561,.F.);
#586=ADVANCED_FACE('',(#68),#19,.F.);
#587=ADVANCED_FACE('',(#69,#15),#562,.T.);
#588=ADVANCED_FACE('',(#70),#20,.F.);
#589=ADVANCED_FACE('',(#71),#563,.F.);
#590=ADVANCED_FACE('',(#72),#21,.F.);
#591=ADVANCED_FACE('',(#73),#564,.F.);
#592=ADVANCED_FACE('',(#74),#22,.F.);
#593=ADVANCED_FACE('',(#75),#565,.F.);
#594=ADVANCED_FACE('',(#76),#23,.F.);
#595=ADVANCED_FACE('',(#77),#566,.F.);
#596=ADVANCED_FACE('',(#78),#24,.T.);
#597=ADVANCED_FACE('',(#79),#567,.T.);
#598=ADVANCED_FACE('',(#80,#16),#568,.F.);
#599=ADVANCED_FACE('',(#81),#25,.T.);
#600=ADVANCED_FACE('',(#82),#569,.T.);
#601=ADVANCED_FACE('',(#83),#26,.T.);
#602=ADVANCED_FACE('',(#84),#570,.T.);
#603=ADVANCED_FACE('',(#85),#27,.T.);
#604=ADVANCED_FACE('',(#86),#571,.T.);
#605=ADVANCED_FACE('',(#87,#17),#572,.T.);
#606=CLOSED_SHELL('',(#573,#574,#575,#576,#577,#578,#579,#580,#581,#582,
#583,#584,#585,#586,#587,#588,#589,#590,#591,#592,#593,#594,#595,#596,#597,
#598,#599,#600,#601,#602,#603,#604,#605));
#607=DERIVED_UNIT_ELEMENT(#609,1.);
#608=DERIVED_UNIT_ELEMENT(#1039,-3.);
#609=(
MASS_UNIT()
NAMED_UNIT(*)
SI_UNIT(.KILO.,.GRAM.)
);
#610=DERIVED_UNIT((#607,#608));
#611=MEASURE_REPRESENTATION_ITEM('density measure',
POSITIVE_RATIO_MEASURE(7850.),#610);
#612=PROPERTY_DEFINITION_REPRESENTATION(#617,#614);
#613=PROPERTY_DEFINITION_REPRESENTATION(#618,#615);
#614=REPRESENTATION('material name',(#616),#1036);
#615=REPRESENTATION('density',(#611),#1036);
#616=DESCRIPTIVE_REPRESENTATION_ITEM('Steel','Steel');
#617=PROPERTY_DEFINITION('material property','material name',#1046);
#618=PROPERTY_DEFINITION('material property','density of part',#1046);
#619=AXIS2_PLACEMENT_3D('',#860,#680,#681);
#620=AXIS2_PLACEMENT_3D('',#861,#682,#683);
#621=AXIS2_PLACEMENT_3D('',#872,#689,#690);
#622=AXIS2_PLACEMENT_3D('',#874,#691,#692);
#623=AXIS2_PLACEMENT_3D('',#876,#694,#695);
#624=AXIS2_PLACEMENT_3D('',#880,#697,#698);
#625=AXIS2_PLACEMENT_3D('',#882,#700,#701);
#626=AXIS2_PLACEMENT_3D('',#890,#706,#707);
#627=AXIS2_PLACEMENT_3D('',#892,#708,#709);
#628=AXIS2_PLACEMENT_3D('',#894,#711,#712);
#629=AXIS2_PLACEMENT_3D('',#895,#713,#714);
#630=AXIS2_PLACEMENT_3D('',#897,#716,#717);
#631=AXIS2_PLACEMENT_3D('',#901,#719,#720);
#632=AXIS2_PLACEMENT_3D('',#903,#721,#722);
#633=AXIS2_PLACEMENT_3D('',#905,#724,#725);
#634=AXIS2_PLACEMENT_3D('',#913,#730,#731);
#635=AXIS2_PLACEMENT_3D('',#915,#732,#733);
#636=AXIS2_PLACEMENT_3D('',#917,#735,#736);
#637=AXIS2_PLACEMENT_3D('',#923,#740,#741);
#638=AXIS2_PLACEMENT_3D('',#924,#742,#743);
#639=AXIS2_PLACEMENT_3D('',#925,#744,#745);
#640=AXIS2_PLACEMENT_3D('',#927,#746,#747);
#641=AXIS2_PLACEMENT_3D('',#929,#749,#750);
#642=AXIS2_PLACEMENT_3D('',#930,#751,#752);
#643=AXIS2_PLACEMENT_3D('',#931,#753,#754);
#644=AXIS2_PLACEMENT_3D('',#934,#756,#757);
#645=AXIS2_PLACEMENT_3D('',#935,#758,#759);
#646=AXIS2_PLACEMENT_3D('',#938,#760,#761);
#647=AXIS2_PLACEMENT_3D('',#942,#763,#764);
#648=AXIS2_PLACEMENT_3D('',#946,#766,#767);
#649=AXIS2_PLACEMENT_3D('',#950,#769,#770);
#650=AXIS2_PLACEMENT_3D('',#952,#772,#773);
#651=AXIS2_PLACEMENT_3D('',#956,#775,#776);
#652=AXIS2_PLACEMENT_3D('',#958,#778,#779);
#653=AXIS2_PLACEMENT_3D('',#962,#782,#783);
#654=AXIS2_PLACEMENT_3D('',#965,#785,#786);
#655=AXIS2_PLACEMENT_3D('',#966,#787,#788);
#656=AXIS2_PLACEMENT_3D('',#970,#791,#792);
#657=AXIS2_PLACEMENT_3D('',#973,#794,#795);
#658=AXIS2_PLACEMENT_3D('',#974,#796,#797);
#659=AXIS2_PLACEMENT_3D('',#978,#800,#801);
#660=AXIS2_PLACEMENT_3D('',#980,#802,#803);
#661=AXIS2_PLACEMENT_3D('',#982,#805,#806);
#662=AXIS2_PLACEMENT_3D('',#984,#808,#809);
#663=AXIS2_PLACEMENT_3D('',#987,#810,#811);
#664=AXIS2_PLACEMENT_3D('',#991,#813,#814);
#665=AXIS2_PLACEMENT_3D('',#993,#816,#817);
#666=AXIS2_PLACEMENT_3D('',#999,#821,#822);
#667=AXIS2_PLACEMENT_3D('',#1003,#824,#825);
#668=AXIS2_PLACEMENT_3D('',#1007,#827,#828);
#669=AXIS2_PLACEMENT_3D('',#1010,#830,#831);
#670=AXIS2_PLACEMENT_3D('',#1011,#832,#833);
#671=AXIS2_PLACEMENT_3D('',#1013,#834,#835);
#672=AXIS2_PLACEMENT_3D('',#1015,#837,#838);
#673=AXIS2_PLACEMENT_3D('',#1019,#841,#842);
#674=AXIS2_PLACEMENT_3D('',#1021,#843,#844);
#675=AXIS2_PLACEMENT_3D('',#1023,#846,#847);
#676=AXIS2_PLACEMENT_3D('',#1027,#850,#851);
#677=AXIS2_PLACEMENT_3D('',#1029,#852,#853);
#678=AXIS2_PLACEMENT_3D('',#1031,#855,#856);
#679=AXIS2_PLACEMENT_3D('',#1033,#858,#859);
#680=DIRECTION('axis',(0.,0.,1.));
#681=DIRECTION('refdir',(1.,0.,0.));
#682=DIRECTION('center_axis',(1.,4.44089209850063E-16,0.));
#683=DIRECTION('ref_axis',(-4.44089209850063E-16,1.,0.));
#684=DIRECTION('',(-4.44089209850063E-16,1.,0.));
#685=DIRECTION('',(0.,0.,1.));
#686=DIRECTION('',(-4.44089209850063E-16,1.,0.));
#687=DIRECTION('',(-4.44089209850063E-16,1.,0.));
#688=DIRECTION('',(0.,0.,1.));
#689=DIRECTION('center_axis',(0.,0.,-1.));
#690=DIRECTION('ref_axis',(-1.,0.,0.));
#691=DIRECTION('center_axis',(0.,0.,-1.));
#692=DIRECTION('ref_axis',(1.,0.,0.));
#693=DIRECTION('',(1.,0.,0.));
#694=DIRECTION('center_axis',(0.,0.,-1.));
#695=DIRECTION('ref_axis',(-1.,0.,0.));
#696=DIRECTION('',(0.,-1.,0.));
#697=DIRECTION('center_axis',(0.,0.,-1.));
#698=DIRECTION('ref_axis',(1.,0.,0.));
#699=DIRECTION('',(1.,0.,0.));
#700=DIRECTION('center_axis',(-1.,0.,0.));
#701=DIRECTION('ref_axis',(0.,-1.,0.));
#702=DIRECTION('',(0.,-1.,0.));
#703=DIRECTION('',(0.,0.,1.));
#704=DIRECTION('',(0.,-1.,0.));
#705=DIRECTION('',(0.,0.,1.));
#706=DIRECTION('center_axis',(0.,0.,-1.));
#707=DIRECTION('ref_axis',(-1.,0.,0.));
#708=DIRECTION('center_axis',(0.,0.,-1.));
#709=DIRECTION('ref_axis',(1.,0.,0.));
#710=DIRECTION('',(-1.,0.,0.));
#711=DIRECTION('center_axis',(0.,0.,-1.));
#712=DIRECTION('ref_axis',(-1.,0.,0.));
#713=DIRECTION('center_axis',(0.,0.,-1.));
#714=DIRECTION('ref_axis',(1.,0.,0.));
#715=DIRECTION('',(-1.,0.,0.));
#716=DIRECTION('center_axis',(0.,0.,-1.));
#717=DIRECTION('ref_axis',(-1.,0.,0.));
#718=DIRECTION('',(1.,0.,0.));
#719=DIRECTION('center_axis',(0.,0.,1.));
#720=DIRECTION('ref_axis',(1.,0.,0.));
#721=DIRECTION('center_axis',(0.,0.,1.));
#722=DIRECTION('ref_axis',(1.,0.,0.));
#723=DIRECTION('',(-1.,0.,0.));
#724=DIRECTION('center_axis',(0.,1.,0.));
#725=DIRECTION('ref_axis',(-1.,0.,0.));
#726=DIRECTION('',(-1.,0.,0.));
#727=DIRECTION('',(0.,0.,1.));
#728=DIRECTION('',(-1.,0.,0.));
#729=DIRECTION('',(0.,0.,1.));
#730=DIRECTION('center_axis',(0.,0.,-1.));
#731=DIRECTION('ref_axis',(-1.,0.,0.));
#732=DIRECTION('center_axis',(0.,0.,1.));
#733=DIRECTION('ref_axis',(1.,0.,0.));
#734=DIRECTION('',(1.,0.,0.));
#735=DIRECTION('center_axis',(0.,-1.,0.));
#736=DIRECTION('ref_axis',(1.,0.,0.));
#737=DIRECTION('',(1.,0.,0.));
#738=DIRECTION('',(0.,0.,1.));
#739=DIRECTION('',(0.,0.,1.));
#740=DIRECTION('center_axis',(0.,0.,1.));
#741=DIRECTION('ref_axis',(1.,0.,0.));
#742=DIRECTION('center_axis',(0.,0.,1.));
#743=DIRECTION('ref_axis',(1.,0.,0.));
#744=DIRECTION('center_axis',(0.,0.,1.));
#745=DIRECTION('ref_axis',(1.,0.,0.));
#746=DIRECTION('center_axis',(0.,0.,1.));
#747=DIRECTION('ref_axis',(1.,0.,0.));
#748=DIRECTION('',(0.,0.,1.));
#749=DIRECTION('center_axis',(0.,0.,1.));
#750=DIRECTION('ref_axis',(1.,0.,0.));
#751=DIRECTION('center_axis',(0.,0.,1.));
#752=DIRECTION('ref_axis',(1.,0.,0.));
#753=DIRECTION('center_axis',(0.,0.,1.));
#754=DIRECTION('ref_axis',(1.,0.,0.));
#755=DIRECTION('',(0.,0.,1.));
#756=DIRECTION('center_axis',(0.,0.,-1.));
#757=DIRECTION('ref_axis',(1.,0.,0.));
#758=DIRECTION('center_axis',(0.,0.,1.));
#759=DIRECTION('ref_axis',(1.,0.,0.));
#760=DIRECTION('center_axis',(0.,0.,-1.));
#761=DIRECTION('ref_axis',(0.707106781186547,-0.707106781186548,0.));
#762=DIRECTION('',(-1.77635683940025E-15,-1.,0.));
#763=DIRECTION('center_axis',(0.,0.,-1.));
#764=DIRECTION('ref_axis',(0.707106781186548,0.707106781186547,0.));
#765=DIRECTION('',(1.,1.48029736616688E-15,0.));
#766=DIRECTION('center_axis',(0.,0.,-1.));
#767=DIRECTION('ref_axis',(-0.707106781186549,0.707106781186546,0.));
#768=DIRECTION('',(-3.15544362088405E-31,1.,0.));
#769=DIRECTION('center_axis',(0.,0.,-1.));
#770=DIRECTION('ref_axis',(-0.707106781186548,-0.707106781186548,0.));
#771=DIRECTION('',(-1.,0.,0.));
#772=DIRECTION('center_axis',(0.,0.,1.));
#773=DIRECTION('ref_axis',(-0.707106781186549,0.707106781186546,0.));
#774=DIRECTION('',(0.,0.,-1.));
#775=DIRECTION('center_axis',(0.,0.,-1.));
#776=DIRECTION('ref_axis',(-0.707106781186549,0.707106781186546,0.));
#777=DIRECTION('',(0.,0.,1.));
#778=DIRECTION('center_axis',(-1.48029736616688E-15,1.,0.));
#779=DIRECTION('ref_axis',(-1.,-1.48029736616688E-15,0.));
#780=DIRECTION('',(0.,0.,1.));
#781=DIRECTION('',(1.,1.48029736616688E-15,0.));
#782=DIRECTION('center_axis',(0.,0.,1.));
#783=DIRECTION('ref_axis',(0.707106781186548,0.707106781186547,0.));
#784=DIRECTION('',(0.,0.,-1.));
#785=DIRECTION('center_axis',(0.,0.,-1.));
#786=DIRECTION('ref_axis',(0.707106781186548,0.707106781186547,0.));
#787=DIRECTION('center_axis',(1.,-1.77635683940025E-15,0.));
#788=DIRECTION('ref_axis',(1.77635683940025E-15,1.,0.));
#789=DIRECTION('',(0.,0.,1.));
#790=DIRECTION('',(-1.77635683940025E-15,-1.,0.));
#791=DIRECTION('center_axis',(0.,0.,1.));
#792=DIRECTION('ref_axis',(0.707106781186547,-0.707106781186548,0.));
#793=DIRECTION('',(0.,0.,-1.));
#794=DIRECTION('center_axis',(0.,0.,-1.));
#795=DIRECTION('ref_axis',(0.707106781186547,-0.707106781186548,0.));
#796=DIRECTION('center_axis',(-1.,-3.15544362088405E-31,0.));
#797=DIRECTION('ref_axis',(3.15544362088405E-31,-1.,0.));
#798=DIRECTION('',(-3.15544362088405E-31,1.,0.));
#799=DIRECTION('',(0.,0.,-1.));
#800=DIRECTION('center_axis',(0.,0.,1.));
#801=DIRECTION('ref_axis',(-0.707106781186548,-0.707106781186548,0.));
#802=DIRECTION('center_axis',(0.,0.,-1.));
#803=DIRECTION('ref_axis',(-0.707106781186548,-0.707106781186548,0.));
#804=DIRECTION('',(0.,0.,1.));
#805=DIRECTION('center_axis',(0.,-1.,0.));
#806=DIRECTION('ref_axis',(1.,0.,0.));
#807=DIRECTION('',(-1.,0.,0.));
#808=DIRECTION('center_axis',(0.,0.,1.));
#809=DIRECTION('ref_axis',(0.707106781186547,-0.707106781186548,0.));
#810=DIRECTION('center_axis',(0.,0.,-1.));
#811=DIRECTION('ref_axis',(0.707106781186547,-0.707106781186548,0.));
#812=DIRECTION('',(0.,0.,-1.));
#813=DIRECTION('center_axis',(0.,0.,1.));
#814=DIRECTION('ref_axis',(0.707106781186547,-0.707106781186548,0.));
#815=DIRECTION('',(0.,0.,1.));
#816=DIRECTION('center_axis',(1.,-1.77635683940025E-15,0.));
#817=DIRECTION('ref_axis',(1.77635683940025E-15,1.,0.));
#818=DIRECTION('',(1.77635683940025E-15,1.,0.));
#819=DIRECTION('',(0.,0.,-1.));
#820=DIRECTION('',(1.77635683940025E-15,1.,0.));
#821=DIRECTION('center_axis',(0.,0.,1.));
#822=DIRECTION('ref_axis',(1.,0.,0.));
#823=DIRECTION('',(1.,0.,0.));
#824=DIRECTION('center_axis',(0.,0.,1.));
#825=DIRECTION('ref_axis',(-0.707106781186547,-0.707106781186548,0.));
#826=DIRECTION('',(3.15544362088405E-31,-1.,0.));
#827=DIRECTION('center_axis',(0.,0.,1.));
#828=DIRECTION('ref_axis',(-0.707106781186549,0.707106781186546,0.));
#829=DIRECTION('',(-1.,-1.48029736616688E-15,0.));
#830=DIRECTION('center_axis',(0.,0.,1.));
#831=DIRECTION('ref_axis',(0.707106781186548,0.707106781186547,0.));
#832=DIRECTION('center_axis',(0.,0.,1.));
#833=DIRECTION('ref_axis',(0.707106781186548,0.707106781186547,0.));
#834=DIRECTION('center_axis',(0.,0.,-1.));
#835=DIRECTION('ref_axis',(0.707106781186548,0.707106781186547,0.));
#836=DIRECTION('',(0.,0.,1.));
#837=DIRECTION('center_axis',(-1.48029736616688E-15,1.,0.));
#838=DIRECTION('ref_axis',(-1.,-1.48029736616688E-15,0.));
#839=DIRECTION('',(0.,0.,-1.));
#840=DIRECTION('',(-1.,-1.48029736616688E-15,0.));
#841=DIRECTION('center_axis',(0.,0.,1.));
#842=DIRECTION('ref_axis',(-0.707106781186549,0.707106781186546,0.));
#843=DIRECTION('center_axis',(0.,0.,-1.));
#844=DIRECTION('ref_axis',(-0.707106781186549,0.707106781186546,0.));
#845=DIRECTION('',(0.,0.,1.));
#846=DIRECTION('center_axis',(-1.,-3.15544362088405E-31,0.));
#847=DIRECTION('ref_axis',(3.15544362088405E-31,-1.,0.));
#848=DIRECTION('',(0.,0.,-1.));
#849=DIRECTION('',(3.15544362088405E-31,-1.,0.));
#850=DIRECTION('center_axis',(0.,0.,1.));
#851=DIRECTION('ref_axis',(-0.707106781186547,-0.707106781186548,0.));
#852=DIRECTION('center_axis',(0.,0.,-1.));
#853=DIRECTION('ref_axis',(-0.707106781186547,-0.707106781186548,0.));
#854=DIRECTION('',(0.,0.,1.));
#855=DIRECTION('center_axis',(0.,-1.,0.));
#856=DIRECTION('ref_axis',(1.,0.,0.));
#857=DIRECTION('',(1.,0.,0.));
#858=DIRECTION('center_axis',(0.,0.,1.));
#859=DIRECTION('ref_axis',(1.,0.,0.));
#860=CARTESIAN_POINT('',(0.,0.,0.));
#861=CARTESIAN_POINT('Origin',(34.9999999999999,20.0000000000001,5.2));
#862=CARTESIAN_POINT('',(34.9999999999999,20.0000000000001,5.2));
#863=CARTESIAN_POINT('',(34.9999999999999,30.0000000000001,5.2));
#864=CARTESIAN_POINT('',(34.9999999999999,22.5000000000001,5.2));
#865=CARTESIAN_POINT('',(34.9999999999999,20.0000000000001,5.4));
#866=CARTESIAN_POINT('',(34.9999999999999,20.0000000000001,5.2));
#867=CARTESIAN_POINT('',(34.9999999999999,24.9999999847338,5.4));
#868=CARTESIAN_POINT('',(34.9999999999999,22.5000000000001,5.4));
#869=CARTESIAN_POINT('',(34.9999999999999,30.0000000000001,5.4));
#870=CARTESIAN_POINT('',(34.9999999999999,24.9999999923669,5.4));
#871=CARTESIAN_POINT('',(34.9999999999999,30.0000000000001,5.2));
#872=CARTESIAN_POINT('Origin',(29.9999999999999,25.0000000000001,5.4));
#873=CARTESIAN_POINT('',(29.9999999999999,20.0000000000001,5.4));
#874=CARTESIAN_POINT('Origin',(29.9999999999999,25.0000000000001,5.4));
#875=CARTESIAN_POINT('',(29.9999999999999,20.0000000000001,5.4));
#876=CARTESIAN_POINT('Origin',(29.9999999999999,25.0000000000001,5.4));
#877=CARTESIAN_POINT('',(24.9999999999999,25.0000000000001,5.4));
#878=CARTESIAN_POINT('',(24.9999999999999,20.0000000000001,5.4));
#879=CARTESIAN_POINT('',(24.9999999999999,25.0000000000001,5.4));
#880=CARTESIAN_POINT('Origin',(29.9999999999999,25.0000000000001,5.4));
#881=CARTESIAN_POINT('',(27.4999999999999,20.0000000000001,5.4));
#882=CARTESIAN_POINT('Origin',(24.9999999999999,30.0000000000001,5.2));
#883=CARTESIAN_POINT('',(24.9999999999999,30.0000000000001,5.2));
#884=CARTESIAN_POINT('',(24.9999999999999,20.0000000000001,5.2));
#885=CARTESIAN_POINT('',(24.9999999999999,25.0000000000001,5.2));
#886=CARTESIAN_POINT('',(24.9999999999999,30.0000000000001,5.4));
#887=CARTESIAN_POINT('',(24.9999999999999,30.0000000000001,5.2));
#888=CARTESIAN_POINT('',(24.9999999999999,27.5000000000001,5.4));
#889=CARTESIAN_POINT('',(24.9999999999999,20.0000000000001,5.2));
#890=CARTESIAN_POINT('Origin',(29.9999999999999,25.0000000000001,5.4));
#891=CARTESIAN_POINT('',(29.9999999999999,30.0000000000001,5.4));
#892=CARTESIAN_POINT('Origin',(29.9999999999999,25.0000000000001,5.4));
#893=CARTESIAN_POINT('',(29.9999999999999,30.0000000000001,5.4));
#894=CARTESIAN_POINT('Origin',(29.9999999999999,25.0000000000001,5.4));
#895=CARTESIAN_POINT('Origin',(29.9999999999999,25.0000000000001,5.4));
#896=CARTESIAN_POINT('',(32.4999999999999,30.0000000000001,5.4));
#897=CARTESIAN_POINT('Origin',(29.9999999999999,25.0000000000001,5.2));
#898=CARTESIAN_POINT('',(21.3397459621555,20.0000000000001,5.2));
#899=CARTESIAN_POINT('',(25.6698729810777,20.0000000000001,5.2));
#900=CARTESIAN_POINT('',(19.9999999999999,25.0000000000001,5.2));
#901=CARTESIAN_POINT('Origin',(29.9999999999999,25.0000000000001,5.2));
#902=CARTESIAN_POINT('',(21.3397459621555,30.0000000000001,5.2));
#903=CARTESIAN_POINT('Origin',(29.9999999999999,25.0000000000001,5.2));
#904=CARTESIAN_POINT('',(29.9999999999999,30.0000000000001,5.2));
#905=CARTESIAN_POINT('Origin',(38.6602540378443,30.0000000000001,5.));
#906=CARTESIAN_POINT('',(38.6602540378443,30.0000000000001,5.));
#907=CARTESIAN_POINT('',(21.3397459621555,30.0000000000001,5.));
#908=CARTESIAN_POINT('',(34.3301270189221,30.0000000000001,5.));
#909=CARTESIAN_POINT('',(38.6602540378443,30.0000000000001,5.2));
#910=CARTESIAN_POINT('',(38.6602540378443,30.0000000000001,5.));
#911=CARTESIAN_POINT('',(34.3301270189221,30.0000000000001,5.2));
#912=CARTESIAN_POINT('',(21.3397459621555,30.0000000000001,5.));
#913=CARTESIAN_POINT('Origin',(29.9999999999999,25.0000000000001,5.2));
#914=CARTESIAN_POINT('',(38.6602540378443,20.0000000000001,5.2));
#915=CARTESIAN_POINT('Origin',(29.9999999999999,25.0000000000001,5.2));
#916=CARTESIAN_POINT('',(29.9999999999999,20.0000000000001,5.2));
#917=CARTESIAN_POINT('Origin',(21.3397459621555,20.0000000000001,5.));
#918=CARTESIAN_POINT('',(21.3397459621555,20.0000000000001,5.));
#919=CARTESIAN_POINT('',(38.6602540378443,20.0000000000001,5.));
#920=CARTESIAN_POINT('',(25.6698729810777,20.0000000000001,5.));
#921=CARTESIAN_POINT('',(21.3397459621555,20.0000000000001,5.));
#922=CARTESIAN_POINT('',(38.6602540378443,20.0000000000001,5.));
#923=CARTESIAN_POINT('Origin',(29.9999999999999,25.0000000000001,5.));
#924=CARTESIAN_POINT('Origin',(29.9999999999999,25.0000000000001,5.));
#925=CARTESIAN_POINT('Origin',(29.9999999999999,25.0000000000001,0.));
#926=CARTESIAN_POINT('',(19.9999999999999,25.0000000000001,0.));
#927=CARTESIAN_POINT('Origin',(29.9999999999999,25.0000000000001,0.));
#928=CARTESIAN_POINT('',(19.9999999999999,25.0000000000001,0.));
#929=CARTESIAN_POINT('Origin',(29.9999999999999,25.0000000000001,5.));
#930=CARTESIAN_POINT('Origin',(29.9999999999999,25.0000000000001,5.));
#931=CARTESIAN_POINT('Origin',(29.9999999999999,25.0000000000001,0.));
#932=CARTESIAN_POINT('',(24.9999999999999,25.0000000000001,8.));
#933=CARTESIAN_POINT('',(24.9999999999999,25.0000000000001,0.));
#934=CARTESIAN_POINT('Origin',(29.9999999999999,25.0000000000001,8.));
#935=CARTESIAN_POINT('Origin',(30.,25.,8.));
#936=CARTESIAN_POINT('',(57.8999999999999,7.99999999999999,8.));
#937=CARTESIAN_POINT('',(51.9999999999999,2.1,8.));
#938=CARTESIAN_POINT('Origin',(51.9999999999999,8.,8.));
#939=CARTESIAN_POINT('',(57.9,42.,8.));
#940=CARTESIAN_POINT('',(57.8999999999999,12.5,8.));
#941=CARTESIAN_POINT('',(52.,47.9,8.));
#942=CARTESIAN_POINT('Origin',(52.,42.,8.));
#943=CARTESIAN_POINT('',(7.99999999999999,47.8999999999999,8.));
#944=CARTESIAN_POINT('',(45.,47.9,8.));
#945=CARTESIAN_POINT('',(2.1,41.9999999999999,8.));
#946=CARTESIAN_POINT('Origin',(8.,41.9999999999999,8.));
#947=CARTESIAN_POINT('',(2.1,8.,8.));
#948=CARTESIAN_POINT('',(2.1,37.5,8.));
#949=CARTESIAN_POINT('',(8.,2.1,8.));
#950=CARTESIAN_POINT('Origin',(8.,8.,8.));
#951=CARTESIAN_POINT('',(15.,2.1,8.));
#952=CARTESIAN_POINT('Origin',(8.,41.9999999999999,0.));
#953=CARTESIAN_POINT('',(7.99999999999999,47.8999999999999,30.));
#954=CARTESIAN_POINT('',(7.99999999999999,47.8999999999999,0.));
#955=CARTESIAN_POINT('',(2.1,41.9999999999999,30.));
#956=CARTESIAN_POINT('Origin',(8.,41.9999999999999,30.));
#957=CARTESIAN_POINT('',(2.1,41.9999999999999,0.));
#958=CARTESIAN_POINT('Origin',(60.,47.9,0.));
#959=CARTESIAN_POINT('',(52.,47.9,30.));
#960=CARTESIAN_POINT('',(52.,47.9,0.));
#961=CARTESIAN_POINT('',(45.,47.9,30.));
#962=CARTESIAN_POINT('Origin',(52.,42.,0.));
#963=CARTESIAN_POINT('',(57.9,42.,30.));
#964=CARTESIAN_POINT('',(57.9,42.,0.));
#965=CARTESIAN_POINT('Origin',(52.,42.,30.));
#966=CARTESIAN_POINT('Origin',(57.8999999999999,3.73034936274053E-15,0.));
#967=CARTESIAN_POINT('',(57.8999999999999,7.99999999999999,30.));
#968=CARTESIAN_POINT('',(57.8999999999999,7.99999999999999,0.));
#969=CARTESIAN_POINT('',(57.8999999999999,12.5,30.));
#970=CARTESIAN_POINT('Origin',(51.9999999999999,8.,0.));
#971=CARTESIAN_POINT('',(51.9999999999999,2.1,30.));
#972=CARTESIAN_POINT('',(51.9999999999999,2.1,0.));
#973=CARTESIAN_POINT('Origin',(51.9999999999999,8.,30.));
#974=CARTESIAN_POINT('Origin',(2.1,49.9999999999999,0.));
#975=CARTESIAN_POINT('',(2.1,8.,30.));
#976=CARTESIAN_POINT('',(2.1,37.5,30.));
#977=CARTESIAN_POINT('',(2.1,8.,0.));
#978=CARTESIAN_POINT('Origin',(8.,8.,0.));
#979=CARTESIAN_POINT('',(8.,2.1,30.));
#980=CARTESIAN_POINT('Origin',(8.,8.,30.));
#981=CARTESIAN_POINT('',(8.,2.1,0.));
#982=CARTESIAN_POINT('Origin',(0.,2.1,0.));
#983=CARTESIAN_POINT('',(15.,2.1,30.));
#984=CARTESIAN_POINT('Origin',(51.9999999999999,8.,0.));
#985=CARTESIAN_POINT('',(59.9999999999999,7.99999999999999,30.));
#986=CARTESIAN_POINT('',(51.9999999999999,0.,30.));
#987=CARTESIAN_POINT('Origin',(51.9999999999999,8.,30.));
#988=CARTESIAN_POINT('',(51.9999999999999,0.,0.));
#989=CARTESIAN_POINT('',(51.9999999999999,0.,0.));
#990=CARTESIAN_POINT('',(59.9999999999999,7.99999999999999,0.));
#991=CARTESIAN_POINT('Origin',(51.9999999999999,8.,0.));
#992=CARTESIAN_POINT('',(59.9999999999999,7.99999999999999,0.));
#993=CARTESIAN_POINT('Origin',(59.9999999999999,0.,0.));
#994=CARTESIAN_POINT('',(60.,42.,0.));
#995=CARTESIAN_POINT('',(59.9999999999999,0.,0.));
#996=CARTESIAN_POINT('',(60.,42.,30.));
#997=CARTESIAN_POINT('',(60.,42.,0.));
#998=CARTESIAN_POINT('',(59.9999999999999,0.,30.));
#999=CARTESIAN_POINT('Origin',(30.,25.,0.));
#1000=CARTESIAN_POINT('',(8.,0.,0.));
#1001=CARTESIAN_POINT('',(0.,0.,0.));
#1002=CARTESIAN_POINT('',(-2.52435489670725E-30,8.00000000000001,0.));
#1003=CARTESIAN_POINT('Origin',(8.,8.,0.));
#1004=CARTESIAN_POINT('',(-1.3252863207713E-29,41.9999999999999,0.));
#1005=CARTESIAN_POINT('',(-1.57772181044202E-29,49.9999999999999,0.));
#1006=CARTESIAN_POINT('',(7.99999999999999,49.9999999999999,0.));
#1007=CARTESIAN_POINT('Origin',(8.,41.9999999999999,0.));
#1008=CARTESIAN_POINT('',(52.,50.,0.));
#1009=CARTESIAN_POINT('',(60.,50.,0.));
#1010=CARTESIAN_POINT('Origin',(52.,42.,0.));
#1011=CARTESIAN_POINT('Origin',(52.,42.,0.));
#1012=CARTESIAN_POINT('',(52.,50.,30.));
#1013=CARTESIAN_POINT('Origin',(52.,42.,30.));
#1014=CARTESIAN_POINT('',(52.,50.,0.));
#1015=CARTESIAN_POINT('Origin',(60.,50.,0.));
#1016=CARTESIAN_POINT('',(7.99999999999999,49.9999999999999,30.));
#1017=CARTESIAN_POINT('',(7.99999999999999,49.9999999999999,0.));
#1018=CARTESIAN_POINT('',(60.,50.,30.));
#1019=CARTESIAN_POINT('Origin',(8.,41.9999999999999,0.));
#1020=CARTESIAN_POINT('',(-1.3252863207713E-29,41.9999999999999,30.));
#1021=CARTESIAN_POINT('Origin',(8.,41.9999999999999,30.));
#1022=CARTESIAN_POINT('',(0.,41.9999999999999,0.));
#1023=CARTESIAN_POINT('Origin',(-1.57772181044202E-29,49.9999999999999,
0.));
#1024=CARTESIAN_POINT('',(-2.52435489670725E-30,8.00000000000001,30.));
#1025=CARTESIAN_POINT('',(0.,8.,0.));
#1026=CARTESIAN_POINT('',(-1.57772181044202E-29,49.9999999999999,30.));
#1027=CARTESIAN_POINT('Origin',(8.,8.,0.));
#1028=CARTESIAN_POINT('',(8.,0.,30.));
#1029=CARTESIAN_POINT('Origin',(8.,8.,30.));
#1030=CARTESIAN_POINT('',(8.,0.,0.));
#1031=CARTESIAN_POINT('Origin',(0.,0.,0.));
#1032=CARTESIAN_POINT('',(0.,0.,30.));
#1033=CARTESIAN_POINT('Origin',(30.,25.,30.));
#1034=UNCERTAINTY_MEASURE_WITH_UNIT(LENGTH_MEASURE(0.01),#1038,
'DISTANCE_ACCURACY_VALUE',
'Maximum model space distance between geometric entities at asserted c
onnectivities');
#1035=UNCERTAINTY_MEASURE_WITH_UNIT(LENGTH_MEASURE(0.01),#1038,
'DISTANCE_ACCURACY_VALUE',
'Maximum model space distance between geometric entities at asserted c
onnectivities');
#1036=(
GEOMETRIC_REPRESENTATION_CONTEXT(3)
GLOBAL_UNCERTAINTY_ASSIGNED_CONTEXT((#1034))
GLOBAL_UNIT_ASSIGNED_CONTEXT((#1038,#1040,#1041))
REPRESENTATION_CONTEXT('','3D')
);
#1037=(
GEOMETRIC_REPRESENTATION_CONTEXT(3)
GLOBAL_UNCERTAINTY_ASSIGNED_CONTEXT((#1035))
GLOBAL_UNIT_ASSIGNED_CONTEXT((#1038,#1040,#1041))
REPRESENTATION_CONTEXT('','3D')
);
#1038=(
LENGTH_UNIT()
NAMED_UNIT(*)
SI_UNIT(.MILLI.,.METRE.)
);
#1039=(
LENGTH_UNIT()
NAMED_UNIT(*)
SI_UNIT($,.METRE.)
);
#1040=(
NAMED_UNIT(*)
PLANE_ANGLE_UNIT()
SI_UNIT($,.RADIAN.)
);
#1041=(
NAMED_UNIT(*)
SI_UNIT($,.STERADIAN.)
SOLID_ANGLE_UNIT()
);
#1042=SHAPE_DEFINITION_REPRESENTATION(#1043,#1044);
#1043=PRODUCT_DEFINITION_SHAPE('',$,#1046);
#1044=SHAPE_REPRESENTATION('',(#619),#1036);
#1045=PRODUCT_DEFINITION_CONTEXT('part definition',#1050,'design');
#1046=PRODUCT_DEFINITION('Bridges2','Bridges2 v4',#1047,#1045);
#1047=PRODUCT_DEFINITION_FORMATION('',$,#1052);
#1048=PRODUCT_RELATED_PRODUCT_CATEGORY('Bridges2 v4','Bridges2 v4',(#1052));
#1049=APPLICATION_PROTOCOL_DEFINITION('international standard',
'automotive_design',2009,#1050);
#1050=APPLICATION_CONTEXT(
'Core Data for Automotive Mechanical Design Process');
#1051=PRODUCT_CONTEXT('part definition',#1050,'mechanical');
#1052=PRODUCT('Bridges2','Bridges2 v4',$,(#1051));
#1053=PRESENTATION_STYLE_ASSIGNMENT((#1055));
#1054=PRESENTATION_STYLE_ASSIGNMENT((#1056));
#1055=SURFACE_STYLE_USAGE(.BOTH.,#1057);
#1056=SURFACE_STYLE_USAGE(.BOTH.,#1058);
#1057=SURFACE_SIDE_STYLE('',(#1059));
#1058=SURFACE_SIDE_STYLE('',(#1060));
#1059=SURFACE_STYLE_FILL_AREA(#1061);
#1060=SURFACE_STYLE_FILL_AREA(#1062);
#1061=FILL_AREA_STYLE('Steel - Satin',(#1063));
#1062=FILL_AREA_STYLE('Tough 2000 Light Grey',(#1064));
#1063=FILL_AREA_STYLE_COLOUR('Steel - Satin',#1065);
#1064=FILL_AREA_STYLE_COLOUR('Tough 2000 Light Grey',#1066);
#1065=COLOUR_RGB('Steel - Satin',0.627450980392157,0.627450980392157,0.627450980392157);
#1066=COLOUR_RGB('Tough 2000 Light Grey',0.682352941176471,0.682352941176471,
0.682352941176471);
ENDSEC;
END-ISO-10303-21;
