ISO-10303-21;
HEADER;
/* Generated by software containing ST-Developer
 * from STEP Tools, Inc. (www.steptools.com) 
 */

FILE_DESCRIPTION(
/* description */ (''),
/* implementation_level */ '2;1');

FILE_NAME(
/* name */ 'Buckle.step',
/* time_stamp */ '2026-07-20T16:05:00-04:00',
/* author */ (''),
/* organization */ (''),
/* preprocessor_version */ 'ST-DEVELOPER v20.1',
/* originating_system */ 'Autodesk Translation Framework v15.8.0.0',
/* authorisation */ '');

FILE_SCHEMA (('AUTOMOTIVE_DESIGN { 1 0 10303 214 3 1 1 }'));
ENDSEC;

DATA;
#10=MECHANICAL_DESIGN_GEOMETRIC_PRESENTATION_REPRESENTATION('',(#13),#1235);
#11=SHAPE_REPRESENTATION_RELATIONSHIP('SRR','None',#1242,#12);
#12=ADVANCED_BREP_SHAPE_REPRESENTATION('',(#14),#1234);
#13=STYLED_ITEM('',(#1251),#14);
#14=MANIFOLD_SOLID_BREP('Body1',#743);
#15=FACE_BOUND('',#102,.T.);
#16=FACE_BOUND('',#106,.T.);
#17=PLANE('',#760);
#18=PLANE('',#764);
#19=PLANE('',#768);
#20=PLANE('',#772);
#21=PLANE('',#776);
#22=PLANE('',#780);
#23=PLANE('',#784);
#24=PLANE('',#788);
#25=PLANE('',#795);
#26=PLANE('',#802);
#27=PLANE('',#803);
#28=PLANE('',#804);
#29=PLANE('',#805);
#30=PLANE('',#806);
#31=PLANE('',#807);
#32=PLANE('',#808);
#33=PLANE('',#809);
#34=PLANE('',#810);
#35=PLANE('',#811);
#36=PLANE('',#812);
#37=PLANE('',#813);
#38=PLANE('',#814);
#39=FACE_OUTER_BOUND('',#73,.T.);
#40=FACE_OUTER_BOUND('',#74,.T.);
#41=FACE_OUTER_BOUND('',#75,.T.);
#42=FACE_OUTER_BOUND('',#76,.T.);
#43=FACE_OUTER_BOUND('',#77,.T.);
#44=FACE_OUTER_BOUND('',#78,.T.);
#45=FACE_OUTER_BOUND('',#79,.T.);
#46=FACE_OUTER_BOUND('',#80,.T.);
#47=FACE_OUTER_BOUND('',#81,.T.);
#48=FACE_OUTER_BOUND('',#82,.T.);
#49=FACE_OUTER_BOUND('',#83,.T.);
#50=FACE_OUTER_BOUND('',#84,.T.);
#51=FACE_OUTER_BOUND('',#85,.T.);
#52=FACE_OUTER_BOUND('',#86,.T.);
#53=FACE_OUTER_BOUND('',#87,.T.);
#54=FACE_OUTER_BOUND('',#88,.T.);
#55=FACE_OUTER_BOUND('',#89,.T.);
#56=FACE_OUTER_BOUND('',#90,.T.);
#57=FACE_OUTER_BOUND('',#91,.T.);
#58=FACE_OUTER_BOUND('',#92,.T.);
#59=FACE_OUTER_BOUND('',#93,.T.);
#60=FACE_OUTER_BOUND('',#94,.T.);
#61=FACE_OUTER_BOUND('',#95,.T.);
#62=FACE_OUTER_BOUND('',#96,.T.);
#63=FACE_OUTER_BOUND('',#97,.T.);
#64=FACE_OUTER_BOUND('',#98,.T.);
#65=FACE_OUTER_BOUND('',#99,.T.);
#66=FACE_OUTER_BOUND('',#100,.T.);
#67=FACE_OUTER_BOUND('',#101,.T.);
#68=FACE_OUTER_BOUND('',#103,.T.);
#69=FACE_OUTER_BOUND('',#104,.T.);
#70=FACE_OUTER_BOUND('',#105,.T.);
#71=FACE_OUTER_BOUND('',#107,.T.);
#72=FACE_OUTER_BOUND('',#108,.T.);
#73=EDGE_LOOP('',(#481,#482,#483,#484));
#74=EDGE_LOOP('',(#485,#486,#487,#488,#489,#490,#491,#492));
#75=EDGE_LOOP('',(#493,#494,#495,#496));
#76=EDGE_LOOP('',(#497,#498,#499,#500));
#77=EDGE_LOOP('',(#501,#502,#503,#504));
#78=EDGE_LOOP('',(#505,#506,#507,#508,#509,#510,#511,#512));
#79=EDGE_LOOP('',(#513,#514,#515,#516));
#80=EDGE_LOOP('',(#517,#518,#519,#520));
#81=EDGE_LOOP('',(#521,#522,#523,#524));
#82=EDGE_LOOP('',(#525,#526,#527,#528,#529,#530,#531,#532));
#83=EDGE_LOOP('',(#533,#534,#535,#536));
#84=EDGE_LOOP('',(#537,#538,#539,#540));
#85=EDGE_LOOP('',(#541,#542,#543,#544));
#86=EDGE_LOOP('',(#545,#546,#547,#548));
#87=EDGE_LOOP('',(#549,#550,#551,#552));
#88=EDGE_LOOP('',(#553,#554,#555,#556,#557,#558,#559,#560));
#89=EDGE_LOOP('',(#561,#562,#563,#564));
#90=EDGE_LOOP('',(#565,#566,#567,#568));
#91=EDGE_LOOP('',(#569,#570,#571,#572));
#92=EDGE_LOOP('',(#573,#574,#575,#576));
#93=EDGE_LOOP('',(#577,#578,#579,#580));
#94=EDGE_LOOP('',(#581,#582,#583,#584));
#95=EDGE_LOOP('',(#585,#586,#587,#588,#589,#590,#591,#592,#593,#594,#595,
#596,#597,#598,#599,#600));
#96=EDGE_LOOP('',(#601,#602,#603,#604,#605,#606,#607,#608,#609,#610,#611,
#612,#613,#614,#615,#616,#617,#618,#619,#620));
#97=EDGE_LOOP('',(#621,#622,#623,#624));
#98=EDGE_LOOP('',(#625,#626,#627,#628,#629,#630,#631,#632,#633,#634,#635,
#636,#637,#638,#639,#640,#641,#642,#643,#644));
#99=EDGE_LOOP('',(#645,#646,#647,#648));
#100=EDGE_LOOP('',(#649,#650,#651,#652));
#101=EDGE_LOOP('',(#653,#654,#655,#656));
#102=EDGE_LOOP('',(#657,#658,#659,#660));
#103=EDGE_LOOP('',(#661,#662,#663,#664));
#104=EDGE_LOOP('',(#665,#666,#667,#668));
#105=EDGE_LOOP('',(#669,#670,#671,#672));
#106=EDGE_LOOP('',(#673,#674,#675,#676));
#107=EDGE_LOOP('',(#677,#678,#679,#680));
#108=EDGE_LOOP('',(#681,#682,#683,#684,#685,#686,#687,#688,#689,#690,#691,
#692,#693,#694,#695,#696));
#109=LINE('',#1023,#193);
#110=LINE('',#1026,#194);
#111=LINE('',#1029,#195);
#112=LINE('',#1031,#196);
#113=LINE('',#1033,#197);
#114=LINE('',#1035,#198);
#115=LINE('',#1037,#199);
#116=LINE('',#1039,#200);
#117=LINE('',#1040,#201);
#118=LINE('',#1045,#202);
#119=LINE('',#1049,#203);
#120=LINE('',#1051,#204);
#121=LINE('',#1052,#205);
#122=LINE('',#1057,#206);
#123=LINE('',#1061,#207);
#124=LINE('',#1063,#208);
#125=LINE('',#1065,#209);
#126=LINE('',#1067,#210);
#127=LINE('',#1069,#211);
#128=LINE('',#1071,#212);
#129=LINE('',#1072,#213);
#130=LINE('',#1077,#214);
#131=LINE('',#1080,#215);
#132=LINE('',#1081,#216);
#133=LINE('',#1087,#217);
#134=LINE('',#1090,#218);
#135=LINE('',#1093,#219);
#136=LINE('',#1095,#220);
#137=LINE('',#1097,#221);
#138=LINE('',#1099,#222);
#139=LINE('',#1101,#223);
#140=LINE('',#1103,#224);
#141=LINE('',#1104,#225);
#142=LINE('',#1109,#226);
#143=LINE('',#1113,#227);
#144=LINE('',#1115,#228);
#145=LINE('',#1116,#229);
#146=LINE('',#1122,#230);
#147=LINE('',#1125,#231);
#148=LINE('',#1127,#232);
#149=LINE('',#1128,#233);
#150=LINE('',#1133,#234);
#151=LINE('',#1137,#235);
#152=LINE('',#1139,#236);
#153=LINE('',#1140,#237);
#154=LINE('',#1142,#238);
#155=LINE('',#1144,#239);
#156=LINE('',#1145,#240);
#157=LINE('',#1151,#241);
#158=LINE('',#1156,#242);
#159=LINE('',#1160,#243);
#160=LINE('',#1162,#244);
#161=LINE('',#1163,#245);
#162=LINE('',#1169,#246);
#163=LINE('',#1174,#247);
#164=LINE('',#1178,#248);
#165=LINE('',#1180,#249);
#166=LINE('',#1181,#250);
#167=LINE('',#1184,#251);
#168=LINE('',#1186,#252);
#169=LINE('',#1187,#253);
#170=LINE('',#1189,#254);
#171=LINE('',#1191,#255);
#172=LINE('',#1192,#256);
#173=LINE('',#1195,#257);
#174=LINE('',#1196,#258);
#175=LINE('',#1198,#259);
#176=LINE('',#1199,#260);
#177=LINE('',#1202,#261);
#178=LINE('',#1203,#262);
#179=LINE('',#1205,#263);
#180=LINE('',#1207,#264);
#181=LINE('',#1208,#265);
#182=LINE('',#1210,#266);
#183=LINE('',#1213,#267);
#184=LINE('',#1214,#268);
#185=LINE('',#1217,#269);
#186=LINE('',#1218,#270);
#187=LINE('',#1220,#271);
#188=LINE('',#1223,#272);
#189=LINE('',#1224,#273);
#190=LINE('',#1227,#274);
#191=LINE('',#1228,#275);
#192=LINE('',#1230,#276);
#193=VECTOR('',#821,10.);
#194=VECTOR('',#824,10.);
#195=VECTOR('',#827,10.);
#196=VECTOR('',#828,10.);
#197=VECTOR('',#829,10.);
#198=VECTOR('',#830,10.);
#199=VECTOR('',#831,10.);
#200=VECTOR('',#832,10.);
#201=VECTOR('',#833,10.);
#202=VECTOR('',#838,10.);
#203=VECTOR('',#843,10.);
#204=VECTOR('',#844,10.);
#205=VECTOR('',#845,10.);
#206=VECTOR('',#850,10.);
#207=VECTOR('',#855,10.);
#208=VECTOR('',#856,10.);
#209=VECTOR('',#857,10.);
#210=VECTOR('',#858,10.);
#211=VECTOR('',#859,10.);
#212=VECTOR('',#860,10.);
#213=VECTOR('',#861,10.);
#214=VECTOR('',#866,10.);
#215=VECTOR('',#871,10.);
#216=VECTOR('',#872,10.);
#217=VECTOR('',#877,10.);
#218=VECTOR('',#880,10.);
#219=VECTOR('',#883,10.);
#220=VECTOR('',#884,10.);
#221=VECTOR('',#885,10.);
#222=VECTOR('',#886,10.);
#223=VECTOR('',#887,10.);
#224=VECTOR('',#888,10.);
#225=VECTOR('',#889,10.);
#226=VECTOR('',#894,10.);
#227=VECTOR('',#899,10.);
#228=VECTOR('',#900,10.);
#229=VECTOR('',#901,10.);
#230=VECTOR('',#906,10.);
#231=VECTOR('',#909,10.);
#232=VECTOR('',#912,10.);
#233=VECTOR('',#913,10.);
#234=VECTOR('',#918,10.);
#235=VECTOR('',#923,10.);
#236=VECTOR('',#924,10.);
#237=VECTOR('',#925,10.);
#238=VECTOR('',#926,10.);
#239=VECTOR('',#927,10.);
#240=VECTOR('',#928,10.);
#241=VECTOR('',#935,10.);
#242=VECTOR('',#940,10.);
#243=VECTOR('',#945,10.);
#244=VECTOR('',#946,10.);
#245=VECTOR('',#947,10.);
#246=VECTOR('',#954,10.);
#247=VECTOR('',#959,10.);
#248=VECTOR('',#964,10.);
#249=VECTOR('',#965,10.);
#250=VECTOR('',#966,10.);
#251=VECTOR('',#969,10.);
#252=VECTOR('',#970,10.);
#253=VECTOR('',#971,10.);
#254=VECTOR('',#972,10.);
#255=VECTOR('',#973,10.);
#256=VECTOR('',#974,10.);
#257=VECTOR('',#977,10.);
#258=VECTOR('',#978,10.);
#259=VECTOR('',#979,10.);
#260=VECTOR('',#980,10.);
#261=VECTOR('',#983,10.);
#262=VECTOR('',#984,10.);
#263=VECTOR('',#987,10.);
#264=VECTOR('',#988,10.);
#265=VECTOR('',#989,10.);
#266=VECTOR('',#992,10.);
#267=VECTOR('',#995,10.);
#268=VECTOR('',#996,10.);
#269=VECTOR('',#999,10.);
#270=VECTOR('',#1000,10.);
#271=VECTOR('',#1003,10.);
#272=VECTOR('',#1006,10.);
#273=VECTOR('',#1007,10.);
#274=VECTOR('',#1010,10.);
#275=VECTOR('',#1011,10.);
#276=VECTOR('',#1014,10.);
#277=CIRCLE('',#758,2.);
#278=CIRCLE('',#759,2.);
#279=CIRCLE('',#762,2.);
#280=CIRCLE('',#763,2.);
#281=CIRCLE('',#766,2.);
#282=CIRCLE('',#767,2.);
#283=CIRCLE('',#770,2.);
#284=CIRCLE('',#771,2.);
#285=CIRCLE('',#774,2.);
#286=CIRCLE('',#775,2.);
#287=CIRCLE('',#778,2.);
#288=CIRCLE('',#779,2.);
#289=CIRCLE('',#782,2.);
#290=CIRCLE('',#783,2.);
#291=CIRCLE('',#786,2.);
#292=CIRCLE('',#787,2.);
#293=CIRCLE('',#790,0.4);
#294=CIRCLE('',#791,0.4);
#295=CIRCLE('',#793,0.4);
#296=CIRCLE('',#794,0.4);
#297=CIRCLE('',#797,0.4);
#298=CIRCLE('',#798,0.4);
#299=CIRCLE('',#800,0.4);
#300=CIRCLE('',#801,0.4);
#301=VERTEX_POINT('',#1019);
#302=VERTEX_POINT('',#1020);
#303=VERTEX_POINT('',#1022);
#304=VERTEX_POINT('',#1024);
#305=VERTEX_POINT('',#1028);
#306=VERTEX_POINT('',#1030);
#307=VERTEX_POINT('',#1032);
#308=VERTEX_POINT('',#1034);
#309=VERTEX_POINT('',#1036);
#310=VERTEX_POINT('',#1038);
#311=VERTEX_POINT('',#1042);
#312=VERTEX_POINT('',#1044);
#313=VERTEX_POINT('',#1048);
#314=VERTEX_POINT('',#1050);
#315=VERTEX_POINT('',#1054);
#316=VERTEX_POINT('',#1056);
#317=VERTEX_POINT('',#1060);
#318=VERTEX_POINT('',#1062);
#319=VERTEX_POINT('',#1064);
#320=VERTEX_POINT('',#1066);
#321=VERTEX_POINT('',#1068);
#322=VERTEX_POINT('',#1070);
#323=VERTEX_POINT('',#1074);
#324=VERTEX_POINT('',#1076);
#325=VERTEX_POINT('',#1083);
#326=VERTEX_POINT('',#1084);
#327=VERTEX_POINT('',#1086);
#328=VERTEX_POINT('',#1088);
#329=VERTEX_POINT('',#1092);
#330=VERTEX_POINT('',#1094);
#331=VERTEX_POINT('',#1096);
#332=VERTEX_POINT('',#1098);
#333=VERTEX_POINT('',#1100);
#334=VERTEX_POINT('',#1102);
#335=VERTEX_POINT('',#1106);
#336=VERTEX_POINT('',#1108);
#337=VERTEX_POINT('',#1112);
#338=VERTEX_POINT('',#1114);
#339=VERTEX_POINT('',#1118);
#340=VERTEX_POINT('',#1119);
#341=VERTEX_POINT('',#1121);
#342=VERTEX_POINT('',#1123);
#343=VERTEX_POINT('',#1130);
#344=VERTEX_POINT('',#1132);
#345=VERTEX_POINT('',#1136);
#346=VERTEX_POINT('',#1138);
#347=VERTEX_POINT('',#1141);
#348=VERTEX_POINT('',#1143);
#349=VERTEX_POINT('',#1147);
#350=VERTEX_POINT('',#1149);
#351=VERTEX_POINT('',#1153);
#352=VERTEX_POINT('',#1155);
#353=VERTEX_POINT('',#1159);
#354=VERTEX_POINT('',#1161);
#355=VERTEX_POINT('',#1165);
#356=VERTEX_POINT('',#1167);
#357=VERTEX_POINT('',#1171);
#358=VERTEX_POINT('',#1173);
#359=VERTEX_POINT('',#1177);
#360=VERTEX_POINT('',#1179);
#361=VERTEX_POINT('',#1183);
#362=VERTEX_POINT('',#1185);
#363=VERTEX_POINT('',#1188);
#364=VERTEX_POINT('',#1190);
#365=VERTEX_POINT('',#1194);
#366=VERTEX_POINT('',#1197);
#367=VERTEX_POINT('',#1201);
#368=VERTEX_POINT('',#1206);
#369=VERTEX_POINT('',#1212);
#370=VERTEX_POINT('',#1216);
#371=VERTEX_POINT('',#1222);
#372=VERTEX_POINT('',#1226);
#373=EDGE_CURVE('',#301,#302,#277,.T.);
#374=EDGE_CURVE('',#302,#303,#109,.T.);
#375=EDGE_CURVE('',#303,#304,#278,.T.);
#376=EDGE_CURVE('',#304,#301,#110,.T.);
#377=EDGE_CURVE('',#305,#302,#111,.T.);
#378=EDGE_CURVE('',#306,#305,#112,.T.);
#379=EDGE_CURVE('',#307,#306,#113,.T.);
#380=EDGE_CURVE('',#308,#307,#114,.T.);
#381=EDGE_CURVE('',#309,#308,#115,.T.);
#382=EDGE_CURVE('',#309,#310,#116,.T.);
#383=EDGE_CURVE('',#303,#310,#117,.T.);
#384=EDGE_CURVE('',#307,#311,#279,.T.);
#385=EDGE_CURVE('',#311,#312,#118,.T.);
#386=EDGE_CURVE('',#312,#308,#280,.T.);
#387=EDGE_CURVE('',#313,#311,#119,.T.);
#388=EDGE_CURVE('',#314,#313,#120,.T.);
#389=EDGE_CURVE('',#314,#312,#121,.T.);
#390=EDGE_CURVE('',#313,#315,#281,.T.);
#391=EDGE_CURVE('',#315,#316,#122,.T.);
#392=EDGE_CURVE('',#316,#314,#282,.T.);
#393=EDGE_CURVE('',#317,#315,#123,.T.);
#394=EDGE_CURVE('',#318,#317,#124,.T.);
#395=EDGE_CURVE('',#319,#318,#125,.T.);
#396=EDGE_CURVE('',#320,#319,#126,.T.);
#397=EDGE_CURVE('',#321,#320,#127,.T.);
#398=EDGE_CURVE('',#322,#321,#128,.T.);
#399=EDGE_CURVE('',#322,#316,#129,.T.);
#400=EDGE_CURVE('',#319,#323,#283,.T.);
#401=EDGE_CURVE('',#323,#324,#130,.T.);
#402=EDGE_CURVE('',#324,#320,#284,.T.);
#403=EDGE_CURVE('',#324,#304,#131,.T.);
#404=EDGE_CURVE('',#301,#323,#132,.T.);
#405=EDGE_CURVE('',#325,#326,#285,.T.);
#406=EDGE_CURVE('',#326,#327,#133,.T.);
#407=EDGE_CURVE('',#327,#328,#286,.T.);
#408=EDGE_CURVE('',#328,#325,#134,.T.);
#409=EDGE_CURVE('',#329,#326,#135,.T.);
#410=EDGE_CURVE('',#330,#329,#136,.T.);
#411=EDGE_CURVE('',#331,#330,#137,.T.);
#412=EDGE_CURVE('',#332,#331,#138,.T.);
#413=EDGE_CURVE('',#333,#332,#139,.T.);
#414=EDGE_CURVE('',#334,#333,#140,.T.);
#415=EDGE_CURVE('',#334,#327,#141,.T.);
#416=EDGE_CURVE('',#331,#335,#287,.T.);
#417=EDGE_CURVE('',#335,#336,#142,.T.);
#418=EDGE_CURVE('',#336,#332,#288,.T.);
#419=EDGE_CURVE('',#337,#335,#143,.T.);
#420=EDGE_CURVE('',#338,#337,#144,.T.);
#421=EDGE_CURVE('',#336,#338,#145,.T.);
#422=EDGE_CURVE('',#339,#340,#289,.T.);
#423=EDGE_CURVE('',#340,#341,#146,.T.);
#424=EDGE_CURVE('',#341,#342,#290,.T.);
#425=EDGE_CURVE('',#342,#339,#147,.T.);
#426=EDGE_CURVE('',#328,#341,#148,.T.);
#427=EDGE_CURVE('',#325,#340,#149,.T.);
#428=EDGE_CURVE('',#337,#343,#291,.T.);
#429=EDGE_CURVE('',#343,#344,#150,.T.);
#430=EDGE_CURVE('',#344,#338,#292,.T.);
#431=EDGE_CURVE('',#345,#342,#151,.T.);
#432=EDGE_CURVE('',#345,#346,#152,.T.);
#433=EDGE_CURVE('',#344,#346,#153,.T.);
#434=EDGE_CURVE('',#347,#343,#154,.T.);
#435=EDGE_CURVE('',#348,#347,#155,.T.);
#436=EDGE_CURVE('',#339,#348,#156,.T.);
#437=EDGE_CURVE('',#349,#348,#293,.F.);
#438=EDGE_CURVE('',#347,#350,#294,.F.);
#439=EDGE_CURVE('',#350,#349,#157,.T.);
#440=EDGE_CURVE('',#317,#351,#295,.F.);
#441=EDGE_CURVE('',#351,#352,#158,.T.);
#442=EDGE_CURVE('',#352,#318,#296,.F.);
#443=EDGE_CURVE('',#353,#351,#159,.T.);
#444=EDGE_CURVE('',#353,#354,#160,.T.);
#445=EDGE_CURVE('',#352,#354,#161,.T.);
#446=EDGE_CURVE('',#355,#306,#297,.F.);
#447=EDGE_CURVE('',#305,#356,#298,.F.);
#448=EDGE_CURVE('',#356,#355,#162,.T.);
#449=EDGE_CURVE('',#329,#357,#299,.F.);
#450=EDGE_CURVE('',#357,#358,#163,.T.);
#451=EDGE_CURVE('',#358,#330,#300,.F.);
#452=EDGE_CURVE('',#359,#357,#164,.T.);
#453=EDGE_CURVE('',#359,#360,#165,.T.);
#454=EDGE_CURVE('',#358,#360,#166,.T.);
#455=EDGE_CURVE('',#346,#361,#167,.T.);
#456=EDGE_CURVE('',#361,#362,#168,.T.);
#457=EDGE_CURVE('',#362,#321,#169,.T.);
#458=EDGE_CURVE('',#310,#363,#170,.T.);
#459=EDGE_CURVE('',#363,#364,#171,.T.);
#460=EDGE_CURVE('',#364,#333,#172,.T.);
#461=EDGE_CURVE('',#360,#365,#173,.T.);
#462=EDGE_CURVE('',#365,#356,#174,.T.);
#463=EDGE_CURVE('',#354,#366,#175,.T.);
#464=EDGE_CURVE('',#366,#350,#176,.T.);
#465=EDGE_CURVE('',#367,#365,#177,.T.);
#466=EDGE_CURVE('',#355,#367,#178,.T.);
#467=EDGE_CURVE('',#367,#359,#179,.T.);
#468=EDGE_CURVE('',#349,#368,#180,.T.);
#469=EDGE_CURVE('',#368,#353,#181,.T.);
#470=EDGE_CURVE('',#368,#366,#182,.T.);
#471=EDGE_CURVE('',#334,#369,#183,.T.);
#472=EDGE_CURVE('',#369,#364,#184,.T.);
#473=EDGE_CURVE('',#370,#363,#185,.T.);
#474=EDGE_CURVE('',#369,#370,#186,.T.);
#475=EDGE_CURVE('',#370,#309,#187,.T.);
#476=EDGE_CURVE('',#371,#322,#188,.T.);
#477=EDGE_CURVE('',#371,#362,#189,.T.);
#478=EDGE_CURVE('',#372,#361,#190,.T.);
#479=EDGE_CURVE('',#372,#371,#191,.T.);
#480=EDGE_CURVE('',#345,#372,#192,.T.);
#481=ORIENTED_EDGE('',*,*,#373,.T.);
#482=ORIENTED_EDGE('',*,*,#374,.T.);
#483=ORIENTED_EDGE('',*,*,#375,.T.);
#484=ORIENTED_EDGE('',*,*,#376,.T.);
#485=ORIENTED_EDGE('',*,*,#374,.F.);
#486=ORIENTED_EDGE('',*,*,#377,.F.);
#487=ORIENTED_EDGE('',*,*,#378,.F.);
#488=ORIENTED_EDGE('',*,*,#379,.F.);
#489=ORIENTED_EDGE('',*,*,#380,.F.);
#490=ORIENTED_EDGE('',*,*,#381,.F.);
#491=ORIENTED_EDGE('',*,*,#382,.T.);
#492=ORIENTED_EDGE('',*,*,#383,.F.);
#493=ORIENTED_EDGE('',*,*,#384,.T.);
#494=ORIENTED_EDGE('',*,*,#385,.T.);
#495=ORIENTED_EDGE('',*,*,#386,.T.);
#496=ORIENTED_EDGE('',*,*,#380,.T.);
#497=ORIENTED_EDGE('',*,*,#385,.F.);
#498=ORIENTED_EDGE('',*,*,#387,.F.);
#499=ORIENTED_EDGE('',*,*,#388,.F.);
#500=ORIENTED_EDGE('',*,*,#389,.T.);
#501=ORIENTED_EDGE('',*,*,#390,.T.);
#502=ORIENTED_EDGE('',*,*,#391,.T.);
#503=ORIENTED_EDGE('',*,*,#392,.T.);
#504=ORIENTED_EDGE('',*,*,#388,.T.);
#505=ORIENTED_EDGE('',*,*,#391,.F.);
#506=ORIENTED_EDGE('',*,*,#393,.F.);
#507=ORIENTED_EDGE('',*,*,#394,.F.);
#508=ORIENTED_EDGE('',*,*,#395,.F.);
#509=ORIENTED_EDGE('',*,*,#396,.F.);
#510=ORIENTED_EDGE('',*,*,#397,.F.);
#511=ORIENTED_EDGE('',*,*,#398,.F.);
#512=ORIENTED_EDGE('',*,*,#399,.T.);
#513=ORIENTED_EDGE('',*,*,#400,.T.);
#514=ORIENTED_EDGE('',*,*,#401,.T.);
#515=ORIENTED_EDGE('',*,*,#402,.T.);
#516=ORIENTED_EDGE('',*,*,#396,.T.);
#517=ORIENTED_EDGE('',*,*,#376,.F.);
#518=ORIENTED_EDGE('',*,*,#403,.F.);
#519=ORIENTED_EDGE('',*,*,#401,.F.);
#520=ORIENTED_EDGE('',*,*,#404,.F.);
#521=ORIENTED_EDGE('',*,*,#405,.T.);
#522=ORIENTED_EDGE('',*,*,#406,.T.);
#523=ORIENTED_EDGE('',*,*,#407,.T.);
#524=ORIENTED_EDGE('',*,*,#408,.T.);
#525=ORIENTED_EDGE('',*,*,#406,.F.);
#526=ORIENTED_EDGE('',*,*,#409,.F.);
#527=ORIENTED_EDGE('',*,*,#410,.F.);
#528=ORIENTED_EDGE('',*,*,#411,.F.);
#529=ORIENTED_EDGE('',*,*,#412,.F.);
#530=ORIENTED_EDGE('',*,*,#413,.F.);
#531=ORIENTED_EDGE('',*,*,#414,.F.);
#532=ORIENTED_EDGE('',*,*,#415,.T.);
#533=ORIENTED_EDGE('',*,*,#416,.T.);
#534=ORIENTED_EDGE('',*,*,#417,.T.);
#535=ORIENTED_EDGE('',*,*,#418,.T.);
#536=ORIENTED_EDGE('',*,*,#412,.T.);
#537=ORIENTED_EDGE('',*,*,#417,.F.);
#538=ORIENTED_EDGE('',*,*,#419,.F.);
#539=ORIENTED_EDGE('',*,*,#420,.F.);
#540=ORIENTED_EDGE('',*,*,#421,.F.);
#541=ORIENTED_EDGE('',*,*,#422,.T.);
#542=ORIENTED_EDGE('',*,*,#423,.T.);
#543=ORIENTED_EDGE('',*,*,#424,.T.);
#544=ORIENTED_EDGE('',*,*,#425,.T.);
#545=ORIENTED_EDGE('',*,*,#408,.F.);
#546=ORIENTED_EDGE('',*,*,#426,.T.);
#547=ORIENTED_EDGE('',*,*,#423,.F.);
#548=ORIENTED_EDGE('',*,*,#427,.F.);
#549=ORIENTED_EDGE('',*,*,#428,.T.);
#550=ORIENTED_EDGE('',*,*,#429,.T.);
#551=ORIENTED_EDGE('',*,*,#430,.T.);
#552=ORIENTED_EDGE('',*,*,#420,.T.);
#553=ORIENTED_EDGE('',*,*,#425,.F.);
#554=ORIENTED_EDGE('',*,*,#431,.F.);
#555=ORIENTED_EDGE('',*,*,#432,.T.);
#556=ORIENTED_EDGE('',*,*,#433,.F.);
#557=ORIENTED_EDGE('',*,*,#429,.F.);
#558=ORIENTED_EDGE('',*,*,#434,.F.);
#559=ORIENTED_EDGE('',*,*,#435,.F.);
#560=ORIENTED_EDGE('',*,*,#436,.F.);
#561=ORIENTED_EDGE('',*,*,#437,.T.);
#562=ORIENTED_EDGE('',*,*,#435,.T.);
#563=ORIENTED_EDGE('',*,*,#438,.T.);
#564=ORIENTED_EDGE('',*,*,#439,.T.);
#565=ORIENTED_EDGE('',*,*,#440,.T.);
#566=ORIENTED_EDGE('',*,*,#441,.T.);
#567=ORIENTED_EDGE('',*,*,#442,.T.);
#568=ORIENTED_EDGE('',*,*,#394,.T.);
#569=ORIENTED_EDGE('',*,*,#441,.F.);
#570=ORIENTED_EDGE('',*,*,#443,.F.);
#571=ORIENTED_EDGE('',*,*,#444,.T.);
#572=ORIENTED_EDGE('',*,*,#445,.F.);
#573=ORIENTED_EDGE('',*,*,#446,.T.);
#574=ORIENTED_EDGE('',*,*,#378,.T.);
#575=ORIENTED_EDGE('',*,*,#447,.T.);
#576=ORIENTED_EDGE('',*,*,#448,.T.);
#577=ORIENTED_EDGE('',*,*,#449,.T.);
#578=ORIENTED_EDGE('',*,*,#450,.T.);
#579=ORIENTED_EDGE('',*,*,#451,.T.);
#580=ORIENTED_EDGE('',*,*,#410,.T.);
#581=ORIENTED_EDGE('',*,*,#450,.F.);
#582=ORIENTED_EDGE('',*,*,#452,.F.);
#583=ORIENTED_EDGE('',*,*,#453,.T.);
#584=ORIENTED_EDGE('',*,*,#454,.F.);
#585=ORIENTED_EDGE('',*,*,#433,.T.);
#586=ORIENTED_EDGE('',*,*,#455,.T.);
#587=ORIENTED_EDGE('',*,*,#456,.T.);
#588=ORIENTED_EDGE('',*,*,#457,.T.);
#589=ORIENTED_EDGE('',*,*,#397,.T.);
#590=ORIENTED_EDGE('',*,*,#402,.F.);
#591=ORIENTED_EDGE('',*,*,#403,.T.);
#592=ORIENTED_EDGE('',*,*,#375,.F.);
#593=ORIENTED_EDGE('',*,*,#383,.T.);
#594=ORIENTED_EDGE('',*,*,#458,.T.);
#595=ORIENTED_EDGE('',*,*,#459,.T.);
#596=ORIENTED_EDGE('',*,*,#460,.T.);
#597=ORIENTED_EDGE('',*,*,#413,.T.);
#598=ORIENTED_EDGE('',*,*,#418,.F.);
#599=ORIENTED_EDGE('',*,*,#421,.T.);
#600=ORIENTED_EDGE('',*,*,#430,.F.);
#601=ORIENTED_EDGE('',*,*,#454,.T.);
#602=ORIENTED_EDGE('',*,*,#461,.T.);
#603=ORIENTED_EDGE('',*,*,#462,.T.);
#604=ORIENTED_EDGE('',*,*,#447,.F.);
#605=ORIENTED_EDGE('',*,*,#377,.T.);
#606=ORIENTED_EDGE('',*,*,#373,.F.);
#607=ORIENTED_EDGE('',*,*,#404,.T.);
#608=ORIENTED_EDGE('',*,*,#400,.F.);
#609=ORIENTED_EDGE('',*,*,#395,.T.);
#610=ORIENTED_EDGE('',*,*,#442,.F.);
#611=ORIENTED_EDGE('',*,*,#445,.T.);
#612=ORIENTED_EDGE('',*,*,#463,.T.);
#613=ORIENTED_EDGE('',*,*,#464,.T.);
#614=ORIENTED_EDGE('',*,*,#438,.F.);
#615=ORIENTED_EDGE('',*,*,#434,.T.);
#616=ORIENTED_EDGE('',*,*,#428,.F.);
#617=ORIENTED_EDGE('',*,*,#419,.T.);
#618=ORIENTED_EDGE('',*,*,#416,.F.);
#619=ORIENTED_EDGE('',*,*,#411,.T.);
#620=ORIENTED_EDGE('',*,*,#451,.F.);
#621=ORIENTED_EDGE('',*,*,#448,.F.);
#622=ORIENTED_EDGE('',*,*,#462,.F.);
#623=ORIENTED_EDGE('',*,*,#465,.F.);
#624=ORIENTED_EDGE('',*,*,#466,.F.);
#625=ORIENTED_EDGE('',*,*,#466,.T.);
#626=ORIENTED_EDGE('',*,*,#467,.T.);
#627=ORIENTED_EDGE('',*,*,#452,.T.);
#628=ORIENTED_EDGE('',*,*,#449,.F.);
#629=ORIENTED_EDGE('',*,*,#409,.T.);
#630=ORIENTED_EDGE('',*,*,#405,.F.);
#631=ORIENTED_EDGE('',*,*,#427,.T.);
#632=ORIENTED_EDGE('',*,*,#422,.F.);
#633=ORIENTED_EDGE('',*,*,#436,.T.);
#634=ORIENTED_EDGE('',*,*,#437,.F.);
#635=ORIENTED_EDGE('',*,*,#468,.T.);
#636=ORIENTED_EDGE('',*,*,#469,.T.);
#637=ORIENTED_EDGE('',*,*,#443,.T.);
#638=ORIENTED_EDGE('',*,*,#440,.F.);
#639=ORIENTED_EDGE('',*,*,#393,.T.);
#640=ORIENTED_EDGE('',*,*,#390,.F.);
#641=ORIENTED_EDGE('',*,*,#387,.T.);
#642=ORIENTED_EDGE('',*,*,#384,.F.);
#643=ORIENTED_EDGE('',*,*,#379,.T.);
#644=ORIENTED_EDGE('',*,*,#446,.F.);
#645=ORIENTED_EDGE('',*,*,#439,.F.);
#646=ORIENTED_EDGE('',*,*,#464,.F.);
#647=ORIENTED_EDGE('',*,*,#470,.F.);
#648=ORIENTED_EDGE('',*,*,#468,.F.);
#649=ORIENTED_EDGE('',*,*,#471,.F.);
#650=ORIENTED_EDGE('',*,*,#414,.T.);
#651=ORIENTED_EDGE('',*,*,#460,.F.);
#652=ORIENTED_EDGE('',*,*,#472,.F.);
#653=ORIENTED_EDGE('',*,*,#472,.T.);
#654=ORIENTED_EDGE('',*,*,#459,.F.);
#655=ORIENTED_EDGE('',*,*,#473,.F.);
#656=ORIENTED_EDGE('',*,*,#474,.F.);
#657=ORIENTED_EDGE('',*,*,#453,.F.);
#658=ORIENTED_EDGE('',*,*,#467,.F.);
#659=ORIENTED_EDGE('',*,*,#465,.T.);
#660=ORIENTED_EDGE('',*,*,#461,.F.);
#661=ORIENTED_EDGE('',*,*,#475,.F.);
#662=ORIENTED_EDGE('',*,*,#473,.T.);
#663=ORIENTED_EDGE('',*,*,#458,.F.);
#664=ORIENTED_EDGE('',*,*,#382,.F.);
#665=ORIENTED_EDGE('',*,*,#476,.T.);
#666=ORIENTED_EDGE('',*,*,#398,.T.);
#667=ORIENTED_EDGE('',*,*,#457,.F.);
#668=ORIENTED_EDGE('',*,*,#477,.F.);
#669=ORIENTED_EDGE('',*,*,#477,.T.);
#670=ORIENTED_EDGE('',*,*,#456,.F.);
#671=ORIENTED_EDGE('',*,*,#478,.F.);
#672=ORIENTED_EDGE('',*,*,#479,.T.);
#673=ORIENTED_EDGE('',*,*,#444,.F.);
#674=ORIENTED_EDGE('',*,*,#469,.F.);
#675=ORIENTED_EDGE('',*,*,#470,.T.);
#676=ORIENTED_EDGE('',*,*,#463,.F.);
#677=ORIENTED_EDGE('',*,*,#480,.T.);
#678=ORIENTED_EDGE('',*,*,#478,.T.);
#679=ORIENTED_EDGE('',*,*,#455,.F.);
#680=ORIENTED_EDGE('',*,*,#432,.F.);
#681=ORIENTED_EDGE('',*,*,#480,.F.);
#682=ORIENTED_EDGE('',*,*,#431,.T.);
#683=ORIENTED_EDGE('',*,*,#424,.F.);
#684=ORIENTED_EDGE('',*,*,#426,.F.);
#685=ORIENTED_EDGE('',*,*,#407,.F.);
#686=ORIENTED_EDGE('',*,*,#415,.F.);
#687=ORIENTED_EDGE('',*,*,#471,.T.);
#688=ORIENTED_EDGE('',*,*,#474,.T.);
#689=ORIENTED_EDGE('',*,*,#475,.T.);
#690=ORIENTED_EDGE('',*,*,#381,.T.);
#691=ORIENTED_EDGE('',*,*,#386,.F.);
#692=ORIENTED_EDGE('',*,*,#389,.F.);
#693=ORIENTED_EDGE('',*,*,#392,.F.);
#694=ORIENTED_EDGE('',*,*,#399,.F.);
#695=ORIENTED_EDGE('',*,*,#476,.F.);
#696=ORIENTED_EDGE('',*,*,#479,.F.);
#697=CYLINDRICAL_SURFACE('',#757,2.);
#698=CYLINDRICAL_SURFACE('',#761,2.);
#699=CYLINDRICAL_SURFACE('',#765,2.);
#700=CYLINDRICAL_SURFACE('',#769,2.);
#701=CYLINDRICAL_SURFACE('',#773,2.);
#702=CYLINDRICAL_SURFACE('',#777,2.);
#703=CYLINDRICAL_SURFACE('',#781,2.);
#704=CYLINDRICAL_SURFACE('',#785,2.);
#705=CYLINDRICAL_SURFACE('',#789,0.4);
#706=CYLINDRICAL_SURFACE('',#792,0.4);
#707=CYLINDRICAL_SURFACE('',#796,0.4);
#708=CYLINDRICAL_SURFACE('',#799,0.4);
#709=ADVANCED_FACE('',(#39),#697,.F.);
#710=ADVANCED_FACE('',(#40),#17,.T.);
#711=ADVANCED_FACE('',(#41),#698,.F.);
#712=ADVANCED_FACE('',(#42),#18,.T.);
#713=ADVANCED_FACE('',(#43),#699,.F.);
#714=ADVANCED_FACE('',(#44),#19,.T.);
#715=ADVANCED_FACE('',(#45),#700,.F.);
#716=ADVANCED_FACE('',(#46),#20,.T.);
#717=ADVANCED_FACE('',(#47),#701,.F.);
#718=ADVANCED_FACE('',(#48),#21,.T.);
#719=ADVANCED_FACE('',(#49),#702,.F.);
#720=ADVANCED_FACE('',(#50),#22,.T.);
#721=ADVANCED_FACE('',(#51),#703,.F.);
#722=ADVANCED_FACE('',(#52),#23,.T.);
#723=ADVANCED_FACE('',(#53),#704,.F.);
#724=ADVANCED_FACE('',(#54),#24,.T.);
#725=ADVANCED_FACE('',(#55),#705,.T.);
#726=ADVANCED_FACE('',(#56),#706,.T.);
#727=ADVANCED_FACE('',(#57),#25,.T.);
#728=ADVANCED_FACE('',(#58),#707,.T.);
#729=ADVANCED_FACE('',(#59),#708,.T.);
#730=ADVANCED_FACE('',(#60),#26,.T.);
#731=ADVANCED_FACE('',(#61),#27,.T.);
#732=ADVANCED_FACE('',(#62),#28,.F.);
#733=ADVANCED_FACE('',(#63),#29,.T.);
#734=ADVANCED_FACE('',(#64),#30,.T.);
#735=ADVANCED_FACE('',(#65),#31,.T.);
#736=ADVANCED_FACE('',(#66),#32,.T.);
#737=ADVANCED_FACE('',(#67,#15),#33,.T.);
#738=ADVANCED_FACE('',(#68),#34,.T.);
#739=ADVANCED_FACE('',(#69),#35,.T.);
#740=ADVANCED_FACE('',(#70,#16),#36,.T.);
#741=ADVANCED_FACE('',(#71),#37,.T.);
#742=ADVANCED_FACE('',(#72),#38,.F.);
#743=CLOSED_SHELL('',(#709,#710,#711,#712,#713,#714,#715,#716,#717,#718,
#719,#720,#721,#722,#723,#724,#725,#726,#727,#728,#729,#730,#731,#732,#733,
#734,#735,#736,#737,#738,#739,#740,#741,#742));
#744=DERIVED_UNIT_ELEMENT(#746,1.);
#745=DERIVED_UNIT_ELEMENT(#1237,-3.);
#746=(
MASS_UNIT()
NAMED_UNIT(*)
SI_UNIT(.KILO.,.GRAM.)
);
#747=DERIVED_UNIT((#744,#745));
#748=MEASURE_REPRESENTATION_ITEM('density measure',
POSITIVE_RATIO_MEASURE(7850.),#747);
#749=PROPERTY_DEFINITION_REPRESENTATION(#754,#751);
#750=PROPERTY_DEFINITION_REPRESENTATION(#755,#752);
#751=REPRESENTATION('material name',(#753),#1234);
#752=REPRESENTATION('density',(#748),#1234);
#753=DESCRIPTIVE_REPRESENTATION_ITEM('Steel','Steel');
#754=PROPERTY_DEFINITION('material property','material name',#1244);
#755=PROPERTY_DEFINITION('material property','density of part',#1244);
#756=AXIS2_PLACEMENT_3D('',#1017,#815,#816);
#757=AXIS2_PLACEMENT_3D('',#1018,#817,#818);
#758=AXIS2_PLACEMENT_3D('',#1021,#819,#820);
#759=AXIS2_PLACEMENT_3D('',#1025,#822,#823);
#760=AXIS2_PLACEMENT_3D('',#1027,#825,#826);
#761=AXIS2_PLACEMENT_3D('',#1041,#834,#835);
#762=AXIS2_PLACEMENT_3D('',#1043,#836,#837);
#763=AXIS2_PLACEMENT_3D('',#1046,#839,#840);
#764=AXIS2_PLACEMENT_3D('',#1047,#841,#842);
#765=AXIS2_PLACEMENT_3D('',#1053,#846,#847);
#766=AXIS2_PLACEMENT_3D('',#1055,#848,#849);
#767=AXIS2_PLACEMENT_3D('',#1058,#851,#852);
#768=AXIS2_PLACEMENT_3D('',#1059,#853,#854);
#769=AXIS2_PLACEMENT_3D('',#1073,#862,#863);
#770=AXIS2_PLACEMENT_3D('',#1075,#864,#865);
#771=AXIS2_PLACEMENT_3D('',#1078,#867,#868);
#772=AXIS2_PLACEMENT_3D('',#1079,#869,#870);
#773=AXIS2_PLACEMENT_3D('',#1082,#873,#874);
#774=AXIS2_PLACEMENT_3D('',#1085,#875,#876);
#775=AXIS2_PLACEMENT_3D('',#1089,#878,#879);
#776=AXIS2_PLACEMENT_3D('',#1091,#881,#882);
#777=AXIS2_PLACEMENT_3D('',#1105,#890,#891);
#778=AXIS2_PLACEMENT_3D('',#1107,#892,#893);
#779=AXIS2_PLACEMENT_3D('',#1110,#895,#896);
#780=AXIS2_PLACEMENT_3D('',#1111,#897,#898);
#781=AXIS2_PLACEMENT_3D('',#1117,#902,#903);
#782=AXIS2_PLACEMENT_3D('',#1120,#904,#905);
#783=AXIS2_PLACEMENT_3D('',#1124,#907,#908);
#784=AXIS2_PLACEMENT_3D('',#1126,#910,#911);
#785=AXIS2_PLACEMENT_3D('',#1129,#914,#915);
#786=AXIS2_PLACEMENT_3D('',#1131,#916,#917);
#787=AXIS2_PLACEMENT_3D('',#1134,#919,#920);
#788=AXIS2_PLACEMENT_3D('',#1135,#921,#922);
#789=AXIS2_PLACEMENT_3D('',#1146,#929,#930);
#790=AXIS2_PLACEMENT_3D('',#1148,#931,#932);
#791=AXIS2_PLACEMENT_3D('',#1150,#933,#934);
#792=AXIS2_PLACEMENT_3D('',#1152,#936,#937);
#793=AXIS2_PLACEMENT_3D('',#1154,#938,#939);
#794=AXIS2_PLACEMENT_3D('',#1157,#941,#942);
#795=AXIS2_PLACEMENT_3D('',#1158,#943,#944);
#796=AXIS2_PLACEMENT_3D('',#1164,#948,#949);
#797=AXIS2_PLACEMENT_3D('',#1166,#950,#951);
#798=AXIS2_PLACEMENT_3D('',#1168,#952,#953);
#799=AXIS2_PLACEMENT_3D('',#1170,#955,#956);
#800=AXIS2_PLACEMENT_3D('',#1172,#957,#958);
#801=AXIS2_PLACEMENT_3D('',#1175,#960,#961);
#802=AXIS2_PLACEMENT_3D('',#1176,#962,#963);
#803=AXIS2_PLACEMENT_3D('',#1182,#967,#968);
#804=AXIS2_PLACEMENT_3D('',#1193,#975,#976);
#805=AXIS2_PLACEMENT_3D('',#1200,#981,#982);
#806=AXIS2_PLACEMENT_3D('',#1204,#985,#986);
#807=AXIS2_PLACEMENT_3D('',#1209,#990,#991);
#808=AXIS2_PLACEMENT_3D('',#1211,#993,#994);
#809=AXIS2_PLACEMENT_3D('',#1215,#997,#998);
#810=AXIS2_PLACEMENT_3D('',#1219,#1001,#1002);
#811=AXIS2_PLACEMENT_3D('',#1221,#1004,#1005);
#812=AXIS2_PLACEMENT_3D('',#1225,#1008,#1009);
#813=AXIS2_PLACEMENT_3D('',#1229,#1012,#1013);
#814=AXIS2_PLACEMENT_3D('',#1231,#1015,#1016);
#815=DIRECTION('axis',(0.,0.,1.));
#816=DIRECTION('refdir',(1.,0.,0.));
#817=DIRECTION('center_axis',(0.,0.,1.));
#818=DIRECTION('ref_axis',(-0.5,-0.866025403784439,0.));
#819=DIRECTION('center_axis',(0.,0.,-1.));
#820=DIRECTION('ref_axis',(-0.5,-0.866025403784439,0.));
#821=DIRECTION('',(0.,0.,1.));
#822=DIRECTION('center_axis',(0.,0.,1.));
#823=DIRECTION('ref_axis',(-0.5,-0.866025403784439,0.));
#824=DIRECTION('',(0.,0.,-1.));
#825=DIRECTION('center_axis',(0.866025403784438,0.500000000000001,0.));
#826=DIRECTION('ref_axis',(-0.500000000000001,0.866025403784438,0.));
#827=DIRECTION('',(0.500000000000001,-0.866025403784438,0.));
#828=DIRECTION('',(0.,0.,1.));
#829=DIRECTION('',(-0.500000000000001,0.866025403784438,0.));
#830=DIRECTION('',(0.,0.,1.));
#831=DIRECTION('',(0.500000000000001,-0.866025403784438,0.));
#832=DIRECTION('',(0.,0.,1.));
#833=DIRECTION('',(-0.500000000000001,0.866025403784438,0.));
#834=DIRECTION('center_axis',(0.,0.,1.));
#835=DIRECTION('ref_axis',(-0.5,-0.866025403784439,0.));
#836=DIRECTION('center_axis',(0.,0.,1.));
#837=DIRECTION('ref_axis',(-0.5,-0.866025403784439,0.));
#838=DIRECTION('',(0.,0.,-1.));
#839=DIRECTION('center_axis',(0.,0.,-1.));
#840=DIRECTION('ref_axis',(-0.5,-0.866025403784439,0.));
#841=DIRECTION('center_axis',(0.,1.,0.));
#842=DIRECTION('ref_axis',(-1.,0.,0.));
#843=DIRECTION('',(-1.,0.,0.));
#844=DIRECTION('',(0.,0.,1.));
#845=DIRECTION('',(-1.,0.,0.));
#846=DIRECTION('center_axis',(0.,0.,1.));
#847=DIRECTION('ref_axis',(0.499999999999999,-0.866025403784439,0.));
#848=DIRECTION('center_axis',(0.,0.,1.));
#849=DIRECTION('ref_axis',(0.499999999999999,-0.866025403784439,0.));
#850=DIRECTION('',(0.,0.,-1.));
#851=DIRECTION('center_axis',(0.,0.,-1.));
#852=DIRECTION('ref_axis',(0.499999999999999,-0.866025403784439,0.));
#853=DIRECTION('center_axis',(-0.866025403784438,0.500000000000001,0.));
#854=DIRECTION('ref_axis',(-0.500000000000001,-0.866025403784438,0.));
#855=DIRECTION('',(-0.500000000000001,-0.866025403784438,0.));
#856=DIRECTION('',(0.,0.,-1.));
#857=DIRECTION('',(0.500000000000001,0.866025403784438,0.));
#858=DIRECTION('',(0.,0.,-1.));
#859=DIRECTION('',(-0.500000000000001,-0.866025403784438,0.));
#860=DIRECTION('',(0.,0.,1.));
#861=DIRECTION('',(-0.500000000000001,-0.866025403784438,0.));
#862=DIRECTION('center_axis',(0.,0.,1.));
#863=DIRECTION('ref_axis',(0.499999999999999,-0.866025403784439,0.));
#864=DIRECTION('center_axis',(0.,0.,-1.));
#865=DIRECTION('ref_axis',(0.499999999999999,-0.866025403784439,0.));
#866=DIRECTION('',(0.,0.,1.));
#867=DIRECTION('center_axis',(0.,0.,1.));
#868=DIRECTION('ref_axis',(0.499999999999999,-0.866025403784439,0.));
#869=DIRECTION('center_axis',(0.,1.,0.));
#870=DIRECTION('ref_axis',(-1.,0.,0.));
#871=DIRECTION('',(-1.,0.,0.));
#872=DIRECTION('',(1.,0.,0.));
#873=DIRECTION('center_axis',(0.,0.,1.));
#874=DIRECTION('ref_axis',(-0.5,0.866025403784439,0.));
#875=DIRECTION('center_axis',(0.,0.,1.));
#876=DIRECTION('ref_axis',(-0.5,0.866025403784439,0.));
#877=DIRECTION('',(0.,0.,-1.));
#878=DIRECTION('center_axis',(0.,0.,-1.));
#879=DIRECTION('ref_axis',(-0.5,0.866025403784439,0.));
#880=DIRECTION('',(0.,0.,1.));
#881=DIRECTION('center_axis',(0.866025403784438,-0.500000000000001,0.));
#882=DIRECTION('ref_axis',(0.500000000000001,0.866025403784438,0.));
#883=DIRECTION('',(0.500000000000001,0.866025403784438,0.));
#884=DIRECTION('',(0.,0.,-1.));
#885=DIRECTION('',(-0.500000000000001,-0.866025403784438,0.));
#886=DIRECTION('',(0.,0.,-1.));
#887=DIRECTION('',(0.500000000000001,0.866025403784438,0.));
#888=DIRECTION('',(0.,0.,1.));
#889=DIRECTION('',(0.500000000000001,0.866025403784438,0.));
#890=DIRECTION('center_axis',(0.,0.,1.));
#891=DIRECTION('ref_axis',(-0.5,0.866025403784439,0.));
#892=DIRECTION('center_axis',(0.,0.,-1.));
#893=DIRECTION('ref_axis',(-0.5,0.866025403784439,0.));
#894=DIRECTION('',(0.,0.,1.));
#895=DIRECTION('center_axis',(0.,0.,1.));
#896=DIRECTION('ref_axis',(-0.5,0.866025403784439,0.));
#897=DIRECTION('center_axis',(-3.26536183713281E-16,-1.,0.));
#898=DIRECTION('ref_axis',(1.,-3.26536183713281E-16,0.));
#899=DIRECTION('',(-1.,3.26536183713281E-16,0.));
#900=DIRECTION('',(0.,0.,-1.));
#901=DIRECTION('',(1.,-3.26536183713281E-16,0.));
#902=DIRECTION('center_axis',(0.,0.,1.));
#903=DIRECTION('ref_axis',(0.5,0.866025403784439,0.));
#904=DIRECTION('center_axis',(0.,0.,1.));
#905=DIRECTION('ref_axis',(0.5,0.866025403784439,0.));
#906=DIRECTION('',(0.,0.,-1.));
#907=DIRECTION('center_axis',(0.,0.,-1.));
#908=DIRECTION('ref_axis',(0.5,0.866025403784439,0.));
#909=DIRECTION('',(0.,0.,1.));
#910=DIRECTION('center_axis',(-3.26536183713281E-16,-1.,0.));
#911=DIRECTION('ref_axis',(1.,-3.26536183713281E-16,0.));
#912=DIRECTION('',(1.,-3.26536183713281E-16,0.));
#913=DIRECTION('',(1.,-3.26536183713281E-16,0.));
#914=DIRECTION('center_axis',(0.,0.,1.));
#915=DIRECTION('ref_axis',(0.5,0.866025403784439,0.));
#916=DIRECTION('center_axis',(0.,0.,-1.));
#917=DIRECTION('ref_axis',(0.5,0.866025403784439,0.));
#918=DIRECTION('',(0.,0.,1.));
#919=DIRECTION('center_axis',(0.,0.,1.));
#920=DIRECTION('ref_axis',(0.5,0.866025403784439,0.));
#921=DIRECTION('center_axis',(-0.866025403784438,-0.500000000000001,0.));
#922=DIRECTION('ref_axis',(0.500000000000001,-0.866025403784438,0.));
#923=DIRECTION('',(-0.500000000000001,0.866025403784438,0.));
#924=DIRECTION('',(0.,0.,1.));
#925=DIRECTION('',(0.500000000000001,-0.866025403784438,0.));
#926=DIRECTION('',(-0.500000000000001,0.866025403784438,0.));
#927=DIRECTION('',(0.,0.,1.));
#928=DIRECTION('',(0.500000000000001,-0.866025403784438,0.));
#929=DIRECTION('center_axis',(0.,0.,1.));
#930=DIRECTION('ref_axis',(-0.866025403784438,0.500000000000001,0.));
#931=DIRECTION('center_axis',(0.,0.,-1.));
#932=DIRECTION('ref_axis',(-0.866025403784438,0.500000000000001,0.));
#933=DIRECTION('center_axis',(0.,0.,1.));
#934=DIRECTION('ref_axis',(-0.866025403784438,0.500000000000001,0.));
#935=DIRECTION('',(0.,0.,-1.));
#936=DIRECTION('center_axis',(0.,0.,1.));
#937=DIRECTION('ref_axis',(-0.866025403784438,-0.500000000000001,0.));
#938=DIRECTION('center_axis',(0.,0.,-1.));
#939=DIRECTION('ref_axis',(-0.866025403784438,-0.500000000000001,0.));
#940=DIRECTION('',(0.,0.,1.));
#941=DIRECTION('center_axis',(0.,0.,1.));
#942=DIRECTION('ref_axis',(-0.866025403784438,-0.500000000000001,0.));
#943=DIRECTION('center_axis',(0.,-1.,0.));
#944=DIRECTION('ref_axis',(1.,0.,0.));
#945=DIRECTION('',(-1.,0.,0.));
#946=DIRECTION('',(0.,0.,1.));
#947=DIRECTION('',(1.,0.,0.));
#948=DIRECTION('center_axis',(0.,0.,1.));
#949=DIRECTION('ref_axis',(0.866025403784438,-0.500000000000001,0.));
#950=DIRECTION('center_axis',(0.,0.,-1.));
#951=DIRECTION('ref_axis',(0.866025403784438,-0.500000000000001,0.));
#952=DIRECTION('center_axis',(0.,0.,1.));
#953=DIRECTION('ref_axis',(0.866025403784438,-0.500000000000001,0.));
#954=DIRECTION('',(0.,0.,-1.));
#955=DIRECTION('center_axis',(0.,0.,1.));
#956=DIRECTION('ref_axis',(0.866025403784438,0.500000000000001,0.));
#957=DIRECTION('center_axis',(0.,0.,-1.));
#958=DIRECTION('ref_axis',(0.866025403784438,0.500000000000001,0.));
#959=DIRECTION('',(0.,0.,1.));
#960=DIRECTION('center_axis',(0.,0.,1.));
#961=DIRECTION('ref_axis',(0.866025403784438,0.500000000000001,0.));
#962=DIRECTION('center_axis',(4.07772991164276E-16,1.,0.));
#963=DIRECTION('ref_axis',(-1.,4.07772991164276E-16,0.));
#964=DIRECTION('',(1.,-4.07772991164276E-16,0.));
#965=DIRECTION('',(0.,0.,1.));
#966=DIRECTION('',(-1.,4.07772991164276E-16,0.));
#967=DIRECTION('center_axis',(0.,0.,1.));
#968=DIRECTION('ref_axis',(1.,0.,0.));
#969=DIRECTION('',(1.,0.,0.));
#970=DIRECTION('',(0.,1.,0.));
#971=DIRECTION('',(-1.,0.,0.));
#972=DIRECTION('',(-1.,0.,0.));
#973=DIRECTION('',(0.,-1.,0.));
#974=DIRECTION('',(1.,0.,0.));
#975=DIRECTION('center_axis',(0.,0.,1.));
#976=DIRECTION('ref_axis',(1.,0.,0.));
#977=DIRECTION('',(0.,1.,0.));
#978=DIRECTION('',(1.,0.,0.));
#979=DIRECTION('',(0.,-1.,0.));
#980=DIRECTION('',(-1.,-8.15545982328552E-16,0.));
#981=DIRECTION('center_axis',(0.,-1.,0.));
#982=DIRECTION('ref_axis',(1.,0.,0.));
#983=DIRECTION('',(0.,0.,1.));
#984=DIRECTION('',(-1.,0.,0.));
#985=DIRECTION('center_axis',(0.,0.,1.));
#986=DIRECTION('ref_axis',(1.,0.,0.));
#987=DIRECTION('',(0.,-1.,0.));
#988=DIRECTION('',(1.,8.15545982328552E-16,0.));
#989=DIRECTION('',(0.,1.,0.));
#990=DIRECTION('center_axis',(-8.15545982328552E-16,1.,0.));
#991=DIRECTION('ref_axis',(-1.,-8.15545982328552E-16,0.));
#992=DIRECTION('',(0.,0.,1.));
#993=DIRECTION('center_axis',(0.,-1.,0.));
#994=DIRECTION('ref_axis',(1.,0.,0.));
#995=DIRECTION('',(-1.,0.,0.));
#996=DIRECTION('',(0.,0.,1.));
#997=DIRECTION('center_axis',(-1.,0.,0.));
#998=DIRECTION('ref_axis',(0.,-1.,0.));
#999=DIRECTION('',(0.,0.,1.));
#1000=DIRECTION('',(0.,1.,0.));
#1001=DIRECTION('center_axis',(0.,1.,0.));
#1002=DIRECTION('ref_axis',(-1.,0.,0.));
#1003=DIRECTION('',(1.,0.,0.));
#1004=DIRECTION('center_axis',(0.,1.,0.));
#1005=DIRECTION('ref_axis',(-1.,0.,0.));
#1006=DIRECTION('',(-1.,0.,0.));
#1007=DIRECTION('',(0.,0.,1.));
#1008=DIRECTION('center_axis',(1.,0.,0.));
#1009=DIRECTION('ref_axis',(0.,1.,0.));
#1010=DIRECTION('',(0.,0.,1.));
#1011=DIRECTION('',(0.,1.,0.));
#1012=DIRECTION('center_axis',(0.,-1.,0.));
#1013=DIRECTION('ref_axis',(1.,0.,0.));
#1014=DIRECTION('',(1.,0.,0.));
#1015=DIRECTION('center_axis',(0.,0.,1.));
#1016=DIRECTION('ref_axis',(1.,0.,0.));
#1017=CARTESIAN_POINT('',(0.,0.,0.));
#1018=CARTESIAN_POINT('Origin',(-5.64529946162075,11.4,4.3));
#1019=CARTESIAN_POINT('',(-5.64529946162075,9.4,8.6));
#1020=CARTESIAN_POINT('',(-7.37735026918962,10.4,8.6));
#1021=CARTESIAN_POINT('Origin',(-5.64529946162075,11.4,8.6));
#1022=CARTESIAN_POINT('',(-7.37735026918962,10.4,10.2));
#1023=CARTESIAN_POINT('',(-7.37735026918963,10.4,4.3));
#1024=CARTESIAN_POINT('',(-5.64529946162075,9.4,10.2));
#1025=CARTESIAN_POINT('Origin',(-5.64529946162075,11.4,10.2));
#1026=CARTESIAN_POINT('',(-5.64529946162075,9.4,4.3));
#1027=CARTESIAN_POINT('Origin',(-6.8,9.4,0.));
#1028=CARTESIAN_POINT('',(-9.45581123827229,14.,8.6));
#1029=CARTESIAN_POINT('',(-3.91484030110656,4.40275681356646,8.6));
#1030=CARTESIAN_POINT('',(-9.45581123827229,14.,1.6));
#1031=CARTESIAN_POINT('',(-9.45581123827229,14.,0.8));
#1032=CARTESIAN_POINT('',(-7.37735026918963,10.4,1.6));
#1033=CARTESIAN_POINT('',(-10.0331615074619,15.,1.6));
#1034=CARTESIAN_POINT('',(-7.37735026918963,10.4,0.));
#1035=CARTESIAN_POINT('',(-7.37735026918963,10.4,0.));
#1036=CARTESIAN_POINT('',(-10.0331615074619,15.,0.));
#1037=CARTESIAN_POINT('',(-10.0331615074619,15.,0.));
#1038=CARTESIAN_POINT('',(-10.0331615074619,15.,10.2));
#1039=CARTESIAN_POINT('',(-10.0331615074619,15.,0.));
#1040=CARTESIAN_POINT('',(-3.91484030110656,4.40275681356646,10.2));
#1041=CARTESIAN_POINT('Origin',(-5.64529946162075,11.4,0.));
#1042=CARTESIAN_POINT('',(-5.64529946162075,9.4,1.6));
#1043=CARTESIAN_POINT('Origin',(-5.64529946162075,11.4,1.6));
#1044=CARTESIAN_POINT('',(-5.64529946162075,9.4,0.));
#1045=CARTESIAN_POINT('',(-5.64529946162075,9.4,0.));
#1046=CARTESIAN_POINT('Origin',(-5.64529946162075,11.4,0.));
#1047=CARTESIAN_POINT('Origin',(6.8,9.4,0.));
#1048=CARTESIAN_POINT('',(5.64529946162075,9.4,1.6));
#1049=CARTESIAN_POINT('',(6.8,9.4,1.6));
#1050=CARTESIAN_POINT('',(5.64529946162075,9.4,0.));
#1051=CARTESIAN_POINT('',(5.64529946162075,9.4,0.));
#1052=CARTESIAN_POINT('',(6.8,9.4,0.));
#1053=CARTESIAN_POINT('Origin',(5.64529946162075,11.4,0.));
#1054=CARTESIAN_POINT('',(7.37735026918963,10.4,1.6));
#1055=CARTESIAN_POINT('Origin',(5.64529946162075,11.4,1.6));
#1056=CARTESIAN_POINT('',(7.37735026918963,10.4,0.));
#1057=CARTESIAN_POINT('',(7.37735026918963,10.4,0.));
#1058=CARTESIAN_POINT('Origin',(5.64529946162075,11.4,0.));
#1059=CARTESIAN_POINT('Origin',(10.0331615074619,15.,0.));
#1060=CARTESIAN_POINT('',(9.45581123827229,14.,1.6));
#1061=CARTESIAN_POINT('',(10.0331615074619,15.,1.6));
#1062=CARTESIAN_POINT('',(9.45581123827229,14.,8.6));
#1063=CARTESIAN_POINT('',(9.45581123827229,14.,0.8));
#1064=CARTESIAN_POINT('',(7.37735026918963,10.4,8.6));
#1065=CARTESIAN_POINT('',(5.53142105483752,7.20275681356646,8.6));
#1066=CARTESIAN_POINT('',(7.37735026918963,10.4,10.2));
#1067=CARTESIAN_POINT('',(7.37735026918963,10.4,4.3));
#1068=CARTESIAN_POINT('',(10.0331615074619,15.,10.2));
#1069=CARTESIAN_POINT('',(5.53142105483752,7.20275681356646,10.2));
#1070=CARTESIAN_POINT('',(10.0331615074619,15.,0.));
#1071=CARTESIAN_POINT('',(10.0331615074619,15.,0.));
#1072=CARTESIAN_POINT('',(10.0331615074619,15.,0.));
#1073=CARTESIAN_POINT('Origin',(5.64529946162075,11.4,4.3));
#1074=CARTESIAN_POINT('',(5.64529946162075,9.4,8.6));
#1075=CARTESIAN_POINT('Origin',(5.64529946162075,11.4,8.6));
#1076=CARTESIAN_POINT('',(5.64529946162075,9.4,10.2));
#1077=CARTESIAN_POINT('',(5.64529946162075,9.4,4.3));
#1078=CARTESIAN_POINT('Origin',(5.64529946162075,11.4,10.2));
#1079=CARTESIAN_POINT('Origin',(6.8,9.4,8.6));
#1080=CARTESIAN_POINT('',(3.4,9.4,10.2));
#1081=CARTESIAN_POINT('',(3.4,9.4,8.6));
#1082=CARTESIAN_POINT('Origin',(-5.64529946162075,-11.4,0.));
#1083=CARTESIAN_POINT('',(-5.64529946162075,-9.4,1.6));
#1084=CARTESIAN_POINT('',(-7.37735026918963,-10.4,1.6));
#1085=CARTESIAN_POINT('Origin',(-5.64529946162075,-11.4,1.6));
#1086=CARTESIAN_POINT('',(-7.37735026918963,-10.4,0.));
#1087=CARTESIAN_POINT('',(-7.37735026918963,-10.4,0.));
#1088=CARTESIAN_POINT('',(-5.64529946162075,-9.4,0.));
#1089=CARTESIAN_POINT('Origin',(-5.64529946162075,-11.4,0.));
#1090=CARTESIAN_POINT('',(-5.64529946162075,-9.4,0.));
#1091=CARTESIAN_POINT('Origin',(-10.0331615074619,-15.,0.));
#1092=CARTESIAN_POINT('',(-9.45581123827229,-14.,1.6));
#1093=CARTESIAN_POINT('',(-10.0331615074619,-15.,1.6));
#1094=CARTESIAN_POINT('',(-9.45581123827229,-14.,8.6));
#1095=CARTESIAN_POINT('',(-9.45581123827229,-14.,0.8));
#1096=CARTESIAN_POINT('',(-7.37735026918963,-10.4,8.6));
#1097=CARTESIAN_POINT('',(-5.53142105483752,-7.20275681356646,8.6));
#1098=CARTESIAN_POINT('',(-7.37735026918963,-10.4,10.2));
#1099=CARTESIAN_POINT('',(-7.37735026918963,-10.4,4.3));
#1100=CARTESIAN_POINT('',(-10.0331615074619,-15.,10.2));
#1101=CARTESIAN_POINT('',(-5.53142105483752,-7.20275681356646,10.2));
#1102=CARTESIAN_POINT('',(-10.0331615074619,-15.,0.));
#1103=CARTESIAN_POINT('',(-10.0331615074619,-15.,0.));
#1104=CARTESIAN_POINT('',(-10.0331615074619,-15.,0.));
#1105=CARTESIAN_POINT('Origin',(-5.64529946162075,-11.4,4.3));
#1106=CARTESIAN_POINT('',(-5.64529946162075,-9.4,8.6));
#1107=CARTESIAN_POINT('Origin',(-5.64529946162075,-11.4,8.6));
#1108=CARTESIAN_POINT('',(-5.64529946162075,-9.4,10.2));
#1109=CARTESIAN_POINT('',(-5.64529946162075,-9.4,4.3));
#1110=CARTESIAN_POINT('Origin',(-5.64529946162075,-11.4,10.2));
#1111=CARTESIAN_POINT('Origin',(-6.8,-9.4,8.6));
#1112=CARTESIAN_POINT('',(5.64529946162076,-9.40000000000001,8.6));
#1113=CARTESIAN_POINT('',(-3.4,-9.4,8.6));
#1114=CARTESIAN_POINT('',(5.64529946162076,-9.40000000000001,10.2));
#1115=CARTESIAN_POINT('',(5.64529946162076,-9.40000000000001,4.3));
#1116=CARTESIAN_POINT('',(-3.4,-9.4,10.2));
#1117=CARTESIAN_POINT('Origin',(5.64529946162075,-11.4,0.));
#1118=CARTESIAN_POINT('',(7.37735026918963,-10.4,1.6));
#1119=CARTESIAN_POINT('',(5.64529946162076,-9.40000000000001,1.6));
#1120=CARTESIAN_POINT('Origin',(5.64529946162075,-11.4,1.6));
#1121=CARTESIAN_POINT('',(5.64529946162076,-9.40000000000001,0.));
#1122=CARTESIAN_POINT('',(5.64529946162076,-9.40000000000001,0.));
#1123=CARTESIAN_POINT('',(7.37735026918963,-10.4,0.));
#1124=CARTESIAN_POINT('Origin',(5.64529946162075,-11.4,0.));
#1125=CARTESIAN_POINT('',(7.37735026918963,-10.4,0.));
#1126=CARTESIAN_POINT('Origin',(-6.8,-9.4,0.));
#1127=CARTESIAN_POINT('',(-6.8,-9.4,0.));
#1128=CARTESIAN_POINT('',(-6.8,-9.4,1.6));
#1129=CARTESIAN_POINT('Origin',(5.64529946162075,-11.4,4.3));
#1130=CARTESIAN_POINT('',(7.37735026918963,-10.4,8.6));
#1131=CARTESIAN_POINT('Origin',(5.64529946162075,-11.4,8.6));
#1132=CARTESIAN_POINT('',(7.37735026918963,-10.4,10.2));
#1133=CARTESIAN_POINT('',(7.37735026918963,-10.4,4.3));
#1134=CARTESIAN_POINT('Origin',(5.64529946162075,-11.4,10.2));
#1135=CARTESIAN_POINT('Origin',(6.8,-9.4,0.));
#1136=CARTESIAN_POINT('',(10.0331615074619,-15.,0.));
#1137=CARTESIAN_POINT('',(10.0331615074619,-15.,0.));
#1138=CARTESIAN_POINT('',(10.0331615074619,-15.,10.2));
#1139=CARTESIAN_POINT('',(10.0331615074619,-15.,0.));
#1140=CARTESIAN_POINT('',(3.91484030110657,-4.40275681356646,10.2));
#1141=CARTESIAN_POINT('',(9.45581123827229,-14.,8.6));
#1142=CARTESIAN_POINT('',(3.91484030110657,-4.40275681356646,8.6));
#1143=CARTESIAN_POINT('',(9.45581123827229,-14.,1.6));
#1144=CARTESIAN_POINT('',(9.45581123827229,-14.,0.8));
#1145=CARTESIAN_POINT('',(10.0331615074619,-15.,1.6));
#1146=CARTESIAN_POINT('Origin',(9.80222139978606,-13.8,0.8));
#1147=CARTESIAN_POINT('',(9.80222139978606,-13.4,1.6));
#1148=CARTESIAN_POINT('Origin',(9.80222139978606,-13.8,1.6));
#1149=CARTESIAN_POINT('',(9.80222139978606,-13.4,8.6));
#1150=CARTESIAN_POINT('Origin',(9.80222139978606,-13.8,8.6));
#1151=CARTESIAN_POINT('',(9.80222139978606,-13.4,0.8));
#1152=CARTESIAN_POINT('Origin',(9.80222139978606,13.8,0.8));
#1153=CARTESIAN_POINT('',(9.80222139978606,13.4,1.6));
#1154=CARTESIAN_POINT('Origin',(9.80222139978606,13.8,1.6));
#1155=CARTESIAN_POINT('',(9.80222139978606,13.4,8.6));
#1156=CARTESIAN_POINT('',(9.80222139978606,13.4,0.8));
#1157=CARTESIAN_POINT('Origin',(9.80222139978606,13.8,8.6));
#1158=CARTESIAN_POINT('Origin',(9.10940107675851,13.4,1.6));
#1159=CARTESIAN_POINT('',(20.,13.4,1.6));
#1160=CARTESIAN_POINT('',(4.55470053837925,13.4,1.6));
#1161=CARTESIAN_POINT('',(20.,13.4,8.6));
#1162=CARTESIAN_POINT('',(20.,13.4,1.6));
#1163=CARTESIAN_POINT('',(4.55470053837925,13.4,8.6));
#1164=CARTESIAN_POINT('Origin',(-9.80222139978606,13.8,0.8));
#1165=CARTESIAN_POINT('',(-9.80222139978606,13.4,1.6));
#1166=CARTESIAN_POINT('Origin',(-9.80222139978606,13.8,1.6));
#1167=CARTESIAN_POINT('',(-9.80222139978606,13.4,8.6));
#1168=CARTESIAN_POINT('Origin',(-9.80222139978606,13.8,8.6));
#1169=CARTESIAN_POINT('',(-9.80222139978606,13.4,0.8));
#1170=CARTESIAN_POINT('Origin',(-9.80222139978606,-13.8,0.8));
#1171=CARTESIAN_POINT('',(-9.80222139978606,-13.4,1.6));
#1172=CARTESIAN_POINT('Origin',(-9.80222139978606,-13.8,1.6));
#1173=CARTESIAN_POINT('',(-9.80222139978606,-13.4,8.6));
#1174=CARTESIAN_POINT('',(-9.80222139978606,-13.4,0.8));
#1175=CARTESIAN_POINT('Origin',(-9.80222139978606,-13.8,8.6));
#1176=CARTESIAN_POINT('Origin',(-9.10940107675851,-13.4,1.6));
#1177=CARTESIAN_POINT('',(-20.,-13.4,1.6));
#1178=CARTESIAN_POINT('',(-4.55470053837926,-13.4,1.6));
#1179=CARTESIAN_POINT('',(-20.,-13.4,8.6));
#1180=CARTESIAN_POINT('',(-20.,-13.4,1.6));
#1181=CARTESIAN_POINT('',(-4.55470053837926,-13.4,8.6));
#1182=CARTESIAN_POINT('Origin',(0.,0.,10.2));
#1183=CARTESIAN_POINT('',(20.,-15.,10.2));
#1184=CARTESIAN_POINT('',(5.01658075373096,-15.,10.2));
#1185=CARTESIAN_POINT('',(20.,15.,10.2));
#1186=CARTESIAN_POINT('',(20.,-7.5,10.2));
#1187=CARTESIAN_POINT('',(10.,15.,10.2));
#1188=CARTESIAN_POINT('',(-20.,15.,10.2));
#1189=CARTESIAN_POINT('',(-5.01658075373096,15.,10.2));
#1190=CARTESIAN_POINT('',(-20.,-15.,10.2));
#1191=CARTESIAN_POINT('',(-20.,7.5,10.2));
#1192=CARTESIAN_POINT('',(-10.,-15.,10.2));
#1193=CARTESIAN_POINT('Origin',(0.,0.,8.6));
#1194=CARTESIAN_POINT('',(-20.,13.4,8.6));
#1195=CARTESIAN_POINT('',(-20.,7.5,8.6));
#1196=CARTESIAN_POINT('',(-10.,13.4,8.6));
#1197=CARTESIAN_POINT('',(20.,-13.4,8.6));
#1198=CARTESIAN_POINT('',(20.,-7.5,8.6));
#1199=CARTESIAN_POINT('',(10.,-13.4,8.6));
#1200=CARTESIAN_POINT('Origin',(-20.,13.4,1.6));
#1201=CARTESIAN_POINT('',(-20.,13.4,1.6));
#1202=CARTESIAN_POINT('',(-20.,13.4,1.6));
#1203=CARTESIAN_POINT('',(-10.,13.4,1.6));
#1204=CARTESIAN_POINT('Origin',(0.,0.,1.6));
#1205=CARTESIAN_POINT('',(-20.,-15.,1.6));
#1206=CARTESIAN_POINT('',(20.,-13.4,1.6));
#1207=CARTESIAN_POINT('',(10.,-13.4,1.6));
#1208=CARTESIAN_POINT('',(20.,-15.,1.6));
#1209=CARTESIAN_POINT('Origin',(20.,-13.4,1.6));
#1210=CARTESIAN_POINT('',(20.,-13.4,1.6));
#1211=CARTESIAN_POINT('Origin',(-20.,-15.,0.));
#1212=CARTESIAN_POINT('',(-20.,-15.,0.));
#1213=CARTESIAN_POINT('',(0.,-15.,0.));
#1214=CARTESIAN_POINT('',(-20.,-15.,0.));
#1215=CARTESIAN_POINT('Origin',(-20.,15.,0.));
#1216=CARTESIAN_POINT('',(-20.,15.,0.));
#1217=CARTESIAN_POINT('',(-20.,15.,0.));
#1218=CARTESIAN_POINT('',(-20.,-15.,0.));
#1219=CARTESIAN_POINT('Origin',(-10.0331615074619,15.,0.));
#1220=CARTESIAN_POINT('',(-20.,15.,0.));
#1221=CARTESIAN_POINT('Origin',(20.,15.,0.));
#1222=CARTESIAN_POINT('',(20.,15.,0.));
#1223=CARTESIAN_POINT('',(20.,15.,0.));
#1224=CARTESIAN_POINT('',(20.,15.,0.));
#1225=CARTESIAN_POINT('Origin',(20.,-15.,0.));
#1226=CARTESIAN_POINT('',(20.,-15.,0.));
#1227=CARTESIAN_POINT('',(20.,-15.,0.));
#1228=CARTESIAN_POINT('',(20.,-15.,0.));
#1229=CARTESIAN_POINT('Origin',(10.0331615074619,-15.,0.));
#1230=CARTESIAN_POINT('',(0.,-15.,0.));
#1231=CARTESIAN_POINT('Origin',(0.,0.,0.));
#1232=UNCERTAINTY_MEASURE_WITH_UNIT(LENGTH_MEASURE(0.01),#1236,
'DISTANCE_ACCURACY_VALUE',
'Maximum model space distance between geometric entities at asserted c
onnectivities');
#1233=UNCERTAINTY_MEASURE_WITH_UNIT(LENGTH_MEASURE(0.01),#1236,
'DISTANCE_ACCURACY_VALUE',
'Maximum model space distance between geometric entities at asserted c
onnectivities');
#1234=(
GEOMETRIC_REPRESENTATION_CONTEXT(3)
GLOBAL_UNCERTAINTY_ASSIGNED_CONTEXT((#1232))
GLOBAL_UNIT_ASSIGNED_CONTEXT((#1236,#1238,#1239))
REPRESENTATION_CONTEXT('','3D')
);
#1235=(
GEOMETRIC_REPRESENTATION_CONTEXT(3)
GLOBAL_UNCERTAINTY_ASSIGNED_CONTEXT((#1233))
GLOBAL_UNIT_ASSIGNED_CONTEXT((#1236,#1238,#1239))
REPRESENTATION_CONTEXT('','3D')
);
#1236=(
LENGTH_UNIT()
NAMED_UNIT(*)
SI_UNIT(.MILLI.,.METRE.)
);
#1237=(
LENGTH_UNIT()
NAMED_UNIT(*)
SI_UNIT($,.METRE.)
);
#1238=(
NAMED_UNIT(*)
PLANE_ANGLE_UNIT()
SI_UNIT($,.RADIAN.)
);
#1239=(
NAMED_UNIT(*)
SI_UNIT($,.STERADIAN.)
SOLID_ANGLE_UNIT()
);
#1240=SHAPE_DEFINITION_REPRESENTATION(#1241,#1242);
#1241=PRODUCT_DEFINITION_SHAPE('',$,#1244);
#1242=SHAPE_REPRESENTATION('',(#756),#1234);
#1243=PRODUCT_DEFINITION_CONTEXT('part definition',#1248,'design');
#1244=PRODUCT_DEFINITION('Buckle','Buckle v1',#1245,#1243);
#1245=PRODUCT_DEFINITION_FORMATION('',$,#1250);
#1246=PRODUCT_RELATED_PRODUCT_CATEGORY('Buckle v1','Buckle v1',(#1250));
#1247=APPLICATION_PROTOCOL_DEFINITION('international standard',
'automotive_design',2009,#1248);
#1248=APPLICATION_CONTEXT(
'Core Data for Automotive Mechanical Design Process');
#1249=PRODUCT_CONTEXT('part definition',#1248,'mechanical');
#1250=PRODUCT('Buckle','Buckle v1',$,(#1249));
#1251=PRESENTATION_STYLE_ASSIGNMENT((#1252));
#1252=SURFACE_STYLE_USAGE(.BOTH.,#1253);
#1253=SURFACE_SIDE_STYLE('',(#1254));
#1254=SURFACE_STYLE_FILL_AREA(#1255);
#1255=FILL_AREA_STYLE('Steel - Satin',(#1256));
#1256=FILL_AREA_STYLE_COLOUR('Steel - Satin',#1257);
#1257=COLOUR_RGB('Steel - Satin',0.627450980392157,0.627450980392157,0.627450980392157);
ENDSEC;
END-ISO-10303-21;
