ISO-10303-21;
HEADER;
/* Generated by software containing ST-Developer
 * from STEP Tools, Inc. (www.steptools.com) 
 */

FILE_DESCRIPTION(
/* description */ (''),
/* implementation_level */ '2;1');

FILE_NAME(
/* name */ 'Bracket_Plain.step',
/* time_stamp */ '2026-07-09T11:21:18-04:00',
/* author */ (''),
/* organization */ (''),
/* preprocessor_version */ 'ST-DEVELOPER v20.1',
/* originating_system */ 'Autodesk Translation Framework v15.8.0.0',
/* authorisation */ '');

FILE_SCHEMA (('AUTOMOTIVE_DESIGN { 1 0 10303 214 3 1 1 }'));
ENDSEC;

DATA;
#10=MECHANICAL_DESIGN_GEOMETRIC_PRESENTATION_REPRESENTATION('',(#13),#354);
#11=SHAPE_REPRESENTATION_RELATIONSHIP('SRR','None',#361,#12);
#12=ADVANCED_BREP_SHAPE_REPRESENTATION('',(#14),#353);
#13=STYLED_ITEM('',(#371),#14);
#14=MANIFOLD_SOLID_BREP('Bracket_A',#215);
#15=FACE_OUTER_BOUND('',#27,.T.);
#16=FACE_OUTER_BOUND('',#28,.T.);
#17=FACE_OUTER_BOUND('',#29,.T.);
#18=FACE_OUTER_BOUND('',#30,.T.);
#19=FACE_OUTER_BOUND('',#31,.T.);
#20=FACE_OUTER_BOUND('',#32,.T.);
#21=FACE_OUTER_BOUND('',#33,.T.);
#22=FACE_OUTER_BOUND('',#34,.T.);
#23=FACE_OUTER_BOUND('',#35,.T.);
#24=FACE_OUTER_BOUND('',#36,.T.);
#25=FACE_OUTER_BOUND('',#37,.T.);
#26=FACE_OUTER_BOUND('',#38,.T.);
#27=EDGE_LOOP('',(#137,#138,#139,#140));
#28=EDGE_LOOP('',(#141,#142,#143,#144));
#29=EDGE_LOOP('',(#145,#146,#147,#148));
#30=EDGE_LOOP('',(#149,#150,#151,#152,#153,#154));
#31=EDGE_LOOP('',(#155,#156,#157,#158,#159,#160));
#32=EDGE_LOOP('',(#161,#162,#163,#164));
#33=EDGE_LOOP('',(#165,#166,#167,#168,#169,#170));
#34=EDGE_LOOP('',(#171,#172,#173,#174));
#35=EDGE_LOOP('',(#175,#176,#177,#178));
#36=EDGE_LOOP('',(#179,#180,#181,#182));
#37=EDGE_LOOP('',(#183,#184,#185,#186));
#38=EDGE_LOOP('',(#187,#188,#189,#190));
#39=LINE('',#298,#66);
#40=LINE('',#300,#67);
#41=LINE('',#302,#68);
#42=LINE('',#303,#69);
#43=LINE('',#306,#70);
#44=LINE('',#308,#71);
#45=LINE('',#309,#72);
#46=LINE('',#312,#73);
#47=LINE('',#313,#74);
#48=LINE('',#316,#75);
#49=LINE('',#318,#76);
#50=LINE('',#320,#77);
#51=LINE('',#321,#78);
#52=LINE('',#324,#79);
#53=LINE('',#326,#80);
#54=LINE('',#328,#81);
#55=LINE('',#330,#82);
#56=LINE('',#331,#83);
#57=LINE('',#334,#84);
#58=LINE('',#336,#85);
#59=LINE('',#337,#86);
#60=LINE('',#339,#87);
#61=LINE('',#342,#88);
#62=LINE('',#343,#89);
#63=LINE('',#345,#90);
#64=LINE('',#346,#91);
#65=LINE('',#348,#92);
#66=VECTOR('',#245,10.);
#67=VECTOR('',#246,10.);
#68=VECTOR('',#247,10.);
#69=VECTOR('',#248,10.);
#70=VECTOR('',#251,10.);
#71=VECTOR('',#252,10.);
#72=VECTOR('',#253,10.);
#73=VECTOR('',#256,10.);
#74=VECTOR('',#257,10.);
#75=VECTOR('',#260,10.);
#76=VECTOR('',#261,10.);
#77=VECTOR('',#262,10.);
#78=VECTOR('',#263,10.);
#79=VECTOR('',#266,10.);
#80=VECTOR('',#267,10.);
#81=VECTOR('',#268,10.);
#82=VECTOR('',#269,10.);
#83=VECTOR('',#270,10.);
#84=VECTOR('',#273,10.);
#85=VECTOR('',#274,10.);
#86=VECTOR('',#275,10.);
#87=VECTOR('',#278,10.);
#88=VECTOR('',#281,10.);
#89=VECTOR('',#282,10.);
#90=VECTOR('',#285,10.);
#91=VECTOR('',#286,10.);
#92=VECTOR('',#289,10.);
#93=VERTEX_POINT('',#296);
#94=VERTEX_POINT('',#297);
#95=VERTEX_POINT('',#299);
#96=VERTEX_POINT('',#301);
#97=VERTEX_POINT('',#305);
#98=VERTEX_POINT('',#307);
#99=VERTEX_POINT('',#311);
#100=VERTEX_POINT('',#315);
#101=VERTEX_POINT('',#317);
#102=VERTEX_POINT('',#319);
#103=VERTEX_POINT('',#323);
#104=VERTEX_POINT('',#325);
#105=VERTEX_POINT('',#327);
#106=VERTEX_POINT('',#329);
#107=VERTEX_POINT('',#333);
#108=VERTEX_POINT('',#335);
#109=VERTEX_POINT('',#341);
#110=EDGE_CURVE('',#93,#94,#39,.T.);
#111=EDGE_CURVE('',#93,#95,#40,.T.);
#112=EDGE_CURVE('',#96,#95,#41,.T.);
#113=EDGE_CURVE('',#94,#96,#42,.T.);
#114=EDGE_CURVE('',#94,#97,#43,.T.);
#115=EDGE_CURVE('',#98,#96,#44,.T.);
#116=EDGE_CURVE('',#97,#98,#45,.T.);
#117=EDGE_CURVE('',#95,#99,#46,.T.);
#118=EDGE_CURVE('',#99,#98,#47,.T.);
#119=EDGE_CURVE('',#100,#93,#48,.T.);
#120=EDGE_CURVE('',#101,#100,#49,.T.);
#121=EDGE_CURVE('',#102,#101,#50,.T.);
#122=EDGE_CURVE('',#102,#99,#51,.T.);
#123=EDGE_CURVE('',#101,#103,#52,.T.);
#124=EDGE_CURVE('',#103,#104,#53,.T.);
#125=EDGE_CURVE('',#104,#105,#54,.T.);
#126=EDGE_CURVE('',#105,#106,#55,.T.);
#127=EDGE_CURVE('',#106,#102,#56,.T.);
#128=EDGE_CURVE('',#97,#107,#57,.T.);
#129=EDGE_CURVE('',#107,#108,#58,.T.);
#130=EDGE_CURVE('',#108,#94,#59,.T.);
#131=EDGE_CURVE('',#106,#107,#60,.T.);
#132=EDGE_CURVE('',#109,#100,#61,.T.);
#133=EDGE_CURVE('',#103,#109,#62,.T.);
#134=EDGE_CURVE('',#94,#109,#63,.T.);
#135=EDGE_CURVE('',#104,#94,#64,.T.);
#136=EDGE_CURVE('',#105,#108,#65,.T.);
#137=ORIENTED_EDGE('',*,*,#110,.F.);
#138=ORIENTED_EDGE('',*,*,#111,.T.);
#139=ORIENTED_EDGE('',*,*,#112,.F.);
#140=ORIENTED_EDGE('',*,*,#113,.F.);
#141=ORIENTED_EDGE('',*,*,#114,.F.);
#142=ORIENTED_EDGE('',*,*,#113,.T.);
#143=ORIENTED_EDGE('',*,*,#115,.F.);
#144=ORIENTED_EDGE('',*,*,#116,.F.);
#145=ORIENTED_EDGE('',*,*,#112,.T.);
#146=ORIENTED_EDGE('',*,*,#117,.T.);
#147=ORIENTED_EDGE('',*,*,#118,.T.);
#148=ORIENTED_EDGE('',*,*,#115,.T.);
#149=ORIENTED_EDGE('',*,*,#119,.F.);
#150=ORIENTED_EDGE('',*,*,#120,.F.);
#151=ORIENTED_EDGE('',*,*,#121,.F.);
#152=ORIENTED_EDGE('',*,*,#122,.T.);
#153=ORIENTED_EDGE('',*,*,#117,.F.);
#154=ORIENTED_EDGE('',*,*,#111,.F.);
#155=ORIENTED_EDGE('',*,*,#121,.T.);
#156=ORIENTED_EDGE('',*,*,#123,.T.);
#157=ORIENTED_EDGE('',*,*,#124,.T.);
#158=ORIENTED_EDGE('',*,*,#125,.T.);
#159=ORIENTED_EDGE('',*,*,#126,.T.);
#160=ORIENTED_EDGE('',*,*,#127,.T.);
#161=ORIENTED_EDGE('',*,*,#114,.T.);
#162=ORIENTED_EDGE('',*,*,#128,.T.);
#163=ORIENTED_EDGE('',*,*,#129,.T.);
#164=ORIENTED_EDGE('',*,*,#130,.T.);
#165=ORIENTED_EDGE('',*,*,#127,.F.);
#166=ORIENTED_EDGE('',*,*,#131,.T.);
#167=ORIENTED_EDGE('',*,*,#128,.F.);
#168=ORIENTED_EDGE('',*,*,#116,.T.);
#169=ORIENTED_EDGE('',*,*,#118,.F.);
#170=ORIENTED_EDGE('',*,*,#122,.F.);
#171=ORIENTED_EDGE('',*,*,#123,.F.);
#172=ORIENTED_EDGE('',*,*,#120,.T.);
#173=ORIENTED_EDGE('',*,*,#132,.F.);
#174=ORIENTED_EDGE('',*,*,#133,.F.);
#175=ORIENTED_EDGE('',*,*,#124,.F.);
#176=ORIENTED_EDGE('',*,*,#133,.T.);
#177=ORIENTED_EDGE('',*,*,#134,.F.);
#178=ORIENTED_EDGE('',*,*,#135,.F.);
#179=ORIENTED_EDGE('',*,*,#125,.F.);
#180=ORIENTED_EDGE('',*,*,#135,.T.);
#181=ORIENTED_EDGE('',*,*,#130,.F.);
#182=ORIENTED_EDGE('',*,*,#136,.F.);
#183=ORIENTED_EDGE('',*,*,#126,.F.);
#184=ORIENTED_EDGE('',*,*,#136,.T.);
#185=ORIENTED_EDGE('',*,*,#129,.F.);
#186=ORIENTED_EDGE('',*,*,#131,.F.);
#187=ORIENTED_EDGE('',*,*,#110,.T.);
#188=ORIENTED_EDGE('',*,*,#134,.T.);
#189=ORIENTED_EDGE('',*,*,#132,.T.);
#190=ORIENTED_EDGE('',*,*,#119,.T.);
#191=PLANE('',#229);
#192=PLANE('',#230);
#193=PLANE('',#231);
#194=PLANE('',#232);
#195=PLANE('',#233);
#196=PLANE('',#234);
#197=PLANE('',#235);
#198=PLANE('',#236);
#199=PLANE('',#237);
#200=PLANE('',#238);
#201=PLANE('',#239);
#202=PLANE('',#240);
#203=ADVANCED_FACE('',(#15),#191,.T.);
#204=ADVANCED_FACE('',(#16),#192,.T.);
#205=ADVANCED_FACE('',(#17),#193,.T.);
#206=ADVANCED_FACE('',(#18),#194,.T.);
#207=ADVANCED_FACE('',(#19),#195,.F.);
#208=ADVANCED_FACE('',(#20),#196,.T.);
#209=ADVANCED_FACE('',(#21),#197,.T.);
#210=ADVANCED_FACE('',(#22),#198,.T.);
#211=ADVANCED_FACE('',(#23),#199,.T.);
#212=ADVANCED_FACE('',(#24),#200,.T.);
#213=ADVANCED_FACE('',(#25),#201,.T.);
#214=ADVANCED_FACE('',(#26),#202,.T.);
#215=CLOSED_SHELL('',(#203,#204,#205,#206,#207,#208,#209,#210,#211,#212,
#213,#214));
#216=DERIVED_UNIT_ELEMENT(#218,1.);
#217=DERIVED_UNIT_ELEMENT(#356,-3.);
#218=(
MASS_UNIT()
NAMED_UNIT(*)
SI_UNIT(.KILO.,.GRAM.)
);
#219=DERIVED_UNIT((#216,#217));
#220=MEASURE_REPRESENTATION_ITEM('density measure',
POSITIVE_RATIO_MEASURE(7850.),#219);
#221=PROPERTY_DEFINITION_REPRESENTATION(#226,#223);
#222=PROPERTY_DEFINITION_REPRESENTATION(#227,#224);
#223=REPRESENTATION('material name',(#225),#353);
#224=REPRESENTATION('density',(#220),#353);
#225=DESCRIPTIVE_REPRESENTATION_ITEM('Steel','Steel');
#226=PROPERTY_DEFINITION('material property','material name',#363);
#227=PROPERTY_DEFINITION('material property','density of part',#363);
#228=AXIS2_PLACEMENT_3D('',#294,#241,#242);
#229=AXIS2_PLACEMENT_3D('',#295,#243,#244);
#230=AXIS2_PLACEMENT_3D('',#304,#249,#250);
#231=AXIS2_PLACEMENT_3D('',#310,#254,#255);
#232=AXIS2_PLACEMENT_3D('',#314,#258,#259);
#233=AXIS2_PLACEMENT_3D('',#322,#264,#265);
#234=AXIS2_PLACEMENT_3D('',#332,#271,#272);
#235=AXIS2_PLACEMENT_3D('',#338,#276,#277);
#236=AXIS2_PLACEMENT_3D('',#340,#279,#280);
#237=AXIS2_PLACEMENT_3D('',#344,#283,#284);
#238=AXIS2_PLACEMENT_3D('',#347,#287,#288);
#239=AXIS2_PLACEMENT_3D('',#349,#290,#291);
#240=AXIS2_PLACEMENT_3D('',#350,#292,#293);
#241=DIRECTION('axis',(0.,0.,1.));
#242=DIRECTION('refdir',(1.,0.,0.));
#243=DIRECTION('center_axis',(1.,0.,0.));
#244=DIRECTION('ref_axis',(0.,1.,0.));
#245=DIRECTION('',(0.,-1.,0.));
#246=DIRECTION('',(0.,0.,1.));
#247=DIRECTION('',(0.,1.,0.));
#248=DIRECTION('',(0.,0.,1.));
#249=DIRECTION('center_axis',(0.,-1.,0.));
#250=DIRECTION('ref_axis',(1.,0.,0.));
#251=DIRECTION('',(-1.,0.,0.));
#252=DIRECTION('',(1.,0.,0.));
#253=DIRECTION('',(0.,0.,1.));
#254=DIRECTION('center_axis',(0.,0.,1.));
#255=DIRECTION('ref_axis',(1.,0.,0.));
#256=DIRECTION('',(-1.,0.,0.));
#257=DIRECTION('',(0.,-1.,0.));
#258=DIRECTION('center_axis',(2.46519032881566E-33,1.,0.));
#259=DIRECTION('ref_axis',(-1.,2.46519032881566E-33,0.));
#260=DIRECTION('',(-1.,2.46519032881566E-33,0.));
#261=DIRECTION('',(0.,0.,1.));
#262=DIRECTION('',(1.,-2.46519032881566E-33,0.));
#263=DIRECTION('',(0.,0.,1.));
#264=DIRECTION('center_axis',(0.,0.,1.));
#265=DIRECTION('ref_axis',(1.,0.,0.));
#266=DIRECTION('',(0.,-1.,0.));
#267=DIRECTION('',(-1.,0.,0.));
#268=DIRECTION('',(0.,-1.,0.));
#269=DIRECTION('',(-1.,0.,0.));
#270=DIRECTION('',(0.,1.,0.));
#271=DIRECTION('center_axis',(0.,0.,1.));
#272=DIRECTION('ref_axis',(1.,0.,0.));
#273=DIRECTION('',(0.,-1.,0.));
#274=DIRECTION('',(1.,0.,0.));
#275=DIRECTION('',(0.,1.,0.));
#276=DIRECTION('center_axis',(-1.,0.,0.));
#277=DIRECTION('ref_axis',(0.,-1.,0.));
#278=DIRECTION('',(0.,0.,1.));
#279=DIRECTION('center_axis',(1.,0.,0.));
#280=DIRECTION('ref_axis',(0.,1.,0.));
#281=DIRECTION('',(0.,1.,0.));
#282=DIRECTION('',(0.,0.,1.));
#283=DIRECTION('center_axis',(0.,-1.,0.));
#284=DIRECTION('ref_axis',(1.,0.,0.));
#285=DIRECTION('',(1.,0.,0.));
#286=DIRECTION('',(0.,0.,1.));
#287=DIRECTION('center_axis',(1.,0.,0.));
#288=DIRECTION('ref_axis',(0.,1.,0.));
#289=DIRECTION('',(0.,0.,1.));
#290=DIRECTION('center_axis',(0.,-1.,0.));
#291=DIRECTION('ref_axis',(1.,0.,0.));
#292=DIRECTION('center_axis',(0.,0.,1.));
#293=DIRECTION('ref_axis',(1.,0.,0.));
#294=CARTESIAN_POINT('',(0.,0.,0.));
#295=CARTESIAN_POINT('Origin',(16.,-16.,0.));
#296=CARTESIAN_POINT('',(16.,0.,16.));
#297=CARTESIAN_POINT('',(16.,-16.,16.));
#298=CARTESIAN_POINT('',(16.,-20.5,16.));
#299=CARTESIAN_POINT('',(16.,0.,50.));
#300=CARTESIAN_POINT('',(16.,0.,0.));
#301=CARTESIAN_POINT('',(16.,-16.,50.));
#302=CARTESIAN_POINT('',(16.,0.,50.));
#303=CARTESIAN_POINT('',(16.,-16.,0.));
#304=CARTESIAN_POINT('Origin',(0.,-16.,0.));
#305=CARTESIAN_POINT('',(0.,-16.,16.));
#306=CARTESIAN_POINT('',(12.5,-16.,16.));
#307=CARTESIAN_POINT('',(0.,-16.,50.));
#308=CARTESIAN_POINT('',(50.,-16.,50.));
#309=CARTESIAN_POINT('',(0.,-16.,0.));
#310=CARTESIAN_POINT('Origin',(8.,-8.,50.));
#311=CARTESIAN_POINT('',(0.,0.,50.));
#312=CARTESIAN_POINT('',(0.,0.,50.));
#313=CARTESIAN_POINT('',(0.,-50.,50.));
#314=CARTESIAN_POINT('Origin',(50.,-1.23259516440783E-31,0.));
#315=CARTESIAN_POINT('',(50.,0.,16.));
#316=CARTESIAN_POINT('',(0.,0.,16.));
#317=CARTESIAN_POINT('',(50.,-1.23259516440783E-31,0.));
#318=CARTESIAN_POINT('',(50.,-1.23259516440783E-31,0.));
#319=CARTESIAN_POINT('',(0.,0.,0.));
#320=CARTESIAN_POINT('',(0.,0.,0.));
#321=CARTESIAN_POINT('',(0.,0.,0.));
#322=CARTESIAN_POINT('Origin',(25.,-25.,0.));
#323=CARTESIAN_POINT('',(50.,-16.,0.));
#324=CARTESIAN_POINT('',(50.,-1.23259516440783E-31,0.));
#325=CARTESIAN_POINT('',(16.,-16.,0.));
#326=CARTESIAN_POINT('',(50.,-16.,0.));
#327=CARTESIAN_POINT('',(16.,-50.,0.));
#328=CARTESIAN_POINT('',(16.,0.,0.));
#329=CARTESIAN_POINT('',(0.,-50.,0.));
#330=CARTESIAN_POINT('',(16.,-50.,0.));
#331=CARTESIAN_POINT('',(0.,-50.,0.));
#332=CARTESIAN_POINT('Origin',(25.,-25.,16.));
#333=CARTESIAN_POINT('',(0.,-50.,16.));
#334=CARTESIAN_POINT('',(0.,-50.,16.));
#335=CARTESIAN_POINT('',(16.,-50.,16.));
#336=CARTESIAN_POINT('',(16.,-50.,16.));
#337=CARTESIAN_POINT('',(16.,0.,16.));
#338=CARTESIAN_POINT('Origin',(0.,0.,0.));
#339=CARTESIAN_POINT('',(0.,-50.,0.));
#340=CARTESIAN_POINT('Origin',(50.,-16.,0.));
#341=CARTESIAN_POINT('',(50.,-16.,16.));
#342=CARTESIAN_POINT('',(50.,-1.23259516440783E-31,16.));
#343=CARTESIAN_POINT('',(50.,-16.,0.));
#344=CARTESIAN_POINT('Origin',(16.,-16.,0.));
#345=CARTESIAN_POINT('',(50.,-16.,16.));
#346=CARTESIAN_POINT('',(16.,-16.,0.));
#347=CARTESIAN_POINT('Origin',(16.,-50.,0.));
#348=CARTESIAN_POINT('',(16.,-50.,0.));
#349=CARTESIAN_POINT('Origin',(0.,-50.,0.));
#350=CARTESIAN_POINT('Origin',(25.,-25.,16.));
#351=UNCERTAINTY_MEASURE_WITH_UNIT(LENGTH_MEASURE(0.01),#355,
'DISTANCE_ACCURACY_VALUE',
'Maximum model space distance between geometric entities at asserted c
onnectivities');
#352=UNCERTAINTY_MEASURE_WITH_UNIT(LENGTH_MEASURE(0.01),#355,
'DISTANCE_ACCURACY_VALUE',
'Maximum model space distance between geometric entities at asserted c
onnectivities');
#353=(
GEOMETRIC_REPRESENTATION_CONTEXT(3)
GLOBAL_UNCERTAINTY_ASSIGNED_CONTEXT((#351))
GLOBAL_UNIT_ASSIGNED_CONTEXT((#355,#357,#358))
REPRESENTATION_CONTEXT('','3D')
);
#354=(
GEOMETRIC_REPRESENTATION_CONTEXT(3)
GLOBAL_UNCERTAINTY_ASSIGNED_CONTEXT((#352))
GLOBAL_UNIT_ASSIGNED_CONTEXT((#355,#357,#358))
REPRESENTATION_CONTEXT('','3D')
);
#355=(
LENGTH_UNIT()
NAMED_UNIT(*)
SI_UNIT(.MILLI.,.METRE.)
);
#356=(
LENGTH_UNIT()
NAMED_UNIT(*)
SI_UNIT($,.METRE.)
);
#357=(
NAMED_UNIT(*)
PLANE_ANGLE_UNIT()
SI_UNIT($,.RADIAN.)
);
#358=(
NAMED_UNIT(*)
SI_UNIT($,.STERADIAN.)
SOLID_ANGLE_UNIT()
);
#359=SHAPE_DEFINITION_REPRESENTATION(#360,#361);
#360=PRODUCT_DEFINITION_SHAPE('',$,#363);
#361=SHAPE_REPRESENTATION('',(#228),#353);
#362=PRODUCT_DEFINITION_CONTEXT('part definition',#367,'design');
#363=PRODUCT_DEFINITION('Bracket new','Bracket new v2',#364,#362);
#364=PRODUCT_DEFINITION_FORMATION('',$,#369);
#365=PRODUCT_RELATED_PRODUCT_CATEGORY('Bracket new v2','Bracket new v2',
(#369));
#366=APPLICATION_PROTOCOL_DEFINITION('international standard',
'automotive_design',2009,#367);
#367=APPLICATION_CONTEXT(
'Core Data for Automotive Mechanical Design Process');
#368=PRODUCT_CONTEXT('part definition',#367,'mechanical');
#369=PRODUCT('Bracket new','Bracket new v2',$,(#368));
#370=PRESENTATION_STYLE_ASSIGNMENT((#372));
#371=PRESENTATION_STYLE_ASSIGNMENT((#373));
#372=SURFACE_STYLE_USAGE(.BOTH.,#374);
#373=SURFACE_STYLE_USAGE(.BOTH.,#375);
#374=SURFACE_SIDE_STYLE('',(#376));
#375=SURFACE_SIDE_STYLE('',(#377));
#376=SURFACE_STYLE_FILL_AREA(#378);
#377=SURFACE_STYLE_FILL_AREA(#379);
#378=FILL_AREA_STYLE('Steel - Satin',(#380));
#379=FILL_AREA_STYLE('Tough 2000 Light Grey',(#381));
#380=FILL_AREA_STYLE_COLOUR('Steel - Satin',#382);
#381=FILL_AREA_STYLE_COLOUR('Tough 2000 Light Grey',#383);
#382=COLOUR_RGB('Steel - Satin',0.627450980392157,0.627450980392157,0.627450980392157);
#383=COLOUR_RGB('Tough 2000 Light Grey',0.682352941176471,0.682352941176471,
0.682352941176471);
ENDSEC;
END-ISO-10303-21;
