ISO-10303-21;
HEADER;
/* Generated by software containing ST-Developer
 * from STEP Tools, Inc. (www.steptools.com) 
 */

FILE_DESCRIPTION(
/* description */ (''),
/* implementation_level */ '2;1');

FILE_NAME(
/* name */ 'Bracket_E.step',
/* time_stamp */ '2026-07-09T11:20:50-04:00',
/* author */ (''),
/* organization */ (''),
/* preprocessor_version */ 'ST-DEVELOPER v20.1',
/* originating_system */ 'Autodesk Translation Framework v15.8.0.0',
/* authorisation */ '');

FILE_SCHEMA (('AUTOMOTIVE_DESIGN { 1 0 10303 214 3 1 1 }'));
ENDSEC;

DATA;
#10=MECHANICAL_DESIGN_GEOMETRIC_PRESENTATION_REPRESENTATION('',(#13),#387);
#11=SHAPE_REPRESENTATION_RELATIONSHIP('SRR','None',#394,#12);
#12=ADVANCED_BREP_SHAPE_REPRESENTATION('',(#14),#386);
#13=STYLED_ITEM('',(#404),#14);
#14=MANIFOLD_SOLID_BREP('Bracket_E2',#236);
#15=FACE_OUTER_BOUND('',#28,.T.);
#16=FACE_OUTER_BOUND('',#29,.T.);
#17=FACE_OUTER_BOUND('',#30,.T.);
#18=FACE_OUTER_BOUND('',#31,.T.);
#19=FACE_OUTER_BOUND('',#32,.T.);
#20=FACE_OUTER_BOUND('',#33,.T.);
#21=FACE_OUTER_BOUND('',#34,.T.);
#22=FACE_OUTER_BOUND('',#35,.T.);
#23=FACE_OUTER_BOUND('',#36,.T.);
#24=FACE_OUTER_BOUND('',#37,.T.);
#25=FACE_OUTER_BOUND('',#38,.T.);
#26=FACE_OUTER_BOUND('',#39,.T.);
#27=FACE_OUTER_BOUND('',#40,.T.);
#28=EDGE_LOOP('',(#150,#151,#152));
#29=EDGE_LOOP('',(#153,#154,#155,#156,#157,#158,#159));
#30=EDGE_LOOP('',(#160,#161,#162,#163));
#31=EDGE_LOOP('',(#164,#165,#166,#167));
#32=EDGE_LOOP('',(#168,#169,#170,#171));
#33=EDGE_LOOP('',(#172,#173,#174,#175,#176,#177,#178));
#34=EDGE_LOOP('',(#179,#180,#181,#182));
#35=EDGE_LOOP('',(#183,#184,#185,#186,#187,#188,#189));
#36=EDGE_LOOP('',(#190,#191,#192,#193));
#37=EDGE_LOOP('',(#194,#195,#196,#197));
#38=EDGE_LOOP('',(#198,#199,#200,#201));
#39=EDGE_LOOP('',(#202,#203,#204,#205));
#40=EDGE_LOOP('',(#206,#207,#208,#209));
#41=LINE('',#325,#71);
#42=LINE('',#327,#72);
#43=LINE('',#328,#73);
#44=LINE('',#331,#74);
#45=LINE('',#333,#75);
#46=LINE('',#335,#76);
#47=LINE('',#337,#77);
#48=LINE('',#339,#78);
#49=LINE('',#340,#79);
#50=LINE('',#344,#80);
#51=LINE('',#346,#81);
#52=LINE('',#348,#82);
#53=LINE('',#349,#83);
#54=LINE('',#352,#84);
#55=LINE('',#354,#85);
#56=LINE('',#355,#86);
#57=LINE('',#358,#87);
#58=LINE('',#359,#88);
#59=LINE('',#361,#89);
#60=LINE('',#363,#90);
#61=LINE('',#364,#91);
#62=LINE('',#367,#92);
#63=LINE('',#369,#93);
#64=LINE('',#370,#94);
#65=LINE('',#372,#95);
#66=LINE('',#375,#96);
#67=LINE('',#376,#97);
#68=LINE('',#378,#98);
#69=LINE('',#379,#99);
#70=LINE('',#381,#100);
#71=VECTOR('',#267,10.);
#72=VECTOR('',#268,10.);
#73=VECTOR('',#269,10.);
#74=VECTOR('',#272,10.);
#75=VECTOR('',#273,10.);
#76=VECTOR('',#274,10.);
#77=VECTOR('',#275,10.);
#78=VECTOR('',#276,10.);
#79=VECTOR('',#277,10.);
#80=VECTOR('',#280,10.);
#81=VECTOR('',#281,10.);
#82=VECTOR('',#282,10.);
#83=VECTOR('',#283,10.);
#84=VECTOR('',#286,10.);
#85=VECTOR('',#287,10.);
#86=VECTOR('',#288,10.);
#87=VECTOR('',#291,10.);
#88=VECTOR('',#292,10.);
#89=VECTOR('',#295,10.);
#90=VECTOR('',#296,10.);
#91=VECTOR('',#297,10.);
#92=VECTOR('',#300,10.);
#93=VECTOR('',#301,10.);
#94=VECTOR('',#302,10.);
#95=VECTOR('',#305,10.);
#96=VECTOR('',#308,10.);
#97=VECTOR('',#309,10.);
#98=VECTOR('',#312,10.);
#99=VECTOR('',#313,10.);
#100=VECTOR('',#316,10.);
#101=VERTEX_POINT('',#323);
#102=VERTEX_POINT('',#324);
#103=VERTEX_POINT('',#326);
#104=VERTEX_POINT('',#330);
#105=VERTEX_POINT('',#332);
#106=VERTEX_POINT('',#334);
#107=VERTEX_POINT('',#336);
#108=VERTEX_POINT('',#338);
#109=VERTEX_POINT('',#342);
#110=VERTEX_POINT('',#343);
#111=VERTEX_POINT('',#345);
#112=VERTEX_POINT('',#347);
#113=VERTEX_POINT('',#351);
#114=VERTEX_POINT('',#353);
#115=VERTEX_POINT('',#357);
#116=VERTEX_POINT('',#362);
#117=VERTEX_POINT('',#366);
#118=VERTEX_POINT('',#368);
#119=VERTEX_POINT('',#374);
#120=EDGE_CURVE('',#101,#102,#41,.T.);
#121=EDGE_CURVE('',#103,#101,#42,.F.);
#122=EDGE_CURVE('',#102,#103,#43,.T.);
#123=EDGE_CURVE('',#101,#104,#44,.T.);
#124=EDGE_CURVE('',#104,#105,#45,.T.);
#125=EDGE_CURVE('',#105,#106,#46,.T.);
#126=EDGE_CURVE('',#106,#107,#47,.T.);
#127=EDGE_CURVE('',#107,#108,#48,.T.);
#128=EDGE_CURVE('',#108,#103,#49,.T.);
#129=EDGE_CURVE('',#109,#110,#50,.T.);
#130=EDGE_CURVE('',#109,#111,#51,.T.);
#131=EDGE_CURVE('',#112,#111,#52,.T.);
#132=EDGE_CURVE('',#110,#112,#53,.T.);
#133=EDGE_CURVE('',#110,#113,#54,.T.);
#134=EDGE_CURVE('',#114,#112,#55,.T.);
#135=EDGE_CURVE('',#113,#114,#56,.T.);
#136=EDGE_CURVE('',#111,#115,#57,.T.);
#137=EDGE_CURVE('',#115,#114,#58,.T.);
#138=EDGE_CURVE('',#102,#115,#59,.T.);
#139=EDGE_CURVE('',#116,#109,#60,.T.);
#140=EDGE_CURVE('',#104,#116,#61,.T.);
#141=EDGE_CURVE('',#113,#117,#62,.T.);
#142=EDGE_CURVE('',#117,#118,#63,.T.);
#143=EDGE_CURVE('',#118,#110,#64,.T.);
#144=EDGE_CURVE('',#108,#117,#65,.T.);
#145=EDGE_CURVE('',#119,#116,#66,.T.);
#146=EDGE_CURVE('',#105,#119,#67,.T.);
#147=EDGE_CURVE('',#110,#119,#68,.T.);
#148=EDGE_CURVE('',#106,#110,#69,.T.);
#149=EDGE_CURVE('',#107,#118,#70,.T.);
#150=ORIENTED_EDGE('',*,*,#120,.F.);
#151=ORIENTED_EDGE('',*,*,#121,.F.);
#152=ORIENTED_EDGE('',*,*,#122,.F.);
#153=ORIENTED_EDGE('',*,*,#121,.T.);
#154=ORIENTED_EDGE('',*,*,#123,.T.);
#155=ORIENTED_EDGE('',*,*,#124,.T.);
#156=ORIENTED_EDGE('',*,*,#125,.T.);
#157=ORIENTED_EDGE('',*,*,#126,.T.);
#158=ORIENTED_EDGE('',*,*,#127,.T.);
#159=ORIENTED_EDGE('',*,*,#128,.T.);
#160=ORIENTED_EDGE('',*,*,#129,.F.);
#161=ORIENTED_EDGE('',*,*,#130,.T.);
#162=ORIENTED_EDGE('',*,*,#131,.F.);
#163=ORIENTED_EDGE('',*,*,#132,.F.);
#164=ORIENTED_EDGE('',*,*,#133,.F.);
#165=ORIENTED_EDGE('',*,*,#132,.T.);
#166=ORIENTED_EDGE('',*,*,#134,.F.);
#167=ORIENTED_EDGE('',*,*,#135,.F.);
#168=ORIENTED_EDGE('',*,*,#131,.T.);
#169=ORIENTED_EDGE('',*,*,#136,.T.);
#170=ORIENTED_EDGE('',*,*,#137,.T.);
#171=ORIENTED_EDGE('',*,*,#134,.T.);
#172=ORIENTED_EDGE('',*,*,#120,.T.);
#173=ORIENTED_EDGE('',*,*,#138,.T.);
#174=ORIENTED_EDGE('',*,*,#136,.F.);
#175=ORIENTED_EDGE('',*,*,#130,.F.);
#176=ORIENTED_EDGE('',*,*,#139,.F.);
#177=ORIENTED_EDGE('',*,*,#140,.F.);
#178=ORIENTED_EDGE('',*,*,#123,.F.);
#179=ORIENTED_EDGE('',*,*,#133,.T.);
#180=ORIENTED_EDGE('',*,*,#141,.T.);
#181=ORIENTED_EDGE('',*,*,#142,.T.);
#182=ORIENTED_EDGE('',*,*,#143,.T.);
#183=ORIENTED_EDGE('',*,*,#122,.T.);
#184=ORIENTED_EDGE('',*,*,#128,.F.);
#185=ORIENTED_EDGE('',*,*,#144,.T.);
#186=ORIENTED_EDGE('',*,*,#141,.F.);
#187=ORIENTED_EDGE('',*,*,#135,.T.);
#188=ORIENTED_EDGE('',*,*,#137,.F.);
#189=ORIENTED_EDGE('',*,*,#138,.F.);
#190=ORIENTED_EDGE('',*,*,#124,.F.);
#191=ORIENTED_EDGE('',*,*,#140,.T.);
#192=ORIENTED_EDGE('',*,*,#145,.F.);
#193=ORIENTED_EDGE('',*,*,#146,.F.);
#194=ORIENTED_EDGE('',*,*,#125,.F.);
#195=ORIENTED_EDGE('',*,*,#146,.T.);
#196=ORIENTED_EDGE('',*,*,#147,.F.);
#197=ORIENTED_EDGE('',*,*,#148,.F.);
#198=ORIENTED_EDGE('',*,*,#126,.F.);
#199=ORIENTED_EDGE('',*,*,#148,.T.);
#200=ORIENTED_EDGE('',*,*,#143,.F.);
#201=ORIENTED_EDGE('',*,*,#149,.F.);
#202=ORIENTED_EDGE('',*,*,#127,.F.);
#203=ORIENTED_EDGE('',*,*,#149,.T.);
#204=ORIENTED_EDGE('',*,*,#142,.F.);
#205=ORIENTED_EDGE('',*,*,#144,.F.);
#206=ORIENTED_EDGE('',*,*,#129,.T.);
#207=ORIENTED_EDGE('',*,*,#147,.T.);
#208=ORIENTED_EDGE('',*,*,#145,.T.);
#209=ORIENTED_EDGE('',*,*,#139,.T.);
#210=PLANE('',#250);
#211=PLANE('',#251);
#212=PLANE('',#252);
#213=PLANE('',#253);
#214=PLANE('',#254);
#215=PLANE('',#255);
#216=PLANE('',#256);
#217=PLANE('',#257);
#218=PLANE('',#258);
#219=PLANE('',#259);
#220=PLANE('',#260);
#221=PLANE('',#261);
#222=PLANE('',#262);
#223=ADVANCED_FACE('',(#15),#210,.F.);
#224=ADVANCED_FACE('',(#16),#211,.F.);
#225=ADVANCED_FACE('',(#17),#212,.T.);
#226=ADVANCED_FACE('',(#18),#213,.T.);
#227=ADVANCED_FACE('',(#19),#214,.T.);
#228=ADVANCED_FACE('',(#20),#215,.T.);
#229=ADVANCED_FACE('',(#21),#216,.T.);
#230=ADVANCED_FACE('',(#22),#217,.T.);
#231=ADVANCED_FACE('',(#23),#218,.T.);
#232=ADVANCED_FACE('',(#24),#219,.T.);
#233=ADVANCED_FACE('',(#25),#220,.T.);
#234=ADVANCED_FACE('',(#26),#221,.T.);
#235=ADVANCED_FACE('',(#27),#222,.T.);
#236=CLOSED_SHELL('',(#223,#224,#225,#226,#227,#228,#229,#230,#231,#232,
#233,#234,#235));
#237=DERIVED_UNIT_ELEMENT(#239,1.);
#238=DERIVED_UNIT_ELEMENT(#389,-3.);
#239=(
MASS_UNIT()
NAMED_UNIT(*)
SI_UNIT(.KILO.,.GRAM.)
);
#240=DERIVED_UNIT((#237,#238));
#241=MEASURE_REPRESENTATION_ITEM('density measure',
POSITIVE_RATIO_MEASURE(7850.),#240);
#242=PROPERTY_DEFINITION_REPRESENTATION(#247,#244);
#243=PROPERTY_DEFINITION_REPRESENTATION(#248,#245);
#244=REPRESENTATION('material name',(#246),#386);
#245=REPRESENTATION('density',(#241),#386);
#246=DESCRIPTIVE_REPRESENTATION_ITEM('Steel','Steel');
#247=PROPERTY_DEFINITION('material property','material name',#396);
#248=PROPERTY_DEFINITION('material property','density of part',#396);
#249=AXIS2_PLACEMENT_3D('',#321,#263,#264);
#250=AXIS2_PLACEMENT_3D('',#322,#265,#266);
#251=AXIS2_PLACEMENT_3D('',#329,#270,#271);
#252=AXIS2_PLACEMENT_3D('',#341,#278,#279);
#253=AXIS2_PLACEMENT_3D('',#350,#284,#285);
#254=AXIS2_PLACEMENT_3D('',#356,#289,#290);
#255=AXIS2_PLACEMENT_3D('',#360,#293,#294);
#256=AXIS2_PLACEMENT_3D('',#365,#298,#299);
#257=AXIS2_PLACEMENT_3D('',#371,#303,#304);
#258=AXIS2_PLACEMENT_3D('',#373,#306,#307);
#259=AXIS2_PLACEMENT_3D('',#377,#310,#311);
#260=AXIS2_PLACEMENT_3D('',#380,#314,#315);
#261=AXIS2_PLACEMENT_3D('',#382,#317,#318);
#262=AXIS2_PLACEMENT_3D('',#383,#319,#320);
#263=DIRECTION('axis',(0.,0.,1.));
#264=DIRECTION('refdir',(1.,0.,0.));
#265=DIRECTION('center_axis',(-6.80124710698439E-6,-4.2351647362715E-22,
0.999999999976872));
#266=DIRECTION('ref_axis',(0.866025403764409,0.5,5.89005277201737E-6));
#267=DIRECTION('',(-0.866025403764409,-0.5,-5.89005277201737E-6));
#268=DIRECTION('',(1.11022302462516E-16,-1.,0.));
#269=DIRECTION('',(0.866025403764409,-0.5,5.89005277201737E-6));
#270=DIRECTION('center_axis',(-0.81650050761069,-5.55111512312578E-17,0.577344715981264));
#271=DIRECTION('ref_axis',(0.408244363752573,0.707106781186548,0.577353045773777));
#272=DIRECTION('',(0.408244363752573,0.707106781186548,0.577353045773777));
#273=DIRECTION('',(0.408244363752573,-0.707106781186547,0.577353045773777));
#274=DIRECTION('',(-0.408244363752573,-0.707106781186548,-0.577353045773777));
#275=DIRECTION('',(0.408244363752573,-0.707106781186547,0.577353045773777));
#276=DIRECTION('',(-0.408244363752573,-0.707106781186548,-0.577353045773777));
#277=DIRECTION('',(-0.408244363752573,0.707106781186547,-0.577353045773777));
#278=DIRECTION('center_axis',(0.408244363752573,0.707106781186548,0.577353045773777));
#279=DIRECTION('ref_axis',(-0.408244363752573,0.707106781186547,-0.577353045773777));
#280=DIRECTION('',(0.408244363752573,-0.707106781186547,0.577353045773777));
#281=DIRECTION('',(-0.81650050761069,-5.55111512312578E-17,0.577344715981264));
#282=DIRECTION('',(-0.408244363752573,0.707106781186547,-0.577353045773777));
#283=DIRECTION('',(-0.81650050761069,-5.55111512312578E-17,0.577344715981264));
#284=DIRECTION('center_axis',(0.408244363752573,-0.707106781186548,0.577353045773777));
#285=DIRECTION('ref_axis',(0.408244363752573,0.707106781186548,0.577353045773777));
#286=DIRECTION('',(-0.408244363752573,-0.707106781186548,-0.577353045773777));
#287=DIRECTION('',(0.408244363752573,0.707106781186548,0.577353045773777));
#288=DIRECTION('',(-0.81650050761069,-5.55111512312578E-17,0.577344715981264));
#289=DIRECTION('center_axis',(-0.81650050761069,-5.55111512312578E-17,0.577344715981264));
#290=DIRECTION('ref_axis',(0.408244363752573,0.707106781186548,0.577353045773777));
#291=DIRECTION('',(-0.408244363752573,-0.707106781186548,-0.577353045773777));
#292=DIRECTION('',(0.408244363752573,-0.707106781186547,0.577353045773777));
#293=DIRECTION('center_axis',(-0.408244363752573,0.707106781186548,-0.577353045773777));
#294=DIRECTION('ref_axis',(-0.408244363752573,-0.707106781186548,-0.577353045773777));
#295=DIRECTION('',(-0.81650050761069,-5.55111512312578E-17,0.577344715981264));
#296=DIRECTION('',(-0.408244363752573,-0.707106781186548,-0.577353045773777));
#297=DIRECTION('',(-0.81650050761069,-5.55111512312578E-17,0.577344715981264));
#298=DIRECTION('center_axis',(-0.81650050761069,-5.55111512312578E-17,0.577344715981264));
#299=DIRECTION('ref_axis',(0.408244363752573,0.707106781186548,0.577353045773777));
#300=DIRECTION('',(0.408244363752573,-0.707106781186547,0.577353045773777));
#301=DIRECTION('',(0.408244363752573,0.707106781186548,0.577353045773777));
#302=DIRECTION('',(-0.408244363752573,0.707106781186547,-0.577353045773777));
#303=DIRECTION('center_axis',(-0.408244363752573,-0.707106781186548,-0.577353045773777));
#304=DIRECTION('ref_axis',(0.408244363752573,-0.707106781186547,0.577353045773777));
#305=DIRECTION('',(-0.81650050761069,-5.55111512312578E-17,0.577344715981264));
#306=DIRECTION('center_axis',(0.408244363752573,0.707106781186548,0.577353045773777));
#307=DIRECTION('ref_axis',(-0.408244363752573,0.707106781186547,-0.577353045773777));
#308=DIRECTION('',(-0.408244363752573,0.707106781186547,-0.577353045773777));
#309=DIRECTION('',(-0.81650050761069,-5.55111512312578E-17,0.577344715981264));
#310=DIRECTION('center_axis',(0.408244363752573,-0.707106781186548,0.577353045773777));
#311=DIRECTION('ref_axis',(0.408244363752573,0.707106781186548,0.577353045773777));
#312=DIRECTION('',(0.408244363752573,0.707106781186548,0.577353045773777));
#313=DIRECTION('',(-0.81650050761069,-5.55111512312578E-17,0.577344715981264));
#314=DIRECTION('center_axis',(0.408244363752573,0.707106781186548,0.577353045773777));
#315=DIRECTION('ref_axis',(-0.408244363752573,0.707106781186547,-0.577353045773777));
#316=DIRECTION('',(-0.81650050761069,-5.55111512312578E-17,0.577344715981264));
#317=DIRECTION('center_axis',(0.408244363752573,-0.707106781186548,0.577353045773777));
#318=DIRECTION('ref_axis',(0.408244363752573,0.707106781186548,0.577353045773777));
#319=DIRECTION('center_axis',(-0.81650050761069,-5.55111512312578E-17,0.577344715981264));
#320=DIRECTION('ref_axis',(0.408244363752573,0.707106781186548,0.577353045773777));
#321=CARTESIAN_POINT('',(0.,0.,0.));
#322=CARTESIAN_POINT('Origin',(0.517638090744735,3.15719672627779E-15,-8.17565604735152E-5));
#323=CARTESIAN_POINT('',(7.75671751918565,12.5384533703763,-3.25217924509717E-5));
#324=CARTESIAN_POINT('',(-13.9605207661371,1.11022302462516E-15,-0.000180226096514161));
#325=CARTESIAN_POINT('',(12.2074092685651,15.10806145002,-2.25153807234349E-6));
#326=CARTESIAN_POINT('',(7.75671751918565,-12.5384533703763,-3.25217924509717E-5));
#327=CARTESIAN_POINT('',(7.75671751918565,3.33066907387547E-15,-3.2521792457633E-5));
#328=CARTESIAN_POINT('',(-3.10190162347572,-6.26922668518816,-0.000106373944480346));
#329=CARTESIAN_POINT('Origin',(20.9299259068501,4.44089209850063E-15,18.6299662253312));
#330=CARTESIAN_POINT('',(20.9299259068501,35.3553390593274,18.6299662253312));
#331=CARTESIAN_POINT('',(0.517707719221411,3.19189119579733E-15,-10.2376860633577));
#332=CARTESIAN_POINT('',(27.4618357268912,24.0416305603426,27.8676149577116));
#333=CARTESIAN_POINT('',(20.9299259068501,35.3553390593274,18.6299662253312));
#334=CARTESIAN_POINT('',(13.5815273593037,4.44089209850063E-15,8.23761140140317));
#335=CARTESIAN_POINT('',(27.4618357268912,24.0416305603426,27.8676149577116));
#336=CARTESIAN_POINT('',(27.4618357268912,-24.0416305603426,27.8676149577116));
#337=CARTESIAN_POINT('',(7.04961753926257,11.3137084989848,-1.00003733097726));
#338=CARTESIAN_POINT('',(20.9299259068501,-35.3553390593274,18.6299662253312));
#339=CARTESIAN_POINT('',(27.4618357268912,-24.0416305603426,27.8676149577116));
#340=CARTESIAN_POINT('',(20.9299259068501,-35.3553390593274,18.6299662253312));
#341=CARTESIAN_POINT('Origin',(13.5815273593037,4.44089209850063E-15,8.23761140140317));
#342=CARTESIAN_POINT('',(-6.01439058250846,11.3137084989848,8.23747812472296));
#343=CARTESIAN_POINT('',(0.517519237532704,3.19189119579733E-15,17.4751268571034));
#344=CARTESIAN_POINT('',(2.35461887441928,-3.18198051533946,20.0732155630854));
#345=CARTESIAN_POINT('',(-33.7754078412719,11.3137084989848,27.8671984680859));
#346=CARTESIAN_POINT('',(7.04961753926257,11.3137084989848,-1.00003733097726));
#347=CARTESIAN_POINT('',(-27.2434980212308,0.,37.1048472004664));
#348=CARTESIAN_POINT('',(-33.7754078412719,11.3137084989848,27.8671984680859));
#349=CARTESIAN_POINT('',(13.5815273593037,4.44089209850063E-15,8.23761140140317));
#350=CARTESIAN_POINT('Origin',(7.04961753926258,-11.3137084989848,-1.00003733097726));
#351=CARTESIAN_POINT('',(-6.01439058250846,-11.3137084989848,8.23747812472296));
#352=CARTESIAN_POINT('',(-0.9113360356013,-2.47487373415291,15.4543911968952));
#353=CARTESIAN_POINT('',(-33.7754078412719,-11.3137084989848,27.8671984680859));
#354=CARTESIAN_POINT('',(-13.3631896536433,24.0416305603426,56.7348507567748));
#355=CARTESIAN_POINT('',(7.04961753926258,-11.3137084989848,-1.00003733097726));
#356=CARTESIAN_POINT('Origin',(-33.7754078412719,0.,27.8671984680859));
#357=CARTESIAN_POINT('',(-40.3073176613131,0.,18.6295497357055));
#358=CARTESIAN_POINT('',(-40.3073176613131,0.,18.6295497357055));
#359=CARTESIAN_POINT('',(-19.8950994736844,-35.3553390593274,47.4972020243943));
#360=CARTESIAN_POINT('Origin',(20.9299259068501,35.3553390593274,18.6299662253312));
#361=CARTESIAN_POINT('',(0.517707719221411,3.19189119579733E-15,-10.2376860633577));
#362=CARTESIAN_POINT('',(7.86591778507901,35.3553390593274,27.8674816810314));
#363=CARTESIAN_POINT('',(-12.5463004025496,1.11022302462516E-15,-1.00017060765747));
#364=CARTESIAN_POINT('',(20.9299259068501,35.3553390593274,18.6299662253312));
#365=CARTESIAN_POINT('Origin',(7.86591778507901,2.77555756156289E-15,27.8674816810314));
#366=CARTESIAN_POINT('',(7.86591778507901,-35.3553390593274,27.8674816810314));
#367=CARTESIAN_POINT('',(7.86591778507901,-35.3553390593274,27.8674816810314));
#368=CARTESIAN_POINT('',(14.3978276051202,-24.0416305603426,37.1051304134118));
#369=CARTESIAN_POINT('',(14.3978276051202,-24.0416305603426,37.1051304134118));
#370=CARTESIAN_POINT('',(-6.01439058250846,11.3137084989848,8.23747812472296));
#371=CARTESIAN_POINT('Origin',(0.517707719221411,3.19189119579733E-15,-10.2376860633577));
#372=CARTESIAN_POINT('',(20.9299259068501,-35.3553390593274,18.6299662253312));
#373=CARTESIAN_POINT('Origin',(27.4618357268912,24.0416305603426,27.8676149577116));
#374=CARTESIAN_POINT('',(14.3978276051202,24.0416305603426,37.1051304134118));
#375=CARTESIAN_POINT('',(7.86591778507901,35.3553390593274,27.8674816810314));
#376=CARTESIAN_POINT('',(27.4618357268912,24.0416305603426,27.8676149577116));
#377=CARTESIAN_POINT('Origin',(13.5815273593037,4.44089209850063E-15,8.23761140140317));
#378=CARTESIAN_POINT('',(14.3978276051202,24.0416305603426,37.1051304134118));
#379=CARTESIAN_POINT('',(13.5815273593037,4.44089209850063E-15,8.23761140140317));
#380=CARTESIAN_POINT('Origin',(27.4618357268912,-24.0416305603426,27.8676149577116));
#381=CARTESIAN_POINT('',(27.4618357268912,-24.0416305603426,27.8676149577116));
#382=CARTESIAN_POINT('Origin',(20.9299259068501,-35.3553390593274,18.6299662253312));
#383=CARTESIAN_POINT('Origin',(7.86591778507901,2.77555756156289E-15,27.8674816810314));
#384=UNCERTAINTY_MEASURE_WITH_UNIT(LENGTH_MEASURE(0.01),#388,
'DISTANCE_ACCURACY_VALUE',
'Maximum model space distance between geometric entities at asserted c
onnectivities');
#385=UNCERTAINTY_MEASURE_WITH_UNIT(LENGTH_MEASURE(0.01),#388,
'DISTANCE_ACCURACY_VALUE',
'Maximum model space distance between geometric entities at asserted c
onnectivities');
#386=(
GEOMETRIC_REPRESENTATION_CONTEXT(3)
GLOBAL_UNCERTAINTY_ASSIGNED_CONTEXT((#384))
GLOBAL_UNIT_ASSIGNED_CONTEXT((#388,#390,#391))
REPRESENTATION_CONTEXT('','3D')
);
#387=(
GEOMETRIC_REPRESENTATION_CONTEXT(3)
GLOBAL_UNCERTAINTY_ASSIGNED_CONTEXT((#385))
GLOBAL_UNIT_ASSIGNED_CONTEXT((#388,#390,#391))
REPRESENTATION_CONTEXT('','3D')
);
#388=(
LENGTH_UNIT()
NAMED_UNIT(*)
SI_UNIT(.MILLI.,.METRE.)
);
#389=(
LENGTH_UNIT()
NAMED_UNIT(*)
SI_UNIT($,.METRE.)
);
#390=(
NAMED_UNIT(*)
PLANE_ANGLE_UNIT()
SI_UNIT($,.RADIAN.)
);
#391=(
NAMED_UNIT(*)
SI_UNIT($,.STERADIAN.)
SOLID_ANGLE_UNIT()
);
#392=SHAPE_DEFINITION_REPRESENTATION(#393,#394);
#393=PRODUCT_DEFINITION_SHAPE('',$,#396);
#394=SHAPE_REPRESENTATION('',(#249),#386);
#395=PRODUCT_DEFINITION_CONTEXT('part definition',#400,'design');
#396=PRODUCT_DEFINITION('Bracket new','Bracket new v2',#397,#395);
#397=PRODUCT_DEFINITION_FORMATION('',$,#402);
#398=PRODUCT_RELATED_PRODUCT_CATEGORY('Bracket new v2','Bracket new v2',
(#402));
#399=APPLICATION_PROTOCOL_DEFINITION('international standard',
'automotive_design',2009,#400);
#400=APPLICATION_CONTEXT(
'Core Data for Automotive Mechanical Design Process');
#401=PRODUCT_CONTEXT('part definition',#400,'mechanical');
#402=PRODUCT('Bracket new','Bracket new v2',$,(#401));
#403=PRESENTATION_STYLE_ASSIGNMENT((#405));
#404=PRESENTATION_STYLE_ASSIGNMENT((#406));
#405=SURFACE_STYLE_USAGE(.BOTH.,#407);
#406=SURFACE_STYLE_USAGE(.BOTH.,#408);
#407=SURFACE_SIDE_STYLE('',(#409));
#408=SURFACE_SIDE_STYLE('',(#410));
#409=SURFACE_STYLE_FILL_AREA(#411);
#410=SURFACE_STYLE_FILL_AREA(#412);
#411=FILL_AREA_STYLE('Steel - Satin',(#413));
#412=FILL_AREA_STYLE('Tough 2000 Light Grey',(#414));
#413=FILL_AREA_STYLE_COLOUR('Steel - Satin',#415);
#414=FILL_AREA_STYLE_COLOUR('Tough 2000 Light Grey',#416);
#415=COLOUR_RGB('Steel - Satin',0.627450980392157,0.627450980392157,0.627450980392157);
#416=COLOUR_RGB('Tough 2000 Light Grey',0.682352941176471,0.682352941176471,
0.682352941176471);
ENDSEC;
END-ISO-10303-21;
