ISO-10303-21;
HEADER;
/* Generated by software containing ST-Developer
 * from STEP Tools, Inc. (www.steptools.com) 
 */

FILE_DESCRIPTION(
/* description */ (''),
/* implementation_level */ '2;1');

FILE_NAME(
/* name */ 'Bracket_D.step',
/* time_stamp */ '2026-07-09T11:20:57-04:00',
/* author */ (''),
/* organization */ (''),
/* preprocessor_version */ 'ST-DEVELOPER v20.1',
/* originating_system */ 'Autodesk Translation Framework v15.8.0.0',
/* authorisation */ '');

FILE_SCHEMA (('AUTOMOTIVE_DESIGN { 1 0 10303 214 3 1 1 }'));
ENDSEC;

DATA;
#10=MECHANICAL_DESIGN_GEOMETRIC_PRESENTATION_REPRESENTATION('',(#13),#444);
#11=SHAPE_REPRESENTATION_RELATIONSHIP('SRR','None',#451,#12);
#12=ADVANCED_BREP_SHAPE_REPRESENTATION('',(#14),#443);
#13=STYLED_ITEM('',(#461),#14);
#14=MANIFOLD_SOLID_BREP('Bracket_D',#265);
#15=FACE_BOUND('',#49,.T.);
#16=FACE_BOUND('',#55,.T.);
#17=PLANE('',#282);
#18=PLANE('',#286);
#19=PLANE('',#287);
#20=PLANE('',#288);
#21=PLANE('',#289);
#22=PLANE('',#290);
#23=PLANE('',#291);
#24=PLANE('',#292);
#25=PLANE('',#293);
#26=PLANE('',#294);
#27=PLANE('',#295);
#28=PLANE('',#296);
#29=PLANE('',#297);
#30=PLANE('',#298);
#31=FACE_OUTER_BOUND('',#47,.T.);
#32=FACE_OUTER_BOUND('',#48,.T.);
#33=FACE_OUTER_BOUND('',#50,.T.);
#34=FACE_OUTER_BOUND('',#51,.T.);
#35=FACE_OUTER_BOUND('',#52,.T.);
#36=FACE_OUTER_BOUND('',#53,.T.);
#37=FACE_OUTER_BOUND('',#54,.T.);
#38=FACE_OUTER_BOUND('',#56,.T.);
#39=FACE_OUTER_BOUND('',#57,.T.);
#40=FACE_OUTER_BOUND('',#58,.T.);
#41=FACE_OUTER_BOUND('',#59,.T.);
#42=FACE_OUTER_BOUND('',#60,.T.);
#43=FACE_OUTER_BOUND('',#61,.T.);
#44=FACE_OUTER_BOUND('',#62,.T.);
#45=FACE_OUTER_BOUND('',#63,.T.);
#46=FACE_OUTER_BOUND('',#64,.T.);
#47=EDGE_LOOP('',(#181,#182,#183,#184));
#48=EDGE_LOOP('',(#185));
#49=EDGE_LOOP('',(#186));
#50=EDGE_LOOP('',(#187,#188,#189,#190));
#51=EDGE_LOOP('',(#191));
#52=EDGE_LOOP('',(#192,#193,#194,#195));
#53=EDGE_LOOP('',(#196,#197,#198,#199));
#54=EDGE_LOOP('',(#200,#201,#202,#203));
#55=EDGE_LOOP('',(#204));
#56=EDGE_LOOP('',(#205,#206,#207,#208,#209,#210));
#57=EDGE_LOOP('',(#211,#212,#213,#214,#215,#216));
#58=EDGE_LOOP('',(#217,#218,#219,#220));
#59=EDGE_LOOP('',(#221,#222,#223,#224,#225,#226));
#60=EDGE_LOOP('',(#227,#228,#229,#230));
#61=EDGE_LOOP('',(#231,#232,#233,#234));
#62=EDGE_LOOP('',(#235,#236,#237,#238));
#63=EDGE_LOOP('',(#239,#240,#241,#242));
#64=EDGE_LOOP('',(#243,#244,#245,#246));
#65=LINE('',#375,#94);
#66=LINE('',#383,#95);
#67=LINE('',#388,#96);
#68=LINE('',#390,#97);
#69=LINE('',#392,#98);
#70=LINE('',#393,#99);
#71=LINE('',#396,#100);
#72=LINE('',#398,#101);
#73=LINE('',#399,#102);
#74=LINE('',#402,#103);
#75=LINE('',#403,#104);
#76=LINE('',#406,#105);
#77=LINE('',#408,#106);
#78=LINE('',#410,#107);
#79=LINE('',#411,#108);
#80=LINE('',#414,#109);
#81=LINE('',#416,#110);
#82=LINE('',#418,#111);
#83=LINE('',#420,#112);
#84=LINE('',#421,#113);
#85=LINE('',#424,#114);
#86=LINE('',#426,#115);
#87=LINE('',#427,#116);
#88=LINE('',#429,#117);
#89=LINE('',#432,#118);
#90=LINE('',#433,#119);
#91=LINE('',#435,#120);
#92=LINE('',#436,#121);
#93=LINE('',#438,#122);
#94=VECTOR('',#305,4.5);
#95=VECTOR('',#316,2.);
#96=VECTOR('',#321,10.);
#97=VECTOR('',#322,10.);
#98=VECTOR('',#323,10.);
#99=VECTOR('',#324,10.);
#100=VECTOR('',#327,10.);
#101=VECTOR('',#328,10.);
#102=VECTOR('',#329,10.);
#103=VECTOR('',#332,10.);
#104=VECTOR('',#333,10.);
#105=VECTOR('',#336,10.);
#106=VECTOR('',#337,10.);
#107=VECTOR('',#338,10.);
#108=VECTOR('',#339,10.);
#109=VECTOR('',#342,10.);
#110=VECTOR('',#343,10.);
#111=VECTOR('',#344,10.);
#112=VECTOR('',#345,10.);
#113=VECTOR('',#346,10.);
#114=VECTOR('',#349,10.);
#115=VECTOR('',#350,10.);
#116=VECTOR('',#351,10.);
#117=VECTOR('',#354,10.);
#118=VECTOR('',#357,10.);
#119=VECTOR('',#358,10.);
#120=VECTOR('',#361,10.);
#121=VECTOR('',#362,10.);
#122=VECTOR('',#365,10.);
#123=CIRCLE('',#280,4.5);
#124=CIRCLE('',#281,4.5);
#125=CIRCLE('',#283,2.);
#126=CIRCLE('',#285,2.);
#127=VERTEX_POINT('',#372);
#128=VERTEX_POINT('',#374);
#129=VERTEX_POINT('',#378);
#130=VERTEX_POINT('',#381);
#131=VERTEX_POINT('',#386);
#132=VERTEX_POINT('',#387);
#133=VERTEX_POINT('',#389);
#134=VERTEX_POINT('',#391);
#135=VERTEX_POINT('',#395);
#136=VERTEX_POINT('',#397);
#137=VERTEX_POINT('',#401);
#138=VERTEX_POINT('',#405);
#139=VERTEX_POINT('',#407);
#140=VERTEX_POINT('',#409);
#141=VERTEX_POINT('',#413);
#142=VERTEX_POINT('',#415);
#143=VERTEX_POINT('',#417);
#144=VERTEX_POINT('',#419);
#145=VERTEX_POINT('',#423);
#146=VERTEX_POINT('',#425);
#147=VERTEX_POINT('',#431);
#148=EDGE_CURVE('',#127,#127,#123,.T.);
#149=EDGE_CURVE('',#127,#128,#65,.T.);
#150=EDGE_CURVE('',#128,#128,#124,.T.);
#151=EDGE_CURVE('',#129,#129,#125,.T.);
#152=EDGE_CURVE('',#130,#130,#126,.T.);
#153=EDGE_CURVE('',#130,#129,#66,.T.);
#154=EDGE_CURVE('',#131,#132,#67,.T.);
#155=EDGE_CURVE('',#131,#133,#68,.T.);
#156=EDGE_CURVE('',#134,#133,#69,.T.);
#157=EDGE_CURVE('',#132,#134,#70,.T.);
#158=EDGE_CURVE('',#132,#135,#71,.T.);
#159=EDGE_CURVE('',#136,#134,#72,.T.);
#160=EDGE_CURVE('',#135,#136,#73,.T.);
#161=EDGE_CURVE('',#133,#137,#74,.T.);
#162=EDGE_CURVE('',#137,#136,#75,.T.);
#163=EDGE_CURVE('',#138,#131,#76,.T.);
#164=EDGE_CURVE('',#139,#138,#77,.T.);
#165=EDGE_CURVE('',#140,#139,#78,.T.);
#166=EDGE_CURVE('',#140,#137,#79,.T.);
#167=EDGE_CURVE('',#139,#141,#80,.T.);
#168=EDGE_CURVE('',#141,#142,#81,.T.);
#169=EDGE_CURVE('',#142,#143,#82,.T.);
#170=EDGE_CURVE('',#143,#144,#83,.T.);
#171=EDGE_CURVE('',#144,#140,#84,.T.);
#172=EDGE_CURVE('',#135,#145,#85,.T.);
#173=EDGE_CURVE('',#145,#146,#86,.T.);
#174=EDGE_CURVE('',#146,#132,#87,.T.);
#175=EDGE_CURVE('',#144,#145,#88,.T.);
#176=EDGE_CURVE('',#147,#138,#89,.T.);
#177=EDGE_CURVE('',#141,#147,#90,.T.);
#178=EDGE_CURVE('',#132,#147,#91,.T.);
#179=EDGE_CURVE('',#142,#132,#92,.T.);
#180=EDGE_CURVE('',#143,#146,#93,.T.);
#181=ORIENTED_EDGE('',*,*,#148,.F.);
#182=ORIENTED_EDGE('',*,*,#149,.T.);
#183=ORIENTED_EDGE('',*,*,#150,.T.);
#184=ORIENTED_EDGE('',*,*,#149,.F.);
#185=ORIENTED_EDGE('',*,*,#150,.F.);
#186=ORIENTED_EDGE('',*,*,#151,.F.);
#187=ORIENTED_EDGE('',*,*,#152,.F.);
#188=ORIENTED_EDGE('',*,*,#153,.T.);
#189=ORIENTED_EDGE('',*,*,#151,.T.);
#190=ORIENTED_EDGE('',*,*,#153,.F.);
#191=ORIENTED_EDGE('',*,*,#152,.T.);
#192=ORIENTED_EDGE('',*,*,#154,.F.);
#193=ORIENTED_EDGE('',*,*,#155,.T.);
#194=ORIENTED_EDGE('',*,*,#156,.F.);
#195=ORIENTED_EDGE('',*,*,#157,.F.);
#196=ORIENTED_EDGE('',*,*,#158,.F.);
#197=ORIENTED_EDGE('',*,*,#157,.T.);
#198=ORIENTED_EDGE('',*,*,#159,.F.);
#199=ORIENTED_EDGE('',*,*,#160,.F.);
#200=ORIENTED_EDGE('',*,*,#156,.T.);
#201=ORIENTED_EDGE('',*,*,#161,.T.);
#202=ORIENTED_EDGE('',*,*,#162,.T.);
#203=ORIENTED_EDGE('',*,*,#159,.T.);
#204=ORIENTED_EDGE('',*,*,#148,.T.);
#205=ORIENTED_EDGE('',*,*,#163,.F.);
#206=ORIENTED_EDGE('',*,*,#164,.F.);
#207=ORIENTED_EDGE('',*,*,#165,.F.);
#208=ORIENTED_EDGE('',*,*,#166,.T.);
#209=ORIENTED_EDGE('',*,*,#161,.F.);
#210=ORIENTED_EDGE('',*,*,#155,.F.);
#211=ORIENTED_EDGE('',*,*,#165,.T.);
#212=ORIENTED_EDGE('',*,*,#167,.T.);
#213=ORIENTED_EDGE('',*,*,#168,.T.);
#214=ORIENTED_EDGE('',*,*,#169,.T.);
#215=ORIENTED_EDGE('',*,*,#170,.T.);
#216=ORIENTED_EDGE('',*,*,#171,.T.);
#217=ORIENTED_EDGE('',*,*,#158,.T.);
#218=ORIENTED_EDGE('',*,*,#172,.T.);
#219=ORIENTED_EDGE('',*,*,#173,.T.);
#220=ORIENTED_EDGE('',*,*,#174,.T.);
#221=ORIENTED_EDGE('',*,*,#171,.F.);
#222=ORIENTED_EDGE('',*,*,#175,.T.);
#223=ORIENTED_EDGE('',*,*,#172,.F.);
#224=ORIENTED_EDGE('',*,*,#160,.T.);
#225=ORIENTED_EDGE('',*,*,#162,.F.);
#226=ORIENTED_EDGE('',*,*,#166,.F.);
#227=ORIENTED_EDGE('',*,*,#167,.F.);
#228=ORIENTED_EDGE('',*,*,#164,.T.);
#229=ORIENTED_EDGE('',*,*,#176,.F.);
#230=ORIENTED_EDGE('',*,*,#177,.F.);
#231=ORIENTED_EDGE('',*,*,#168,.F.);
#232=ORIENTED_EDGE('',*,*,#177,.T.);
#233=ORIENTED_EDGE('',*,*,#178,.F.);
#234=ORIENTED_EDGE('',*,*,#179,.F.);
#235=ORIENTED_EDGE('',*,*,#169,.F.);
#236=ORIENTED_EDGE('',*,*,#179,.T.);
#237=ORIENTED_EDGE('',*,*,#174,.F.);
#238=ORIENTED_EDGE('',*,*,#180,.F.);
#239=ORIENTED_EDGE('',*,*,#170,.F.);
#240=ORIENTED_EDGE('',*,*,#180,.T.);
#241=ORIENTED_EDGE('',*,*,#173,.F.);
#242=ORIENTED_EDGE('',*,*,#175,.F.);
#243=ORIENTED_EDGE('',*,*,#154,.T.);
#244=ORIENTED_EDGE('',*,*,#178,.T.);
#245=ORIENTED_EDGE('',*,*,#176,.T.);
#246=ORIENTED_EDGE('',*,*,#163,.T.);
#247=CYLINDRICAL_SURFACE('',#279,4.5);
#248=CYLINDRICAL_SURFACE('',#284,2.);
#249=ADVANCED_FACE('',(#31),#247,.F.);
#250=ADVANCED_FACE('',(#32,#15),#17,.T.);
#251=ADVANCED_FACE('',(#33),#248,.F.);
#252=ADVANCED_FACE('',(#34),#18,.T.);
#253=ADVANCED_FACE('',(#35),#19,.T.);
#254=ADVANCED_FACE('',(#36),#20,.T.);
#255=ADVANCED_FACE('',(#37,#16),#21,.T.);
#256=ADVANCED_FACE('',(#38),#22,.T.);
#257=ADVANCED_FACE('',(#39),#23,.F.);
#258=ADVANCED_FACE('',(#40),#24,.T.);
#259=ADVANCED_FACE('',(#41),#25,.T.);
#260=ADVANCED_FACE('',(#42),#26,.T.);
#261=ADVANCED_FACE('',(#43),#27,.T.);
#262=ADVANCED_FACE('',(#44),#28,.T.);
#263=ADVANCED_FACE('',(#45),#29,.T.);
#264=ADVANCED_FACE('',(#46),#30,.T.);
#265=CLOSED_SHELL('',(#249,#250,#251,#252,#253,#254,#255,#256,#257,#258,
#259,#260,#261,#262,#263,#264));
#266=DERIVED_UNIT_ELEMENT(#268,1.);
#267=DERIVED_UNIT_ELEMENT(#446,-3.);
#268=(
MASS_UNIT()
NAMED_UNIT(*)
SI_UNIT(.KILO.,.GRAM.)
);
#269=DERIVED_UNIT((#266,#267));
#270=MEASURE_REPRESENTATION_ITEM('density measure',
POSITIVE_RATIO_MEASURE(7850.),#269);
#271=PROPERTY_DEFINITION_REPRESENTATION(#276,#273);
#272=PROPERTY_DEFINITION_REPRESENTATION(#277,#274);
#273=REPRESENTATION('material name',(#275),#443);
#274=REPRESENTATION('density',(#270),#443);
#275=DESCRIPTIVE_REPRESENTATION_ITEM('Steel','Steel');
#276=PROPERTY_DEFINITION('material property','material name',#453);
#277=PROPERTY_DEFINITION('material property','density of part',#453);
#278=AXIS2_PLACEMENT_3D('',#370,#299,#300);
#279=AXIS2_PLACEMENT_3D('',#371,#301,#302);
#280=AXIS2_PLACEMENT_3D('',#373,#303,#304);
#281=AXIS2_PLACEMENT_3D('',#376,#306,#307);
#282=AXIS2_PLACEMENT_3D('',#377,#308,#309);
#283=AXIS2_PLACEMENT_3D('',#379,#310,#311);
#284=AXIS2_PLACEMENT_3D('',#380,#312,#313);
#285=AXIS2_PLACEMENT_3D('',#382,#314,#315);
#286=AXIS2_PLACEMENT_3D('',#384,#317,#318);
#287=AXIS2_PLACEMENT_3D('',#385,#319,#320);
#288=AXIS2_PLACEMENT_3D('',#394,#325,#326);
#289=AXIS2_PLACEMENT_3D('',#400,#330,#331);
#290=AXIS2_PLACEMENT_3D('',#404,#334,#335);
#291=AXIS2_PLACEMENT_3D('',#412,#340,#341);
#292=AXIS2_PLACEMENT_3D('',#422,#347,#348);
#293=AXIS2_PLACEMENT_3D('',#428,#352,#353);
#294=AXIS2_PLACEMENT_3D('',#430,#355,#356);
#295=AXIS2_PLACEMENT_3D('',#434,#359,#360);
#296=AXIS2_PLACEMENT_3D('',#437,#363,#364);
#297=AXIS2_PLACEMENT_3D('',#439,#366,#367);
#298=AXIS2_PLACEMENT_3D('',#440,#368,#369);
#299=DIRECTION('axis',(0.,0.,1.));
#300=DIRECTION('refdir',(1.,0.,0.));
#301=DIRECTION('center_axis',(0.,0.,-1.));
#302=DIRECTION('ref_axis',(1.,0.,0.));
#303=DIRECTION('center_axis',(0.,0.,-1.));
#304=DIRECTION('ref_axis',(1.,0.,0.));
#305=DIRECTION('',(0.,0.,-1.));
#306=DIRECTION('center_axis',(0.,0.,-1.));
#307=DIRECTION('ref_axis',(1.,0.,0.));
#308=DIRECTION('center_axis',(0.,0.,1.));
#309=DIRECTION('ref_axis',(1.,0.,0.));
#310=DIRECTION('center_axis',(0.,0.,1.));
#311=DIRECTION('ref_axis',(1.,0.,0.));
#312=DIRECTION('center_axis',(0.,0.,1.));
#313=DIRECTION('ref_axis',(1.,0.,0.));
#314=DIRECTION('center_axis',(0.,0.,1.));
#315=DIRECTION('ref_axis',(1.,0.,0.));
#316=DIRECTION('',(0.,0.,1.));
#317=DIRECTION('center_axis',(0.,0.,1.));
#318=DIRECTION('ref_axis',(1.,0.,0.));
#319=DIRECTION('center_axis',(1.,0.,0.));
#320=DIRECTION('ref_axis',(0.,1.,0.));
#321=DIRECTION('',(0.,-1.,0.));
#322=DIRECTION('',(0.,0.,1.));
#323=DIRECTION('',(0.,1.,0.));
#324=DIRECTION('',(0.,0.,1.));
#325=DIRECTION('center_axis',(0.,-1.,0.));
#326=DIRECTION('ref_axis',(1.,0.,0.));
#327=DIRECTION('',(-1.,0.,0.));
#328=DIRECTION('',(1.,0.,0.));
#329=DIRECTION('',(0.,0.,1.));
#330=DIRECTION('center_axis',(0.,0.,1.));
#331=DIRECTION('ref_axis',(1.,0.,0.));
#332=DIRECTION('',(-1.,0.,0.));
#333=DIRECTION('',(0.,-1.,0.));
#334=DIRECTION('center_axis',(2.46519032881566E-33,1.,0.));
#335=DIRECTION('ref_axis',(-1.,2.46519032881566E-33,0.));
#336=DIRECTION('',(-1.,2.46519032881566E-33,0.));
#337=DIRECTION('',(0.,0.,1.));
#338=DIRECTION('',(1.,-2.46519032881566E-33,0.));
#339=DIRECTION('',(0.,0.,1.));
#340=DIRECTION('center_axis',(0.,0.,1.));
#341=DIRECTION('ref_axis',(1.,0.,0.));
#342=DIRECTION('',(0.,-1.,0.));
#343=DIRECTION('',(-1.,0.,0.));
#344=DIRECTION('',(0.,-1.,0.));
#345=DIRECTION('',(-1.,0.,0.));
#346=DIRECTION('',(0.,1.,0.));
#347=DIRECTION('center_axis',(0.,0.,1.));
#348=DIRECTION('ref_axis',(1.,0.,0.));
#349=DIRECTION('',(0.,-1.,0.));
#350=DIRECTION('',(1.,0.,0.));
#351=DIRECTION('',(0.,1.,0.));
#352=DIRECTION('center_axis',(-1.,0.,0.));
#353=DIRECTION('ref_axis',(0.,-1.,0.));
#354=DIRECTION('',(0.,0.,1.));
#355=DIRECTION('center_axis',(1.,0.,0.));
#356=DIRECTION('ref_axis',(0.,1.,0.));
#357=DIRECTION('',(0.,1.,0.));
#358=DIRECTION('',(0.,0.,1.));
#359=DIRECTION('center_axis',(0.,-1.,0.));
#360=DIRECTION('ref_axis',(1.,0.,0.));
#361=DIRECTION('',(1.,0.,0.));
#362=DIRECTION('',(0.,0.,1.));
#363=DIRECTION('center_axis',(1.,0.,0.));
#364=DIRECTION('ref_axis',(0.,1.,0.));
#365=DIRECTION('',(0.,0.,1.));
#366=DIRECTION('center_axis',(0.,-1.,0.));
#367=DIRECTION('ref_axis',(1.,0.,0.));
#368=DIRECTION('center_axis',(0.,0.,1.));
#369=DIRECTION('ref_axis',(1.,0.,0.));
#370=CARTESIAN_POINT('',(0.,0.,0.));
#371=CARTESIAN_POINT('Origin',(8.,-8.,50.));
#372=CARTESIAN_POINT('',(3.5,-8.,50.));
#373=CARTESIAN_POINT('Origin',(8.,-8.,50.));
#374=CARTESIAN_POINT('',(3.5,-8.,44.));
#375=CARTESIAN_POINT('',(3.5,-8.,50.));
#376=CARTESIAN_POINT('Origin',(8.,-8.,44.));
#377=CARTESIAN_POINT('Origin',(8.,-8.,44.));
#378=CARTESIAN_POINT('',(6.,-8.,44.));
#379=CARTESIAN_POINT('Origin',(8.,-8.,44.));
#380=CARTESIAN_POINT('Origin',(8.,-8.,2.));
#381=CARTESIAN_POINT('',(6.,-8.,2.));
#382=CARTESIAN_POINT('Origin',(8.,-8.,2.));
#383=CARTESIAN_POINT('',(6.,-8.,2.));
#384=CARTESIAN_POINT('Origin',(8.,-8.,2.));
#385=CARTESIAN_POINT('Origin',(16.,-16.,0.));
#386=CARTESIAN_POINT('',(16.,0.,16.));
#387=CARTESIAN_POINT('',(16.,-16.,16.));
#388=CARTESIAN_POINT('',(16.,-20.5,16.));
#389=CARTESIAN_POINT('',(16.,0.,50.));
#390=CARTESIAN_POINT('',(16.,0.,0.));
#391=CARTESIAN_POINT('',(16.,-16.,50.));
#392=CARTESIAN_POINT('',(16.,0.,50.));
#393=CARTESIAN_POINT('',(16.,-16.,0.));
#394=CARTESIAN_POINT('Origin',(0.,-16.,0.));
#395=CARTESIAN_POINT('',(0.,-16.,16.));
#396=CARTESIAN_POINT('',(12.5,-16.,16.));
#397=CARTESIAN_POINT('',(0.,-16.,50.));
#398=CARTESIAN_POINT('',(50.,-16.,50.));
#399=CARTESIAN_POINT('',(0.,-16.,0.));
#400=CARTESIAN_POINT('Origin',(8.,-8.,50.));
#401=CARTESIAN_POINT('',(0.,0.,50.));
#402=CARTESIAN_POINT('',(0.,0.,50.));
#403=CARTESIAN_POINT('',(0.,-50.,50.));
#404=CARTESIAN_POINT('Origin',(50.,-1.23259516440783E-31,0.));
#405=CARTESIAN_POINT('',(50.,0.,16.));
#406=CARTESIAN_POINT('',(0.,0.,16.));
#407=CARTESIAN_POINT('',(50.,-1.23259516440783E-31,0.));
#408=CARTESIAN_POINT('',(50.,-1.23259516440783E-31,0.));
#409=CARTESIAN_POINT('',(0.,0.,0.));
#410=CARTESIAN_POINT('',(0.,0.,0.));
#411=CARTESIAN_POINT('',(0.,0.,0.));
#412=CARTESIAN_POINT('Origin',(25.,-25.,0.));
#413=CARTESIAN_POINT('',(50.,-16.,0.));
#414=CARTESIAN_POINT('',(50.,-1.23259516440783E-31,0.));
#415=CARTESIAN_POINT('',(16.,-16.,0.));
#416=CARTESIAN_POINT('',(50.,-16.,0.));
#417=CARTESIAN_POINT('',(16.,-50.,0.));
#418=CARTESIAN_POINT('',(16.,0.,0.));
#419=CARTESIAN_POINT('',(0.,-50.,0.));
#420=CARTESIAN_POINT('',(16.,-50.,0.));
#421=CARTESIAN_POINT('',(0.,-50.,0.));
#422=CARTESIAN_POINT('Origin',(25.,-25.,16.));
#423=CARTESIAN_POINT('',(0.,-50.,16.));
#424=CARTESIAN_POINT('',(0.,-50.,16.));
#425=CARTESIAN_POINT('',(16.,-50.,16.));
#426=CARTESIAN_POINT('',(16.,-50.,16.));
#427=CARTESIAN_POINT('',(16.,0.,16.));
#428=CARTESIAN_POINT('Origin',(0.,0.,0.));
#429=CARTESIAN_POINT('',(0.,-50.,0.));
#430=CARTESIAN_POINT('Origin',(50.,-16.,0.));
#431=CARTESIAN_POINT('',(50.,-16.,16.));
#432=CARTESIAN_POINT('',(50.,-1.23259516440783E-31,16.));
#433=CARTESIAN_POINT('',(50.,-16.,0.));
#434=CARTESIAN_POINT('Origin',(16.,-16.,0.));
#435=CARTESIAN_POINT('',(50.,-16.,16.));
#436=CARTESIAN_POINT('',(16.,-16.,0.));
#437=CARTESIAN_POINT('Origin',(16.,-50.,0.));
#438=CARTESIAN_POINT('',(16.,-50.,0.));
#439=CARTESIAN_POINT('Origin',(0.,-50.,0.));
#440=CARTESIAN_POINT('Origin',(25.,-25.,16.));
#441=UNCERTAINTY_MEASURE_WITH_UNIT(LENGTH_MEASURE(0.01),#445,
'DISTANCE_ACCURACY_VALUE',
'Maximum model space distance between geometric entities at asserted c
onnectivities');
#442=UNCERTAINTY_MEASURE_WITH_UNIT(LENGTH_MEASURE(0.01),#445,
'DISTANCE_ACCURACY_VALUE',
'Maximum model space distance between geometric entities at asserted c
onnectivities');
#443=(
GEOMETRIC_REPRESENTATION_CONTEXT(3)
GLOBAL_UNCERTAINTY_ASSIGNED_CONTEXT((#441))
GLOBAL_UNIT_ASSIGNED_CONTEXT((#445,#447,#448))
REPRESENTATION_CONTEXT('','3D')
);
#444=(
GEOMETRIC_REPRESENTATION_CONTEXT(3)
GLOBAL_UNCERTAINTY_ASSIGNED_CONTEXT((#442))
GLOBAL_UNIT_ASSIGNED_CONTEXT((#445,#447,#448))
REPRESENTATION_CONTEXT('','3D')
);
#445=(
LENGTH_UNIT()
NAMED_UNIT(*)
SI_UNIT(.MILLI.,.METRE.)
);
#446=(
LENGTH_UNIT()
NAMED_UNIT(*)
SI_UNIT($,.METRE.)
);
#447=(
NAMED_UNIT(*)
PLANE_ANGLE_UNIT()
SI_UNIT($,.RADIAN.)
);
#448=(
NAMED_UNIT(*)
SI_UNIT($,.STERADIAN.)
SOLID_ANGLE_UNIT()
);
#449=SHAPE_DEFINITION_REPRESENTATION(#450,#451);
#450=PRODUCT_DEFINITION_SHAPE('',$,#453);
#451=SHAPE_REPRESENTATION('',(#278),#443);
#452=PRODUCT_DEFINITION_CONTEXT('part definition',#457,'design');
#453=PRODUCT_DEFINITION('Bracket new','Bracket new v2',#454,#452);
#454=PRODUCT_DEFINITION_FORMATION('',$,#459);
#455=PRODUCT_RELATED_PRODUCT_CATEGORY('Bracket new v2','Bracket new v2',
(#459));
#456=APPLICATION_PROTOCOL_DEFINITION('international standard',
'automotive_design',2009,#457);
#457=APPLICATION_CONTEXT(
'Core Data for Automotive Mechanical Design Process');
#458=PRODUCT_CONTEXT('part definition',#457,'mechanical');
#459=PRODUCT('Bracket new','Bracket new v2',$,(#458));
#460=PRESENTATION_STYLE_ASSIGNMENT((#462));
#461=PRESENTATION_STYLE_ASSIGNMENT((#463));
#462=SURFACE_STYLE_USAGE(.BOTH.,#464);
#463=SURFACE_STYLE_USAGE(.BOTH.,#465);
#464=SURFACE_SIDE_STYLE('',(#466));
#465=SURFACE_SIDE_STYLE('',(#467));
#466=SURFACE_STYLE_FILL_AREA(#468);
#467=SURFACE_STYLE_FILL_AREA(#469);
#468=FILL_AREA_STYLE('Steel - Satin',(#470));
#469=FILL_AREA_STYLE('Tough 2000 Light Grey',(#471));
#470=FILL_AREA_STYLE_COLOUR('Steel - Satin',#472);
#471=FILL_AREA_STYLE_COLOUR('Tough 2000 Light Grey',#473);
#472=COLOUR_RGB('Steel - Satin',0.627450980392157,0.627450980392157,0.627450980392157);
#473=COLOUR_RGB('Tough 2000 Light Grey',0.682352941176471,0.682352941176471,
0.682352941176471);
ENDSEC;
END-ISO-10303-21;
