ISO-10303-21;
HEADER;
/* Generated by software containing ST-Developer
 * from STEP Tools, Inc. (www.steptools.com) 
 */

FILE_DESCRIPTION(
/* description */ (''),
/* implementation_level */ '2;1');

FILE_NAME(
/* name */ 'Bracket_C.step',
/* time_stamp */ '2026-07-09T11:21:03-04:00',
/* author */ (''),
/* organization */ (''),
/* preprocessor_version */ 'ST-DEVELOPER v20.1',
/* originating_system */ 'Autodesk Translation Framework v15.8.0.0',
/* authorisation */ '');

FILE_SCHEMA (('AUTOMOTIVE_DESIGN { 1 0 10303 214 3 1 1 }'));
ENDSEC;

DATA;
#10=MECHANICAL_DESIGN_GEOMETRIC_PRESENTATION_REPRESENTATION('',(#13),#459);
#11=SHAPE_REPRESENTATION_RELATIONSHIP('SRR','None',#466,#12);
#12=ADVANCED_BREP_SHAPE_REPRESENTATION('',(#14),#458);
#13=STYLED_ITEM('',(#476),#14);
#14=MANIFOLD_SOLID_BREP('Bracket_C',#272);
#15=PLANE('',#293);
#16=PLANE('',#294);
#17=PLANE('',#297);
#18=PLANE('',#298);
#19=PLANE('',#299);
#20=PLANE('',#300);
#21=PLANE('',#301);
#22=PLANE('',#302);
#23=PLANE('',#303);
#24=PLANE('',#304);
#25=PLANE('',#305);
#26=PLANE('',#306);
#27=FACE_OUTER_BOUND('',#42,.T.);
#28=FACE_OUTER_BOUND('',#43,.T.);
#29=FACE_OUTER_BOUND('',#44,.T.);
#30=FACE_OUTER_BOUND('',#45,.T.);
#31=FACE_OUTER_BOUND('',#46,.T.);
#32=FACE_OUTER_BOUND('',#47,.T.);
#33=FACE_OUTER_BOUND('',#48,.T.);
#34=FACE_OUTER_BOUND('',#49,.T.);
#35=FACE_OUTER_BOUND('',#50,.T.);
#36=FACE_OUTER_BOUND('',#51,.T.);
#37=FACE_OUTER_BOUND('',#52,.T.);
#38=FACE_OUTER_BOUND('',#53,.T.);
#39=FACE_OUTER_BOUND('',#54,.T.);
#40=FACE_OUTER_BOUND('',#55,.T.);
#41=FACE_OUTER_BOUND('',#56,.T.);
#42=EDGE_LOOP('',(#182,#183,#184,#185,#186));
#43=EDGE_LOOP('',(#187,#188,#189,#190,#191));
#44=EDGE_LOOP('',(#192,#193,#194,#195));
#45=EDGE_LOOP('',(#196,#197,#198,#199));
#46=EDGE_LOOP('',(#200,#201,#202,#203,#204));
#47=EDGE_LOOP('',(#205,#206,#207,#208));
#48=EDGE_LOOP('',(#209,#210,#211,#212));
#49=EDGE_LOOP('',(#213,#214,#215,#216,#217,#218,#219));
#50=EDGE_LOOP('',(#220,#221,#222,#223,#224,#225,#226));
#51=EDGE_LOOP('',(#227,#228,#229,#230));
#52=EDGE_LOOP('',(#231,#232,#233,#234,#235,#236,#237));
#53=EDGE_LOOP('',(#238,#239,#240,#241));
#54=EDGE_LOOP('',(#242,#243,#244,#245));
#55=EDGE_LOOP('',(#246,#247,#248,#249));
#56=EDGE_LOOP('',(#250,#251,#252,#253));
#57=CIRCLE('',#288,12.);
#58=CIRCLE('',#292,12.);
#59=CIRCLE('',#296,12.);
#60=LINE('',#387,#90);
#61=LINE('',#391,#91);
#62=LINE('',#397,#92);
#63=LINE('',#400,#93);
#64=LINE('',#403,#94);
#65=LINE('',#405,#95);
#66=LINE('',#406,#96);
#67=LINE('',#409,#97);
#68=LINE('',#411,#98);
#69=LINE('',#412,#99);
#70=LINE('',#415,#100);
#71=LINE('',#418,#101);
#72=LINE('',#421,#102);
#73=LINE('',#422,#103);
#74=LINE('',#425,#104);
#75=LINE('',#426,#105);
#76=LINE('',#429,#106);
#77=LINE('',#431,#107);
#78=LINE('',#433,#108);
#79=LINE('',#434,#109);
#80=LINE('',#437,#110);
#81=LINE('',#438,#111);
#82=LINE('',#440,#112);
#83=LINE('',#441,#113);
#84=LINE('',#444,#114);
#85=LINE('',#445,#115);
#86=LINE('',#447,#116);
#87=LINE('',#450,#117);
#88=LINE('',#451,#118);
#89=LINE('',#453,#119);
#90=VECTOR('',#313,10.);
#91=VECTOR('',#316,10.);
#92=VECTOR('',#323,10.);
#93=VECTOR('',#326,10.);
#94=VECTOR('',#329,10.);
#95=VECTOR('',#330,10.);
#96=VECTOR('',#331,10.);
#97=VECTOR('',#334,10.);
#98=VECTOR('',#335,10.);
#99=VECTOR('',#336,10.);
#100=VECTOR('',#339,10.);
#101=VECTOR('',#342,10.);
#102=VECTOR('',#345,10.);
#103=VECTOR('',#346,10.);
#104=VECTOR('',#349,10.);
#105=VECTOR('',#350,10.);
#106=VECTOR('',#353,10.);
#107=VECTOR('',#354,10.);
#108=VECTOR('',#355,10.);
#109=VECTOR('',#356,10.);
#110=VECTOR('',#359,10.);
#111=VECTOR('',#360,10.);
#112=VECTOR('',#361,10.);
#113=VECTOR('',#362,10.);
#114=VECTOR('',#365,10.);
#115=VECTOR('',#366,10.);
#116=VECTOR('',#369,10.);
#117=VECTOR('',#372,10.);
#118=VECTOR('',#373,10.);
#119=VECTOR('',#376,10.);
#120=ELLIPSE('',#287,16.9705627484771,12.);
#121=ELLIPSE('',#289,16.9705627484771,12.);
#122=ELLIPSE('',#291,16.9705627484771,12.);
#123=VERTEX_POINT('',#383);
#124=VERTEX_POINT('',#384);
#125=VERTEX_POINT('',#386);
#126=VERTEX_POINT('',#388);
#127=VERTEX_POINT('',#390);
#128=VERTEX_POINT('',#394);
#129=VERTEX_POINT('',#396);
#130=VERTEX_POINT('',#398);
#131=VERTEX_POINT('',#402);
#132=VERTEX_POINT('',#404);
#133=VERTEX_POINT('',#408);
#134=VERTEX_POINT('',#410);
#135=VERTEX_POINT('',#414);
#136=VERTEX_POINT('',#416);
#137=VERTEX_POINT('',#420);
#138=VERTEX_POINT('',#424);
#139=VERTEX_POINT('',#428);
#140=VERTEX_POINT('',#430);
#141=VERTEX_POINT('',#432);
#142=VERTEX_POINT('',#436);
#143=VERTEX_POINT('',#439);
#144=VERTEX_POINT('',#443);
#145=VERTEX_POINT('',#449);
#146=EDGE_CURVE('',#123,#124,#120,.F.);
#147=EDGE_CURVE('',#123,#125,#60,.T.);
#148=EDGE_CURVE('',#125,#126,#57,.T.);
#149=EDGE_CURVE('',#126,#127,#61,.T.);
#150=EDGE_CURVE('',#127,#124,#121,.T.);
#151=EDGE_CURVE('',#124,#128,#122,.F.);
#152=EDGE_CURVE('',#127,#129,#62,.T.);
#153=EDGE_CURVE('',#129,#130,#58,.T.);
#154=EDGE_CURVE('',#130,#128,#63,.T.);
#155=EDGE_CURVE('',#130,#131,#64,.T.);
#156=EDGE_CURVE('',#132,#131,#65,.T.);
#157=EDGE_CURVE('',#128,#132,#66,.T.);
#158=EDGE_CURVE('',#133,#123,#67,.T.);
#159=EDGE_CURVE('',#134,#133,#68,.T.);
#160=EDGE_CURVE('',#125,#134,#69,.T.);
#161=EDGE_CURVE('',#128,#135,#70,.T.);
#162=EDGE_CURVE('',#135,#136,#59,.T.);
#163=EDGE_CURVE('',#136,#123,#71,.T.);
#164=EDGE_CURVE('',#137,#132,#72,.T.);
#165=EDGE_CURVE('',#135,#137,#73,.T.);
#166=EDGE_CURVE('',#131,#138,#74,.T.);
#167=EDGE_CURVE('',#138,#137,#75,.T.);
#168=EDGE_CURVE('',#139,#129,#76,.T.);
#169=EDGE_CURVE('',#140,#139,#77,.T.);
#170=EDGE_CURVE('',#141,#140,#78,.T.);
#171=EDGE_CURVE('',#141,#138,#79,.T.);
#172=EDGE_CURVE('',#140,#142,#80,.T.);
#173=EDGE_CURVE('',#142,#126,#81,.T.);
#174=EDGE_CURVE('',#134,#143,#82,.T.);
#175=EDGE_CURVE('',#143,#141,#83,.T.);
#176=EDGE_CURVE('',#136,#144,#84,.T.);
#177=EDGE_CURVE('',#144,#133,#85,.T.);
#178=EDGE_CURVE('',#143,#144,#86,.T.);
#179=EDGE_CURVE('',#145,#139,#87,.T.);
#180=EDGE_CURVE('',#142,#145,#88,.T.);
#181=EDGE_CURVE('',#127,#145,#89,.T.);
#182=ORIENTED_EDGE('',*,*,#146,.F.);
#183=ORIENTED_EDGE('',*,*,#147,.T.);
#184=ORIENTED_EDGE('',*,*,#148,.T.);
#185=ORIENTED_EDGE('',*,*,#149,.T.);
#186=ORIENTED_EDGE('',*,*,#150,.T.);
#187=ORIENTED_EDGE('',*,*,#151,.F.);
#188=ORIENTED_EDGE('',*,*,#150,.F.);
#189=ORIENTED_EDGE('',*,*,#152,.T.);
#190=ORIENTED_EDGE('',*,*,#153,.T.);
#191=ORIENTED_EDGE('',*,*,#154,.T.);
#192=ORIENTED_EDGE('',*,*,#154,.F.);
#193=ORIENTED_EDGE('',*,*,#155,.T.);
#194=ORIENTED_EDGE('',*,*,#156,.F.);
#195=ORIENTED_EDGE('',*,*,#157,.F.);
#196=ORIENTED_EDGE('',*,*,#147,.F.);
#197=ORIENTED_EDGE('',*,*,#158,.F.);
#198=ORIENTED_EDGE('',*,*,#159,.F.);
#199=ORIENTED_EDGE('',*,*,#160,.F.);
#200=ORIENTED_EDGE('',*,*,#161,.T.);
#201=ORIENTED_EDGE('',*,*,#162,.T.);
#202=ORIENTED_EDGE('',*,*,#163,.T.);
#203=ORIENTED_EDGE('',*,*,#146,.T.);
#204=ORIENTED_EDGE('',*,*,#151,.T.);
#205=ORIENTED_EDGE('',*,*,#161,.F.);
#206=ORIENTED_EDGE('',*,*,#157,.T.);
#207=ORIENTED_EDGE('',*,*,#164,.F.);
#208=ORIENTED_EDGE('',*,*,#165,.F.);
#209=ORIENTED_EDGE('',*,*,#156,.T.);
#210=ORIENTED_EDGE('',*,*,#166,.T.);
#211=ORIENTED_EDGE('',*,*,#167,.T.);
#212=ORIENTED_EDGE('',*,*,#164,.T.);
#213=ORIENTED_EDGE('',*,*,#168,.F.);
#214=ORIENTED_EDGE('',*,*,#169,.F.);
#215=ORIENTED_EDGE('',*,*,#170,.F.);
#216=ORIENTED_EDGE('',*,*,#171,.T.);
#217=ORIENTED_EDGE('',*,*,#166,.F.);
#218=ORIENTED_EDGE('',*,*,#155,.F.);
#219=ORIENTED_EDGE('',*,*,#153,.F.);
#220=ORIENTED_EDGE('',*,*,#170,.T.);
#221=ORIENTED_EDGE('',*,*,#172,.T.);
#222=ORIENTED_EDGE('',*,*,#173,.T.);
#223=ORIENTED_EDGE('',*,*,#148,.F.);
#224=ORIENTED_EDGE('',*,*,#160,.T.);
#225=ORIENTED_EDGE('',*,*,#174,.T.);
#226=ORIENTED_EDGE('',*,*,#175,.T.);
#227=ORIENTED_EDGE('',*,*,#163,.F.);
#228=ORIENTED_EDGE('',*,*,#176,.T.);
#229=ORIENTED_EDGE('',*,*,#177,.T.);
#230=ORIENTED_EDGE('',*,*,#158,.T.);
#231=ORIENTED_EDGE('',*,*,#175,.F.);
#232=ORIENTED_EDGE('',*,*,#178,.T.);
#233=ORIENTED_EDGE('',*,*,#176,.F.);
#234=ORIENTED_EDGE('',*,*,#162,.F.);
#235=ORIENTED_EDGE('',*,*,#165,.T.);
#236=ORIENTED_EDGE('',*,*,#167,.F.);
#237=ORIENTED_EDGE('',*,*,#171,.F.);
#238=ORIENTED_EDGE('',*,*,#172,.F.);
#239=ORIENTED_EDGE('',*,*,#169,.T.);
#240=ORIENTED_EDGE('',*,*,#179,.F.);
#241=ORIENTED_EDGE('',*,*,#180,.F.);
#242=ORIENTED_EDGE('',*,*,#149,.F.);
#243=ORIENTED_EDGE('',*,*,#173,.F.);
#244=ORIENTED_EDGE('',*,*,#180,.T.);
#245=ORIENTED_EDGE('',*,*,#181,.F.);
#246=ORIENTED_EDGE('',*,*,#174,.F.);
#247=ORIENTED_EDGE('',*,*,#159,.T.);
#248=ORIENTED_EDGE('',*,*,#177,.F.);
#249=ORIENTED_EDGE('',*,*,#178,.F.);
#250=ORIENTED_EDGE('',*,*,#152,.F.);
#251=ORIENTED_EDGE('',*,*,#181,.T.);
#252=ORIENTED_EDGE('',*,*,#179,.T.);
#253=ORIENTED_EDGE('',*,*,#168,.T.);
#254=CYLINDRICAL_SURFACE('',#286,12.);
#255=CYLINDRICAL_SURFACE('',#290,12.);
#256=CYLINDRICAL_SURFACE('',#295,12.);
#257=ADVANCED_FACE('',(#27),#254,.F.);
#258=ADVANCED_FACE('',(#28),#255,.F.);
#259=ADVANCED_FACE('',(#29),#15,.T.);
#260=ADVANCED_FACE('',(#30),#16,.T.);
#261=ADVANCED_FACE('',(#31),#256,.F.);
#262=ADVANCED_FACE('',(#32),#17,.T.);
#263=ADVANCED_FACE('',(#33),#18,.T.);
#264=ADVANCED_FACE('',(#34),#19,.T.);
#265=ADVANCED_FACE('',(#35),#20,.F.);
#266=ADVANCED_FACE('',(#36),#21,.T.);
#267=ADVANCED_FACE('',(#37),#22,.T.);
#268=ADVANCED_FACE('',(#38),#23,.T.);
#269=ADVANCED_FACE('',(#39),#24,.T.);
#270=ADVANCED_FACE('',(#40),#25,.T.);
#271=ADVANCED_FACE('',(#41),#26,.T.);
#272=CLOSED_SHELL('',(#257,#258,#259,#260,#261,#262,#263,#264,#265,#266,
#267,#268,#269,#270,#271));
#273=DERIVED_UNIT_ELEMENT(#275,1.);
#274=DERIVED_UNIT_ELEMENT(#461,-3.);
#275=(
MASS_UNIT()
NAMED_UNIT(*)
SI_UNIT(.KILO.,.GRAM.)
);
#276=DERIVED_UNIT((#273,#274));
#277=MEASURE_REPRESENTATION_ITEM('density measure',
POSITIVE_RATIO_MEASURE(7850.),#276);
#278=PROPERTY_DEFINITION_REPRESENTATION(#283,#280);
#279=PROPERTY_DEFINITION_REPRESENTATION(#284,#281);
#280=REPRESENTATION('material name',(#282),#458);
#281=REPRESENTATION('density',(#277),#458);
#282=DESCRIPTIVE_REPRESENTATION_ITEM('Steel','Steel');
#283=PROPERTY_DEFINITION('material property','material name',#468);
#284=PROPERTY_DEFINITION('material property','density of part',#468);
#285=AXIS2_PLACEMENT_3D('',#381,#307,#308);
#286=AXIS2_PLACEMENT_3D('',#382,#309,#310);
#287=AXIS2_PLACEMENT_3D('',#385,#311,#312);
#288=AXIS2_PLACEMENT_3D('',#389,#314,#315);
#289=AXIS2_PLACEMENT_3D('',#392,#317,#318);
#290=AXIS2_PLACEMENT_3D('',#393,#319,#320);
#291=AXIS2_PLACEMENT_3D('',#395,#321,#322);
#292=AXIS2_PLACEMENT_3D('',#399,#324,#325);
#293=AXIS2_PLACEMENT_3D('',#401,#327,#328);
#294=AXIS2_PLACEMENT_3D('',#407,#332,#333);
#295=AXIS2_PLACEMENT_3D('',#413,#337,#338);
#296=AXIS2_PLACEMENT_3D('',#417,#340,#341);
#297=AXIS2_PLACEMENT_3D('',#419,#343,#344);
#298=AXIS2_PLACEMENT_3D('',#423,#347,#348);
#299=AXIS2_PLACEMENT_3D('',#427,#351,#352);
#300=AXIS2_PLACEMENT_3D('',#435,#357,#358);
#301=AXIS2_PLACEMENT_3D('',#442,#363,#364);
#302=AXIS2_PLACEMENT_3D('',#446,#367,#368);
#303=AXIS2_PLACEMENT_3D('',#448,#370,#371);
#304=AXIS2_PLACEMENT_3D('',#452,#374,#375);
#305=AXIS2_PLACEMENT_3D('',#454,#377,#378);
#306=AXIS2_PLACEMENT_3D('',#455,#379,#380);
#307=DIRECTION('axis',(0.,0.,1.));
#308=DIRECTION('refdir',(1.,0.,0.));
#309=DIRECTION('center_axis',(0.,0.,1.));
#310=DIRECTION('ref_axis',(-0.707106781186548,0.707106781186548,0.));
#311=DIRECTION('center_axis',(-0.707106781186548,0.,0.707106781186547));
#312=DIRECTION('ref_axis',(-0.707106781186547,0.,-0.707106781186548));
#313=DIRECTION('',(0.,0.,-1.));
#314=DIRECTION('center_axis',(0.,0.,-1.));
#315=DIRECTION('ref_axis',(-0.707106781186548,0.707106781186548,0.));
#316=DIRECTION('',(0.,0.,1.));
#317=DIRECTION('center_axis',(0.,0.707106781186548,0.707106781186548));
#318=DIRECTION('ref_axis',(0.,0.707106781186548,-0.707106781186548));
#319=DIRECTION('center_axis',(0.,-1.,0.));
#320=DIRECTION('ref_axis',(-0.707106781186548,0.,-0.707106781186548));
#321=DIRECTION('center_axis',(-0.707106781186548,-0.707106781186547,0.));
#322=DIRECTION('ref_axis',(-0.707106781186547,0.707106781186548,0.));
#323=DIRECTION('',(0.,1.,0.));
#324=DIRECTION('center_axis',(2.46519032881566E-33,1.,0.));
#325=DIRECTION('ref_axis',(-0.707106781186548,0.,-0.707106781186548));
#326=DIRECTION('',(0.,-1.,0.));
#327=DIRECTION('center_axis',(1.,0.,0.));
#328=DIRECTION('ref_axis',(0.,1.,0.));
#329=DIRECTION('',(0.,0.,1.));
#330=DIRECTION('',(0.,1.,0.));
#331=DIRECTION('',(0.,0.,1.));
#332=DIRECTION('center_axis',(1.,0.,0.));
#333=DIRECTION('ref_axis',(0.,1.,0.));
#334=DIRECTION('',(0.,1.,0.));
#335=DIRECTION('',(0.,0.,1.));
#336=DIRECTION('',(0.,-1.,0.));
#337=DIRECTION('center_axis',(-1.,0.,0.));
#338=DIRECTION('ref_axis',(0.,0.707106781186548,-0.707106781186548));
#339=DIRECTION('',(-1.,0.,0.));
#340=DIRECTION('center_axis',(-1.,0.,0.));
#341=DIRECTION('ref_axis',(0.,0.707106781186548,-0.707106781186548));
#342=DIRECTION('',(1.,0.,0.));
#343=DIRECTION('center_axis',(0.,-1.,0.));
#344=DIRECTION('ref_axis',(1.,0.,0.));
#345=DIRECTION('',(1.,0.,0.));
#346=DIRECTION('',(0.,0.,1.));
#347=DIRECTION('center_axis',(0.,0.,1.));
#348=DIRECTION('ref_axis',(1.,0.,0.));
#349=DIRECTION('',(-1.,0.,0.));
#350=DIRECTION('',(0.,-1.,0.));
#351=DIRECTION('center_axis',(2.46519032881566E-33,1.,0.));
#352=DIRECTION('ref_axis',(-1.,2.46519032881566E-33,0.));
#353=DIRECTION('',(-1.,2.46519032881566E-33,0.));
#354=DIRECTION('',(0.,0.,1.));
#355=DIRECTION('',(1.,-2.46519032881566E-33,0.));
#356=DIRECTION('',(0.,0.,1.));
#357=DIRECTION('center_axis',(0.,0.,1.));
#358=DIRECTION('ref_axis',(1.,0.,0.));
#359=DIRECTION('',(0.,-1.,0.));
#360=DIRECTION('',(-1.,0.,0.));
#361=DIRECTION('',(-1.,0.,0.));
#362=DIRECTION('',(0.,1.,0.));
#363=DIRECTION('center_axis',(0.,0.,1.));
#364=DIRECTION('ref_axis',(1.,0.,0.));
#365=DIRECTION('',(0.,-1.,0.));
#366=DIRECTION('',(1.,0.,0.));
#367=DIRECTION('center_axis',(-1.,0.,0.));
#368=DIRECTION('ref_axis',(0.,-1.,0.));
#369=DIRECTION('',(0.,0.,1.));
#370=DIRECTION('center_axis',(1.,0.,0.));
#371=DIRECTION('ref_axis',(0.,1.,0.));
#372=DIRECTION('',(0.,1.,0.));
#373=DIRECTION('',(0.,0.,1.));
#374=DIRECTION('center_axis',(0.,-1.,0.));
#375=DIRECTION('ref_axis',(1.,0.,0.));
#376=DIRECTION('',(1.,0.,0.));
#377=DIRECTION('center_axis',(0.,-1.,0.));
#378=DIRECTION('ref_axis',(1.,0.,0.));
#379=DIRECTION('center_axis',(0.,0.,1.));
#380=DIRECTION('ref_axis',(1.,0.,0.));
#381=CARTESIAN_POINT('',(0.,0.,0.));
#382=CARTESIAN_POINT('Origin',(28.,-28.,0.));
#383=CARTESIAN_POINT('',(16.,-28.,16.));
#384=CARTESIAN_POINT('',(19.5147186257614,-19.5147186257614,19.5147186257614));
#385=CARTESIAN_POINT('Origin',(28.,-28.,28.));
#386=CARTESIAN_POINT('',(16.,-28.,0.));
#387=CARTESIAN_POINT('',(16.,-28.,0.));
#388=CARTESIAN_POINT('',(28.,-16.,0.));
#389=CARTESIAN_POINT('Origin',(28.,-28.,0.));
#390=CARTESIAN_POINT('',(28.,-16.,16.));
#391=CARTESIAN_POINT('',(28.,-16.,0.));
#392=CARTESIAN_POINT('Origin',(28.,-28.,28.));
#393=CARTESIAN_POINT('Origin',(28.,-37.5,28.));
#394=CARTESIAN_POINT('',(16.,-16.,28.));
#395=CARTESIAN_POINT('Origin',(28.,-28.,28.));
#396=CARTESIAN_POINT('',(28.,-6.90253292068385E-32,16.));
#397=CARTESIAN_POINT('',(28.,-37.5,16.));
#398=CARTESIAN_POINT('',(16.,0.,28.));
#399=CARTESIAN_POINT('Origin',(28.,0.,28.));
#400=CARTESIAN_POINT('',(16.,-37.5,28.));
#401=CARTESIAN_POINT('Origin',(16.,-50.,0.));
#402=CARTESIAN_POINT('',(16.,0.,50.));
#403=CARTESIAN_POINT('',(16.,0.,0.));
#404=CARTESIAN_POINT('',(16.,-16.,50.));
#405=CARTESIAN_POINT('',(16.,0.,50.));
#406=CARTESIAN_POINT('',(16.,-16.,0.));
#407=CARTESIAN_POINT('Origin',(16.,-50.,0.));
#408=CARTESIAN_POINT('',(16.,-50.,16.));
#409=CARTESIAN_POINT('',(16.,0.,16.));
#410=CARTESIAN_POINT('',(16.,-50.,0.));
#411=CARTESIAN_POINT('',(16.,-50.,0.));
#412=CARTESIAN_POINT('',(16.,0.,0.));
#413=CARTESIAN_POINT('Origin',(12.5,-28.,28.));
#414=CARTESIAN_POINT('',(0.,-16.,28.));
#415=CARTESIAN_POINT('',(12.5,-16.,28.));
#416=CARTESIAN_POINT('',(0.,-28.,16.));
#417=CARTESIAN_POINT('Origin',(0.,-28.,28.));
#418=CARTESIAN_POINT('',(12.5,-28.,16.));
#419=CARTESIAN_POINT('Origin',(0.,-16.,0.));
#420=CARTESIAN_POINT('',(0.,-16.,50.));
#421=CARTESIAN_POINT('',(50.,-16.,50.));
#422=CARTESIAN_POINT('',(0.,-16.,0.));
#423=CARTESIAN_POINT('Origin',(8.,-8.,50.));
#424=CARTESIAN_POINT('',(0.,0.,50.));
#425=CARTESIAN_POINT('',(0.,0.,50.));
#426=CARTESIAN_POINT('',(0.,-50.,50.));
#427=CARTESIAN_POINT('Origin',(50.,-1.23259516440783E-31,0.));
#428=CARTESIAN_POINT('',(50.,0.,16.));
#429=CARTESIAN_POINT('',(0.,0.,16.));
#430=CARTESIAN_POINT('',(50.,-1.23259516440783E-31,0.));
#431=CARTESIAN_POINT('',(50.,-1.23259516440783E-31,0.));
#432=CARTESIAN_POINT('',(0.,0.,0.));
#433=CARTESIAN_POINT('',(0.,0.,0.));
#434=CARTESIAN_POINT('',(0.,0.,0.));
#435=CARTESIAN_POINT('Origin',(25.,-25.,0.));
#436=CARTESIAN_POINT('',(50.,-16.,0.));
#437=CARTESIAN_POINT('',(50.,-1.23259516440783E-31,0.));
#438=CARTESIAN_POINT('',(50.,-16.,0.));
#439=CARTESIAN_POINT('',(0.,-50.,0.));
#440=CARTESIAN_POINT('',(16.,-50.,0.));
#441=CARTESIAN_POINT('',(0.,-50.,0.));
#442=CARTESIAN_POINT('Origin',(25.,-25.,16.));
#443=CARTESIAN_POINT('',(0.,-50.,16.));
#444=CARTESIAN_POINT('',(0.,-50.,16.));
#445=CARTESIAN_POINT('',(16.,-50.,16.));
#446=CARTESIAN_POINT('Origin',(0.,0.,0.));
#447=CARTESIAN_POINT('',(0.,-50.,0.));
#448=CARTESIAN_POINT('Origin',(50.,-16.,0.));
#449=CARTESIAN_POINT('',(50.,-16.,16.));
#450=CARTESIAN_POINT('',(50.,-1.23259516440783E-31,16.));
#451=CARTESIAN_POINT('',(50.,-16.,0.));
#452=CARTESIAN_POINT('Origin',(16.,-16.,0.));
#453=CARTESIAN_POINT('',(50.,-16.,16.));
#454=CARTESIAN_POINT('Origin',(0.,-50.,0.));
#455=CARTESIAN_POINT('Origin',(25.,-25.,16.));
#456=UNCERTAINTY_MEASURE_WITH_UNIT(LENGTH_MEASURE(0.01),#460,
'DISTANCE_ACCURACY_VALUE',
'Maximum model space distance between geometric entities at asserted c
onnectivities');
#457=UNCERTAINTY_MEASURE_WITH_UNIT(LENGTH_MEASURE(0.01),#460,
'DISTANCE_ACCURACY_VALUE',
'Maximum model space distance between geometric entities at asserted c
onnectivities');
#458=(
GEOMETRIC_REPRESENTATION_CONTEXT(3)
GLOBAL_UNCERTAINTY_ASSIGNED_CONTEXT((#456))
GLOBAL_UNIT_ASSIGNED_CONTEXT((#460,#462,#463))
REPRESENTATION_CONTEXT('','3D')
);
#459=(
GEOMETRIC_REPRESENTATION_CONTEXT(3)
GLOBAL_UNCERTAINTY_ASSIGNED_CONTEXT((#457))
GLOBAL_UNIT_ASSIGNED_CONTEXT((#460,#462,#463))
REPRESENTATION_CONTEXT('','3D')
);
#460=(
LENGTH_UNIT()
NAMED_UNIT(*)
SI_UNIT(.MILLI.,.METRE.)
);
#461=(
LENGTH_UNIT()
NAMED_UNIT(*)
SI_UNIT($,.METRE.)
);
#462=(
NAMED_UNIT(*)
PLANE_ANGLE_UNIT()
SI_UNIT($,.RADIAN.)
);
#463=(
NAMED_UNIT(*)
SI_UNIT($,.STERADIAN.)
SOLID_ANGLE_UNIT()
);
#464=SHAPE_DEFINITION_REPRESENTATION(#465,#466);
#465=PRODUCT_DEFINITION_SHAPE('',$,#468);
#466=SHAPE_REPRESENTATION('',(#285),#458);
#467=PRODUCT_DEFINITION_CONTEXT('part definition',#472,'design');
#468=PRODUCT_DEFINITION('Bracket new','Bracket new v2',#469,#467);
#469=PRODUCT_DEFINITION_FORMATION('',$,#474);
#470=PRODUCT_RELATED_PRODUCT_CATEGORY('Bracket new v2','Bracket new v2',
(#474));
#471=APPLICATION_PROTOCOL_DEFINITION('international standard',
'automotive_design',2009,#472);
#472=APPLICATION_CONTEXT(
'Core Data for Automotive Mechanical Design Process');
#473=PRODUCT_CONTEXT('part definition',#472,'mechanical');
#474=PRODUCT('Bracket new','Bracket new v2',$,(#473));
#475=PRESENTATION_STYLE_ASSIGNMENT((#477));
#476=PRESENTATION_STYLE_ASSIGNMENT((#478));
#477=SURFACE_STYLE_USAGE(.BOTH.,#479);
#478=SURFACE_STYLE_USAGE(.BOTH.,#480);
#479=SURFACE_SIDE_STYLE('',(#481));
#480=SURFACE_SIDE_STYLE('',(#482));
#481=SURFACE_STYLE_FILL_AREA(#483);
#482=SURFACE_STYLE_FILL_AREA(#484);
#483=FILL_AREA_STYLE('Steel - Satin',(#485));
#484=FILL_AREA_STYLE('Tough 2000 Light Grey',(#486));
#485=FILL_AREA_STYLE_COLOUR('Steel - Satin',#487);
#486=FILL_AREA_STYLE_COLOUR('Tough 2000 Light Grey',#488);
#487=COLOUR_RGB('Steel - Satin',0.627450980392157,0.627450980392157,0.627450980392157);
#488=COLOUR_RGB('Tough 2000 Light Grey',0.682352941176471,0.682352941176471,
0.682352941176471);
ENDSEC;
END-ISO-10303-21;
