ISO-10303-21;
HEADER;
/* Generated by software containing ST-Developer
 * from STEP Tools, Inc. (www.steptools.com) 
 */

FILE_DESCRIPTION(
/* description */ (''),
/* implementation_level */ '2;1');

FILE_NAME(
/* name */ 'Bracket_F.step',
/* time_stamp */ '2026-07-09T11:20:43-04:00',
/* author */ (''),
/* organization */ (''),
/* preprocessor_version */ 'ST-DEVELOPER v20.1',
/* originating_system */ 'Autodesk Translation Framework v15.8.0.0',
/* authorisation */ '');

FILE_SCHEMA (('AUTOMOTIVE_DESIGN { 1 0 10303 214 3 1 1 }'));
ENDSEC;

DATA;
#10=MECHANICAL_DESIGN_GEOMETRIC_PRESENTATION_REPRESENTATION('',(#13),#446);
#11=SHAPE_REPRESENTATION_RELATIONSHIP('SRR','None',#453,#12);
#12=ADVANCED_BREP_SHAPE_REPRESENTATION('',(#267),#445);
#13=STYLED_ITEM('',(#463),#267);
#14=ORIENTED_CLOSED_SHELL('',*,#266,.F.);
#15=FACE_BOUND('',#54,.T.);
#16=FACE_BOUND('',#56,.T.);
#17=CIRCLE('',#294,5.23333333333333);
#18=CIRCLE('',#295,5.23333333333333);
#19=CIRCLE('',#297,5.33333333333333);
#20=CIRCLE('',#298,5.33333333333333);
#21=CYLINDRICAL_SURFACE('',#293,5.23333333333333);
#22=CYLINDRICAL_SURFACE('',#296,5.33333333333333);
#23=FACE_OUTER_BOUND('',#39,.T.);
#24=FACE_OUTER_BOUND('',#40,.T.);
#25=FACE_OUTER_BOUND('',#41,.T.);
#26=FACE_OUTER_BOUND('',#42,.T.);
#27=FACE_OUTER_BOUND('',#43,.T.);
#28=FACE_OUTER_BOUND('',#44,.T.);
#29=FACE_OUTER_BOUND('',#45,.T.);
#30=FACE_OUTER_BOUND('',#46,.T.);
#31=FACE_OUTER_BOUND('',#47,.T.);
#32=FACE_OUTER_BOUND('',#48,.T.);
#33=FACE_OUTER_BOUND('',#49,.T.);
#34=FACE_OUTER_BOUND('',#50,.T.);
#35=FACE_OUTER_BOUND('',#51,.T.);
#36=FACE_OUTER_BOUND('',#52,.T.);
#37=FACE_OUTER_BOUND('',#53,.T.);
#38=FACE_OUTER_BOUND('',#55,.T.);
#39=EDGE_LOOP('',(#169,#170,#171,#172));
#40=EDGE_LOOP('',(#173,#174,#175,#176));
#41=EDGE_LOOP('',(#177,#178,#179,#180));
#42=EDGE_LOOP('',(#181,#182,#183,#184,#185,#186));
#43=EDGE_LOOP('',(#187,#188,#189,#190,#191,#192));
#44=EDGE_LOOP('',(#193,#194,#195,#196));
#45=EDGE_LOOP('',(#197,#198,#199,#200,#201,#202));
#46=EDGE_LOOP('',(#203,#204,#205,#206));
#47=EDGE_LOOP('',(#207,#208,#209,#210));
#48=EDGE_LOOP('',(#211,#212,#213,#214));
#49=EDGE_LOOP('',(#215,#216,#217,#218));
#50=EDGE_LOOP('',(#219,#220,#221,#222));
#51=EDGE_LOOP('',(#223,#224,#225,#226));
#52=EDGE_LOOP('',(#227,#228,#229,#230));
#53=EDGE_LOOP('',(#231));
#54=EDGE_LOOP('',(#232));
#55=EDGE_LOOP('',(#233));
#56=EDGE_LOOP('',(#234));
#57=LINE('',#376,#86);
#58=LINE('',#378,#87);
#59=LINE('',#380,#88);
#60=LINE('',#381,#89);
#61=LINE('',#384,#90);
#62=LINE('',#386,#91);
#63=LINE('',#387,#92);
#64=LINE('',#390,#93);
#65=LINE('',#391,#94);
#66=LINE('',#394,#95);
#67=LINE('',#396,#96);
#68=LINE('',#398,#97);
#69=LINE('',#399,#98);
#70=LINE('',#402,#99);
#71=LINE('',#404,#100);
#72=LINE('',#406,#101);
#73=LINE('',#408,#102);
#74=LINE('',#409,#103);
#75=LINE('',#412,#104);
#76=LINE('',#414,#105);
#77=LINE('',#415,#106);
#78=LINE('',#417,#107);
#79=LINE('',#420,#108);
#80=LINE('',#421,#109);
#81=LINE('',#423,#110);
#82=LINE('',#424,#111);
#83=LINE('',#426,#112);
#84=LINE('',#433,#113);
#85=LINE('',#439,#114);
#86=VECTOR('',#305,10.);
#87=VECTOR('',#306,10.);
#88=VECTOR('',#307,10.);
#89=VECTOR('',#308,10.);
#90=VECTOR('',#311,10.);
#91=VECTOR('',#312,10.);
#92=VECTOR('',#313,10.);
#93=VECTOR('',#316,10.);
#94=VECTOR('',#317,10.);
#95=VECTOR('',#320,10.);
#96=VECTOR('',#321,10.);
#97=VECTOR('',#322,10.);
#98=VECTOR('',#323,10.);
#99=VECTOR('',#326,10.);
#100=VECTOR('',#327,10.);
#101=VECTOR('',#328,10.);
#102=VECTOR('',#329,10.);
#103=VECTOR('',#330,10.);
#104=VECTOR('',#333,10.);
#105=VECTOR('',#334,10.);
#106=VECTOR('',#335,10.);
#107=VECTOR('',#338,10.);
#108=VECTOR('',#341,10.);
#109=VECTOR('',#342,10.);
#110=VECTOR('',#345,10.);
#111=VECTOR('',#346,10.);
#112=VECTOR('',#349,10.);
#113=VECTOR('',#358,5.23333333333333);
#114=VECTOR('',#365,5.33333333333333);
#115=VERTEX_POINT('',#374);
#116=VERTEX_POINT('',#375);
#117=VERTEX_POINT('',#377);
#118=VERTEX_POINT('',#379);
#119=VERTEX_POINT('',#383);
#120=VERTEX_POINT('',#385);
#121=VERTEX_POINT('',#389);
#122=VERTEX_POINT('',#393);
#123=VERTEX_POINT('',#395);
#124=VERTEX_POINT('',#397);
#125=VERTEX_POINT('',#401);
#126=VERTEX_POINT('',#403);
#127=VERTEX_POINT('',#405);
#128=VERTEX_POINT('',#407);
#129=VERTEX_POINT('',#411);
#130=VERTEX_POINT('',#413);
#131=VERTEX_POINT('',#419);
#132=VERTEX_POINT('',#430);
#133=VERTEX_POINT('',#432);
#134=VERTEX_POINT('',#436);
#135=VERTEX_POINT('',#438);
#136=EDGE_CURVE('',#115,#116,#57,.T.);
#137=EDGE_CURVE('',#115,#117,#58,.T.);
#138=EDGE_CURVE('',#118,#117,#59,.T.);
#139=EDGE_CURVE('',#116,#118,#60,.T.);
#140=EDGE_CURVE('',#116,#119,#61,.T.);
#141=EDGE_CURVE('',#120,#118,#62,.T.);
#142=EDGE_CURVE('',#119,#120,#63,.T.);
#143=EDGE_CURVE('',#117,#121,#64,.T.);
#144=EDGE_CURVE('',#121,#120,#65,.T.);
#145=EDGE_CURVE('',#122,#115,#66,.T.);
#146=EDGE_CURVE('',#123,#122,#67,.T.);
#147=EDGE_CURVE('',#124,#123,#68,.T.);
#148=EDGE_CURVE('',#124,#121,#69,.T.);
#149=EDGE_CURVE('',#123,#125,#70,.T.);
#150=EDGE_CURVE('',#125,#126,#71,.T.);
#151=EDGE_CURVE('',#126,#127,#72,.T.);
#152=EDGE_CURVE('',#127,#128,#73,.T.);
#153=EDGE_CURVE('',#128,#124,#74,.T.);
#154=EDGE_CURVE('',#119,#129,#75,.T.);
#155=EDGE_CURVE('',#129,#130,#76,.T.);
#156=EDGE_CURVE('',#130,#116,#77,.T.);
#157=EDGE_CURVE('',#128,#129,#78,.T.);
#158=EDGE_CURVE('',#131,#122,#79,.T.);
#159=EDGE_CURVE('',#125,#131,#80,.T.);
#160=EDGE_CURVE('',#116,#131,#81,.T.);
#161=EDGE_CURVE('',#126,#116,#82,.T.);
#162=EDGE_CURVE('',#127,#130,#83,.T.);
#163=EDGE_CURVE('',#132,#132,#17,.T.);
#164=EDGE_CURVE('',#132,#133,#84,.T.);
#165=EDGE_CURVE('',#133,#133,#18,.F.);
#166=EDGE_CURVE('',#134,#134,#19,.T.);
#167=EDGE_CURVE('',#134,#135,#85,.T.);
#168=EDGE_CURVE('',#135,#135,#20,.F.);
#169=ORIENTED_EDGE('',*,*,#136,.F.);
#170=ORIENTED_EDGE('',*,*,#137,.T.);
#171=ORIENTED_EDGE('',*,*,#138,.F.);
#172=ORIENTED_EDGE('',*,*,#139,.F.);
#173=ORIENTED_EDGE('',*,*,#140,.F.);
#174=ORIENTED_EDGE('',*,*,#139,.T.);
#175=ORIENTED_EDGE('',*,*,#141,.F.);
#176=ORIENTED_EDGE('',*,*,#142,.F.);
#177=ORIENTED_EDGE('',*,*,#138,.T.);
#178=ORIENTED_EDGE('',*,*,#143,.T.);
#179=ORIENTED_EDGE('',*,*,#144,.T.);
#180=ORIENTED_EDGE('',*,*,#141,.T.);
#181=ORIENTED_EDGE('',*,*,#145,.F.);
#182=ORIENTED_EDGE('',*,*,#146,.F.);
#183=ORIENTED_EDGE('',*,*,#147,.F.);
#184=ORIENTED_EDGE('',*,*,#148,.T.);
#185=ORIENTED_EDGE('',*,*,#143,.F.);
#186=ORIENTED_EDGE('',*,*,#137,.F.);
#187=ORIENTED_EDGE('',*,*,#147,.T.);
#188=ORIENTED_EDGE('',*,*,#149,.T.);
#189=ORIENTED_EDGE('',*,*,#150,.T.);
#190=ORIENTED_EDGE('',*,*,#151,.T.);
#191=ORIENTED_EDGE('',*,*,#152,.T.);
#192=ORIENTED_EDGE('',*,*,#153,.T.);
#193=ORIENTED_EDGE('',*,*,#140,.T.);
#194=ORIENTED_EDGE('',*,*,#154,.T.);
#195=ORIENTED_EDGE('',*,*,#155,.T.);
#196=ORIENTED_EDGE('',*,*,#156,.T.);
#197=ORIENTED_EDGE('',*,*,#153,.F.);
#198=ORIENTED_EDGE('',*,*,#157,.T.);
#199=ORIENTED_EDGE('',*,*,#154,.F.);
#200=ORIENTED_EDGE('',*,*,#142,.T.);
#201=ORIENTED_EDGE('',*,*,#144,.F.);
#202=ORIENTED_EDGE('',*,*,#148,.F.);
#203=ORIENTED_EDGE('',*,*,#149,.F.);
#204=ORIENTED_EDGE('',*,*,#146,.T.);
#205=ORIENTED_EDGE('',*,*,#158,.F.);
#206=ORIENTED_EDGE('',*,*,#159,.F.);
#207=ORIENTED_EDGE('',*,*,#150,.F.);
#208=ORIENTED_EDGE('',*,*,#159,.T.);
#209=ORIENTED_EDGE('',*,*,#160,.F.);
#210=ORIENTED_EDGE('',*,*,#161,.F.);
#211=ORIENTED_EDGE('',*,*,#151,.F.);
#212=ORIENTED_EDGE('',*,*,#161,.T.);
#213=ORIENTED_EDGE('',*,*,#156,.F.);
#214=ORIENTED_EDGE('',*,*,#162,.F.);
#215=ORIENTED_EDGE('',*,*,#152,.F.);
#216=ORIENTED_EDGE('',*,*,#162,.T.);
#217=ORIENTED_EDGE('',*,*,#155,.F.);
#218=ORIENTED_EDGE('',*,*,#157,.F.);
#219=ORIENTED_EDGE('',*,*,#136,.T.);
#220=ORIENTED_EDGE('',*,*,#160,.T.);
#221=ORIENTED_EDGE('',*,*,#158,.T.);
#222=ORIENTED_EDGE('',*,*,#145,.T.);
#223=ORIENTED_EDGE('',*,*,#163,.T.);
#224=ORIENTED_EDGE('',*,*,#164,.T.);
#225=ORIENTED_EDGE('',*,*,#165,.F.);
#226=ORIENTED_EDGE('',*,*,#164,.F.);
#227=ORIENTED_EDGE('',*,*,#166,.T.);
#228=ORIENTED_EDGE('',*,*,#167,.T.);
#229=ORIENTED_EDGE('',*,*,#168,.F.);
#230=ORIENTED_EDGE('',*,*,#167,.F.);
#231=ORIENTED_EDGE('',*,*,#166,.F.);
#232=ORIENTED_EDGE('',*,*,#163,.F.);
#233=ORIENTED_EDGE('',*,*,#168,.T.);
#234=ORIENTED_EDGE('',*,*,#165,.T.);
#235=PLANE('',#281);
#236=PLANE('',#282);
#237=PLANE('',#283);
#238=PLANE('',#284);
#239=PLANE('',#285);
#240=PLANE('',#286);
#241=PLANE('',#287);
#242=PLANE('',#288);
#243=PLANE('',#289);
#244=PLANE('',#290);
#245=PLANE('',#291);
#246=PLANE('',#292);
#247=PLANE('',#299);
#248=PLANE('',#300);
#249=ADVANCED_FACE('',(#23),#235,.T.);
#250=ADVANCED_FACE('',(#24),#236,.T.);
#251=ADVANCED_FACE('',(#25),#237,.T.);
#252=ADVANCED_FACE('',(#26),#238,.T.);
#253=ADVANCED_FACE('',(#27),#239,.F.);
#254=ADVANCED_FACE('',(#28),#240,.T.);
#255=ADVANCED_FACE('',(#29),#241,.T.);
#256=ADVANCED_FACE('',(#30),#242,.T.);
#257=ADVANCED_FACE('',(#31),#243,.T.);
#258=ADVANCED_FACE('',(#32),#244,.T.);
#259=ADVANCED_FACE('',(#33),#245,.T.);
#260=ADVANCED_FACE('',(#34),#246,.T.);
#261=ADVANCED_FACE('',(#35),#21,.T.);
#262=ADVANCED_FACE('',(#36),#22,.F.);
#263=ADVANCED_FACE('',(#37,#15),#247,.T.);
#264=ADVANCED_FACE('',(#38,#16),#248,.F.);
#265=CLOSED_SHELL('',(#249,#250,#251,#252,#253,#254,#255,#256,#257,#258,
#259,#260));
#266=CLOSED_SHELL('',(#261,#262,#263,#264));
#267=BREP_WITH_VOIDS('Bracket_F',#265,(#14));
#268=DERIVED_UNIT_ELEMENT(#270,1.);
#269=DERIVED_UNIT_ELEMENT(#448,-3.);
#270=(
MASS_UNIT()
NAMED_UNIT(*)
SI_UNIT(.KILO.,.GRAM.)
);
#271=DERIVED_UNIT((#268,#269));
#272=MEASURE_REPRESENTATION_ITEM('density measure',
POSITIVE_RATIO_MEASURE(7850.),#271);
#273=PROPERTY_DEFINITION_REPRESENTATION(#278,#275);
#274=PROPERTY_DEFINITION_REPRESENTATION(#279,#276);
#275=REPRESENTATION('material name',(#277),#445);
#276=REPRESENTATION('density',(#272),#445);
#277=DESCRIPTIVE_REPRESENTATION_ITEM('Steel','Steel');
#278=PROPERTY_DEFINITION('material property','material name',#455);
#279=PROPERTY_DEFINITION('material property','density of part',#455);
#280=AXIS2_PLACEMENT_3D('',#372,#301,#302);
#281=AXIS2_PLACEMENT_3D('',#373,#303,#304);
#282=AXIS2_PLACEMENT_3D('',#382,#309,#310);
#283=AXIS2_PLACEMENT_3D('',#388,#314,#315);
#284=AXIS2_PLACEMENT_3D('',#392,#318,#319);
#285=AXIS2_PLACEMENT_3D('',#400,#324,#325);
#286=AXIS2_PLACEMENT_3D('',#410,#331,#332);
#287=AXIS2_PLACEMENT_3D('',#416,#336,#337);
#288=AXIS2_PLACEMENT_3D('',#418,#339,#340);
#289=AXIS2_PLACEMENT_3D('',#422,#343,#344);
#290=AXIS2_PLACEMENT_3D('',#425,#347,#348);
#291=AXIS2_PLACEMENT_3D('',#427,#350,#351);
#292=AXIS2_PLACEMENT_3D('',#428,#352,#353);
#293=AXIS2_PLACEMENT_3D('',#429,#354,#355);
#294=AXIS2_PLACEMENT_3D('',#431,#356,#357);
#295=AXIS2_PLACEMENT_3D('',#434,#359,#360);
#296=AXIS2_PLACEMENT_3D('',#435,#361,#362);
#297=AXIS2_PLACEMENT_3D('',#437,#363,#364);
#298=AXIS2_PLACEMENT_3D('',#440,#366,#367);
#299=AXIS2_PLACEMENT_3D('',#441,#368,#369);
#300=AXIS2_PLACEMENT_3D('',#442,#370,#371);
#301=DIRECTION('axis',(0.,0.,1.));
#302=DIRECTION('refdir',(1.,0.,0.));
#303=DIRECTION('center_axis',(1.,0.,0.));
#304=DIRECTION('ref_axis',(0.,1.,0.));
#305=DIRECTION('',(0.,-1.,0.));
#306=DIRECTION('',(0.,0.,1.));
#307=DIRECTION('',(0.,1.,0.));
#308=DIRECTION('',(0.,0.,1.));
#309=DIRECTION('center_axis',(0.,-1.,0.));
#310=DIRECTION('ref_axis',(1.,0.,0.));
#311=DIRECTION('',(-1.,0.,0.));
#312=DIRECTION('',(1.,0.,0.));
#313=DIRECTION('',(0.,0.,1.));
#314=DIRECTION('center_axis',(0.,0.,1.));
#315=DIRECTION('ref_axis',(1.,0.,0.));
#316=DIRECTION('',(-1.,0.,0.));
#317=DIRECTION('',(0.,-1.,0.));
#318=DIRECTION('center_axis',(2.46519032881566E-33,1.,0.));
#319=DIRECTION('ref_axis',(-1.,2.46519032881566E-33,0.));
#320=DIRECTION('',(-1.,2.46519032881566E-33,0.));
#321=DIRECTION('',(0.,0.,1.));
#322=DIRECTION('',(1.,-2.46519032881566E-33,0.));
#323=DIRECTION('',(0.,0.,1.));
#324=DIRECTION('center_axis',(0.,0.,1.));
#325=DIRECTION('ref_axis',(1.,0.,0.));
#326=DIRECTION('',(0.,-1.,0.));
#327=DIRECTION('',(-1.,0.,0.));
#328=DIRECTION('',(0.,-1.,0.));
#329=DIRECTION('',(-1.,0.,0.));
#330=DIRECTION('',(0.,1.,0.));
#331=DIRECTION('center_axis',(0.,0.,1.));
#332=DIRECTION('ref_axis',(1.,0.,0.));
#333=DIRECTION('',(0.,-1.,0.));
#334=DIRECTION('',(1.,0.,0.));
#335=DIRECTION('',(0.,1.,0.));
#336=DIRECTION('center_axis',(-1.,0.,0.));
#337=DIRECTION('ref_axis',(0.,-1.,0.));
#338=DIRECTION('',(0.,0.,1.));
#339=DIRECTION('center_axis',(1.,0.,0.));
#340=DIRECTION('ref_axis',(0.,1.,0.));
#341=DIRECTION('',(0.,1.,0.));
#342=DIRECTION('',(0.,0.,1.));
#343=DIRECTION('center_axis',(0.,-1.,0.));
#344=DIRECTION('ref_axis',(1.,0.,0.));
#345=DIRECTION('',(1.,0.,0.));
#346=DIRECTION('',(0.,0.,1.));
#347=DIRECTION('center_axis',(1.,0.,0.));
#348=DIRECTION('ref_axis',(0.,1.,0.));
#349=DIRECTION('',(0.,0.,1.));
#350=DIRECTION('center_axis',(0.,-1.,0.));
#351=DIRECTION('ref_axis',(1.,0.,0.));
#352=DIRECTION('center_axis',(0.,0.,1.));
#353=DIRECTION('ref_axis',(1.,0.,0.));
#354=DIRECTION('center_axis',(0.,0.,1.));
#355=DIRECTION('ref_axis',(1.,0.,0.));
#356=DIRECTION('center_axis',(0.,0.,1.));
#357=DIRECTION('ref_axis',(1.,0.,0.));
#358=DIRECTION('',(0.,0.,1.));
#359=DIRECTION('center_axis',(0.,0.,-1.));
#360=DIRECTION('ref_axis',(1.,0.,0.));
#361=DIRECTION('center_axis',(0.,0.,1.));
#362=DIRECTION('ref_axis',(1.,0.,0.));
#363=DIRECTION('center_axis',(0.,0.,-1.));
#364=DIRECTION('ref_axis',(1.,0.,0.));
#365=DIRECTION('',(0.,0.,1.));
#366=DIRECTION('center_axis',(0.,0.,1.));
#367=DIRECTION('ref_axis',(1.,0.,0.));
#368=DIRECTION('center_axis',(0.,0.,1.));
#369=DIRECTION('ref_axis',(1.,0.,0.));
#370=DIRECTION('center_axis',(0.,0.,1.));
#371=DIRECTION('ref_axis',(1.,0.,0.));
#372=CARTESIAN_POINT('',(0.,0.,0.));
#373=CARTESIAN_POINT('Origin',(16.,-16.,0.));
#374=CARTESIAN_POINT('',(16.,0.,16.));
#375=CARTESIAN_POINT('',(16.,-16.,16.));
#376=CARTESIAN_POINT('',(16.,-20.5,16.));
#377=CARTESIAN_POINT('',(16.,0.,50.));
#378=CARTESIAN_POINT('',(16.,0.,0.));
#379=CARTESIAN_POINT('',(16.,-16.,50.));
#380=CARTESIAN_POINT('',(16.,0.,50.));
#381=CARTESIAN_POINT('',(16.,-16.,0.));
#382=CARTESIAN_POINT('Origin',(0.,-16.,0.));
#383=CARTESIAN_POINT('',(0.,-16.,16.));
#384=CARTESIAN_POINT('',(12.5,-16.,16.));
#385=CARTESIAN_POINT('',(0.,-16.,50.));
#386=CARTESIAN_POINT('',(50.,-16.,50.));
#387=CARTESIAN_POINT('',(0.,-16.,0.));
#388=CARTESIAN_POINT('Origin',(8.,-8.,50.));
#389=CARTESIAN_POINT('',(0.,0.,50.));
#390=CARTESIAN_POINT('',(0.,0.,50.));
#391=CARTESIAN_POINT('',(0.,-50.,50.));
#392=CARTESIAN_POINT('Origin',(50.,-1.23259516440783E-31,0.));
#393=CARTESIAN_POINT('',(50.,0.,16.));
#394=CARTESIAN_POINT('',(0.,0.,16.));
#395=CARTESIAN_POINT('',(50.,-1.23259516440783E-31,0.));
#396=CARTESIAN_POINT('',(50.,-1.23259516440783E-31,0.));
#397=CARTESIAN_POINT('',(0.,0.,0.));
#398=CARTESIAN_POINT('',(0.,0.,0.));
#399=CARTESIAN_POINT('',(0.,0.,0.));
#400=CARTESIAN_POINT('Origin',(25.,-25.,0.));
#401=CARTESIAN_POINT('',(50.,-16.,0.));
#402=CARTESIAN_POINT('',(50.,-1.23259516440783E-31,0.));
#403=CARTESIAN_POINT('',(16.,-16.,0.));
#404=CARTESIAN_POINT('',(50.,-16.,0.));
#405=CARTESIAN_POINT('',(16.,-50.,0.));
#406=CARTESIAN_POINT('',(16.,0.,0.));
#407=CARTESIAN_POINT('',(0.,-50.,0.));
#408=CARTESIAN_POINT('',(16.,-50.,0.));
#409=CARTESIAN_POINT('',(0.,-50.,0.));
#410=CARTESIAN_POINT('Origin',(25.,-25.,16.));
#411=CARTESIAN_POINT('',(0.,-50.,16.));
#412=CARTESIAN_POINT('',(0.,-50.,16.));
#413=CARTESIAN_POINT('',(16.,-50.,16.));
#414=CARTESIAN_POINT('',(16.,-50.,16.));
#415=CARTESIAN_POINT('',(16.,0.,16.));
#416=CARTESIAN_POINT('Origin',(0.,0.,0.));
#417=CARTESIAN_POINT('',(0.,-50.,0.));
#418=CARTESIAN_POINT('Origin',(50.,-16.,0.));
#419=CARTESIAN_POINT('',(50.,-16.,16.));
#420=CARTESIAN_POINT('',(50.,-1.23259516440783E-31,16.));
#421=CARTESIAN_POINT('',(50.,-16.,0.));
#422=CARTESIAN_POINT('Origin',(16.,-16.,0.));
#423=CARTESIAN_POINT('',(50.,-16.,16.));
#424=CARTESIAN_POINT('',(16.,-16.,0.));
#425=CARTESIAN_POINT('Origin',(16.,-50.,0.));
#426=CARTESIAN_POINT('',(16.,-50.,0.));
#427=CARTESIAN_POINT('Origin',(0.,-50.,0.));
#428=CARTESIAN_POINT('Origin',(25.,-25.,16.));
#429=CARTESIAN_POINT('Origin',(8.,-8.,8.));
#430=CARTESIAN_POINT('',(2.76666666666667,-8.,8.));
#431=CARTESIAN_POINT('Origin',(8.,-8.,8.));
#432=CARTESIAN_POINT('',(2.76666666666667,-8.,48.));
#433=CARTESIAN_POINT('',(2.76666666666667,-8.,8.));
#434=CARTESIAN_POINT('Origin',(8.,-8.,48.));
#435=CARTESIAN_POINT('Origin',(8.,-8.,8.));
#436=CARTESIAN_POINT('',(2.66666666666667,-8.,8.));
#437=CARTESIAN_POINT('Origin',(8.,-8.,8.));
#438=CARTESIAN_POINT('',(2.66666666666667,-8.,48.));
#439=CARTESIAN_POINT('',(2.66666666666667,-8.,8.));
#440=CARTESIAN_POINT('Origin',(8.,-8.,48.));
#441=CARTESIAN_POINT('Origin',(8.,-8.,8.));
#442=CARTESIAN_POINT('Origin',(8.,-8.,48.));
#443=UNCERTAINTY_MEASURE_WITH_UNIT(LENGTH_MEASURE(0.01),#447,
'DISTANCE_ACCURACY_VALUE',
'Maximum model space distance between geometric entities at asserted c
onnectivities');
#444=UNCERTAINTY_MEASURE_WITH_UNIT(LENGTH_MEASURE(0.01),#447,
'DISTANCE_ACCURACY_VALUE',
'Maximum model space distance between geometric entities at asserted c
onnectivities');
#445=(
GEOMETRIC_REPRESENTATION_CONTEXT(3)
GLOBAL_UNCERTAINTY_ASSIGNED_CONTEXT((#443))
GLOBAL_UNIT_ASSIGNED_CONTEXT((#447,#449,#450))
REPRESENTATION_CONTEXT('','3D')
);
#446=(
GEOMETRIC_REPRESENTATION_CONTEXT(3)
GLOBAL_UNCERTAINTY_ASSIGNED_CONTEXT((#444))
GLOBAL_UNIT_ASSIGNED_CONTEXT((#447,#449,#450))
REPRESENTATION_CONTEXT('','3D')
);
#447=(
LENGTH_UNIT()
NAMED_UNIT(*)
SI_UNIT(.MILLI.,.METRE.)
);
#448=(
LENGTH_UNIT()
NAMED_UNIT(*)
SI_UNIT($,.METRE.)
);
#449=(
NAMED_UNIT(*)
PLANE_ANGLE_UNIT()
SI_UNIT($,.RADIAN.)
);
#450=(
NAMED_UNIT(*)
SI_UNIT($,.STERADIAN.)
SOLID_ANGLE_UNIT()
);
#451=SHAPE_DEFINITION_REPRESENTATION(#452,#453);
#452=PRODUCT_DEFINITION_SHAPE('',$,#455);
#453=SHAPE_REPRESENTATION('',(#280),#445);
#454=PRODUCT_DEFINITION_CONTEXT('part definition',#459,'design');
#455=PRODUCT_DEFINITION('Bracket new','Bracket new v2',#456,#454);
#456=PRODUCT_DEFINITION_FORMATION('',$,#461);
#457=PRODUCT_RELATED_PRODUCT_CATEGORY('Bracket new v2','Bracket new v2',
(#461));
#458=APPLICATION_PROTOCOL_DEFINITION('international standard',
'automotive_design',2009,#459);
#459=APPLICATION_CONTEXT(
'Core Data for Automotive Mechanical Design Process');
#460=PRODUCT_CONTEXT('part definition',#459,'mechanical');
#461=PRODUCT('Bracket new','Bracket new v2',$,(#460));
#462=PRESENTATION_STYLE_ASSIGNMENT((#464));
#463=PRESENTATION_STYLE_ASSIGNMENT((#465));
#464=SURFACE_STYLE_USAGE(.BOTH.,#466);
#465=SURFACE_STYLE_USAGE(.BOTH.,#467);
#466=SURFACE_SIDE_STYLE('',(#468));
#467=SURFACE_SIDE_STYLE('',(#469));
#468=SURFACE_STYLE_FILL_AREA(#470);
#469=SURFACE_STYLE_FILL_AREA(#471);
#470=FILL_AREA_STYLE('Steel - Satin',(#472));
#471=FILL_AREA_STYLE('Tough 2000 Light Grey',(#473));
#472=FILL_AREA_STYLE_COLOUR('Steel - Satin',#474);
#473=FILL_AREA_STYLE_COLOUR('Tough 2000 Light Grey',#475);
#474=COLOUR_RGB('Steel - Satin',0.627450980392157,0.627450980392157,0.627450980392157);
#475=COLOUR_RGB('Tough 2000 Light Grey',0.682352941176471,0.682352941176471,
0.682352941176471);
ENDSEC;
END-ISO-10303-21;
