ISO-10303-21;
HEADER;
/* Generated by software containing ST-Developer
 * from STEP Tools, Inc. (www.steptools.com) 
 */

FILE_DESCRIPTION(
/* description */ (''),
/* implementation_level */ '2;1');

FILE_NAME(
/* name */ 'Example.step',
/* time_stamp */ '2025-09-08T14:44:36-04:00',
/* author */ (''),
/* organization */ (''),
/* preprocessor_version */ 'ST-DEVELOPER v20.1',
/* originating_system */ 'Autodesk Translation Framework v14.10.0.0',
/* authorisation */ '');

FILE_SCHEMA (('AUTOMOTIVE_DESIGN { 1 0 10303 214 3 1 1 }'));
ENDSEC;

DATA;
#10=MECHANICAL_DESIGN_GEOMETRIC_PRESENTATION_REPRESENTATION('',(#13),#1163);
#11=SHAPE_REPRESENTATION_RELATIONSHIP('SRR','None',#1170,#12);
#12=ADVANCED_BREP_SHAPE_REPRESENTATION('',(#14),#1162);
#13=STYLED_ITEM('',(#1179),#14);
#14=MANIFOLD_SOLID_BREP('Body1',#631);
#15=CYLINDRICAL_SURFACE('',#652,1.);
#16=CYLINDRICAL_SURFACE('',#660,1.);
#17=CYLINDRICAL_SURFACE('',#668,1.);
#18=CYLINDRICAL_SURFACE('',#676,1.);
#19=CYLINDRICAL_SURFACE('',#683,1.);
#20=CYLINDRICAL_SURFACE('',#691,1.);
#21=CYLINDRICAL_SURFACE('',#699,1.);
#22=CYLINDRICAL_SURFACE('',#707,1.);
#23=CYLINDRICAL_SURFACE('',#709,2.);
#24=CYLINDRICAL_SURFACE('',#711,2.);
#25=CYLINDRICAL_SURFACE('',#712,2.);
#26=CYLINDRICAL_SURFACE('',#716,2.);
#27=PLANE('',#651);
#28=PLANE('',#659);
#29=PLANE('',#667);
#30=PLANE('',#675);
#31=PLANE('',#685);
#32=PLANE('',#693);
#33=PLANE('',#701);
#34=PLANE('',#708);
#35=PLANE('',#710);
#36=PLANE('',#713);
#37=PLANE('',#714);
#38=PLANE('',#715);
#39=PLANE('',#717);
#40=PLANE('',#718);
#41=(
BOUNDED_SURFACE()
B_SPLINE_SURFACE(2,2,((#927,#928,#929),(#930,#931,#932),(#933,#934,#935)),
 .UNSPECIFIED.,.F.,.F.,.F.)
B_SPLINE_SURFACE_WITH_KNOTS((3,3),(3,3),(-5.55111512312578E-16,1.04719755119661),
(-1.57079632679489,5.92118946466768E-15),.UNSPECIFIED.)
GEOMETRIC_REPRESENTATION_ITEM()
RATIONAL_B_SPLINE_SURFACE(((1.,0.707106781186547,1.),(0.866025403784442,
0.612372435695796,0.866025403784442),(1.,0.707106781186547,1.)))
REPRESENTATION_ITEM('')
SURFACE()
);
#42=(
BOUNDED_SURFACE()
B_SPLINE_SURFACE(2,2,((#957,#958,#959),(#960,#961,#962),(#963,#964,#965)),
 .UNSPECIFIED.,.F.,.F.,.F.)
B_SPLINE_SURFACE_WITH_KNOTS((3,3),(3,3),(-5.55111512312578E-16,1.0471975511966),
(-3.14159265358979,-1.57079632679489),.UNSPECIFIED.)
GEOMETRIC_REPRESENTATION_ITEM()
RATIONAL_B_SPLINE_SURFACE(((1.,0.707106781186546,1.),(0.866025403784434,
0.61237243569579,0.866025403784434),(1.,0.707106781186546,1.)))
REPRESENTATION_ITEM('')
SURFACE()
);
#43=(
BOUNDED_SURFACE()
B_SPLINE_SURFACE(2,2,((#985,#986,#987),(#988,#989,#990),(#991,#992,#993)),
 .UNSPECIFIED.,.F.,.F.,.F.)
B_SPLINE_SURFACE_WITH_KNOTS((3,3),(3,3),(-5.55111512312578E-16,1.04719755119661),
(1.5707963267949,3.1415926535898),.UNSPECIFIED.)
GEOMETRIC_REPRESENTATION_ITEM()
RATIONAL_B_SPLINE_SURFACE(((1.,0.707106781186545,1.),(0.866025403784427,
0.612372435695784,0.866025403784427),(1.,0.707106781186545,1.)))
REPRESENTATION_ITEM('')
SURFACE()
);
#44=(
BOUNDED_SURFACE()
B_SPLINE_SURFACE(2,2,((#1013,#1014,#1015),(#1016,#1017,#1018),(#1019,#1020,
#1021)),.UNSPECIFIED.,.F.,.F.,.F.)
B_SPLINE_SURFACE_WITH_KNOTS((3,3),(3,3),(-5.55111512312578E-16,1.0471975511966),
(8.88178419700131E-15,1.57079632679491),.UNSPECIFIED.)
GEOMETRIC_REPRESENTATION_ITEM()
RATIONAL_B_SPLINE_SURFACE(((1.,0.707106781186547,1.),(0.866025403784453,
0.612372435695804,0.866025403784453),(1.,0.707106781186547,1.)))
REPRESENTATION_ITEM('')
SURFACE()
);
#45=(
BOUNDED_SURFACE()
B_SPLINE_SURFACE(2,2,((#1030,#1031,#1032),(#1033,#1034,#1035),(#1036,#1037,
#1038)),.UNSPECIFIED.,.F.,.F.,.F.)
B_SPLINE_SURFACE_WITH_KNOTS((3,3),(3,3),(-0.872664625997168,0.),(-1.57079632679489,
5.40653225324497E-15),.UNSPECIFIED.)
GEOMETRIC_REPRESENTATION_ITEM()
RATIONAL_B_SPLINE_SURFACE(((1.,0.707106781186547,1.),(0.906307787036665,
0.640856382055799,0.906307787036665),(1.,0.707106781186547,1.)))
REPRESENTATION_ITEM('')
SURFACE()
);
#46=(
BOUNDED_SURFACE()
B_SPLINE_SURFACE(2,2,((#1063,#1064,#1065),(#1066,#1067,#1068),(#1069,#1070,
#1071)),.UNSPECIFIED.,.F.,.F.,.F.)
B_SPLINE_SURFACE_WITH_KNOTS((3,3),(3,3),(-0.872664625997167,0.),(-3.14159265358979,
-1.57079632679489),.UNSPECIFIED.)
GEOMETRIC_REPRESENTATION_ITEM()
RATIONAL_B_SPLINE_SURFACE(((1.,0.707106781186546,1.),(0.906307787036667,
0.640856382055799,0.906307787036667),(1.,0.707106781186546,1.)))
REPRESENTATION_ITEM('')
SURFACE()
);
#47=(
BOUNDED_SURFACE()
B_SPLINE_SURFACE(2,2,((#1091,#1092,#1093),(#1094,#1095,#1096),(#1097,#1098,
#1099)),.UNSPECIFIED.,.F.,.F.,.F.)
B_SPLINE_SURFACE_WITH_KNOTS((3,3),(3,3),(-0.872664625997173,0.),(1.5707963267949,
3.1415926535898),.UNSPECIFIED.)
GEOMETRIC_REPRESENTATION_ITEM()
RATIONAL_B_SPLINE_SURFACE(((1.,0.707106781186545,1.),(0.906307787036634,
0.640856382055775,0.906307787036634),(1.,0.707106781186545,1.)))
REPRESENTATION_ITEM('')
SURFACE()
);
#48=(
BOUNDED_SURFACE()
B_SPLINE_SURFACE(2,2,((#1119,#1120,#1121),(#1122,#1123,#1124),(#1125,#1126,
#1127)),.UNSPECIFIED.,.F.,.F.,.F.)
B_SPLINE_SURFACE_WITH_KNOTS((3,3),(3,3),(-0.872664625997166,0.),(8.88178419700131E-15,
1.57079632679491),.UNSPECIFIED.)
GEOMETRIC_REPRESENTATION_ITEM()
RATIONAL_B_SPLINE_SURFACE(((1.,0.707106781186547,1.),(0.906307787036655,
0.640856382055792,0.906307787036655),(1.,0.707106781186547,1.)))
REPRESENTATION_ITEM('')
SURFACE()
);
#49=FACE_OUTER_BOUND('',#91,.T.);
#50=FACE_OUTER_BOUND('',#92,.T.);
#51=FACE_OUTER_BOUND('',#93,.T.);
#52=FACE_OUTER_BOUND('',#94,.T.);
#53=FACE_OUTER_BOUND('',#95,.T.);
#54=FACE_OUTER_BOUND('',#96,.T.);
#55=FACE_OUTER_BOUND('',#97,.T.);
#56=FACE_OUTER_BOUND('',#98,.T.);
#57=FACE_OUTER_BOUND('',#99,.T.);
#58=FACE_OUTER_BOUND('',#100,.T.);
#59=FACE_OUTER_BOUND('',#101,.T.);
#60=FACE_OUTER_BOUND('',#102,.T.);
#61=FACE_OUTER_BOUND('',#103,.T.);
#62=FACE_OUTER_BOUND('',#104,.T.);
#63=FACE_OUTER_BOUND('',#105,.T.);
#64=FACE_OUTER_BOUND('',#106,.T.);
#65=FACE_OUTER_BOUND('',#107,.T.);
#66=FACE_OUTER_BOUND('',#108,.T.);
#67=FACE_OUTER_BOUND('',#109,.T.);
#68=FACE_OUTER_BOUND('',#110,.T.);
#69=FACE_OUTER_BOUND('',#111,.T.);
#70=FACE_OUTER_BOUND('',#112,.T.);
#71=FACE_OUTER_BOUND('',#113,.T.);
#72=FACE_OUTER_BOUND('',#114,.T.);
#73=FACE_OUTER_BOUND('',#115,.T.);
#74=FACE_OUTER_BOUND('',#116,.T.);
#75=FACE_OUTER_BOUND('',#117,.T.);
#76=FACE_OUTER_BOUND('',#118,.T.);
#77=FACE_OUTER_BOUND('',#119,.T.);
#78=FACE_OUTER_BOUND('',#120,.T.);
#79=FACE_OUTER_BOUND('',#121,.T.);
#80=FACE_OUTER_BOUND('',#122,.T.);
#81=FACE_OUTER_BOUND('',#123,.T.);
#82=FACE_OUTER_BOUND('',#124,.T.);
#83=FACE_OUTER_BOUND('',#125,.T.);
#84=FACE_OUTER_BOUND('',#126,.T.);
#85=FACE_OUTER_BOUND('',#127,.T.);
#86=FACE_OUTER_BOUND('',#128,.T.);
#87=FACE_OUTER_BOUND('',#129,.T.);
#88=FACE_OUTER_BOUND('',#130,.T.);
#89=FACE_OUTER_BOUND('',#131,.T.);
#90=FACE_OUTER_BOUND('',#132,.T.);
#91=EDGE_LOOP('',(#405,#406,#407,#408));
#92=EDGE_LOOP('',(#409,#410,#411,#412));
#93=EDGE_LOOP('',(#413,#414,#415,#416));
#94=EDGE_LOOP('',(#417,#418,#419,#420));
#95=EDGE_LOOP('',(#421,#422,#423,#424));
#96=EDGE_LOOP('',(#425,#426,#427,#428));
#97=EDGE_LOOP('',(#429,#430,#431,#432));
#98=EDGE_LOOP('',(#433,#434,#435,#436));
#99=EDGE_LOOP('',(#437,#438,#439,#440));
#100=EDGE_LOOP('',(#441,#442,#443,#444));
#101=EDGE_LOOP('',(#445,#446,#447,#448));
#102=EDGE_LOOP('',(#449,#450,#451,#452));
#103=EDGE_LOOP('',(#453,#454,#455,#456));
#104=EDGE_LOOP('',(#457,#458,#459,#460));
#105=EDGE_LOOP('',(#461,#462,#463,#464));
#106=EDGE_LOOP('',(#465,#466,#467,#468));
#107=EDGE_LOOP('',(#469,#470,#471,#472));
#108=EDGE_LOOP('',(#473,#474,#475,#476));
#109=EDGE_LOOP('',(#477,#478,#479,#480));
#110=EDGE_LOOP('',(#481,#482,#483,#484));
#111=EDGE_LOOP('',(#485,#486,#487,#488));
#112=EDGE_LOOP('',(#489,#490,#491,#492));
#113=EDGE_LOOP('',(#493,#494,#495,#496));
#114=EDGE_LOOP('',(#497,#498,#499,#500));
#115=EDGE_LOOP('',(#501,#502,#503,#504));
#116=EDGE_LOOP('',(#505,#506,#507,#508));
#117=EDGE_LOOP('',(#509,#510,#511,#512));
#118=EDGE_LOOP('',(#513,#514,#515,#516));
#119=EDGE_LOOP('',(#517,#518,#519,#520));
#120=EDGE_LOOP('',(#521,#522,#523,#524));
#121=EDGE_LOOP('',(#525,#526,#527,#528));
#122=EDGE_LOOP('',(#529,#530,#531,#532));
#123=EDGE_LOOP('',(#533,#534,#535,#536));
#124=EDGE_LOOP('',(#537,#538,#539,#540));
#125=EDGE_LOOP('',(#541,#542,#543,#544));
#126=EDGE_LOOP('',(#545,#546,#547,#548));
#127=EDGE_LOOP('',(#549,#550,#551,#552));
#128=EDGE_LOOP('',(#553,#554,#555,#556,#557,#558,#559,#560));
#129=EDGE_LOOP('',(#561,#562,#563,#564));
#130=EDGE_LOOP('',(#565,#566,#567,#568));
#131=EDGE_LOOP('',(#569,#570,#571,#572));
#132=EDGE_LOOP('',(#573,#574,#575,#576,#577,#578,#579,#580));
#133=CIRCLE('',#646,1.49999999999996);
#134=CIRCLE('',#647,1.15358983848618);
#135=CIRCLE('',#648,1.);
#136=CIRCLE('',#649,2.);
#137=CIRCLE('',#650,1.);
#138=CIRCLE('',#653,1.);
#139=CIRCLE('',#655,1.49999999999997);
#140=CIRCLE('',#656,1.15358983848619);
#141=CIRCLE('',#657,1.);
#142=CIRCLE('',#658,2.);
#143=CIRCLE('',#661,1.);
#144=CIRCLE('',#663,1.49999999999999);
#145=CIRCLE('',#664,1.1535898384862);
#146=CIRCLE('',#665,1.);
#147=CIRCLE('',#666,2.);
#148=CIRCLE('',#669,1.);
#149=CIRCLE('',#671,1.49999999999998);
#150=CIRCLE('',#672,1.1535898384862);
#151=CIRCLE('',#673,1.);
#152=CIRCLE('',#674,2.);
#153=CIRCLE('',#677,1.);
#154=CIRCLE('',#678,1.6427876096865);
#155=CIRCLE('',#679,1.);
#156=CIRCLE('',#680,2.);
#157=CIRCLE('',#682,1.23759138820447);
#158=CIRCLE('',#684,1.);
#159=CIRCLE('',#686,1.);
#160=CIRCLE('',#687,1.64278760968652);
#161=CIRCLE('',#688,2.);
#162=CIRCLE('',#690,1.23759138820449);
#163=CIRCLE('',#692,1.);
#164=CIRCLE('',#694,1.);
#165=CIRCLE('',#695,1.64278760968654);
#166=CIRCLE('',#696,2.);
#167=CIRCLE('',#698,1.23759138820449);
#168=CIRCLE('',#700,1.);
#169=CIRCLE('',#702,1.);
#170=CIRCLE('',#703,1.64278760968652);
#171=CIRCLE('',#704,2.);
#172=CIRCLE('',#706,1.2375913882045);
#173=LINE('',#921,#221);
#174=LINE('',#925,#222);
#175=LINE('',#944,#223);
#176=LINE('',#945,#224);
#177=LINE('',#946,#225);
#178=LINE('',#950,#226);
#179=LINE('',#954,#227);
#180=LINE('',#972,#228);
#181=LINE('',#973,#229);
#182=LINE('',#974,#230);
#183=LINE('',#978,#231);
#184=LINE('',#982,#232);
#185=LINE('',#1000,#233);
#186=LINE('',#1001,#234);
#187=LINE('',#1002,#235);
#188=LINE('',#1006,#236);
#189=LINE('',#1010,#237);
#190=LINE('',#1026,#238);
#191=LINE('',#1027,#239);
#192=LINE('',#1029,#240);
#193=LINE('',#1049,#241);
#194=LINE('',#1052,#242);
#195=LINE('',#1057,#243);
#196=LINE('',#1058,#244);
#197=LINE('',#1061,#245);
#198=LINE('',#1062,#246);
#199=LINE('',#1079,#247);
#200=LINE('',#1085,#248);
#201=LINE('',#1086,#249);
#202=LINE('',#1089,#250);
#203=LINE('',#1090,#251);
#204=LINE('',#1107,#252);
#205=LINE('',#1113,#253);
#206=LINE('',#1114,#254);
#207=LINE('',#1117,#255);
#208=LINE('',#1118,#256);
#209=LINE('',#1135,#257);
#210=LINE('',#1138,#258);
#211=LINE('',#1139,#259);
#212=LINE('',#1141,#260);
#213=LINE('',#1143,#261);
#214=LINE('',#1144,#262);
#215=LINE('',#1146,#263);
#216=LINE('',#1148,#264);
#217=LINE('',#1149,#265);
#218=LINE('',#1151,#266);
#219=LINE('',#1155,#267);
#220=LINE('',#1157,#268);
#221=VECTOR('',#723,10.);
#222=VECTOR('',#726,10.);
#223=VECTOR('',#737,10.);
#224=VECTOR('',#738,10.);
#225=VECTOR('',#739,10.);
#226=VECTOR('',#744,10.);
#227=VECTOR('',#747,10.);
#228=VECTOR('',#758,10.);
#229=VECTOR('',#759,10.);
#230=VECTOR('',#760,10.);
#231=VECTOR('',#765,10.);
#232=VECTOR('',#768,10.);
#233=VECTOR('',#779,10.);
#234=VECTOR('',#780,10.);
#235=VECTOR('',#781,10.);
#236=VECTOR('',#786,10.);
#237=VECTOR('',#789,10.);
#238=VECTOR('',#800,10.);
#239=VECTOR('',#801,10.);
#240=VECTOR('',#804,10.);
#241=VECTOR('',#815,10.);
#242=VECTOR('',#818,10.);
#243=VECTOR('',#823,10.);
#244=VECTOR('',#824,10.);
#245=VECTOR('',#827,10.);
#246=VECTOR('',#828,10.);
#247=VECTOR('',#837,10.);
#248=VECTOR('',#844,10.);
#249=VECTOR('',#845,10.);
#250=VECTOR('',#848,10.);
#251=VECTOR('',#849,10.);
#252=VECTOR('',#858,10.);
#253=VECTOR('',#865,10.);
#254=VECTOR('',#866,10.);
#255=VECTOR('',#869,10.);
#256=VECTOR('',#870,10.);
#257=VECTOR('',#879,10.);
#258=VECTOR('',#884,10.);
#259=VECTOR('',#885,10.);
#260=VECTOR('',#888,10.);
#261=VECTOR('',#891,10.);
#262=VECTOR('',#892,10.);
#263=VECTOR('',#895,10.);
#264=VECTOR('',#898,10.);
#265=VECTOR('',#899,10.);
#266=VECTOR('',#902,10.);
#267=VECTOR('',#909,10.);
#268=VECTOR('',#912,10.);
#269=VERTEX_POINT('',#919);
#270=VERTEX_POINT('',#920);
#271=VERTEX_POINT('',#922);
#272=VERTEX_POINT('',#924);
#273=VERTEX_POINT('',#936);
#274=VERTEX_POINT('',#938);
#275=VERTEX_POINT('',#942);
#276=VERTEX_POINT('',#943);
#277=VERTEX_POINT('',#948);
#278=VERTEX_POINT('',#952);
#279=VERTEX_POINT('',#953);
#280=VERTEX_POINT('',#966);
#281=VERTEX_POINT('',#970);
#282=VERTEX_POINT('',#971);
#283=VERTEX_POINT('',#976);
#284=VERTEX_POINT('',#980);
#285=VERTEX_POINT('',#981);
#286=VERTEX_POINT('',#994);
#287=VERTEX_POINT('',#998);
#288=VERTEX_POINT('',#999);
#289=VERTEX_POINT('',#1004);
#290=VERTEX_POINT('',#1008);
#291=VERTEX_POINT('',#1009);
#292=VERTEX_POINT('',#1022);
#293=VERTEX_POINT('',#1039);
#294=VERTEX_POINT('',#1040);
#295=VERTEX_POINT('',#1042);
#296=VERTEX_POINT('',#1044);
#297=VERTEX_POINT('',#1048);
#298=VERTEX_POINT('',#1050);
#299=VERTEX_POINT('',#1054);
#300=VERTEX_POINT('',#1055);
#301=VERTEX_POINT('',#1060);
#302=VERTEX_POINT('',#1072);
#303=VERTEX_POINT('',#1073);
#304=VERTEX_POINT('',#1078);
#305=VERTEX_POINT('',#1082);
#306=VERTEX_POINT('',#1083);
#307=VERTEX_POINT('',#1088);
#308=VERTEX_POINT('',#1100);
#309=VERTEX_POINT('',#1101);
#310=VERTEX_POINT('',#1106);
#311=VERTEX_POINT('',#1110);
#312=VERTEX_POINT('',#1111);
#313=VERTEX_POINT('',#1116);
#314=VERTEX_POINT('',#1128);
#315=VERTEX_POINT('',#1129);
#316=VERTEX_POINT('',#1134);
#317=EDGE_CURVE('',#269,#270,#173,.T.);
#318=EDGE_CURVE('',#269,#271,#133,.T.);
#319=EDGE_CURVE('',#271,#272,#174,.T.);
#320=EDGE_CURVE('',#270,#272,#134,.T.);
#321=EDGE_CURVE('',#273,#269,#135,.T.);
#322=EDGE_CURVE('',#273,#274,#136,.T.);
#323=EDGE_CURVE('',#274,#271,#137,.T.);
#324=EDGE_CURVE('',#275,#276,#175,.T.);
#325=EDGE_CURVE('',#275,#269,#176,.T.);
#326=EDGE_CURVE('',#276,#270,#177,.T.);
#327=EDGE_CURVE('',#277,#275,#138,.T.);
#328=EDGE_CURVE('',#273,#277,#178,.T.);
#329=EDGE_CURVE('',#278,#279,#179,.T.);
#330=EDGE_CURVE('',#278,#275,#139,.T.);
#331=EDGE_CURVE('',#279,#276,#140,.T.);
#332=EDGE_CURVE('',#280,#278,#141,.T.);
#333=EDGE_CURVE('',#280,#277,#142,.T.);
#334=EDGE_CURVE('',#281,#282,#180,.T.);
#335=EDGE_CURVE('',#281,#278,#181,.T.);
#336=EDGE_CURVE('',#282,#279,#182,.T.);
#337=EDGE_CURVE('',#283,#281,#143,.T.);
#338=EDGE_CURVE('',#280,#283,#183,.T.);
#339=EDGE_CURVE('',#284,#285,#184,.T.);
#340=EDGE_CURVE('',#284,#281,#144,.T.);
#341=EDGE_CURVE('',#285,#282,#145,.T.);
#342=EDGE_CURVE('',#286,#284,#146,.T.);
#343=EDGE_CURVE('',#286,#283,#147,.T.);
#344=EDGE_CURVE('',#287,#288,#185,.T.);
#345=EDGE_CURVE('',#287,#284,#186,.T.);
#346=EDGE_CURVE('',#288,#285,#187,.T.);
#347=EDGE_CURVE('',#289,#287,#148,.T.);
#348=EDGE_CURVE('',#286,#289,#188,.T.);
#349=EDGE_CURVE('',#290,#291,#189,.T.);
#350=EDGE_CURVE('',#290,#287,#149,.T.);
#351=EDGE_CURVE('',#291,#288,#150,.T.);
#352=EDGE_CURVE('',#292,#290,#151,.T.);
#353=EDGE_CURVE('',#292,#289,#152,.T.);
#354=EDGE_CURVE('',#272,#291,#190,.T.);
#355=EDGE_CURVE('',#271,#290,#191,.T.);
#356=EDGE_CURVE('',#292,#274,#192,.T.);
#357=EDGE_CURVE('',#293,#294,#153,.T.);
#358=EDGE_CURVE('',#293,#295,#154,.T.);
#359=EDGE_CURVE('',#295,#296,#155,.T.);
#360=EDGE_CURVE('',#294,#296,#156,.T.);
#361=EDGE_CURVE('',#297,#293,#193,.T.);
#362=EDGE_CURVE('',#298,#297,#157,.T.);
#363=EDGE_CURVE('',#298,#295,#194,.T.);
#364=EDGE_CURVE('',#299,#300,#158,.T.);
#365=EDGE_CURVE('',#299,#293,#195,.T.);
#366=EDGE_CURVE('',#294,#300,#196,.T.);
#367=EDGE_CURVE('',#301,#299,#197,.T.);
#368=EDGE_CURVE('',#297,#301,#198,.T.);
#369=EDGE_CURVE('',#302,#303,#159,.T.);
#370=EDGE_CURVE('',#302,#299,#160,.T.);
#371=EDGE_CURVE('',#303,#300,#161,.T.);
#372=EDGE_CURVE('',#304,#302,#199,.T.);
#373=EDGE_CURVE('',#301,#304,#162,.T.);
#374=EDGE_CURVE('',#305,#306,#163,.T.);
#375=EDGE_CURVE('',#305,#302,#200,.T.);
#376=EDGE_CURVE('',#303,#306,#201,.T.);
#377=EDGE_CURVE('',#307,#305,#202,.T.);
#378=EDGE_CURVE('',#304,#307,#203,.T.);
#379=EDGE_CURVE('',#308,#309,#164,.T.);
#380=EDGE_CURVE('',#308,#305,#165,.T.);
#381=EDGE_CURVE('',#309,#306,#166,.T.);
#382=EDGE_CURVE('',#310,#308,#204,.T.);
#383=EDGE_CURVE('',#307,#310,#167,.T.);
#384=EDGE_CURVE('',#311,#312,#168,.T.);
#385=EDGE_CURVE('',#311,#308,#205,.T.);
#386=EDGE_CURVE('',#309,#312,#206,.T.);
#387=EDGE_CURVE('',#313,#311,#207,.T.);
#388=EDGE_CURVE('',#310,#313,#208,.T.);
#389=EDGE_CURVE('',#314,#315,#169,.T.);
#390=EDGE_CURVE('',#314,#311,#170,.T.);
#391=EDGE_CURVE('',#315,#312,#171,.T.);
#392=EDGE_CURVE('',#316,#314,#209,.T.);
#393=EDGE_CURVE('',#313,#316,#172,.T.);
#394=EDGE_CURVE('',#315,#296,#210,.T.);
#395=EDGE_CURVE('',#295,#314,#211,.T.);
#396=EDGE_CURVE('',#316,#298,#212,.T.);
#397=EDGE_CURVE('',#273,#294,#213,.T.);
#398=EDGE_CURVE('',#296,#274,#214,.T.);
#399=EDGE_CURVE('',#292,#315,#215,.T.);
#400=EDGE_CURVE('',#286,#309,#216,.T.);
#401=EDGE_CURVE('',#306,#283,#217,.T.);
#402=EDGE_CURVE('',#312,#289,#218,.T.);
#403=EDGE_CURVE('',#280,#303,#219,.T.);
#404=EDGE_CURVE('',#300,#277,#220,.T.);
#405=ORIENTED_EDGE('',*,*,#317,.F.);
#406=ORIENTED_EDGE('',*,*,#318,.T.);
#407=ORIENTED_EDGE('',*,*,#319,.T.);
#408=ORIENTED_EDGE('',*,*,#320,.F.);
#409=ORIENTED_EDGE('',*,*,#321,.F.);
#410=ORIENTED_EDGE('',*,*,#322,.T.);
#411=ORIENTED_EDGE('',*,*,#323,.T.);
#412=ORIENTED_EDGE('',*,*,#318,.F.);
#413=ORIENTED_EDGE('',*,*,#324,.F.);
#414=ORIENTED_EDGE('',*,*,#325,.T.);
#415=ORIENTED_EDGE('',*,*,#317,.T.);
#416=ORIENTED_EDGE('',*,*,#326,.F.);
#417=ORIENTED_EDGE('',*,*,#327,.F.);
#418=ORIENTED_EDGE('',*,*,#328,.F.);
#419=ORIENTED_EDGE('',*,*,#321,.T.);
#420=ORIENTED_EDGE('',*,*,#325,.F.);
#421=ORIENTED_EDGE('',*,*,#329,.F.);
#422=ORIENTED_EDGE('',*,*,#330,.T.);
#423=ORIENTED_EDGE('',*,*,#324,.T.);
#424=ORIENTED_EDGE('',*,*,#331,.F.);
#425=ORIENTED_EDGE('',*,*,#332,.F.);
#426=ORIENTED_EDGE('',*,*,#333,.T.);
#427=ORIENTED_EDGE('',*,*,#327,.T.);
#428=ORIENTED_EDGE('',*,*,#330,.F.);
#429=ORIENTED_EDGE('',*,*,#334,.F.);
#430=ORIENTED_EDGE('',*,*,#335,.T.);
#431=ORIENTED_EDGE('',*,*,#329,.T.);
#432=ORIENTED_EDGE('',*,*,#336,.F.);
#433=ORIENTED_EDGE('',*,*,#337,.F.);
#434=ORIENTED_EDGE('',*,*,#338,.F.);
#435=ORIENTED_EDGE('',*,*,#332,.T.);
#436=ORIENTED_EDGE('',*,*,#335,.F.);
#437=ORIENTED_EDGE('',*,*,#339,.F.);
#438=ORIENTED_EDGE('',*,*,#340,.T.);
#439=ORIENTED_EDGE('',*,*,#334,.T.);
#440=ORIENTED_EDGE('',*,*,#341,.F.);
#441=ORIENTED_EDGE('',*,*,#342,.F.);
#442=ORIENTED_EDGE('',*,*,#343,.T.);
#443=ORIENTED_EDGE('',*,*,#337,.T.);
#444=ORIENTED_EDGE('',*,*,#340,.F.);
#445=ORIENTED_EDGE('',*,*,#344,.F.);
#446=ORIENTED_EDGE('',*,*,#345,.T.);
#447=ORIENTED_EDGE('',*,*,#339,.T.);
#448=ORIENTED_EDGE('',*,*,#346,.F.);
#449=ORIENTED_EDGE('',*,*,#347,.F.);
#450=ORIENTED_EDGE('',*,*,#348,.F.);
#451=ORIENTED_EDGE('',*,*,#342,.T.);
#452=ORIENTED_EDGE('',*,*,#345,.F.);
#453=ORIENTED_EDGE('',*,*,#349,.F.);
#454=ORIENTED_EDGE('',*,*,#350,.T.);
#455=ORIENTED_EDGE('',*,*,#344,.T.);
#456=ORIENTED_EDGE('',*,*,#351,.F.);
#457=ORIENTED_EDGE('',*,*,#352,.F.);
#458=ORIENTED_EDGE('',*,*,#353,.T.);
#459=ORIENTED_EDGE('',*,*,#347,.T.);
#460=ORIENTED_EDGE('',*,*,#350,.F.);
#461=ORIENTED_EDGE('',*,*,#354,.F.);
#462=ORIENTED_EDGE('',*,*,#319,.F.);
#463=ORIENTED_EDGE('',*,*,#355,.T.);
#464=ORIENTED_EDGE('',*,*,#349,.T.);
#465=ORIENTED_EDGE('',*,*,#355,.F.);
#466=ORIENTED_EDGE('',*,*,#323,.F.);
#467=ORIENTED_EDGE('',*,*,#356,.F.);
#468=ORIENTED_EDGE('',*,*,#352,.T.);
#469=ORIENTED_EDGE('',*,*,#357,.F.);
#470=ORIENTED_EDGE('',*,*,#358,.T.);
#471=ORIENTED_EDGE('',*,*,#359,.T.);
#472=ORIENTED_EDGE('',*,*,#360,.F.);
#473=ORIENTED_EDGE('',*,*,#361,.F.);
#474=ORIENTED_EDGE('',*,*,#362,.F.);
#475=ORIENTED_EDGE('',*,*,#363,.T.);
#476=ORIENTED_EDGE('',*,*,#358,.F.);
#477=ORIENTED_EDGE('',*,*,#364,.F.);
#478=ORIENTED_EDGE('',*,*,#365,.T.);
#479=ORIENTED_EDGE('',*,*,#357,.T.);
#480=ORIENTED_EDGE('',*,*,#366,.T.);
#481=ORIENTED_EDGE('',*,*,#367,.F.);
#482=ORIENTED_EDGE('',*,*,#368,.F.);
#483=ORIENTED_EDGE('',*,*,#361,.T.);
#484=ORIENTED_EDGE('',*,*,#365,.F.);
#485=ORIENTED_EDGE('',*,*,#369,.F.);
#486=ORIENTED_EDGE('',*,*,#370,.T.);
#487=ORIENTED_EDGE('',*,*,#364,.T.);
#488=ORIENTED_EDGE('',*,*,#371,.F.);
#489=ORIENTED_EDGE('',*,*,#372,.F.);
#490=ORIENTED_EDGE('',*,*,#373,.F.);
#491=ORIENTED_EDGE('',*,*,#367,.T.);
#492=ORIENTED_EDGE('',*,*,#370,.F.);
#493=ORIENTED_EDGE('',*,*,#374,.F.);
#494=ORIENTED_EDGE('',*,*,#375,.T.);
#495=ORIENTED_EDGE('',*,*,#369,.T.);
#496=ORIENTED_EDGE('',*,*,#376,.T.);
#497=ORIENTED_EDGE('',*,*,#377,.F.);
#498=ORIENTED_EDGE('',*,*,#378,.F.);
#499=ORIENTED_EDGE('',*,*,#372,.T.);
#500=ORIENTED_EDGE('',*,*,#375,.F.);
#501=ORIENTED_EDGE('',*,*,#379,.F.);
#502=ORIENTED_EDGE('',*,*,#380,.T.);
#503=ORIENTED_EDGE('',*,*,#374,.T.);
#504=ORIENTED_EDGE('',*,*,#381,.F.);
#505=ORIENTED_EDGE('',*,*,#382,.F.);
#506=ORIENTED_EDGE('',*,*,#383,.F.);
#507=ORIENTED_EDGE('',*,*,#377,.T.);
#508=ORIENTED_EDGE('',*,*,#380,.F.);
#509=ORIENTED_EDGE('',*,*,#384,.F.);
#510=ORIENTED_EDGE('',*,*,#385,.T.);
#511=ORIENTED_EDGE('',*,*,#379,.T.);
#512=ORIENTED_EDGE('',*,*,#386,.T.);
#513=ORIENTED_EDGE('',*,*,#387,.F.);
#514=ORIENTED_EDGE('',*,*,#388,.F.);
#515=ORIENTED_EDGE('',*,*,#382,.T.);
#516=ORIENTED_EDGE('',*,*,#385,.F.);
#517=ORIENTED_EDGE('',*,*,#389,.F.);
#518=ORIENTED_EDGE('',*,*,#390,.T.);
#519=ORIENTED_EDGE('',*,*,#384,.T.);
#520=ORIENTED_EDGE('',*,*,#391,.F.);
#521=ORIENTED_EDGE('',*,*,#392,.F.);
#522=ORIENTED_EDGE('',*,*,#393,.F.);
#523=ORIENTED_EDGE('',*,*,#387,.T.);
#524=ORIENTED_EDGE('',*,*,#390,.F.);
#525=ORIENTED_EDGE('',*,*,#394,.T.);
#526=ORIENTED_EDGE('',*,*,#359,.F.);
#527=ORIENTED_EDGE('',*,*,#395,.T.);
#528=ORIENTED_EDGE('',*,*,#389,.T.);
#529=ORIENTED_EDGE('',*,*,#395,.F.);
#530=ORIENTED_EDGE('',*,*,#363,.F.);
#531=ORIENTED_EDGE('',*,*,#396,.F.);
#532=ORIENTED_EDGE('',*,*,#392,.T.);
#533=ORIENTED_EDGE('',*,*,#322,.F.);
#534=ORIENTED_EDGE('',*,*,#397,.T.);
#535=ORIENTED_EDGE('',*,*,#360,.T.);
#536=ORIENTED_EDGE('',*,*,#398,.T.);
#537=ORIENTED_EDGE('',*,*,#356,.T.);
#538=ORIENTED_EDGE('',*,*,#398,.F.);
#539=ORIENTED_EDGE('',*,*,#394,.F.);
#540=ORIENTED_EDGE('',*,*,#399,.F.);
#541=ORIENTED_EDGE('',*,*,#343,.F.);
#542=ORIENTED_EDGE('',*,*,#400,.T.);
#543=ORIENTED_EDGE('',*,*,#381,.T.);
#544=ORIENTED_EDGE('',*,*,#401,.T.);
#545=ORIENTED_EDGE('',*,*,#353,.F.);
#546=ORIENTED_EDGE('',*,*,#399,.T.);
#547=ORIENTED_EDGE('',*,*,#391,.T.);
#548=ORIENTED_EDGE('',*,*,#402,.T.);
#549=ORIENTED_EDGE('',*,*,#348,.T.);
#550=ORIENTED_EDGE('',*,*,#402,.F.);
#551=ORIENTED_EDGE('',*,*,#386,.F.);
#552=ORIENTED_EDGE('',*,*,#400,.F.);
#553=ORIENTED_EDGE('',*,*,#362,.T.);
#554=ORIENTED_EDGE('',*,*,#368,.T.);
#555=ORIENTED_EDGE('',*,*,#373,.T.);
#556=ORIENTED_EDGE('',*,*,#378,.T.);
#557=ORIENTED_EDGE('',*,*,#383,.T.);
#558=ORIENTED_EDGE('',*,*,#388,.T.);
#559=ORIENTED_EDGE('',*,*,#393,.T.);
#560=ORIENTED_EDGE('',*,*,#396,.T.);
#561=ORIENTED_EDGE('',*,*,#338,.T.);
#562=ORIENTED_EDGE('',*,*,#401,.F.);
#563=ORIENTED_EDGE('',*,*,#376,.F.);
#564=ORIENTED_EDGE('',*,*,#403,.F.);
#565=ORIENTED_EDGE('',*,*,#333,.F.);
#566=ORIENTED_EDGE('',*,*,#403,.T.);
#567=ORIENTED_EDGE('',*,*,#371,.T.);
#568=ORIENTED_EDGE('',*,*,#404,.T.);
#569=ORIENTED_EDGE('',*,*,#328,.T.);
#570=ORIENTED_EDGE('',*,*,#404,.F.);
#571=ORIENTED_EDGE('',*,*,#366,.F.);
#572=ORIENTED_EDGE('',*,*,#397,.F.);
#573=ORIENTED_EDGE('',*,*,#320,.T.);
#574=ORIENTED_EDGE('',*,*,#354,.T.);
#575=ORIENTED_EDGE('',*,*,#351,.T.);
#576=ORIENTED_EDGE('',*,*,#346,.T.);
#577=ORIENTED_EDGE('',*,*,#341,.T.);
#578=ORIENTED_EDGE('',*,*,#336,.T.);
#579=ORIENTED_EDGE('',*,*,#331,.T.);
#580=ORIENTED_EDGE('',*,*,#326,.T.);
#581=CONICAL_SURFACE('',#645,1.32679491924307,1.04719755119661);
#582=CONICAL_SURFACE('',#654,1.32679491924308,1.04719755119661);
#583=CONICAL_SURFACE('',#662,1.32679491924309,1.04719755119661);
#584=CONICAL_SURFACE('',#670,1.32679491924309,1.04719755119661);
#585=CONICAL_SURFACE('',#681,1.44018949894549,0.872664625997163);
#586=CONICAL_SURFACE('',#689,1.4401894989455,0.87266462599716);
#587=CONICAL_SURFACE('',#697,1.44018949894551,0.872664625997163);
#588=CONICAL_SURFACE('',#705,1.44018949894551,0.87266462599716);
#589=ADVANCED_FACE('',(#49),#581,.T.);
#590=ADVANCED_FACE('',(#50),#41,.F.);
#591=ADVANCED_FACE('',(#51),#27,.F.);
#592=ADVANCED_FACE('',(#52),#15,.T.);
#593=ADVANCED_FACE('',(#53),#582,.T.);
#594=ADVANCED_FACE('',(#54),#42,.F.);
#595=ADVANCED_FACE('',(#55),#28,.F.);
#596=ADVANCED_FACE('',(#56),#16,.T.);
#597=ADVANCED_FACE('',(#57),#583,.T.);
#598=ADVANCED_FACE('',(#58),#43,.F.);
#599=ADVANCED_FACE('',(#59),#29,.F.);
#600=ADVANCED_FACE('',(#60),#17,.T.);
#601=ADVANCED_FACE('',(#61),#584,.T.);
#602=ADVANCED_FACE('',(#62),#44,.F.);
#603=ADVANCED_FACE('',(#63),#30,.F.);
#604=ADVANCED_FACE('',(#64),#18,.T.);
#605=ADVANCED_FACE('',(#65),#45,.F.);
#606=ADVANCED_FACE('',(#66),#585,.T.);
#607=ADVANCED_FACE('',(#67),#19,.T.);
#608=ADVANCED_FACE('',(#68),#31,.F.);
#609=ADVANCED_FACE('',(#69),#46,.F.);
#610=ADVANCED_FACE('',(#70),#586,.T.);
#611=ADVANCED_FACE('',(#71),#20,.T.);
#612=ADVANCED_FACE('',(#72),#32,.F.);
#613=ADVANCED_FACE('',(#73),#47,.F.);
#614=ADVANCED_FACE('',(#74),#587,.T.);
#615=ADVANCED_FACE('',(#75),#21,.T.);
#616=ADVANCED_FACE('',(#76),#33,.F.);
#617=ADVANCED_FACE('',(#77),#48,.F.);
#618=ADVANCED_FACE('',(#78),#588,.T.);
#619=ADVANCED_FACE('',(#79),#22,.T.);
#620=ADVANCED_FACE('',(#80),#34,.F.);
#621=ADVANCED_FACE('',(#81),#23,.T.);
#622=ADVANCED_FACE('',(#82),#35,.T.);
#623=ADVANCED_FACE('',(#83),#24,.T.);
#624=ADVANCED_FACE('',(#84),#25,.T.);
#625=ADVANCED_FACE('',(#85),#36,.T.);
#626=ADVANCED_FACE('',(#86),#37,.F.);
#627=ADVANCED_FACE('',(#87),#38,.T.);
#628=ADVANCED_FACE('',(#88),#26,.T.);
#629=ADVANCED_FACE('',(#89),#39,.T.);
#630=ADVANCED_FACE('',(#90),#40,.T.);
#631=CLOSED_SHELL('',(#589,#590,#591,#592,#593,#594,#595,#596,#597,#598,
#599,#600,#601,#602,#603,#604,#605,#606,#607,#608,#609,#610,#611,#612,#613,
#614,#615,#616,#617,#618,#619,#620,#621,#622,#623,#624,#625,#626,#627,#628,
#629,#630));
#632=DERIVED_UNIT_ELEMENT(#634,1.);
#633=DERIVED_UNIT_ELEMENT(#1165,-3.);
#634=(
MASS_UNIT()
NAMED_UNIT(*)
SI_UNIT(.KILO.,.GRAM.)
);
#635=DERIVED_UNIT((#632,#633));
#636=MEASURE_REPRESENTATION_ITEM('density measure',
POSITIVE_RATIO_MEASURE(7850.),#635);
#637=PROPERTY_DEFINITION_REPRESENTATION(#642,#639);
#638=PROPERTY_DEFINITION_REPRESENTATION(#643,#640);
#639=REPRESENTATION('material name',(#641),#1162);
#640=REPRESENTATION('density',(#636),#1162);
#641=DESCRIPTIVE_REPRESENTATION_ITEM('Steel','Steel');
#642=PROPERTY_DEFINITION('material property','material name',#1172);
#643=PROPERTY_DEFINITION('material property','density of part',#1172);
#644=AXIS2_PLACEMENT_3D('',#917,#719,#720);
#645=AXIS2_PLACEMENT_3D('',#918,#721,#722);
#646=AXIS2_PLACEMENT_3D('',#923,#724,#725);
#647=AXIS2_PLACEMENT_3D('',#926,#727,#728);
#648=AXIS2_PLACEMENT_3D('',#937,#729,#730);
#649=AXIS2_PLACEMENT_3D('',#939,#731,#732);
#650=AXIS2_PLACEMENT_3D('',#940,#733,#734);
#651=AXIS2_PLACEMENT_3D('',#941,#735,#736);
#652=AXIS2_PLACEMENT_3D('',#947,#740,#741);
#653=AXIS2_PLACEMENT_3D('',#949,#742,#743);
#654=AXIS2_PLACEMENT_3D('',#951,#745,#746);
#655=AXIS2_PLACEMENT_3D('',#955,#748,#749);
#656=AXIS2_PLACEMENT_3D('',#956,#750,#751);
#657=AXIS2_PLACEMENT_3D('',#967,#752,#753);
#658=AXIS2_PLACEMENT_3D('',#968,#754,#755);
#659=AXIS2_PLACEMENT_3D('',#969,#756,#757);
#660=AXIS2_PLACEMENT_3D('',#975,#761,#762);
#661=AXIS2_PLACEMENT_3D('',#977,#763,#764);
#662=AXIS2_PLACEMENT_3D('',#979,#766,#767);
#663=AXIS2_PLACEMENT_3D('',#983,#769,#770);
#664=AXIS2_PLACEMENT_3D('',#984,#771,#772);
#665=AXIS2_PLACEMENT_3D('',#995,#773,#774);
#666=AXIS2_PLACEMENT_3D('',#996,#775,#776);
#667=AXIS2_PLACEMENT_3D('',#997,#777,#778);
#668=AXIS2_PLACEMENT_3D('',#1003,#782,#783);
#669=AXIS2_PLACEMENT_3D('',#1005,#784,#785);
#670=AXIS2_PLACEMENT_3D('',#1007,#787,#788);
#671=AXIS2_PLACEMENT_3D('',#1011,#790,#791);
#672=AXIS2_PLACEMENT_3D('',#1012,#792,#793);
#673=AXIS2_PLACEMENT_3D('',#1023,#794,#795);
#674=AXIS2_PLACEMENT_3D('',#1024,#796,#797);
#675=AXIS2_PLACEMENT_3D('',#1025,#798,#799);
#676=AXIS2_PLACEMENT_3D('',#1028,#802,#803);
#677=AXIS2_PLACEMENT_3D('',#1041,#805,#806);
#678=AXIS2_PLACEMENT_3D('',#1043,#807,#808);
#679=AXIS2_PLACEMENT_3D('',#1045,#809,#810);
#680=AXIS2_PLACEMENT_3D('',#1046,#811,#812);
#681=AXIS2_PLACEMENT_3D('',#1047,#813,#814);
#682=AXIS2_PLACEMENT_3D('',#1051,#816,#817);
#683=AXIS2_PLACEMENT_3D('',#1053,#819,#820);
#684=AXIS2_PLACEMENT_3D('',#1056,#821,#822);
#685=AXIS2_PLACEMENT_3D('',#1059,#825,#826);
#686=AXIS2_PLACEMENT_3D('',#1074,#829,#830);
#687=AXIS2_PLACEMENT_3D('',#1075,#831,#832);
#688=AXIS2_PLACEMENT_3D('',#1076,#833,#834);
#689=AXIS2_PLACEMENT_3D('',#1077,#835,#836);
#690=AXIS2_PLACEMENT_3D('',#1080,#838,#839);
#691=AXIS2_PLACEMENT_3D('',#1081,#840,#841);
#692=AXIS2_PLACEMENT_3D('',#1084,#842,#843);
#693=AXIS2_PLACEMENT_3D('',#1087,#846,#847);
#694=AXIS2_PLACEMENT_3D('',#1102,#850,#851);
#695=AXIS2_PLACEMENT_3D('',#1103,#852,#853);
#696=AXIS2_PLACEMENT_3D('',#1104,#854,#855);
#697=AXIS2_PLACEMENT_3D('',#1105,#856,#857);
#698=AXIS2_PLACEMENT_3D('',#1108,#859,#860);
#699=AXIS2_PLACEMENT_3D('',#1109,#861,#862);
#700=AXIS2_PLACEMENT_3D('',#1112,#863,#864);
#701=AXIS2_PLACEMENT_3D('',#1115,#867,#868);
#702=AXIS2_PLACEMENT_3D('',#1130,#871,#872);
#703=AXIS2_PLACEMENT_3D('',#1131,#873,#874);
#704=AXIS2_PLACEMENT_3D('',#1132,#875,#876);
#705=AXIS2_PLACEMENT_3D('',#1133,#877,#878);
#706=AXIS2_PLACEMENT_3D('',#1136,#880,#881);
#707=AXIS2_PLACEMENT_3D('',#1137,#882,#883);
#708=AXIS2_PLACEMENT_3D('',#1140,#886,#887);
#709=AXIS2_PLACEMENT_3D('',#1142,#889,#890);
#710=AXIS2_PLACEMENT_3D('',#1145,#893,#894);
#711=AXIS2_PLACEMENT_3D('',#1147,#896,#897);
#712=AXIS2_PLACEMENT_3D('',#1150,#900,#901);
#713=AXIS2_PLACEMENT_3D('',#1152,#903,#904);
#714=AXIS2_PLACEMENT_3D('',#1153,#905,#906);
#715=AXIS2_PLACEMENT_3D('',#1154,#907,#908);
#716=AXIS2_PLACEMENT_3D('',#1156,#910,#911);
#717=AXIS2_PLACEMENT_3D('',#1158,#913,#914);
#718=AXIS2_PLACEMENT_3D('',#1159,#915,#916);
#719=DIRECTION('axis',(0.,0.,1.));
#720=DIRECTION('refdir',(1.,0.,0.));
#721=DIRECTION('center_axis',(0.,0.,-1.));
#722=DIRECTION('ref_axis',(1.11022302462516E-15,-1.,0.));
#723=DIRECTION('',(-8.0239505738305E-16,0.866025403784444,0.499999999999991));
#724=DIRECTION('center_axis',(0.,0.,1.));
#725=DIRECTION('ref_axis',(8.88178419700149E-15,-1.,0.));
#726=DIRECTION('',(-0.866025403784444,2.12115047744983E-16,0.499999999999991));
#727=DIRECTION('center_axis',(0.,0.,1.));
#728=DIRECTION('ref_axis',(1.11022302462516E-15,-1.,0.));
#729=DIRECTION('center_axis',(-1.,-9.26526004753054E-16,0.));
#730=DIRECTION('ref_axis',(4.63263002376527E-16,-0.5,0.866025403784439));
#731=DIRECTION('center_axis',(0.,0.,1.));
#732=DIRECTION('ref_axis',(0.707106781186548,-0.707106781186547,0.));
#733=DIRECTION('center_axis',(-2.4492935982947E-16,-1.,0.));
#734=DIRECTION('ref_axis',(0.5,-1.22464679914735E-16,0.866025403784439));
#735=DIRECTION('center_axis',(-1.38777878078142E-16,0.499999999999991,-0.866025403784444));
#736=DIRECTION('ref_axis',(-8.0239505738305E-16,0.866025403784444,0.499999999999991));
#737=DIRECTION('',(-8.0239505738305E-16,0.866025403784444,0.499999999999991));
#738=DIRECTION('',(1.,2.77555756156289E-16,0.));
#739=DIRECTION('',(1.,2.77555756156289E-16,0.));
#740=DIRECTION('center_axis',(1.,2.77555756156289E-16,0.));
#741=DIRECTION('ref_axis',(1.38777878078144E-16,-0.5,0.866025403784439));
#742=DIRECTION('center_axis',(-1.,-9.26526004753054E-16,0.));
#743=DIRECTION('ref_axis',(4.63263002376527E-16,-0.5,0.866025403784439));
#744=DIRECTION('',(-1.,-2.77555756156289E-16,0.));
#745=DIRECTION('center_axis',(0.,0.,-1.));
#746=DIRECTION('ref_axis',(-1.,4.44089209850063E-15,0.));
#747=DIRECTION('',(0.866025403784444,-2.99050155344785E-15,0.499999999999991));
#748=DIRECTION('center_axis',(0.,0.,1.));
#749=DIRECTION('ref_axis',(-1.,5.92118946466762E-15,0.));
#750=DIRECTION('center_axis',(0.,0.,1.));
#751=DIRECTION('ref_axis',(-1.,4.44089209850063E-15,0.));
#752=DIRECTION('center_axis',(3.4531337537902E-15,1.,0.));
#753=DIRECTION('ref_axis',(-0.5,1.7265668768951E-15,0.866025403784439));
#754=DIRECTION('center_axis',(0.,0.,1.));
#755=DIRECTION('ref_axis',(-0.707106781186545,-0.70710678118655,0.));
#756=DIRECTION('center_axis',(0.499999999999991,-2.24539488126432E-16,-0.866025403784444));
#757=DIRECTION('ref_axis',(0.866025403784444,-2.99050155344785E-15,0.499999999999991));
#758=DIRECTION('',(0.866025403784444,-2.99050155344785E-15,0.499999999999991));
#759=DIRECTION('',(-4.49078976252872E-16,-1.,0.));
#760=DIRECTION('',(-4.49078976252872E-16,-1.,0.));
#761=DIRECTION('center_axis',(-4.49078976252872E-16,-1.,0.));
#762=DIRECTION('ref_axis',(-0.5,2.24539488126436E-16,0.866025403784439));
#763=DIRECTION('center_axis',(3.4531337537902E-15,1.,0.));
#764=DIRECTION('ref_axis',(-0.5,1.7265668768951E-15,0.866025403784439));
#765=DIRECTION('',(4.49078976252872E-16,1.,0.));
#766=DIRECTION('center_axis',(0.,0.,-1.));
#767=DIRECTION('ref_axis',(0.,1.,0.));
#768=DIRECTION('',(-2.93747279151161E-15,-0.866025403784444,0.499999999999991));
#769=DIRECTION('center_axis',(0.,0.,1.));
#770=DIRECTION('ref_axis',(-1.48029736616689E-14,1.,0.));
#771=DIRECTION('center_axis',(0.,0.,1.));
#772=DIRECTION('ref_axis',(0.,1.,0.));
#773=DIRECTION('center_axis',(1.,-3.39190141383284E-15,0.));
#774=DIRECTION('ref_axis',(1.69595070691642E-15,0.5,0.866025403784439));
#775=DIRECTION('center_axis',(0.,0.,1.));
#776=DIRECTION('ref_axis',(-0.707106781186549,0.707106781186546,0.));
#777=DIRECTION('center_axis',(4.16333634234427E-16,-0.499999999999991,-0.866025403784444));
#778=DIRECTION('ref_axis',(-2.93747279151161E-15,-0.866025403784444,0.499999999999991));
#779=DIRECTION('',(-2.93747279151161E-15,-0.866025403784444,0.499999999999991));
#780=DIRECTION('',(-1.,-8.32667268468867E-16,0.));
#781=DIRECTION('',(-1.,-8.32667268468867E-16,0.));
#782=DIRECTION('center_axis',(-1.,-8.32667268468867E-16,0.));
#783=DIRECTION('ref_axis',(-4.16333634234434E-16,0.5,0.866025403784439));
#784=DIRECTION('center_axis',(1.,-3.39190141383284E-15,0.));
#785=DIRECTION('ref_axis',(1.69595070691642E-15,0.5,0.866025403784439));
#786=DIRECTION('',(1.,8.32667268468867E-16,0.));
#787=DIRECTION('center_axis',(0.,0.,-1.));
#788=DIRECTION('ref_axis',(1.,4.44089209850063E-15,0.));
#789=DIRECTION('',(-0.866025403784444,0.,0.499999999999991));
#790=DIRECTION('center_axis',(0.,0.,1.));
#791=DIRECTION('ref_axis',(1.,5.92118946466759E-15,0.));
#792=DIRECTION('center_axis',(0.,0.,1.));
#793=DIRECTION('ref_axis',(1.,4.44089209850063E-15,0.));
#794=DIRECTION('center_axis',(0.,-1.,0.));
#795=DIRECTION('ref_axis',(0.5,0.,0.866025403784439));
#796=DIRECTION('center_axis',(0.,0.,1.));
#797=DIRECTION('ref_axis',(0.707106781186548,0.707106781186547,0.));
#798=DIRECTION('center_axis',(-0.499999999999991,0.,-0.866025403784444));
#799=DIRECTION('ref_axis',(-0.866025403784444,0.,0.499999999999991));
#800=DIRECTION('',(0.,1.,0.));
#801=DIRECTION('',(0.,1.,0.));
#802=DIRECTION('center_axis',(0.,1.,0.));
#803=DIRECTION('ref_axis',(0.5,0.,0.866025403784439));
#804=DIRECTION('',(0.,-1.,0.));
#805=DIRECTION('center_axis',(-1.,-9.26526004753054E-16,0.));
#806=DIRECTION('ref_axis',(9.26526004753053E-16,-1.,0.));
#807=DIRECTION('center_axis',(0.,0.,1.));
#808=DIRECTION('ref_axis',(4.05489918993371E-15,-1.,0.));
#809=DIRECTION('center_axis',(-2.4492935982947E-16,-1.,0.));
#810=DIRECTION('ref_axis',(1.,-2.44929359829471E-16,0.));
#811=DIRECTION('center_axis',(0.,0.,1.));
#812=DIRECTION('ref_axis',(0.707106781186548,-0.707106781186547,0.));
#813=DIRECTION('center_axis',(0.,0.,1.));
#814=DIRECTION('ref_axis',(1.11022302462516E-15,-1.,0.));
#815=DIRECTION('',(7.09760097346302E-16,-0.766044443118975,0.642787609686543));
#816=DIRECTION('center_axis',(0.,0.,-1.));
#817=DIRECTION('ref_axis',(1.11022302462516E-15,-1.,0.));
#818=DIRECTION('',(0.766044443118975,-1.87626775054053E-16,0.642787609686543));
#819=DIRECTION('center_axis',(1.,2.77555756156289E-16,0.));
#820=DIRECTION('ref_axis',(2.77555756156289E-16,-1.,0.));
#821=DIRECTION('center_axis',(-1.,-9.26526004753054E-16,0.));
#822=DIRECTION('ref_axis',(9.26526004753053E-16,-1.,0.));
#823=DIRECTION('',(1.,2.77555756156289E-16,0.));
#824=DIRECTION('',(-1.,-2.77555756156289E-16,0.));
#825=DIRECTION('center_axis',(-1.78409401054442E-16,0.642787609686543,0.766044443118975));
#826=DIRECTION('ref_axis',(7.09760097346302E-16,-0.766044443118975,0.642787609686543));
#827=DIRECTION('',(7.09760097346302E-16,-0.766044443118975,0.642787609686543));
#828=DIRECTION('',(-1.,-2.77555756156289E-16,0.));
#829=DIRECTION('center_axis',(3.4531337537902E-15,1.,0.));
#830=DIRECTION('ref_axis',(-1.,3.4531337537902E-15,0.));
#831=DIRECTION('center_axis',(0.,0.,1.));
#832=DIRECTION('ref_axis',(-1.,0.,0.));
#833=DIRECTION('center_axis',(0.,0.,1.));
#834=DIRECTION('ref_axis',(-0.707106781186545,-0.70710678118655,0.));
#835=DIRECTION('center_axis',(0.,0.,1.));
#836=DIRECTION('ref_axis',(-1.,4.44089209850063E-15,0.));
#837=DIRECTION('',(-0.766044443118975,2.64525392343755E-15,0.642787609686543));
#838=DIRECTION('center_axis',(0.,0.,-1.));
#839=DIRECTION('ref_axis',(-1.,4.44089209850063E-15,0.));
#840=DIRECTION('center_axis',(-4.49078976252872E-16,-1.,0.));
#841=DIRECTION('ref_axis',(-1.,4.49078976252873E-16,0.));
#842=DIRECTION('center_axis',(3.4531337537902E-15,1.,0.));
#843=DIRECTION('ref_axis',(-1.,3.4531337537902E-15,0.));
#844=DIRECTION('',(-4.49078976252872E-16,-1.,0.));
#845=DIRECTION('',(4.49078976252872E-16,1.,0.));
#846=DIRECTION('center_axis',(0.642787609686543,-2.88662401706064E-16,0.766044443118975));
#847=DIRECTION('ref_axis',(-0.766044443118975,2.64525392343755E-15,0.642787609686543));
#848=DIRECTION('',(-0.766044443118975,2.64525392343755E-15,0.642787609686543));
#849=DIRECTION('',(4.49078976252872E-16,1.,0.));
#850=DIRECTION('center_axis',(1.,-3.39190141383284E-15,0.));
#851=DIRECTION('ref_axis',(3.39190141383284E-15,1.,0.));
#852=DIRECTION('center_axis',(-1.63156543639896E-15,1.63156543639894E-15,
1.));
#853=DIRECTION('ref_axis',(-1.62195967597345E-14,1.,-1.64730279591054E-15));
#854=DIRECTION('center_axis',(0.,0.,1.));
#855=DIRECTION('ref_axis',(-0.707106781186549,0.707106781186546,0.));
#856=DIRECTION('center_axis',(0.,0.,1.));
#857=DIRECTION('ref_axis',(0.,1.,0.));
#858=DIRECTION('',(2.59834722967404E-15,0.766044443118975,0.642787609686543));
#859=DIRECTION('center_axis',(0.,0.,-1.));
#860=DIRECTION('ref_axis',(0.,1.,0.));
#861=DIRECTION('center_axis',(-1.,-8.32667268468867E-16,0.));
#862=DIRECTION('ref_axis',(-8.32667268468868E-16,1.,0.));
#863=DIRECTION('center_axis',(1.,-3.39190141383284E-15,0.));
#864=DIRECTION('ref_axis',(3.39190141383284E-15,1.,0.));
#865=DIRECTION('',(-1.,-8.32667268468867E-16,0.));
#866=DIRECTION('',(1.,8.32667268468867E-16,0.));
#867=DIRECTION('center_axis',(5.35228203163327E-16,-0.642787609686543,0.766044443118975));
#868=DIRECTION('ref_axis',(2.59834722967404E-15,0.766044443118975,0.642787609686543));
#869=DIRECTION('',(2.59834722967404E-15,0.766044443118975,0.642787609686543));
#870=DIRECTION('',(1.,8.32667268468867E-16,0.));
#871=DIRECTION('center_axis',(0.,-1.,0.));
#872=DIRECTION('ref_axis',(1.,0.,0.));
#873=DIRECTION('center_axis',(0.,0.,1.));
#874=DIRECTION('ref_axis',(1.,5.40653225324488E-15,0.));
#875=DIRECTION('center_axis',(0.,0.,1.));
#876=DIRECTION('ref_axis',(0.707106781186548,0.707106781186547,0.));
#877=DIRECTION('center_axis',(0.,0.,1.));
#878=DIRECTION('ref_axis',(1.,4.44089209850063E-15,0.));
#879=DIRECTION('',(0.766044443118975,0.,0.642787609686543));
#880=DIRECTION('center_axis',(0.,0.,-1.));
#881=DIRECTION('ref_axis',(1.,4.44089209850063E-15,0.));
#882=DIRECTION('center_axis',(0.,1.,0.));
#883=DIRECTION('ref_axis',(1.,0.,0.));
#884=DIRECTION('',(0.,-1.,0.));
#885=DIRECTION('',(0.,1.,0.));
#886=DIRECTION('center_axis',(-0.642787609686543,0.,0.766044443118975));
#887=DIRECTION('ref_axis',(0.766044443118975,0.,0.642787609686543));
#888=DIRECTION('',(0.,-1.,0.));
#889=DIRECTION('center_axis',(0.,0.,1.));
#890=DIRECTION('ref_axis',(0.707106781186548,-0.707106781186547,0.));
#891=DIRECTION('',(0.,0.,-1.));
#892=DIRECTION('',(0.,0.,1.));
#893=DIRECTION('center_axis',(1.,2.38757639704335E-17,0.));
#894=DIRECTION('ref_axis',(-2.38757639704335E-17,1.,0.));
#895=DIRECTION('',(0.,0.,-1.));
#896=DIRECTION('center_axis',(0.,0.,1.));
#897=DIRECTION('ref_axis',(-0.707106781186549,0.707106781186546,0.));
#898=DIRECTION('',(0.,0.,-1.));
#899=DIRECTION('',(0.,0.,1.));
#900=DIRECTION('center_axis',(0.,0.,1.));
#901=DIRECTION('ref_axis',(0.707106781186548,0.707106781186547,0.));
#902=DIRECTION('',(0.,0.,1.));
#903=DIRECTION('center_axis',(-7.40148683083438E-16,1.,0.));
#904=DIRECTION('ref_axis',(-1.,-7.40148683083438E-16,0.));
#905=DIRECTION('center_axis',(0.,0.,1.));
#906=DIRECTION('ref_axis',(1.,0.,0.));
#907=DIRECTION('center_axis',(-1.,4.29763751467803E-16,0.));
#908=DIRECTION('ref_axis',(-4.29763751467803E-16,-1.,0.));
#909=DIRECTION('',(0.,0.,-1.));
#910=DIRECTION('center_axis',(0.,0.,1.));
#911=DIRECTION('ref_axis',(-0.707106781186545,-0.70710678118655,0.));
#912=DIRECTION('',(0.,0.,1.));
#913=DIRECTION('center_axis',(2.46716227694479E-16,-1.,0.));
#914=DIRECTION('ref_axis',(1.,2.46716227694479E-16,0.));
#915=DIRECTION('center_axis',(0.,0.,1.));
#916=DIRECTION('ref_axis',(1.,0.,0.));
#917=CARTESIAN_POINT('',(0.,0.,0.));
#918=CARTESIAN_POINT('Origin',(16.,-44.5,5.9));
#919=CARTESIAN_POINT('',(16.,-46.,5.8));
#920=CARTESIAN_POINT('',(16.,-45.6535898384862,6.));
#921=CARTESIAN_POINT('',(16.,-45.6535898384862,6.));
#922=CARTESIAN_POINT('',(17.5,-44.5,5.8));
#923=CARTESIAN_POINT('Origin',(16.,-44.5,5.8));
#924=CARTESIAN_POINT('',(17.1535898384862,-44.5,6.));
#925=CARTESIAN_POINT('',(17.1535898384862,-44.5,6.));
#926=CARTESIAN_POINT('Origin',(16.,-44.5,6.));
#927=CARTESIAN_POINT('Ctrl Pts',(16.,-46.5,4.93397459621556));
#928=CARTESIAN_POINT('Ctrl Pts',(18.,-46.5,4.93397459621556));
#929=CARTESIAN_POINT('Ctrl Pts',(18.,-44.5,4.93397459621556));
#930=CARTESIAN_POINT('Ctrl Pts',(16.,-46.5,5.51132486540519));
#931=CARTESIAN_POINT('Ctrl Pts',(18.,-46.5,5.51132486540519));
#932=CARTESIAN_POINT('Ctrl Pts',(18.,-44.5,5.51132486540519));
#933=CARTESIAN_POINT('Ctrl Pts',(16.,-46.,5.80000000000001));
#934=CARTESIAN_POINT('Ctrl Pts',(17.5,-46.,5.80000000000001));
#935=CARTESIAN_POINT('Ctrl Pts',(17.5,-44.5,5.80000000000001));
#936=CARTESIAN_POINT('',(16.,-46.5,4.93397459621556));
#937=CARTESIAN_POINT('Origin',(16.,-45.5,4.93397459621556));
#938=CARTESIAN_POINT('',(18.,-44.5,4.93397459621556));
#939=CARTESIAN_POINT('Origin',(16.,-44.5,4.93397459621556));
#940=CARTESIAN_POINT('Origin',(17.,-44.5,4.93397459621556));
#941=CARTESIAN_POINT('Origin',(-16.,-46.,5.8));
#942=CARTESIAN_POINT('',(-16.,-46.,5.8));
#943=CARTESIAN_POINT('',(-16.,-45.6535898384862,6.));
#944=CARTESIAN_POINT('',(-16.,-45.6535898384862,6.));
#945=CARTESIAN_POINT('',(-16.,-46.,5.8));
#946=CARTESIAN_POINT('',(-8.00000000000001,-45.6535898384862,6.));
#947=CARTESIAN_POINT('Origin',(-16.,-45.5,4.93397459621556));
#948=CARTESIAN_POINT('',(-16.,-46.5,4.93397459621556));
#949=CARTESIAN_POINT('Origin',(-16.,-45.5,4.93397459621556));
#950=CARTESIAN_POINT('',(-16.,-46.5,4.93397459621556));
#951=CARTESIAN_POINT('Origin',(-16.,-44.5,5.9));
#952=CARTESIAN_POINT('',(-17.5,-44.5,5.8));
#953=CARTESIAN_POINT('',(-17.1535898384862,-44.5,6.));
#954=CARTESIAN_POINT('',(-17.1535898384862,-44.5,6.));
#955=CARTESIAN_POINT('Origin',(-16.,-44.5,5.8));
#956=CARTESIAN_POINT('Origin',(-16.,-44.5,6.));
#957=CARTESIAN_POINT('Ctrl Pts',(-18.,-44.5,4.93397459621556));
#958=CARTESIAN_POINT('Ctrl Pts',(-18.,-46.5,4.93397459621556));
#959=CARTESIAN_POINT('Ctrl Pts',(-16.,-46.5,4.93397459621556));
#960=CARTESIAN_POINT('Ctrl Pts',(-18.,-44.5,5.51132486540519));
#961=CARTESIAN_POINT('Ctrl Pts',(-18.,-46.5,5.51132486540519));
#962=CARTESIAN_POINT('Ctrl Pts',(-16.,-46.5,5.51132486540519));
#963=CARTESIAN_POINT('Ctrl Pts',(-17.5,-44.5,5.8));
#964=CARTESIAN_POINT('Ctrl Pts',(-17.5,-46.,5.8));
#965=CARTESIAN_POINT('Ctrl Pts',(-16.,-46.,5.8));
#966=CARTESIAN_POINT('',(-18.,-44.5,4.93397459621556));
#967=CARTESIAN_POINT('Origin',(-17.,-44.5,4.93397459621556));
#968=CARTESIAN_POINT('Origin',(-16.,-44.5,4.93397459621556));
#969=CARTESIAN_POINT('Origin',(-17.5,44.5,5.8));
#970=CARTESIAN_POINT('',(-17.5,44.5,5.8));
#971=CARTESIAN_POINT('',(-17.1535898384862,44.5,6.));
#972=CARTESIAN_POINT('',(-17.1535898384862,44.5,6.));
#973=CARTESIAN_POINT('',(-17.5,44.5,5.8));
#974=CARTESIAN_POINT('',(-17.1535898384862,22.25,6.));
#975=CARTESIAN_POINT('Origin',(-17.,44.4999999999999,4.93397459621556));
#976=CARTESIAN_POINT('',(-18.,44.5,4.93397459621556));
#977=CARTESIAN_POINT('Origin',(-17.,44.4999999999999,4.93397459621556));
#978=CARTESIAN_POINT('',(-18.,44.4999999999999,4.93397459621556));
#979=CARTESIAN_POINT('Origin',(-16.,44.5,5.9));
#980=CARTESIAN_POINT('',(-16.,45.9999999999999,5.8));
#981=CARTESIAN_POINT('',(-16.,45.6535898384862,6.));
#982=CARTESIAN_POINT('',(-16.,45.6535898384861,6.));
#983=CARTESIAN_POINT('Origin',(-16.,44.5,5.8));
#984=CARTESIAN_POINT('Origin',(-16.,44.5,6.));
#985=CARTESIAN_POINT('Ctrl Pts',(-16.,46.4999999999999,4.93397459621556));
#986=CARTESIAN_POINT('Ctrl Pts',(-18.,46.4999999999999,4.93397459621556));
#987=CARTESIAN_POINT('Ctrl Pts',(-18.,44.5,4.93397459621556));
#988=CARTESIAN_POINT('Ctrl Pts',(-16.,46.4999999999999,5.51132486540519));
#989=CARTESIAN_POINT('Ctrl Pts',(-18.,46.4999999999999,5.51132486540519));
#990=CARTESIAN_POINT('Ctrl Pts',(-18.,44.5,5.51132486540519));
#991=CARTESIAN_POINT('Ctrl Pts',(-16.,45.9999999999999,5.80000000000001));
#992=CARTESIAN_POINT('Ctrl Pts',(-17.5,45.9999999999999,5.80000000000001));
#993=CARTESIAN_POINT('Ctrl Pts',(-17.5,44.5,5.80000000000001));
#994=CARTESIAN_POINT('',(-16.,46.4999999999999,4.93397459621556));
#995=CARTESIAN_POINT('Origin',(-16.,45.4999999999999,4.93397459621556));
#996=CARTESIAN_POINT('Origin',(-16.,44.5,4.93397459621556));
#997=CARTESIAN_POINT('Origin',(16.,46.,5.8));
#998=CARTESIAN_POINT('',(16.,46.,5.8));
#999=CARTESIAN_POINT('',(16.,45.6535898384862,6.));
#1000=CARTESIAN_POINT('',(16.,45.6535898384862,6.));
#1001=CARTESIAN_POINT('',(16.,46.,5.8));
#1002=CARTESIAN_POINT('',(7.99999999999998,45.6535898384862,6.));
#1003=CARTESIAN_POINT('Origin',(16.,45.5,4.93397459621556));
#1004=CARTESIAN_POINT('',(16.,46.5,4.93397459621556));
#1005=CARTESIAN_POINT('Origin',(16.,45.5,4.93397459621556));
#1006=CARTESIAN_POINT('',(16.,46.5,4.93397459621556));
#1007=CARTESIAN_POINT('Origin',(16.,44.5,5.9));
#1008=CARTESIAN_POINT('',(17.5,44.5,5.8));
#1009=CARTESIAN_POINT('',(17.1535898384862,44.5,6.));
#1010=CARTESIAN_POINT('',(17.1535898384862,44.5,6.));
#1011=CARTESIAN_POINT('Origin',(16.,44.5,5.8));
#1012=CARTESIAN_POINT('Origin',(16.,44.5,6.));
#1013=CARTESIAN_POINT('Ctrl Pts',(18.,44.5,4.93397459621556));
#1014=CARTESIAN_POINT('Ctrl Pts',(18.,46.5,4.93397459621556));
#1015=CARTESIAN_POINT('Ctrl Pts',(16.,46.5,4.93397459621556));
#1016=CARTESIAN_POINT('Ctrl Pts',(18.,44.5,5.51132486540519));
#1017=CARTESIAN_POINT('Ctrl Pts',(18.,46.5,5.51132486540519));
#1018=CARTESIAN_POINT('Ctrl Pts',(16.,46.5,5.51132486540519));
#1019=CARTESIAN_POINT('Ctrl Pts',(17.5,44.5,5.8));
#1020=CARTESIAN_POINT('Ctrl Pts',(17.5,46.,5.8));
#1021=CARTESIAN_POINT('Ctrl Pts',(16.,46.,5.8));
#1022=CARTESIAN_POINT('',(18.,44.5,4.93397459621556));
#1023=CARTESIAN_POINT('Origin',(17.,44.5,4.93397459621556));
#1024=CARTESIAN_POINT('Origin',(16.,44.5,4.93397459621556));
#1025=CARTESIAN_POINT('Origin',(17.5,0.,5.8));
#1026=CARTESIAN_POINT('',(17.1535898384862,-1.77635683940025E-14,6.));
#1027=CARTESIAN_POINT('',(17.5,0.,5.8));
#1028=CARTESIAN_POINT('Origin',(17.,0.,4.93397459621556));
#1029=CARTESIAN_POINT('',(18.,0.,4.93397459621556));
#1030=CARTESIAN_POINT('Ctrl Pts',(16.,-46.1427876096865,0.339999999999997));
#1031=CARTESIAN_POINT('Ctrl Pts',(17.6427876096865,-46.1427876096866,0.339999999999997));
#1032=CARTESIAN_POINT('Ctrl Pts',(17.6427876096865,-44.5,0.339999999999997));
#1033=CARTESIAN_POINT('Ctrl Pts',(16.,-46.5,0.639736784963977));
#1034=CARTESIAN_POINT('Ctrl Pts',(18.,-46.5,0.639736784963977));
#1035=CARTESIAN_POINT('Ctrl Pts',(18.,-44.5,0.639736784963977));
#1036=CARTESIAN_POINT('Ctrl Pts',(16.,-46.5,1.10604444311898));
#1037=CARTESIAN_POINT('Ctrl Pts',(18.,-46.5,1.10604444311898));
#1038=CARTESIAN_POINT('Ctrl Pts',(18.,-44.5,1.10604444311898));
#1039=CARTESIAN_POINT('',(16.,-46.1427876096866,0.339999999999999));
#1040=CARTESIAN_POINT('',(16.,-46.5,1.10604444311898));
#1041=CARTESIAN_POINT('Origin',(16.,-45.5,1.10604444311898));
#1042=CARTESIAN_POINT('',(17.6427876096865,-44.5,0.339999999999999));
#1043=CARTESIAN_POINT('Origin',(16.,-44.5,0.339999999999999));
#1044=CARTESIAN_POINT('',(18.,-44.5,1.10604444311898));
#1045=CARTESIAN_POINT('Origin',(17.,-44.5,1.10604444311898));
#1046=CARTESIAN_POINT('Origin',(16.,-44.5,1.10604444311898));
#1047=CARTESIAN_POINT('Origin',(16.,-44.5,0.17));
#1048=CARTESIAN_POINT('',(16.,-45.7375913882045,0.));
#1049=CARTESIAN_POINT('',(16.,-45.7375913882045,0.));
#1050=CARTESIAN_POINT('',(17.2375913882045,-44.5,0.));
#1051=CARTESIAN_POINT('Origin',(16.,-44.5,0.));
#1052=CARTESIAN_POINT('',(17.2375913882045,-44.5,0.));
#1053=CARTESIAN_POINT('Origin',(-16.,-45.5,1.10604444311898));
#1054=CARTESIAN_POINT('',(-16.,-46.1427876096866,0.339999999999999));
#1055=CARTESIAN_POINT('',(-16.,-46.5,1.10604444311898));
#1056=CARTESIAN_POINT('Origin',(-16.,-45.5,1.10604444311898));
#1057=CARTESIAN_POINT('',(-16.,-46.1427876096866,0.339999999999999));
#1058=CARTESIAN_POINT('',(-16.,-46.5,1.10604444311898));
#1059=CARTESIAN_POINT('Origin',(-16.,-45.7375913882045,0.));
#1060=CARTESIAN_POINT('',(-16.,-45.7375913882045,0.));
#1061=CARTESIAN_POINT('',(-16.,-45.7375913882045,0.));
#1062=CARTESIAN_POINT('',(-8.00000000000001,-45.7375913882045,0.));
#1063=CARTESIAN_POINT('Ctrl Pts',(-17.6427876096865,-44.5,0.339999999999998));
#1064=CARTESIAN_POINT('Ctrl Pts',(-17.6427876096865,-46.1427876096866,0.339999999999998));
#1065=CARTESIAN_POINT('Ctrl Pts',(-16.,-46.1427876096866,0.339999999999998));
#1066=CARTESIAN_POINT('Ctrl Pts',(-18.,-44.5,0.639736784963978));
#1067=CARTESIAN_POINT('Ctrl Pts',(-18.,-46.5,0.639736784963978));
#1068=CARTESIAN_POINT('Ctrl Pts',(-16.,-46.5,0.639736784963978));
#1069=CARTESIAN_POINT('Ctrl Pts',(-18.,-44.5,1.10604444311898));
#1070=CARTESIAN_POINT('Ctrl Pts',(-18.,-46.5,1.10604444311898));
#1071=CARTESIAN_POINT('Ctrl Pts',(-16.,-46.5,1.10604444311898));
#1072=CARTESIAN_POINT('',(-17.6427876096865,-44.5,0.339999999999999));
#1073=CARTESIAN_POINT('',(-18.,-44.5,1.10604444311898));
#1074=CARTESIAN_POINT('Origin',(-17.,-44.5,1.10604444311898));
#1075=CARTESIAN_POINT('Origin',(-16.,-44.5,0.339999999999999));
#1076=CARTESIAN_POINT('Origin',(-16.,-44.5,1.10604444311898));
#1077=CARTESIAN_POINT('Origin',(-16.,-44.5,0.17));
#1078=CARTESIAN_POINT('',(-17.2375913882045,-44.5,0.));
#1079=CARTESIAN_POINT('',(-17.2375913882045,-44.5,0.));
#1080=CARTESIAN_POINT('Origin',(-16.,-44.5,0.));
#1081=CARTESIAN_POINT('Origin',(-17.,44.4999999999999,1.10604444311898));
#1082=CARTESIAN_POINT('',(-17.6427876096865,44.5,0.339999999999999));
#1083=CARTESIAN_POINT('',(-18.,44.5,1.10604444311898));
#1084=CARTESIAN_POINT('Origin',(-17.,44.4999999999999,1.10604444311898));
#1085=CARTESIAN_POINT('',(-17.6427876096865,44.5,0.339999999999999));
#1086=CARTESIAN_POINT('',(-18.,44.4999999999999,1.10604444311898));
#1087=CARTESIAN_POINT('Origin',(-17.2375913882045,44.5,0.));
#1088=CARTESIAN_POINT('',(-17.2375913882045,44.5,0.));
#1089=CARTESIAN_POINT('',(-17.2375913882045,44.5,0.));
#1090=CARTESIAN_POINT('',(-17.2375913882045,22.25,-5.55111512312578E-16));
#1091=CARTESIAN_POINT('Ctrl Pts',(-16.,46.1427876096865,0.339999999999994));
#1092=CARTESIAN_POINT('Ctrl Pts',(-17.6427876096865,46.1427876096865,0.339999999999994));
#1093=CARTESIAN_POINT('Ctrl Pts',(-17.6427876096865,44.5,0.339999999999994));
#1094=CARTESIAN_POINT('Ctrl Pts',(-16.,46.4999999999999,0.639736784963973));
#1095=CARTESIAN_POINT('Ctrl Pts',(-18.,46.4999999999999,0.639736784963973));
#1096=CARTESIAN_POINT('Ctrl Pts',(-18.,44.5,0.639736784963973));
#1097=CARTESIAN_POINT('Ctrl Pts',(-16.,46.4999999999999,1.10604444311898));
#1098=CARTESIAN_POINT('Ctrl Pts',(-18.,46.4999999999999,1.10604444311898));
#1099=CARTESIAN_POINT('Ctrl Pts',(-18.,44.5,1.10604444311898));
#1100=CARTESIAN_POINT('',(-16.,46.1427876096865,0.339999999999999));
#1101=CARTESIAN_POINT('',(-16.,46.4999999999999,1.10604444311898));
#1102=CARTESIAN_POINT('Origin',(-16.,45.4999999999999,1.10604444311898));
#1103=CARTESIAN_POINT('Origin',(-16.,44.4999999999999,0.340000000000002));
#1104=CARTESIAN_POINT('Origin',(-16.,44.5,1.10604444311898));
#1105=CARTESIAN_POINT('Origin',(-16.,44.5,0.17));
#1106=CARTESIAN_POINT('',(-16.,45.7375913882045,0.));
#1107=CARTESIAN_POINT('',(-16.,45.7375913882045,0.));
#1108=CARTESIAN_POINT('Origin',(-16.,44.5,0.));
#1109=CARTESIAN_POINT('Origin',(16.,45.5,1.10604444311898));
#1110=CARTESIAN_POINT('',(16.,46.1427876096865,0.339999999999999));
#1111=CARTESIAN_POINT('',(16.,46.5,1.10604444311898));
#1112=CARTESIAN_POINT('Origin',(16.,45.5,1.10604444311898));
#1113=CARTESIAN_POINT('',(16.,46.1427876096865,0.339999999999999));
#1114=CARTESIAN_POINT('',(16.,46.5,1.10604444311898));
#1115=CARTESIAN_POINT('Origin',(16.,45.7375913882045,0.));
#1116=CARTESIAN_POINT('',(16.,45.7375913882045,0.));
#1117=CARTESIAN_POINT('',(16.,45.7375913882045,0.));
#1118=CARTESIAN_POINT('',(7.99999999999998,45.7375913882045,-2.22044604925031E-15));
#1119=CARTESIAN_POINT('Ctrl Pts',(17.6427876096865,44.5,0.339999999999999));
#1120=CARTESIAN_POINT('Ctrl Pts',(17.6427876096865,46.1427876096865,0.339999999999999));
#1121=CARTESIAN_POINT('Ctrl Pts',(16.,46.1427876096865,0.339999999999999));
#1122=CARTESIAN_POINT('Ctrl Pts',(18.,44.5,0.639736784963978));
#1123=CARTESIAN_POINT('Ctrl Pts',(18.,46.5,0.639736784963978));
#1124=CARTESIAN_POINT('Ctrl Pts',(16.,46.5,0.639736784963978));
#1125=CARTESIAN_POINT('Ctrl Pts',(18.,44.5,1.10604444311898));
#1126=CARTESIAN_POINT('Ctrl Pts',(18.,46.5,1.10604444311898));
#1127=CARTESIAN_POINT('Ctrl Pts',(16.,46.5,1.10604444311898));
#1128=CARTESIAN_POINT('',(17.6427876096865,44.5,0.339999999999999));
#1129=CARTESIAN_POINT('',(18.,44.5,1.10604444311898));
#1130=CARTESIAN_POINT('Origin',(17.,44.5,1.10604444311898));
#1131=CARTESIAN_POINT('Origin',(16.,44.5,0.339999999999999));
#1132=CARTESIAN_POINT('Origin',(16.,44.5,1.10604444311898));
#1133=CARTESIAN_POINT('Origin',(16.,44.5,0.17));
#1134=CARTESIAN_POINT('',(17.2375913882045,44.5,0.));
#1135=CARTESIAN_POINT('',(17.2375913882045,44.5,0.));
#1136=CARTESIAN_POINT('Origin',(16.,44.5,0.));
#1137=CARTESIAN_POINT('Origin',(17.,0.,1.10604444311898));
#1138=CARTESIAN_POINT('',(18.,0.,1.10604444311898));
#1139=CARTESIAN_POINT('',(17.6427876096865,0.,0.339999999999999));
#1140=CARTESIAN_POINT('Origin',(17.2375913882045,0.,0.));
#1141=CARTESIAN_POINT('',(17.2375913882045,-1.77635683940025E-14,-1.11022302462516E-15));
#1142=CARTESIAN_POINT('Origin',(16.,-44.5,0.));
#1143=CARTESIAN_POINT('',(16.,-46.5,0.));
#1144=CARTESIAN_POINT('',(18.,-44.5,0.));
#1145=CARTESIAN_POINT('Origin',(18.,-46.5,0.));
#1146=CARTESIAN_POINT('',(18.,44.5,0.));
#1147=CARTESIAN_POINT('Origin',(-16.,44.5,0.));
#1148=CARTESIAN_POINT('',(-16.,46.5,0.));
#1149=CARTESIAN_POINT('',(-18.,44.5,0.));
#1150=CARTESIAN_POINT('Origin',(16.,44.5,0.));
#1151=CARTESIAN_POINT('',(16.,46.5,0.));
#1152=CARTESIAN_POINT('Origin',(18.,46.5,0.));
#1153=CARTESIAN_POINT('Origin',(-6.66133814775094E-15,-3.5527136788005E-14,
0.));
#1154=CARTESIAN_POINT('Origin',(-18.,46.5,0.));
#1155=CARTESIAN_POINT('',(-18.,-44.5,0.));
#1156=CARTESIAN_POINT('Origin',(-16.,-44.5,0.));
#1157=CARTESIAN_POINT('',(-16.,-46.5,0.));
#1158=CARTESIAN_POINT('Origin',(-18.,-46.5,0.));
#1159=CARTESIAN_POINT('Origin',(-6.66133814775094E-15,-3.5527136788005E-14,
6.));
#1160=UNCERTAINTY_MEASURE_WITH_UNIT(LENGTH_MEASURE(0.01),#1164,
'DISTANCE_ACCURACY_VALUE',
'Maximum model space distance between geometric entities at asserted c
onnectivities');
#1161=UNCERTAINTY_MEASURE_WITH_UNIT(LENGTH_MEASURE(0.01),#1164,
'DISTANCE_ACCURACY_VALUE',
'Maximum model space distance between geometric entities at asserted c
onnectivities');
#1162=(
GEOMETRIC_REPRESENTATION_CONTEXT(3)
GLOBAL_UNCERTAINTY_ASSIGNED_CONTEXT((#1160))
GLOBAL_UNIT_ASSIGNED_CONTEXT((#1164,#1166,#1167))
REPRESENTATION_CONTEXT('','3D')
);
#1163=(
GEOMETRIC_REPRESENTATION_CONTEXT(3)
GLOBAL_UNCERTAINTY_ASSIGNED_CONTEXT((#1161))
GLOBAL_UNIT_ASSIGNED_CONTEXT((#1164,#1166,#1167))
REPRESENTATION_CONTEXT('','3D')
);
#1164=(
LENGTH_UNIT()
NAMED_UNIT(*)
SI_UNIT(.MILLI.,.METRE.)
);
#1165=(
LENGTH_UNIT()
NAMED_UNIT(*)
SI_UNIT($,.METRE.)
);
#1166=(
NAMED_UNIT(*)
PLANE_ANGLE_UNIT()
SI_UNIT($,.RADIAN.)
);
#1167=(
NAMED_UNIT(*)
SI_UNIT($,.STERADIAN.)
SOLID_ANGLE_UNIT()
);
#1168=SHAPE_DEFINITION_REPRESENTATION(#1169,#1170);
#1169=PRODUCT_DEFINITION_SHAPE('',$,#1172);
#1170=SHAPE_REPRESENTATION('',(#644),#1162);
#1171=PRODUCT_DEFINITION_CONTEXT('part definition',#1176,'design');
#1172=PRODUCT_DEFINITION('Example Update','Example Update v3',#1173,#1171);
#1173=PRODUCT_DEFINITION_FORMATION('',$,#1178);
#1174=PRODUCT_RELATED_PRODUCT_CATEGORY('Example Update v3',
'Example Update v3',(#1178));
#1175=APPLICATION_PROTOCOL_DEFINITION('international standard',
'automotive_design',2009,#1176);
#1176=APPLICATION_CONTEXT(
'Core Data for Automotive Mechanical Design Process');
#1177=PRODUCT_CONTEXT('part definition',#1176,'mechanical');
#1178=PRODUCT('Example Update','Example Update v3',$,(#1177));
#1179=PRESENTATION_STYLE_ASSIGNMENT((#1180));
#1180=SURFACE_STYLE_USAGE(.BOTH.,#1181);
#1181=SURFACE_SIDE_STYLE('',(#1182));
#1182=SURFACE_STYLE_FILL_AREA(#1183);
#1183=FILL_AREA_STYLE('Steel - Satin',(#1184));
#1184=FILL_AREA_STYLE_COLOUR('Steel - Satin',#1185);
#1185=COLOUR_RGB('Steel - Satin',0.627450980392157,0.627450980392157,0.627450980392157);
ENDSEC;
END-ISO-10303-21;
