ISO-10303-21;
HEADER;
/* Generated by software containing ST-Developer
 * from STEP Tools, Inc. (www.steptools.com) 
 */

FILE_DESCRIPTION(
/* description */ (''),
/* implementation_level */ '2;1');

FILE_NAME(
/* name */ 'B_6mm_Single.step',
/* time_stamp */ '2026-01-07T14:03:00-05:00',
/* author */ (''),
/* organization */ (''),
/* preprocessor_version */ 'ST-DEVELOPER v20.1',
/* originating_system */ 'Autodesk Translation Framework v14.21.0.0',
/* authorisation */ '');

FILE_SCHEMA (('AUTOMOTIVE_DESIGN { 1 0 10303 214 3 1 1 }'));
ENDSEC;

DATA;
#10=MECHANICAL_DESIGN_GEOMETRIC_PRESENTATION_REPRESENTATION('',(#13),#1193);
#11=SHAPE_REPRESENTATION_RELATIONSHIP('SRR','None',#1200,#12);
#12=ADVANCED_BREP_SHAPE_REPRESENTATION('',(#14),#1192);
#13=STYLED_ITEM('',(#1209),#14);
#14=MANIFOLD_SOLID_BREP('B_Single',#709);
#15=CYLINDRICAL_SURFACE('',#740,3.00000000000003);
#16=CYLINDRICAL_SURFACE('',#755,3.00000000000003);
#17=CYLINDRICAL_SURFACE('',#771,3.);
#18=SPHERICAL_SURFACE('',#738,1.3000000000001);
#19=SPHERICAL_SURFACE('',#753,1.3000000000001);
#20=SPHERICAL_SURFACE('',#769,1.0000000000001);
#21=SPHERICAL_SURFACE('',#780,1.0000000000001);
#22=CONICAL_SURFACE('',#736,1.40104076400988,0.785398163397338);
#23=CONICAL_SURFACE('',#751,1.40104076400988,0.785398163397338);
#24=CONICAL_SURFACE('',#767,1.18890872965373,0.78539816339736);
#25=CONICAL_SURFACE('',#778,1.18890872965373,0.78539816339736);
#26=TOROIDAL_SURFACE('',#733,2.16568542494678,0.399999999992969);
#27=TOROIDAL_SURFACE('',#748,2.16568542494678,0.399999999992969);
#28=TOROIDAL_SURFACE('',#764,2.16568542494678,0.699999999993485);
#29=TOROIDAL_SURFACE('',#775,2.16568542494678,0.699999999993485);
#30=FACE_BOUND('',#106,.T.);
#31=FACE_BOUND('',#116,.T.);
#32=FACE_BOUND('',#127,.T.);
#33=FACE_BOUND('',#134,.T.);
#34=CIRCLE('',#731,3.00000000000003);
#35=CIRCLE('',#732,2.16568542494678);
#36=CIRCLE('',#734,0.399999999992969);
#37=CIRCLE('',#735,1.88284271247747);
#38=CIRCLE('',#737,0.919238815542686);
#39=CIRCLE('',#741,3.00000000000003);
#40=CIRCLE('',#746,3.00000000000003);
#41=CIRCLE('',#747,2.16568542494678);
#42=CIRCLE('',#749,0.399999999992969);
#43=CIRCLE('',#750,1.88284271247747);
#44=CIRCLE('',#752,0.919238815542686);
#45=CIRCLE('',#756,3.00000000000003);
#46=CIRCLE('',#762,3.00000000000003);
#47=CIRCLE('',#763,2.16568542494671);
#48=CIRCLE('',#765,1.67071067812076);
#49=CIRCLE('',#766,0.699999999993485);
#50=CIRCLE('',#768,0.707106781186704);
#51=CIRCLE('',#772,3.00000000000003);
#52=CIRCLE('',#774,2.16568542494671);
#53=CIRCLE('',#776,1.67071067812076);
#54=CIRCLE('',#777,0.699999999993485);
#55=CIRCLE('',#779,0.707106781186704);
#56=FACE_OUTER_BOUND('',#98,.T.);
#57=FACE_OUTER_BOUND('',#99,.T.);
#58=FACE_OUTER_BOUND('',#100,.T.);
#59=FACE_OUTER_BOUND('',#101,.T.);
#60=FACE_OUTER_BOUND('',#102,.T.);
#61=FACE_OUTER_BOUND('',#103,.T.);
#62=FACE_OUTER_BOUND('',#104,.T.);
#63=FACE_OUTER_BOUND('',#105,.T.);
#64=FACE_OUTER_BOUND('',#107,.T.);
#65=FACE_OUTER_BOUND('',#108,.T.);
#66=FACE_OUTER_BOUND('',#109,.T.);
#67=FACE_OUTER_BOUND('',#110,.T.);
#68=FACE_OUTER_BOUND('',#111,.T.);
#69=FACE_OUTER_BOUND('',#112,.T.);
#70=FACE_OUTER_BOUND('',#113,.T.);
#71=FACE_OUTER_BOUND('',#114,.T.);
#72=FACE_OUTER_BOUND('',#115,.T.);
#73=FACE_OUTER_BOUND('',#117,.T.);
#74=FACE_OUTER_BOUND('',#118,.T.);
#75=FACE_OUTER_BOUND('',#119,.T.);
#76=FACE_OUTER_BOUND('',#120,.T.);
#77=FACE_OUTER_BOUND('',#121,.T.);
#78=FACE_OUTER_BOUND('',#122,.T.);
#79=FACE_OUTER_BOUND('',#123,.T.);
#80=FACE_OUTER_BOUND('',#124,.T.);
#81=FACE_OUTER_BOUND('',#125,.T.);
#82=FACE_OUTER_BOUND('',#126,.T.);
#83=FACE_OUTER_BOUND('',#128,.T.);
#84=FACE_OUTER_BOUND('',#129,.T.);
#85=FACE_OUTER_BOUND('',#130,.T.);
#86=FACE_OUTER_BOUND('',#131,.T.);
#87=FACE_OUTER_BOUND('',#132,.T.);
#88=FACE_OUTER_BOUND('',#133,.T.);
#89=FACE_OUTER_BOUND('',#135,.T.);
#90=FACE_OUTER_BOUND('',#136,.T.);
#91=FACE_OUTER_BOUND('',#137,.T.);
#92=FACE_OUTER_BOUND('',#138,.T.);
#93=FACE_OUTER_BOUND('',#139,.T.);
#94=FACE_OUTER_BOUND('',#140,.T.);
#95=FACE_OUTER_BOUND('',#141,.T.);
#96=FACE_OUTER_BOUND('',#142,.T.);
#97=FACE_OUTER_BOUND('',#143,.T.);
#98=EDGE_LOOP('',(#448,#449,#450,#451));
#99=EDGE_LOOP('',(#452,#453,#454,#455));
#100=EDGE_LOOP('',(#456,#457,#458,#459));
#101=EDGE_LOOP('',(#460,#461,#462,#463));
#102=EDGE_LOOP('',(#464,#465,#466,#467));
#103=EDGE_LOOP('',(#468,#469,#470,#471,#472));
#104=EDGE_LOOP('',(#473,#474,#475,#476,#477));
#105=EDGE_LOOP('',(#478,#479,#480,#481,#482));
#106=EDGE_LOOP('',(#483));
#107=EDGE_LOOP('',(#484,#485,#486,#487));
#108=EDGE_LOOP('',(#488,#489,#490,#491));
#109=EDGE_LOOP('',(#492));
#110=EDGE_LOOP('',(#493,#494,#495,#496));
#111=EDGE_LOOP('',(#497,#498,#499,#500));
#112=EDGE_LOOP('',(#501,#502,#503,#504,#505,#506,#507,#508,#509));
#113=EDGE_LOOP('',(#510,#511,#512,#513,#514,#515,#516,#517,#518,#519,#520,
#521));
#114=EDGE_LOOP('',(#522,#523,#524,#525,#526));
#115=EDGE_LOOP('',(#527,#528,#529,#530,#531));
#116=EDGE_LOOP('',(#532));
#117=EDGE_LOOP('',(#533,#534,#535,#536));
#118=EDGE_LOOP('',(#537,#538,#539,#540));
#119=EDGE_LOOP('',(#541));
#120=EDGE_LOOP('',(#542,#543,#544,#545));
#121=EDGE_LOOP('',(#546,#547,#548,#549));
#122=EDGE_LOOP('',(#550,#551,#552,#553,#554));
#123=EDGE_LOOP('',(#555,#556,#557,#558));
#124=EDGE_LOOP('',(#559,#560,#561,#562,#563,#564));
#125=EDGE_LOOP('',(#565,#566,#567,#568));
#126=EDGE_LOOP('',(#569,#570,#571,#572,#573));
#127=EDGE_LOOP('',(#574));
#128=EDGE_LOOP('',(#575,#576,#577,#578));
#129=EDGE_LOOP('',(#579,#580,#581,#582));
#130=EDGE_LOOP('',(#583));
#131=EDGE_LOOP('',(#584,#585,#586,#587));
#132=EDGE_LOOP('',(#588,#589,#590,#591));
#133=EDGE_LOOP('',(#592,#593,#594,#595,#596));
#134=EDGE_LOOP('',(#597));
#135=EDGE_LOOP('',(#598,#599,#600,#601));
#136=EDGE_LOOP('',(#602,#603,#604,#605));
#137=EDGE_LOOP('',(#606));
#138=EDGE_LOOP('',(#607,#608,#609,#610));
#139=EDGE_LOOP('',(#611,#612,#613,#614));
#140=EDGE_LOOP('',(#615,#616,#617,#618,#619,#620));
#141=EDGE_LOOP('',(#621,#622,#623,#624));
#142=EDGE_LOOP('',(#625,#626,#627,#628,#629,#630));
#143=EDGE_LOOP('',(#631,#632,#633,#634,#635,#636,#637,#638,#639));
#144=LINE('',#995,#218);
#145=LINE('',#997,#219);
#146=LINE('',#999,#220);
#147=LINE('',#1000,#221);
#148=LINE('',#1004,#222);
#149=LINE('',#1006,#223);
#150=LINE('',#1008,#224);
#151=LINE('',#1009,#225);
#152=LINE('',#1013,#226);
#153=LINE('',#1015,#227);
#154=LINE('',#1017,#228);
#155=LINE('',#1018,#229);
#156=LINE('',#1021,#230);
#157=LINE('',#1023,#231);
#158=LINE('',#1024,#232);
#159=LINE('',#1027,#233);
#160=LINE('',#1029,#234);
#161=LINE('',#1030,#235);
#162=LINE('',#1033,#236);
#163=LINE('',#1035,#237);
#164=LINE('',#1036,#238);
#165=LINE('',#1039,#239);
#166=LINE('',#1041,#240);
#167=LINE('',#1043,#241);
#168=LINE('',#1044,#242);
#169=LINE('',#1048,#243);
#170=LINE('',#1058,#244);
#171=LINE('',#1062,#245);
#172=LINE('',#1064,#246);
#173=LINE('',#1065,#247);
#174=LINE('',#1069,#248);
#175=LINE('',#1071,#249);
#176=LINE('',#1073,#250);
#177=LINE('',#1075,#251);
#178=LINE('',#1076,#252);
#179=LINE('',#1079,#253);
#180=LINE('',#1081,#254);
#181=LINE('',#1082,#255);
#182=LINE('',#1084,#256);
#183=LINE('',#1086,#257);
#184=LINE('',#1087,#258);
#185=LINE('',#1090,#259);
#186=LINE('',#1091,#260);
#187=LINE('',#1094,#261);
#188=LINE('',#1097,#262);
#189=LINE('',#1107,#263);
#190=LINE('',#1111,#264);
#191=LINE('',#1113,#265);
#192=LINE('',#1114,#266);
#193=LINE('',#1118,#267);
#194=LINE('',#1120,#268);
#195=LINE('',#1123,#269);
#196=LINE('',#1124,#270);
#197=LINE('',#1127,#271);
#198=LINE('',#1129,#272);
#199=LINE('',#1131,#273);
#200=LINE('',#1132,#274);
#201=LINE('',#1134,#275);
#202=LINE('',#1137,#276);
#203=LINE('',#1139,#277);
#204=LINE('',#1149,#278);
#205=LINE('',#1154,#279);
#206=LINE('',#1156,#280);
#207=LINE('',#1157,#281);
#208=LINE('',#1161,#282);
#209=LINE('',#1170,#283);
#210=LINE('',#1175,#284);
#211=LINE('',#1176,#285);
#212=LINE('',#1178,#286);
#213=LINE('',#1181,#287);
#214=LINE('',#1182,#288);
#215=LINE('',#1185,#289);
#216=LINE('',#1186,#290);
#217=LINE('',#1188,#291);
#218=VECTOR('',#791,10.);
#219=VECTOR('',#792,10.);
#220=VECTOR('',#793,10.);
#221=VECTOR('',#794,10.);
#222=VECTOR('',#797,10.);
#223=VECTOR('',#798,10.);
#224=VECTOR('',#799,10.);
#225=VECTOR('',#800,10.);
#226=VECTOR('',#803,10.);
#227=VECTOR('',#804,10.);
#228=VECTOR('',#805,10.);
#229=VECTOR('',#806,10.);
#230=VECTOR('',#809,10.);
#231=VECTOR('',#810,10.);
#232=VECTOR('',#811,10.);
#233=VECTOR('',#814,10.);
#234=VECTOR('',#815,10.);
#235=VECTOR('',#816,10.);
#236=VECTOR('',#819,10.);
#237=VECTOR('',#820,10.);
#238=VECTOR('',#821,10.);
#239=VECTOR('',#824,10.);
#240=VECTOR('',#825,10.);
#241=VECTOR('',#826,10.);
#242=VECTOR('',#827,10.);
#243=VECTOR('',#832,10.);
#244=VECTOR('',#845,1.40104076400989);
#245=VECTOR('',#850,10.);
#246=VECTOR('',#851,10.);
#247=VECTOR('',#852,10.);
#248=VECTOR('',#859,10.);
#249=VECTOR('',#860,10.);
#250=VECTOR('',#861,10.);
#251=VECTOR('',#862,10.);
#252=VECTOR('',#863,10.);
#253=VECTOR('',#866,10.);
#254=VECTOR('',#867,10.);
#255=VECTOR('',#868,10.);
#256=VECTOR('',#869,10.);
#257=VECTOR('',#870,10.);
#258=VECTOR('',#871,10.);
#259=VECTOR('',#874,10.);
#260=VECTOR('',#875,10.);
#261=VECTOR('',#878,10.);
#262=VECTOR('',#881,10.);
#263=VECTOR('',#894,1.40104076400988);
#264=VECTOR('',#899,10.);
#265=VECTOR('',#900,10.);
#266=VECTOR('',#901,10.);
#267=VECTOR('',#906,10.);
#268=VECTOR('',#909,10.);
#269=VECTOR('',#912,10.);
#270=VECTOR('',#913,10.);
#271=VECTOR('',#916,10.);
#272=VECTOR('',#917,10.);
#273=VECTOR('',#918,10.);
#274=VECTOR('',#919,10.);
#275=VECTOR('',#922,10.);
#276=VECTOR('',#925,10.);
#277=VECTOR('',#926,10.);
#278=VECTOR('',#939,1.18890872965373);
#279=VECTOR('',#946,10.);
#280=VECTOR('',#947,10.);
#281=VECTOR('',#948,10.);
#282=VECTOR('',#955,10.);
#283=VECTOR('',#966,1.18890872965373);
#284=VECTOR('',#973,10.);
#285=VECTOR('',#974,10.);
#286=VECTOR('',#977,10.);
#287=VECTOR('',#980,10.);
#288=VECTOR('',#981,10.);
#289=VECTOR('',#984,10.);
#290=VECTOR('',#985,10.);
#291=VECTOR('',#988,10.);
#292=VERTEX_POINT('',#993);
#293=VERTEX_POINT('',#994);
#294=VERTEX_POINT('',#996);
#295=VERTEX_POINT('',#998);
#296=VERTEX_POINT('',#1002);
#297=VERTEX_POINT('',#1003);
#298=VERTEX_POINT('',#1005);
#299=VERTEX_POINT('',#1007);
#300=VERTEX_POINT('',#1011);
#301=VERTEX_POINT('',#1012);
#302=VERTEX_POINT('',#1014);
#303=VERTEX_POINT('',#1016);
#304=VERTEX_POINT('',#1020);
#305=VERTEX_POINT('',#1022);
#306=VERTEX_POINT('',#1026);
#307=VERTEX_POINT('',#1028);
#308=VERTEX_POINT('',#1032);
#309=VERTEX_POINT('',#1034);
#310=VERTEX_POINT('',#1038);
#311=VERTEX_POINT('',#1040);
#312=VERTEX_POINT('',#1042);
#313=VERTEX_POINT('',#1046);
#314=VERTEX_POINT('',#1049);
#315=VERTEX_POINT('',#1052);
#316=VERTEX_POINT('',#1056);
#317=VERTEX_POINT('',#1061);
#318=VERTEX_POINT('',#1063);
#319=VERTEX_POINT('',#1070);
#320=VERTEX_POINT('',#1072);
#321=VERTEX_POINT('',#1074);
#322=VERTEX_POINT('',#1078);
#323=VERTEX_POINT('',#1080);
#324=VERTEX_POINT('',#1083);
#325=VERTEX_POINT('',#1085);
#326=VERTEX_POINT('',#1089);
#327=VERTEX_POINT('',#1093);
#328=VERTEX_POINT('',#1095);
#329=VERTEX_POINT('',#1098);
#330=VERTEX_POINT('',#1101);
#331=VERTEX_POINT('',#1105);
#332=VERTEX_POINT('',#1110);
#333=VERTEX_POINT('',#1112);
#334=VERTEX_POINT('',#1116);
#335=VERTEX_POINT('',#1122);
#336=VERTEX_POINT('',#1126);
#337=VERTEX_POINT('',#1128);
#338=VERTEX_POINT('',#1130);
#339=VERTEX_POINT('',#1136);
#340=VERTEX_POINT('',#1138);
#341=VERTEX_POINT('',#1141);
#342=VERTEX_POINT('',#1144);
#343=VERTEX_POINT('',#1148);
#344=VERTEX_POINT('',#1153);
#345=VERTEX_POINT('',#1155);
#346=VERTEX_POINT('',#1162);
#347=VERTEX_POINT('',#1165);
#348=VERTEX_POINT('',#1169);
#349=VERTEX_POINT('',#1174);
#350=VERTEX_POINT('',#1180);
#351=VERTEX_POINT('',#1184);
#352=EDGE_CURVE('',#292,#293,#144,.T.);
#353=EDGE_CURVE('',#294,#292,#145,.T.);
#354=EDGE_CURVE('',#295,#294,#146,.T.);
#355=EDGE_CURVE('',#295,#293,#147,.T.);
#356=EDGE_CURVE('',#296,#297,#148,.T.);
#357=EDGE_CURVE('',#297,#298,#149,.T.);
#358=EDGE_CURVE('',#298,#299,#150,.T.);
#359=EDGE_CURVE('',#299,#296,#151,.T.);
#360=EDGE_CURVE('',#300,#301,#152,.T.);
#361=EDGE_CURVE('',#302,#301,#153,.T.);
#362=EDGE_CURVE('',#302,#303,#154,.T.);
#363=EDGE_CURVE('',#300,#303,#155,.T.);
#364=EDGE_CURVE('',#296,#304,#156,.T.);
#365=EDGE_CURVE('',#304,#305,#157,.T.);
#366=EDGE_CURVE('',#297,#305,#158,.T.);
#367=EDGE_CURVE('',#304,#306,#159,.T.);
#368=EDGE_CURVE('',#307,#306,#160,.T.);
#369=EDGE_CURVE('',#305,#307,#161,.T.);
#370=EDGE_CURVE('',#308,#307,#162,.T.);
#371=EDGE_CURVE('',#309,#308,#163,.T.);
#372=EDGE_CURVE('',#297,#309,#164,.T.);
#373=EDGE_CURVE('',#310,#308,#165,.T.);
#374=EDGE_CURVE('',#311,#310,#166,.T.);
#375=EDGE_CURVE('',#312,#311,#167,.T.);
#376=EDGE_CURVE('',#312,#309,#168,.T.);
#377=EDGE_CURVE('',#312,#313,#34,.T.);
#378=EDGE_CURVE('',#298,#313,#169,.T.);
#379=EDGE_CURVE('',#314,#314,#35,.T.);
#380=EDGE_CURVE('',#314,#315,#36,.T.);
#381=EDGE_CURVE('',#315,#315,#37,.T.);
#382=EDGE_CURVE('',#316,#316,#38,.T.);
#383=EDGE_CURVE('',#316,#315,#170,.T.);
#384=EDGE_CURVE('',#313,#317,#171,.T.);
#385=EDGE_CURVE('',#318,#317,#172,.T.);
#386=EDGE_CURVE('',#318,#298,#173,.T.);
#387=EDGE_CURVE('',#317,#311,#39,.T.);
#388=EDGE_CURVE('',#310,#295,#174,.T.);
#389=EDGE_CURVE('',#319,#294,#175,.T.);
#390=EDGE_CURVE('',#320,#319,#176,.T.);
#391=EDGE_CURVE('',#321,#320,#177,.T.);
#392=EDGE_CURVE('',#318,#321,#178,.T.);
#393=EDGE_CURVE('',#306,#322,#179,.T.);
#394=EDGE_CURVE('',#322,#323,#180,.T.);
#395=EDGE_CURVE('',#302,#323,#181,.T.);
#396=EDGE_CURVE('',#301,#324,#182,.T.);
#397=EDGE_CURVE('',#324,#325,#183,.T.);
#398=EDGE_CURVE('',#325,#293,#184,.T.);
#399=EDGE_CURVE('',#326,#296,#185,.T.);
#400=EDGE_CURVE('',#322,#326,#186,.T.);
#401=EDGE_CURVE('',#299,#327,#187,.T.);
#402=EDGE_CURVE('',#328,#327,#40,.T.);
#403=EDGE_CURVE('',#328,#326,#188,.T.);
#404=EDGE_CURVE('',#329,#329,#41,.T.);
#405=EDGE_CURVE('',#329,#330,#42,.T.);
#406=EDGE_CURVE('',#330,#330,#43,.T.);
#407=EDGE_CURVE('',#331,#331,#44,.T.);
#408=EDGE_CURVE('',#331,#330,#189,.T.);
#409=EDGE_CURVE('',#299,#332,#190,.T.);
#410=EDGE_CURVE('',#333,#332,#191,.T.);
#411=EDGE_CURVE('',#327,#333,#192,.T.);
#412=EDGE_CURVE('',#334,#333,#45,.T.);
#413=EDGE_CURVE('',#328,#334,#193,.T.);
#414=EDGE_CURVE('',#323,#334,#194,.T.);
#415=EDGE_CURVE('',#324,#335,#195,.T.);
#416=EDGE_CURVE('',#335,#300,#196,.T.);
#417=EDGE_CURVE('',#335,#336,#197,.T.);
#418=EDGE_CURVE('',#336,#337,#198,.T.);
#419=EDGE_CURVE('',#338,#337,#199,.T.);
#420=EDGE_CURVE('',#338,#325,#200,.T.);
#421=EDGE_CURVE('',#292,#338,#201,.T.);
#422=EDGE_CURVE('',#339,#300,#202,.T.);
#423=EDGE_CURVE('',#340,#339,#203,.T.);
#424=EDGE_CURVE('',#340,#336,#46,.T.);
#425=EDGE_CURVE('',#341,#341,#47,.T.);
#426=EDGE_CURVE('',#342,#342,#48,.T.);
#427=EDGE_CURVE('',#342,#341,#49,.T.);
#428=EDGE_CURVE('',#342,#343,#204,.T.);
#429=EDGE_CURVE('',#343,#343,#50,.T.);
#430=EDGE_CURVE('',#344,#340,#205,.T.);
#431=EDGE_CURVE('',#345,#339,#206,.T.);
#432=EDGE_CURVE('',#344,#345,#207,.T.);
#433=EDGE_CURVE('',#344,#337,#51,.T.);
#434=EDGE_CURVE('',#292,#345,#208,.T.);
#435=EDGE_CURVE('',#346,#346,#52,.T.);
#436=EDGE_CURVE('',#347,#347,#53,.T.);
#437=EDGE_CURVE('',#347,#346,#54,.T.);
#438=EDGE_CURVE('',#347,#348,#209,.T.);
#439=EDGE_CURVE('',#348,#348,#55,.T.);
#440=EDGE_CURVE('',#349,#303,#210,.T.);
#441=EDGE_CURVE('',#339,#349,#211,.T.);
#442=EDGE_CURVE('',#319,#345,#212,.T.);
#443=EDGE_CURVE('',#350,#349,#213,.T.);
#444=EDGE_CURVE('',#320,#350,#214,.T.);
#445=EDGE_CURVE('',#351,#350,#215,.T.);
#446=EDGE_CURVE('',#321,#351,#216,.T.);
#447=EDGE_CURVE('',#332,#351,#217,.T.);
#448=ORIENTED_EDGE('',*,*,#352,.F.);
#449=ORIENTED_EDGE('',*,*,#353,.F.);
#450=ORIENTED_EDGE('',*,*,#354,.F.);
#451=ORIENTED_EDGE('',*,*,#355,.T.);
#452=ORIENTED_EDGE('',*,*,#356,.T.);
#453=ORIENTED_EDGE('',*,*,#357,.T.);
#454=ORIENTED_EDGE('',*,*,#358,.T.);
#455=ORIENTED_EDGE('',*,*,#359,.T.);
#456=ORIENTED_EDGE('',*,*,#360,.T.);
#457=ORIENTED_EDGE('',*,*,#361,.F.);
#458=ORIENTED_EDGE('',*,*,#362,.T.);
#459=ORIENTED_EDGE('',*,*,#363,.F.);
#460=ORIENTED_EDGE('',*,*,#364,.T.);
#461=ORIENTED_EDGE('',*,*,#365,.T.);
#462=ORIENTED_EDGE('',*,*,#366,.F.);
#463=ORIENTED_EDGE('',*,*,#356,.F.);
#464=ORIENTED_EDGE('',*,*,#367,.T.);
#465=ORIENTED_EDGE('',*,*,#368,.F.);
#466=ORIENTED_EDGE('',*,*,#369,.F.);
#467=ORIENTED_EDGE('',*,*,#365,.F.);
#468=ORIENTED_EDGE('',*,*,#370,.F.);
#469=ORIENTED_EDGE('',*,*,#371,.F.);
#470=ORIENTED_EDGE('',*,*,#372,.F.);
#471=ORIENTED_EDGE('',*,*,#366,.T.);
#472=ORIENTED_EDGE('',*,*,#369,.T.);
#473=ORIENTED_EDGE('',*,*,#371,.T.);
#474=ORIENTED_EDGE('',*,*,#373,.F.);
#475=ORIENTED_EDGE('',*,*,#374,.F.);
#476=ORIENTED_EDGE('',*,*,#375,.F.);
#477=ORIENTED_EDGE('',*,*,#376,.T.);
#478=ORIENTED_EDGE('',*,*,#372,.T.);
#479=ORIENTED_EDGE('',*,*,#376,.F.);
#480=ORIENTED_EDGE('',*,*,#377,.T.);
#481=ORIENTED_EDGE('',*,*,#378,.F.);
#482=ORIENTED_EDGE('',*,*,#357,.F.);
#483=ORIENTED_EDGE('',*,*,#379,.T.);
#484=ORIENTED_EDGE('',*,*,#379,.F.);
#485=ORIENTED_EDGE('',*,*,#380,.T.);
#486=ORIENTED_EDGE('',*,*,#381,.F.);
#487=ORIENTED_EDGE('',*,*,#380,.F.);
#488=ORIENTED_EDGE('',*,*,#382,.F.);
#489=ORIENTED_EDGE('',*,*,#383,.T.);
#490=ORIENTED_EDGE('',*,*,#381,.T.);
#491=ORIENTED_EDGE('',*,*,#383,.F.);
#492=ORIENTED_EDGE('',*,*,#382,.T.);
#493=ORIENTED_EDGE('',*,*,#384,.T.);
#494=ORIENTED_EDGE('',*,*,#385,.F.);
#495=ORIENTED_EDGE('',*,*,#386,.T.);
#496=ORIENTED_EDGE('',*,*,#378,.T.);
#497=ORIENTED_EDGE('',*,*,#375,.T.);
#498=ORIENTED_EDGE('',*,*,#387,.F.);
#499=ORIENTED_EDGE('',*,*,#384,.F.);
#500=ORIENTED_EDGE('',*,*,#377,.F.);
#501=ORIENTED_EDGE('',*,*,#385,.T.);
#502=ORIENTED_EDGE('',*,*,#387,.T.);
#503=ORIENTED_EDGE('',*,*,#374,.T.);
#504=ORIENTED_EDGE('',*,*,#388,.T.);
#505=ORIENTED_EDGE('',*,*,#354,.T.);
#506=ORIENTED_EDGE('',*,*,#389,.F.);
#507=ORIENTED_EDGE('',*,*,#390,.F.);
#508=ORIENTED_EDGE('',*,*,#391,.F.);
#509=ORIENTED_EDGE('',*,*,#392,.F.);
#510=ORIENTED_EDGE('',*,*,#373,.T.);
#511=ORIENTED_EDGE('',*,*,#370,.T.);
#512=ORIENTED_EDGE('',*,*,#368,.T.);
#513=ORIENTED_EDGE('',*,*,#393,.T.);
#514=ORIENTED_EDGE('',*,*,#394,.T.);
#515=ORIENTED_EDGE('',*,*,#395,.F.);
#516=ORIENTED_EDGE('',*,*,#361,.T.);
#517=ORIENTED_EDGE('',*,*,#396,.T.);
#518=ORIENTED_EDGE('',*,*,#397,.T.);
#519=ORIENTED_EDGE('',*,*,#398,.T.);
#520=ORIENTED_EDGE('',*,*,#355,.F.);
#521=ORIENTED_EDGE('',*,*,#388,.F.);
#522=ORIENTED_EDGE('',*,*,#399,.F.);
#523=ORIENTED_EDGE('',*,*,#400,.F.);
#524=ORIENTED_EDGE('',*,*,#393,.F.);
#525=ORIENTED_EDGE('',*,*,#367,.F.);
#526=ORIENTED_EDGE('',*,*,#364,.F.);
#527=ORIENTED_EDGE('',*,*,#399,.T.);
#528=ORIENTED_EDGE('',*,*,#359,.F.);
#529=ORIENTED_EDGE('',*,*,#401,.T.);
#530=ORIENTED_EDGE('',*,*,#402,.F.);
#531=ORIENTED_EDGE('',*,*,#403,.T.);
#532=ORIENTED_EDGE('',*,*,#404,.F.);
#533=ORIENTED_EDGE('',*,*,#404,.T.);
#534=ORIENTED_EDGE('',*,*,#405,.T.);
#535=ORIENTED_EDGE('',*,*,#406,.T.);
#536=ORIENTED_EDGE('',*,*,#405,.F.);
#537=ORIENTED_EDGE('',*,*,#407,.T.);
#538=ORIENTED_EDGE('',*,*,#408,.T.);
#539=ORIENTED_EDGE('',*,*,#406,.F.);
#540=ORIENTED_EDGE('',*,*,#408,.F.);
#541=ORIENTED_EDGE('',*,*,#407,.F.);
#542=ORIENTED_EDGE('',*,*,#409,.T.);
#543=ORIENTED_EDGE('',*,*,#410,.F.);
#544=ORIENTED_EDGE('',*,*,#411,.F.);
#545=ORIENTED_EDGE('',*,*,#401,.F.);
#546=ORIENTED_EDGE('',*,*,#411,.T.);
#547=ORIENTED_EDGE('',*,*,#412,.F.);
#548=ORIENTED_EDGE('',*,*,#413,.F.);
#549=ORIENTED_EDGE('',*,*,#402,.T.);
#550=ORIENTED_EDGE('',*,*,#400,.T.);
#551=ORIENTED_EDGE('',*,*,#403,.F.);
#552=ORIENTED_EDGE('',*,*,#413,.T.);
#553=ORIENTED_EDGE('',*,*,#414,.F.);
#554=ORIENTED_EDGE('',*,*,#394,.F.);
#555=ORIENTED_EDGE('',*,*,#415,.F.);
#556=ORIENTED_EDGE('',*,*,#396,.F.);
#557=ORIENTED_EDGE('',*,*,#360,.F.);
#558=ORIENTED_EDGE('',*,*,#416,.F.);
#559=ORIENTED_EDGE('',*,*,#415,.T.);
#560=ORIENTED_EDGE('',*,*,#417,.T.);
#561=ORIENTED_EDGE('',*,*,#418,.T.);
#562=ORIENTED_EDGE('',*,*,#419,.F.);
#563=ORIENTED_EDGE('',*,*,#420,.T.);
#564=ORIENTED_EDGE('',*,*,#397,.F.);
#565=ORIENTED_EDGE('',*,*,#420,.F.);
#566=ORIENTED_EDGE('',*,*,#421,.F.);
#567=ORIENTED_EDGE('',*,*,#352,.T.);
#568=ORIENTED_EDGE('',*,*,#398,.F.);
#569=ORIENTED_EDGE('',*,*,#416,.T.);
#570=ORIENTED_EDGE('',*,*,#422,.F.);
#571=ORIENTED_EDGE('',*,*,#423,.F.);
#572=ORIENTED_EDGE('',*,*,#424,.T.);
#573=ORIENTED_EDGE('',*,*,#417,.F.);
#574=ORIENTED_EDGE('',*,*,#425,.F.);
#575=ORIENTED_EDGE('',*,*,#426,.F.);
#576=ORIENTED_EDGE('',*,*,#427,.T.);
#577=ORIENTED_EDGE('',*,*,#425,.T.);
#578=ORIENTED_EDGE('',*,*,#427,.F.);
#579=ORIENTED_EDGE('',*,*,#426,.T.);
#580=ORIENTED_EDGE('',*,*,#428,.T.);
#581=ORIENTED_EDGE('',*,*,#429,.F.);
#582=ORIENTED_EDGE('',*,*,#428,.F.);
#583=ORIENTED_EDGE('',*,*,#429,.T.);
#584=ORIENTED_EDGE('',*,*,#430,.T.);
#585=ORIENTED_EDGE('',*,*,#423,.T.);
#586=ORIENTED_EDGE('',*,*,#431,.F.);
#587=ORIENTED_EDGE('',*,*,#432,.F.);
#588=ORIENTED_EDGE('',*,*,#418,.F.);
#589=ORIENTED_EDGE('',*,*,#424,.F.);
#590=ORIENTED_EDGE('',*,*,#430,.F.);
#591=ORIENTED_EDGE('',*,*,#433,.T.);
#592=ORIENTED_EDGE('',*,*,#421,.T.);
#593=ORIENTED_EDGE('',*,*,#419,.T.);
#594=ORIENTED_EDGE('',*,*,#433,.F.);
#595=ORIENTED_EDGE('',*,*,#432,.T.);
#596=ORIENTED_EDGE('',*,*,#434,.F.);
#597=ORIENTED_EDGE('',*,*,#435,.T.);
#598=ORIENTED_EDGE('',*,*,#436,.T.);
#599=ORIENTED_EDGE('',*,*,#437,.T.);
#600=ORIENTED_EDGE('',*,*,#435,.F.);
#601=ORIENTED_EDGE('',*,*,#437,.F.);
#602=ORIENTED_EDGE('',*,*,#436,.F.);
#603=ORIENTED_EDGE('',*,*,#438,.T.);
#604=ORIENTED_EDGE('',*,*,#439,.T.);
#605=ORIENTED_EDGE('',*,*,#438,.F.);
#606=ORIENTED_EDGE('',*,*,#439,.F.);
#607=ORIENTED_EDGE('',*,*,#363,.T.);
#608=ORIENTED_EDGE('',*,*,#440,.F.);
#609=ORIENTED_EDGE('',*,*,#441,.F.);
#610=ORIENTED_EDGE('',*,*,#422,.T.);
#611=ORIENTED_EDGE('',*,*,#353,.T.);
#612=ORIENTED_EDGE('',*,*,#434,.T.);
#613=ORIENTED_EDGE('',*,*,#442,.F.);
#614=ORIENTED_EDGE('',*,*,#389,.T.);
#615=ORIENTED_EDGE('',*,*,#443,.F.);
#616=ORIENTED_EDGE('',*,*,#444,.F.);
#617=ORIENTED_EDGE('',*,*,#390,.T.);
#618=ORIENTED_EDGE('',*,*,#442,.T.);
#619=ORIENTED_EDGE('',*,*,#431,.T.);
#620=ORIENTED_EDGE('',*,*,#441,.T.);
#621=ORIENTED_EDGE('',*,*,#445,.F.);
#622=ORIENTED_EDGE('',*,*,#446,.F.);
#623=ORIENTED_EDGE('',*,*,#391,.T.);
#624=ORIENTED_EDGE('',*,*,#444,.T.);
#625=ORIENTED_EDGE('',*,*,#447,.F.);
#626=ORIENTED_EDGE('',*,*,#409,.F.);
#627=ORIENTED_EDGE('',*,*,#358,.F.);
#628=ORIENTED_EDGE('',*,*,#386,.F.);
#629=ORIENTED_EDGE('',*,*,#392,.T.);
#630=ORIENTED_EDGE('',*,*,#446,.T.);
#631=ORIENTED_EDGE('',*,*,#410,.T.);
#632=ORIENTED_EDGE('',*,*,#447,.T.);
#633=ORIENTED_EDGE('',*,*,#445,.T.);
#634=ORIENTED_EDGE('',*,*,#443,.T.);
#635=ORIENTED_EDGE('',*,*,#440,.T.);
#636=ORIENTED_EDGE('',*,*,#362,.F.);
#637=ORIENTED_EDGE('',*,*,#395,.T.);
#638=ORIENTED_EDGE('',*,*,#414,.T.);
#639=ORIENTED_EDGE('',*,*,#412,.T.);
#640=PLANE('',#723);
#641=PLANE('',#724);
#642=PLANE('',#725);
#643=PLANE('',#726);
#644=PLANE('',#727);
#645=PLANE('',#728);
#646=PLANE('',#729);
#647=PLANE('',#730);
#648=PLANE('',#739);
#649=PLANE('',#742);
#650=PLANE('',#743);
#651=PLANE('',#744);
#652=PLANE('',#745);
#653=PLANE('',#754);
#654=PLANE('',#757);
#655=PLANE('',#758);
#656=PLANE('',#759);
#657=PLANE('',#760);
#658=PLANE('',#761);
#659=PLANE('',#770);
#660=PLANE('',#773);
#661=PLANE('',#781);
#662=PLANE('',#782);
#663=PLANE('',#783);
#664=PLANE('',#784);
#665=PLANE('',#785);
#666=PLANE('',#786);
#667=ADVANCED_FACE('',(#56),#640,.F.);
#668=ADVANCED_FACE('',(#57),#641,.T.);
#669=ADVANCED_FACE('',(#58),#642,.T.);
#670=ADVANCED_FACE('',(#59),#643,.T.);
#671=ADVANCED_FACE('',(#60),#644,.T.);
#672=ADVANCED_FACE('',(#61),#645,.F.);
#673=ADVANCED_FACE('',(#62),#646,.F.);
#674=ADVANCED_FACE('',(#63,#30),#647,.T.);
#675=ADVANCED_FACE('',(#64),#26,.F.);
#676=ADVANCED_FACE('',(#65),#22,.T.);
#677=ADVANCED_FACE('',(#66),#18,.T.);
#678=ADVANCED_FACE('',(#67),#648,.F.);
#679=ADVANCED_FACE('',(#68),#15,.F.);
#680=ADVANCED_FACE('',(#69),#649,.T.);
#681=ADVANCED_FACE('',(#70),#650,.T.);
#682=ADVANCED_FACE('',(#71),#651,.F.);
#683=ADVANCED_FACE('',(#72,#31),#652,.F.);
#684=ADVANCED_FACE('',(#73),#27,.F.);
#685=ADVANCED_FACE('',(#74),#23,.T.);
#686=ADVANCED_FACE('',(#75),#19,.T.);
#687=ADVANCED_FACE('',(#76),#653,.T.);
#688=ADVANCED_FACE('',(#77),#16,.F.);
#689=ADVANCED_FACE('',(#78),#654,.T.);
#690=ADVANCED_FACE('',(#79),#655,.F.);
#691=ADVANCED_FACE('',(#80),#656,.F.);
#692=ADVANCED_FACE('',(#81),#657,.F.);
#693=ADVANCED_FACE('',(#82,#32),#658,.T.);
#694=ADVANCED_FACE('',(#83),#28,.T.);
#695=ADVANCED_FACE('',(#84),#24,.F.);
#696=ADVANCED_FACE('',(#85),#20,.F.);
#697=ADVANCED_FACE('',(#86),#659,.F.);
#698=ADVANCED_FACE('',(#87),#17,.F.);
#699=ADVANCED_FACE('',(#88,#33),#660,.F.);
#700=ADVANCED_FACE('',(#89),#29,.T.);
#701=ADVANCED_FACE('',(#90),#25,.F.);
#702=ADVANCED_FACE('',(#91),#21,.F.);
#703=ADVANCED_FACE('',(#92),#661,.T.);
#704=ADVANCED_FACE('',(#93),#662,.T.);
#705=ADVANCED_FACE('',(#94),#663,.T.);
#706=ADVANCED_FACE('',(#95),#664,.T.);
#707=ADVANCED_FACE('',(#96),#665,.T.);
#708=ADVANCED_FACE('',(#97),#666,.F.);
#709=CLOSED_SHELL('',(#667,#668,#669,#670,#671,#672,#673,#674,#675,#676,
#677,#678,#679,#680,#681,#682,#683,#684,#685,#686,#687,#688,#689,#690,#691,
#692,#693,#694,#695,#696,#697,#698,#699,#700,#701,#702,#703,#704,#705,#706,
#707,#708));
#710=DERIVED_UNIT_ELEMENT(#712,1.);
#711=DERIVED_UNIT_ELEMENT(#1195,-3.);
#712=(
MASS_UNIT()
NAMED_UNIT(*)
SI_UNIT(.KILO.,.GRAM.)
);
#713=DERIVED_UNIT((#710,#711));
#714=MEASURE_REPRESENTATION_ITEM('density measure',
POSITIVE_RATIO_MEASURE(7850.),#713);
#715=PROPERTY_DEFINITION_REPRESENTATION(#720,#717);
#716=PROPERTY_DEFINITION_REPRESENTATION(#721,#718);
#717=REPRESENTATION('material name',(#719),#1192);
#718=REPRESENTATION('density',(#714),#1192);
#719=DESCRIPTIVE_REPRESENTATION_ITEM('Steel','Steel');
#720=PROPERTY_DEFINITION('material property','material name',#1202);
#721=PROPERTY_DEFINITION('material property','density of part',#1202);
#722=AXIS2_PLACEMENT_3D('',#991,#787,#788);
#723=AXIS2_PLACEMENT_3D('',#992,#789,#790);
#724=AXIS2_PLACEMENT_3D('',#1001,#795,#796);
#725=AXIS2_PLACEMENT_3D('',#1010,#801,#802);
#726=AXIS2_PLACEMENT_3D('',#1019,#807,#808);
#727=AXIS2_PLACEMENT_3D('',#1025,#812,#813);
#728=AXIS2_PLACEMENT_3D('',#1031,#817,#818);
#729=AXIS2_PLACEMENT_3D('',#1037,#822,#823);
#730=AXIS2_PLACEMENT_3D('',#1045,#828,#829);
#731=AXIS2_PLACEMENT_3D('',#1047,#830,#831);
#732=AXIS2_PLACEMENT_3D('',#1050,#833,#834);
#733=AXIS2_PLACEMENT_3D('',#1051,#835,#836);
#734=AXIS2_PLACEMENT_3D('',#1053,#837,#838);
#735=AXIS2_PLACEMENT_3D('',#1054,#839,#840);
#736=AXIS2_PLACEMENT_3D('',#1055,#841,#842);
#737=AXIS2_PLACEMENT_3D('',#1057,#843,#844);
#738=AXIS2_PLACEMENT_3D('',#1059,#846,#847);
#739=AXIS2_PLACEMENT_3D('',#1060,#848,#849);
#740=AXIS2_PLACEMENT_3D('',#1066,#853,#854);
#741=AXIS2_PLACEMENT_3D('',#1067,#855,#856);
#742=AXIS2_PLACEMENT_3D('',#1068,#857,#858);
#743=AXIS2_PLACEMENT_3D('',#1077,#864,#865);
#744=AXIS2_PLACEMENT_3D('',#1088,#872,#873);
#745=AXIS2_PLACEMENT_3D('',#1092,#876,#877);
#746=AXIS2_PLACEMENT_3D('',#1096,#879,#880);
#747=AXIS2_PLACEMENT_3D('',#1099,#882,#883);
#748=AXIS2_PLACEMENT_3D('',#1100,#884,#885);
#749=AXIS2_PLACEMENT_3D('',#1102,#886,#887);
#750=AXIS2_PLACEMENT_3D('',#1103,#888,#889);
#751=AXIS2_PLACEMENT_3D('',#1104,#890,#891);
#752=AXIS2_PLACEMENT_3D('',#1106,#892,#893);
#753=AXIS2_PLACEMENT_3D('',#1108,#895,#896);
#754=AXIS2_PLACEMENT_3D('',#1109,#897,#898);
#755=AXIS2_PLACEMENT_3D('',#1115,#902,#903);
#756=AXIS2_PLACEMENT_3D('',#1117,#904,#905);
#757=AXIS2_PLACEMENT_3D('',#1119,#907,#908);
#758=AXIS2_PLACEMENT_3D('',#1121,#910,#911);
#759=AXIS2_PLACEMENT_3D('',#1125,#914,#915);
#760=AXIS2_PLACEMENT_3D('',#1133,#920,#921);
#761=AXIS2_PLACEMENT_3D('',#1135,#923,#924);
#762=AXIS2_PLACEMENT_3D('',#1140,#927,#928);
#763=AXIS2_PLACEMENT_3D('',#1142,#929,#930);
#764=AXIS2_PLACEMENT_3D('',#1143,#931,#932);
#765=AXIS2_PLACEMENT_3D('',#1145,#933,#934);
#766=AXIS2_PLACEMENT_3D('',#1146,#935,#936);
#767=AXIS2_PLACEMENT_3D('',#1147,#937,#938);
#768=AXIS2_PLACEMENT_3D('',#1150,#940,#941);
#769=AXIS2_PLACEMENT_3D('',#1151,#942,#943);
#770=AXIS2_PLACEMENT_3D('',#1152,#944,#945);
#771=AXIS2_PLACEMENT_3D('',#1158,#949,#950);
#772=AXIS2_PLACEMENT_3D('',#1159,#951,#952);
#773=AXIS2_PLACEMENT_3D('',#1160,#953,#954);
#774=AXIS2_PLACEMENT_3D('',#1163,#956,#957);
#775=AXIS2_PLACEMENT_3D('',#1164,#958,#959);
#776=AXIS2_PLACEMENT_3D('',#1166,#960,#961);
#777=AXIS2_PLACEMENT_3D('',#1167,#962,#963);
#778=AXIS2_PLACEMENT_3D('',#1168,#964,#965);
#779=AXIS2_PLACEMENT_3D('',#1171,#967,#968);
#780=AXIS2_PLACEMENT_3D('',#1172,#969,#970);
#781=AXIS2_PLACEMENT_3D('',#1173,#971,#972);
#782=AXIS2_PLACEMENT_3D('',#1177,#975,#976);
#783=AXIS2_PLACEMENT_3D('',#1179,#978,#979);
#784=AXIS2_PLACEMENT_3D('',#1183,#982,#983);
#785=AXIS2_PLACEMENT_3D('',#1187,#986,#987);
#786=AXIS2_PLACEMENT_3D('',#1189,#989,#990);
#787=DIRECTION('axis',(0.,0.,1.));
#788=DIRECTION('refdir',(1.,0.,0.));
#789=DIRECTION('center_axis',(0.707106781176908,0.,-0.707106781196187));
#790=DIRECTION('ref_axis',(0.707106781196187,0.,0.707106781176908));
#791=DIRECTION('',(-0.577350269200118,-0.577350269184382,-0.577350269184377));
#792=DIRECTION('',(0.,-1.,0.));
#793=DIRECTION('',(0.707106781196187,0.,0.707106781176908));
#794=DIRECTION('',(0.,-1.,0.));
#795=DIRECTION('center_axis',(1.,0.,0.));
#796=DIRECTION('ref_axis',(0.,0.,1.));
#797=DIRECTION('',(0.,1.,0.));
#798=DIRECTION('',(0.,0.,1.));
#799=DIRECTION('',(0.,-1.,0.));
#800=DIRECTION('',(0.,1.29526019539601E-15,-1.));
#801=DIRECTION('center_axis',(-0.707106781176908,0.,0.707106781196187));
#802=DIRECTION('ref_axis',(0.707106781196187,0.,0.707106781176908));
#803=DIRECTION('',(-0.577350269200118,0.577350269184382,-0.577350269184377));
#804=DIRECTION('',(0.,1.,0.));
#805=DIRECTION('',(0.707106781196187,0.,0.707106781176908));
#806=DIRECTION('',(0.,-1.,0.));
#807=DIRECTION('center_axis',(0.707106781186541,0.,0.707106781186554));
#808=DIRECTION('ref_axis',(-0.707106781186554,0.,0.707106781186541));
#809=DIRECTION('',(0.577350269189634,-0.577350269189621,-0.577350269189623));
#810=DIRECTION('',(0.,1.,0.));
#811=DIRECTION('',(0.577350269189634,0.577350269189621,-0.577350269189623));
#812=DIRECTION('center_axis',(7.28705438227635E-10,0.,-1.));
#813=DIRECTION('ref_axis',(1.,0.,7.28705438227635E-10));
#814=DIRECTION('',(-1.,-7.28705396578653E-10,-7.28705438227635E-10));
#815=DIRECTION('',(0.,-1.,0.));
#816=DIRECTION('',(-1.,7.28705396578653E-10,-7.28705438227635E-10));
#817=DIRECTION('center_axis',(2.94502763411274E-17,-0.707106781186547,-0.707106781186548));
#818=DIRECTION('ref_axis',(-1.,0.,-4.16489802172578E-17));
#819=DIRECTION('',(1.,0.,4.16489802172578E-17));
#820=DIRECTION('',(0.644400477571768,0.540716203060939,-0.540716203060939));
#821=DIRECTION('',(-1.,0.,-4.16489802172578E-17));
#822=DIRECTION('center_axis',(-0.642787609686543,0.,-0.766044443118975));
#823=DIRECTION('ref_axis',(-0.766044443118975,0.,0.642787609686543));
#824=DIRECTION('',(0.,-1.,0.));
#825=DIRECTION('',(0.766044443118975,0.,-0.642787609686543));
#826=DIRECTION('',(0.,1.,-1.45901563623334E-13));
#827=DIRECTION('',(0.766044443118975,0.,-0.642787609686543));
#828=DIRECTION('center_axis',(0.,1.,0.));
#829=DIRECTION('ref_axis',(1.,0.,0.));
#830=DIRECTION('center_axis',(0.,1.,0.));
#831=DIRECTION('ref_axis',(1.,0.,0.));
#832=DIRECTION('',(-1.,0.,0.));
#833=DIRECTION('center_axis',(0.,-1.,-7.7867713508978E-15));
#834=DIRECTION('ref_axis',(0.,-7.7867713508978E-15,1.));
#835=DIRECTION('center_axis',(0.,1.,1.55735427017956E-14));
#836=DIRECTION('ref_axis',(0.,-1.55779147739611E-14,1.));
#837=DIRECTION('center_axis',(-1.,-1.90720892211386E-30,1.22464679914735E-16));
#838=DIRECTION('ref_axis',(-1.22464679914735E-16,1.55779147739611E-14,-1.));
#839=DIRECTION('center_axis',(0.,1.,1.55735427017956E-14));
#840=DIRECTION('ref_axis',(1.,0.,0.));
#841=DIRECTION('center_axis',(0.,-1.,-1.55735427017956E-14));
#842=DIRECTION('ref_axis',(0.,-1.53162188714035E-14,1.));
#843=DIRECTION('center_axis',(0.,1.,1.55735427017956E-14));
#844=DIRECTION('ref_axis',(1.,0.,0.));
#845=DIRECTION('',(-8.65956056235398E-17,-0.707106781186614,-0.707106781186481));
#846=DIRECTION('center_axis',(6.12323399573676E-17,0.,1.));
#847=DIRECTION('ref_axis',(1.,0.,0.));
#848=DIRECTION('center_axis',(0.,0.,1.));
#849=DIRECTION('ref_axis',(1.,0.,0.));
#850=DIRECTION('',(0.,1.,0.));
#851=DIRECTION('',(-1.,0.,0.));
#852=DIRECTION('',(0.,-1.,0.));
#853=DIRECTION('center_axis',(0.,1.,0.));
#854=DIRECTION('ref_axis',(-0.939692620786416,0.,0.342020143324274));
#855=DIRECTION('center_axis',(0.,-1.,0.));
#856=DIRECTION('ref_axis',(1.,0.,0.));
#857=DIRECTION('center_axis',(0.,1.,0.));
#858=DIRECTION('ref_axis',(0.,0.,1.));
#859=DIRECTION('',(-1.,0.,6.07503718431165E-15));
#860=DIRECTION('',(1.85037170770858E-16,0.,-1.));
#861=DIRECTION('',(0.707106781176918,0.,-0.707106781196177));
#862=DIRECTION('',(-1.,0.,0.));
#863=DIRECTION('',(0.707106781186553,0.,0.707106781186542));
#864=DIRECTION('center_axis',(4.16489802172578E-17,0.,-1.));
#865=DIRECTION('ref_axis',(1.,0.,4.16489802172578E-17));
#866=DIRECTION('',(-1.,5.22945839526314E-32,-4.16489802172578E-17));
#867=DIRECTION('',(-1.54363099120746E-15,-1.,-6.42906566155457E-32));
#868=DIRECTION('',(1.,0.,4.16489802172578E-17));
#869=DIRECTION('',(1.,6.01387715455264E-31,4.16489802172578E-17));
#870=DIRECTION('',(0.,1.,0.));
#871=DIRECTION('',(-1.,6.53682299407889E-31,-4.16489802172578E-17));
#872=DIRECTION('center_axis',(2.94502763411274E-17,0.707106781186548,-0.707106781186547));
#873=DIRECTION('ref_axis',(-1.,0.,-4.16489802172579E-17));
#874=DIRECTION('',(1.,-5.394626625425E-32,4.16489802172578E-17));
#875=DIRECTION('',(-0.644400477571769,0.540716203060938,0.540716203060939));
#876=DIRECTION('center_axis',(0.,1.,1.29526019539601E-15));
#877=DIRECTION('ref_axis',(1.,0.,0.));
#878=DIRECTION('',(-1.,0.,0.));
#879=DIRECTION('center_axis',(0.,1.,1.29526019539601E-15));
#880=DIRECTION('ref_axis',(1.,0.,0.));
#881=DIRECTION('',(0.766044443118975,8.32577204920727E-16,-0.642787609686543));
#882=DIRECTION('center_axis',(0.,-1.,6.49151115550179E-15));
#883=DIRECTION('ref_axis',(0.,6.49151115550179E-15,1.));
#884=DIRECTION('center_axis',(0.,-1.,1.42782825063996E-14));
#885=DIRECTION('ref_axis',(0.,1.43662991804308E-14,1.));
#886=DIRECTION('center_axis',(1.,-1.74858529687839E-30,-1.22464679914735E-16));
#887=DIRECTION('ref_axis',(-1.22464679914735E-16,-1.42797552094644E-14,
-1.));
#888=DIRECTION('center_axis',(0.,1.,-1.42782825063996E-14));
#889=DIRECTION('ref_axis',(1.,0.,0.));
#890=DIRECTION('center_axis',(0.,1.,-1.42782825063996E-14));
#891=DIRECTION('ref_axis',(0.,1.40209586760074E-14,1.));
#892=DIRECTION('center_axis',(0.,1.,-1.42782825063996E-14));
#893=DIRECTION('ref_axis',(1.,0.,0.));
#894=DIRECTION('',(-8.65956056235398E-17,0.707106781186615,-0.70710678118648));
#895=DIRECTION('center_axis',(6.12323399573677E-17,-1.36642833800009E-15,
1.));
#896=DIRECTION('ref_axis',(1.,0.,0.));
#897=DIRECTION('center_axis',(0.,1.29526019539601E-15,-1.));
#898=DIRECTION('ref_axis',(1.,0.,0.));
#899=DIRECTION('',(0.,-1.,0.));
#900=DIRECTION('',(1.,0.,0.));
#901=DIRECTION('',(0.,-1.,-1.47197220218315E-13));
#902=DIRECTION('center_axis',(0.,1.,1.29526019539601E-15));
#903=DIRECTION('ref_axis',(-0.939692620786416,-4.43005077671572E-16,0.342020143324275));
#904=DIRECTION('center_axis',(0.,1.,0.));
#905=DIRECTION('ref_axis',(1.,0.,0.));
#906=DIRECTION('',(0.,-1.,-1.47197220218315E-13));
#907=DIRECTION('center_axis',(0.642787609686543,-9.92226875076313E-16,0.766044443118975));
#908=DIRECTION('ref_axis',(-0.766044443118975,-8.32577204920727E-16,0.642787609686543));
#909=DIRECTION('',(-0.766044443118975,0.,0.642787609686543));
#910=DIRECTION('center_axis',(2.94502763411279E-17,-0.707106781186545,-0.70710678118655));
#911=DIRECTION('ref_axis',(-1.,0.,-4.16489802172584E-17));
#912=DIRECTION('',(0.644400477571767,-0.540716203060942,0.540716203060937));
#913=DIRECTION('',(-1.,-5.94675905645455E-31,-4.16489802172578E-17));
#914=DIRECTION('center_axis',(0.642787609686543,0.,-0.766044443118975));
#915=DIRECTION('ref_axis',(0.766044443118975,-1.00104802876385E-14,0.642787609686543));
#916=DIRECTION('',(0.766044443118975,9.17790308271777E-15,0.642787609686543));
#917=DIRECTION('',(0.,1.,1.55735427017956E-14));
#918=DIRECTION('',(0.766044443118975,-1.00104802876385E-14,0.642787609686543));
#919=DIRECTION('',(-0.644400477571771,-0.540716203060933,-0.540716203060941));
#920=DIRECTION('center_axis',(2.94502763411276E-17,0.707106781186553,-0.707106781186543));
#921=DIRECTION('ref_axis',(-1.,0.,-4.16489802172585E-17));
#922=DIRECTION('',(1.,-6.48622171899705E-31,4.16489802172578E-17));
#923=DIRECTION('center_axis',(0.,1.,-1.42782825063996E-14));
#924=DIRECTION('ref_axis',(0.,1.42782825063996E-14,1.));
#925=DIRECTION('',(1.85037170770858E-16,-1.42782825063996E-14,-1.));
#926=DIRECTION('',(-1.,0.,0.));
#927=DIRECTION('center_axis',(0.,1.,-1.42782825063996E-14));
#928=DIRECTION('ref_axis',(1.,0.,0.));
#929=DIRECTION('center_axis',(0.,1.,-1.42782825063996E-14));
#930=DIRECTION('ref_axis',(1.,0.,0.));
#931=DIRECTION('center_axis',(0.,-1.,1.42782825063996E-14));
#932=DIRECTION('ref_axis',(0.,1.44120133203095E-14,1.));
#933=DIRECTION('center_axis',(0.,1.,-1.42782825063996E-14));
#934=DIRECTION('ref_axis',(1.,0.,0.));
#935=DIRECTION('center_axis',(-1.,1.74858529687839E-30,1.22464679914735E-16));
#936=DIRECTION('ref_axis',(-1.22464679914735E-16,-1.43345293777272E-14,
-1.));
#937=DIRECTION('center_axis',(0.,1.,-1.42782825063996E-14));
#938=DIRECTION('ref_axis',(0.,1.36380532042219E-14,1.));
#939=DIRECTION('',(8.65956056235416E-17,-0.7071067811866,0.707106781186495));
#940=DIRECTION('center_axis',(0.,1.,-1.42782825063996E-14));
#941=DIRECTION('ref_axis',(1.,0.,0.));
#942=DIRECTION('center_axis',(6.12323399573677E-17,-1.33226762955006E-15,
1.));
#943=DIRECTION('ref_axis',(1.,0.,0.));
#944=DIRECTION('center_axis',(0.,0.,1.));
#945=DIRECTION('ref_axis',(-1.,0.,0.));
#946=DIRECTION('',(0.,-1.,1.42782825063996E-14));
#947=DIRECTION('',(0.,-1.,0.));
#948=DIRECTION('',(-1.,0.,0.));
#949=DIRECTION('center_axis',(0.,1.,1.55735427017956E-14));
#950=DIRECTION('ref_axis',(0.,-1.49333133996179E-14,1.));
#951=DIRECTION('center_axis',(0.,1.,1.55735427017956E-14));
#952=DIRECTION('ref_axis',(1.,0.,0.));
#953=DIRECTION('center_axis',(0.,1.,1.55735427017956E-14));
#954=DIRECTION('ref_axis',(0.,-1.55735427017956E-14,1.));
#955=DIRECTION('',(-1.85037170770858E-16,-1.55735427017956E-14,1.));
#956=DIRECTION('center_axis',(0.,1.,1.55735427017956E-14));
#957=DIRECTION('ref_axis',(1.,0.,0.));
#958=DIRECTION('center_axis',(0.,1.,1.55735427017956E-14));
#959=DIRECTION('ref_axis',(0.,-1.56517564016264E-14,1.));
#960=DIRECTION('center_axis',(0.,1.,1.55735427017956E-14));
#961=DIRECTION('ref_axis',(1.,0.,0.));
#962=DIRECTION('center_axis',(1.,1.90720892211386E-30,-1.22464679914735E-16));
#963=DIRECTION('ref_axis',(-1.22464679914735E-16,1.54967885164618E-14,-1.));
#964=DIRECTION('center_axis',(0.,-1.,-1.55735427017956E-14));
#965=DIRECTION('ref_axis',(0.,-1.49333133996179E-14,1.));
#966=DIRECTION('',(8.65956056235416E-17,0.707106781186599,0.707106781186496));
#967=DIRECTION('center_axis',(0.,1.,1.55735427017956E-14));
#968=DIRECTION('ref_axis',(1.,0.,0.));
#969=DIRECTION('center_axis',(6.12323399573677E-17,0.,1.));
#970=DIRECTION('ref_axis',(1.,0.,0.));
#971=DIRECTION('center_axis',(-1.,0.,-1.85037170770858E-16));
#972=DIRECTION('ref_axis',(1.85037170770858E-16,0.,-1.));
#973=DIRECTION('',(1.85037170770858E-16,0.,-1.));
#974=DIRECTION('',(0.,-1.,0.));
#975=DIRECTION('center_axis',(-1.,0.,-1.85037170770858E-16));
#976=DIRECTION('ref_axis',(1.85037170770858E-16,0.,-1.));
#977=DIRECTION('',(0.,-1.,0.));
#978=DIRECTION('center_axis',(-0.707106781196177,0.,-0.707106781176918));
#979=DIRECTION('ref_axis',(0.707106781176918,0.,-0.707106781196177));
#980=DIRECTION('',(0.707106781176918,0.,-0.707106781196177));
#981=DIRECTION('',(0.,-1.,0.));
#982=DIRECTION('center_axis',(0.,0.,1.));
#983=DIRECTION('ref_axis',(-1.,0.,0.));
#984=DIRECTION('',(-1.,0.,0.));
#985=DIRECTION('',(0.,-1.,0.));
#986=DIRECTION('center_axis',(0.707106781186542,0.,-0.707106781186553));
#987=DIRECTION('ref_axis',(0.707106781186553,0.,0.707106781186542));
#988=DIRECTION('',(0.707106781186553,0.,0.707106781186542));
#989=DIRECTION('center_axis',(0.,1.,0.));
#990=DIRECTION('ref_axis',(0.,0.,1.));
#991=CARTESIAN_POINT('',(0.,0.,0.));
#992=CARTESIAN_POINT('Origin',(-3.69253331742776,100.,-2.60208521396521E-16));
#993=CARTESIAN_POINT('',(-3.49253331742776,2.49999999999984,0.2));
#994=CARTESIAN_POINT('',(-3.69253331742776,2.29999999999983,-1.53790247089114E-16));
#995=CARTESIAN_POINT('',(12.6408000160536,18.633333333036,16.3333333330361));
#996=CARTESIAN_POINT('',(-3.49253331742776,100.,0.199999999994547));
#997=CARTESIAN_POINT('',(-3.49253331742776,100.,0.199999999994547));
#998=CARTESIAN_POINT('',(-3.69253331742776,100.,-1.53790247089114E-16));
#999=CARTESIAN_POINT('',(-3.54253331742776,100.,0.14999999999591));
#1000=CARTESIAN_POINT('',(-3.69253331742776,100.,-1.53790247089114E-16));
#1001=CARTESIAN_POINT('Origin',(3.49253331742777,100.,0.));
#1002=CARTESIAN_POINT('',(3.49253331742777,-2.8,0.199999999999996));
#1003=CARTESIAN_POINT('',(3.49253331742777,2.8,0.2));
#1004=CARTESIAN_POINT('',(3.49253331742777,50.,0.200000000145737));
#1005=CARTESIAN_POINT('',(3.49253331742777,2.8,6.00000000000005));
#1006=CARTESIAN_POINT('',(3.49253331742777,2.79999999999999,1.50000000000001));
#1007=CARTESIAN_POINT('',(3.49253331742777,-2.80000000000001,6.00000000000005));
#1008=CARTESIAN_POINT('',(3.49253331742777,100.,6.00000000000005));
#1009=CARTESIAN_POINT('',(3.49253331742777,-2.80000000000001,1.49999999999994));
#1010=CARTESIAN_POINT('Origin',(-3.69253331742776,-100.,-2.60208521396521E-16));
#1011=CARTESIAN_POINT('',(-3.49253331742776,-2.49999999999984,0.199999999999996));
#1012=CARTESIAN_POINT('',(-3.69253331742776,-2.29999999999983,-1.53790247089114E-16));
#1013=CARTESIAN_POINT('',(12.6408000160536,-18.633333333036,16.3333333330361));
#1014=CARTESIAN_POINT('',(-3.69253331742776,-100.,-1.53790247089114E-16));
#1015=CARTESIAN_POINT('',(-3.69253331742776,-100.,-1.53790247089114E-16));
#1016=CARTESIAN_POINT('',(-3.49253331742776,-100.,0.199999999994547));
#1017=CARTESIAN_POINT('',(-3.54253331742776,-100.,0.14999999999591));
#1018=CARTESIAN_POINT('',(-3.49253331742776,0.,0.199999999994547));
#1019=CARTESIAN_POINT('Origin',(3.69253331742777,0.,1.45741233105978E-10));
#1020=CARTESIAN_POINT('',(3.69253331742777,-2.99999999985425,1.45741233105978E-10));
#1021=CARTESIAN_POINT('',(3.14253331747634,-2.44999999990285,0.550000000097153));
#1022=CARTESIAN_POINT('',(3.69253331742777,2.99999999985425,1.45741233105978E-10));
#1023=CARTESIAN_POINT('',(3.69253331742777,0.,1.45741233105978E-10));
#1024=CARTESIAN_POINT('',(3.14253331747634,2.44999999990285,0.550000000097153));
#1025=CARTESIAN_POINT('Origin',(3.49253331742777,0.,1.45460451045663E-16));
#1026=CARTESIAN_POINT('',(3.49253331742777,-3.,-3.99937217422159E-15));
#1027=CARTESIAN_POINT('',(3.54253331859369,-2.99999999996356,3.64354128022423E-11));
#1028=CARTESIAN_POINT('',(3.49253331742777,3.,1.45460451045663E-16));
#1029=CARTESIAN_POINT('',(3.49253331742777,100.,1.45460451045663E-16));
#1030=CARTESIAN_POINT('',(3.54253331859369,2.99999999996356,3.64354128022423E-11));
#1031=CARTESIAN_POINT('Origin',(1.86939998807082,2.9,0.1));
#1032=CARTESIAN_POINT('',(-1.09191070279863,3.,0.));
#1033=CARTESIAN_POINT('',(-0.811566664678474,3.,0.));
#1034=CARTESIAN_POINT('',(-1.33026142131747,2.8,0.2));
#1035=CARTESIAN_POINT('',(-0.54675320147669,3.45744145829277,-0.457441458292769));
#1036=CARTESIAN_POINT('',(1.86939998807082,2.8,0.2));
#1037=CARTESIAN_POINT('Origin',(-1.09191070279863,2.8,0.));
#1038=CARTESIAN_POINT('',(-1.09191070279863,100.,-1.38516723343944E-11));
#1039=CARTESIAN_POINT('',(-1.09191070279863,51.4,-2.77555756156289E-16));
#1040=CARTESIAN_POINT('',(-1.92836282905964,100.,0.701866670629217));
#1041=CARTESIAN_POINT('',(-1.75633870417419,100.,0.557521290898099));
#1042=CARTESIAN_POINT('',(-1.92836282905964,2.8,0.701866670643069));
#1043=CARTESIAN_POINT('',(-1.92836282905964,5.06152236891432,0.701866670643069));
#1044=CARTESIAN_POINT('',(-1.92836282905964,2.8,0.701866670643069));
#1045=CARTESIAN_POINT('Origin',(0.24626665871387,2.8,3.00000000000002));
#1046=CARTESIAN_POINT('',(0.,2.8,6.00000000000005));
#1047=CARTESIAN_POINT('Origin',(0.,2.8,3.00000000000002));
#1048=CARTESIAN_POINT('',(3.49253331742777,2.8,6.00000000000005));
#1049=CARTESIAN_POINT('',(-2.65219972362114E-16,2.80000000000002,0.834314575053246));
#1050=CARTESIAN_POINT('Origin',(0.,2.8,3.00000000000002));
#1051=CARTESIAN_POINT('Origin',(0.,3.19999999999329,3.00000000000003));
#1052=CARTESIAN_POINT('',(-2.30581730113345E-16,2.91715728752334,1.11715728752255));
#1053=CARTESIAN_POINT('Origin',(-2.65219972362115E-16,3.19999999999333,
0.834314575053249));
#1054=CARTESIAN_POINT('Origin',(0.,2.91715728752331,3.00000000000002));
#1055=CARTESIAN_POINT('Origin',(0.,3.39895923599023,3.00000000000003));
#1056=CARTESIAN_POINT('',(-1.12574287310635E-16,3.88076118445754,2.08076118445735));
#1057=CARTESIAN_POINT('Origin',(0.,3.88076118445753,3.00000000000004));
#1058=CARTESIAN_POINT('',(-1.71578008711967E-16,3.39895923599025,1.59895923599015));
#1059=CARTESIAN_POINT('Origin',(0.,2.9615223689151,3.00000000000012));
#1060=CARTESIAN_POINT('Origin',(0.,2.8,6.00000000000005));
#1061=CARTESIAN_POINT('',(0.,100.,5.9999999999862));
#1062=CARTESIAN_POINT('',(0.,2.8,6.00000000000005));
#1063=CARTESIAN_POINT('',(3.49253331742777,100.,6.00000000000005));
#1064=CARTESIAN_POINT('',(1.36263222927369E-11,100.,6.00000000000005));
#1065=CARTESIAN_POINT('',(3.49253331742777,100.,6.00000000000005));
#1066=CARTESIAN_POINT('Origin',(0.,2.8,3.00000000000002));
#1067=CARTESIAN_POINT('Origin',(0.,100.,3.00000000000002));
#1068=CARTESIAN_POINT('Origin',(2.72526445854737E-11,100.,4.00000000000002));
#1069=CARTESIAN_POINT('',(-3.64253331742777,100.,-4.59701721133854E-16));
#1070=CARTESIAN_POINT('',(-3.49253331742777,100.,6.00000000000005));
#1071=CARTESIAN_POINT('',(-3.49253331742776,100.,2.00000000000001));
#1072=CARTESIAN_POINT('',(-5.49253331737329,100.,8.00000000000005));
#1073=CARTESIAN_POINT('',(-2.11939998808779,100.,4.62686667062267));
#1074=CARTESIAN_POINT('',(5.4925333174278,100.,8.00000000000005));
#1075=CARTESIAN_POINT('',(-2.74626665867302,100.,8.00000000000005));
#1076=CARTESIAN_POINT('',(3.11939998807763,100.,5.62686667064992));
#1077=CARTESIAN_POINT('Origin',(-3.49253331742776,100.,-2.18190676569062E-16));
#1078=CARTESIAN_POINT('',(-1.09191070279863,-3.,-4.14483262526725E-15));
#1079=CARTESIAN_POINT('',(-0.811566664678474,-2.99999999999999,0.));
#1080=CARTESIAN_POINT('',(-1.09191070279863,-100.,-1.39814950395462E-11));
#1081=CARTESIAN_POINT('',(-1.09191070279855,48.6,-2.08166817117217E-16));
#1082=CARTESIAN_POINT('',(-1.74626665870026,-100.,0.));
#1083=CARTESIAN_POINT('',(1.09191070279863,-2.29999999999984,-3.23815048848984E-15));
#1084=CARTESIAN_POINT('',(-2.61939998807082,-2.29999999999984,0.));
#1085=CARTESIAN_POINT('',(1.09191070279863,2.29999999999984,2.72004641033141E-15));
#1086=CARTESIAN_POINT('',(1.09191070279863,51.2499999999999,1.38777878078145E-16));
#1087=CARTESIAN_POINT('',(-2.61939998807082,2.29999999999983,0.));
#1088=CARTESIAN_POINT('Origin',(1.86939998807082,-2.9,0.099999999999996));
#1089=CARTESIAN_POINT('',(-1.33026142131747,-2.8,0.199999999999996));
#1090=CARTESIAN_POINT('',(1.86939998807082,-2.8,0.199999999999996));
#1091=CARTESIAN_POINT('',(-0.54675320147669,-3.45744145829277,-0.457441458292774));
#1092=CARTESIAN_POINT('Origin',(0.24626665871387,-2.8,3.00000000000002));
#1093=CARTESIAN_POINT('',(0.,-2.80000000000001,6.00000000000005));
#1094=CARTESIAN_POINT('',(3.49253331742777,-2.80000000000001,6.00000000000005));
#1095=CARTESIAN_POINT('',(-1.92836282905964,-2.8,0.701866670643065));
#1096=CARTESIAN_POINT('Origin',(0.,-2.8,3.00000000000002));
#1097=CARTESIAN_POINT('',(-1.92836282905964,-2.8,0.701866670643065));
#1098=CARTESIAN_POINT('',(-2.65219972362114E-16,-2.80000000000002,0.834314575053242));
#1099=CARTESIAN_POINT('Origin',(0.,-2.8,3.00000000000002));
#1100=CARTESIAN_POINT('Origin',(0.,-3.1999999999933,3.00000000000002));
#1101=CARTESIAN_POINT('',(-2.30581730113345E-16,-2.91715728752334,1.11715728752255));
#1102=CARTESIAN_POINT('Origin',(-2.65219972362115E-16,-3.19999999999333,
0.834314575053245));
#1103=CARTESIAN_POINT('Origin',(0.,-2.91715728752331,3.00000000000002));
#1104=CARTESIAN_POINT('Origin',(0.,-3.39895923599023,3.00000000000003));
#1105=CARTESIAN_POINT('',(-1.12574287310635E-16,-3.88076118445755,2.08076118445735));
#1106=CARTESIAN_POINT('Origin',(0.,-3.88076118445754,3.00000000000003));
#1107=CARTESIAN_POINT('',(-1.71578008711967E-16,-3.39895923599025,1.59895923599014));
#1108=CARTESIAN_POINT('Origin',(0.,-2.9615223689151,3.00000000000012));
#1109=CARTESIAN_POINT('Origin',(0.,-2.80000000000001,6.00000000000005));
#1110=CARTESIAN_POINT('',(3.49253331742777,-100.,6.00000000000005));
#1111=CARTESIAN_POINT('',(3.49253331742777,100.,6.00000000000005));
#1112=CARTESIAN_POINT('',(0.,-100.,5.99999999998607));
#1113=CARTESIAN_POINT('',(1.36263222927369E-11,-100.,5.99999999999992));
#1114=CARTESIAN_POINT('',(0.,-5.0615223689151,6.00000000000004));
#1115=CARTESIAN_POINT('Origin',(0.,-2.8,3.00000000000002));
#1116=CARTESIAN_POINT('',(-1.92836282905964,-100.,0.701866670629088));
#1117=CARTESIAN_POINT('Origin',(0.,-100.,2.99999999999989));
#1118=CARTESIAN_POINT('',(-1.92836282905964,-5.06152236891432,0.701866670643062));
#1119=CARTESIAN_POINT('Origin',(-1.09191070279863,-2.8,-3.88578058618805E-15));
#1120=CARTESIAN_POINT('',(-1.75633870417426,-100.,0.557521290898022));
#1121=CARTESIAN_POINT('Origin',(-1.74626665871388,-2.39999999999984,0.0999999999999982));
#1122=CARTESIAN_POINT('',(1.33026142131747,-2.49999999999984,0.199999999999997));
#1123=CARTESIAN_POINT('',(-0.298775568099057,-1.13307566300627,-1.16692433699356));
#1124=CARTESIAN_POINT('',(-1.74626665871388,-2.49999999999984,0.199999999999996));
#1125=CARTESIAN_POINT('Origin',(1.09191070279863,2.49999999999984,1.04083408558608E-16));
#1126=CARTESIAN_POINT('',(1.92836282905964,-2.49999999999983,0.701866670643066));
#1127=CARTESIAN_POINT('',(1.28066353552493,-2.49999999999984,0.158382432324305));
#1128=CARTESIAN_POINT('',(1.92836282905964,2.49999999999983,0.701866670643069));
#1129=CARTESIAN_POINT('',(1.92836282905963,1.2499999999999,0.701866670643067));
#1130=CARTESIAN_POINT('',(1.33026142131747,2.49999999999984,0.2));
#1131=CARTESIAN_POINT('',(1.28066353552493,2.49999999999984,0.158382432324309));
#1132=CARTESIAN_POINT('',(0.57231888060904,1.86401069363783,-0.435989306362018));
#1133=CARTESIAN_POINT('Origin',(-1.74626665871388,2.39999999999984,0.1));
#1134=CARTESIAN_POINT('',(-1.74626665871388,2.49999999999984,0.2));
#1135=CARTESIAN_POINT('Origin',(0.,-2.49999999999977,5.16568542494673));
#1136=CARTESIAN_POINT('',(-3.49253331742777,-2.49999999999976,6.00000000000005));
#1137=CARTESIAN_POINT('',(-3.49253331742777,-2.49999999999976,5.58284271247412));
#1138=CARTESIAN_POINT('',(0.,-2.49999999999965,6.00000000000005));
#1139=CARTESIAN_POINT('',(-0.391042622092033,-2.49999999999976,6.00000000000005));
#1140=CARTESIAN_POINT('Origin',(0.,-2.49999999999969,3.00000000000001));
#1141=CARTESIAN_POINT('',(-2.65219972362107E-16,-2.49999999999984,0.834314575053299));
#1142=CARTESIAN_POINT('Origin',(0.,-2.49999999999981,3.00000000000001));
#1143=CARTESIAN_POINT('Origin',(0.,-3.1999999999933,3.00000000000002));
#1144=CARTESIAN_POINT('',(-2.04603048426189E-16,-2.70502525316739,1.32928932187926));
#1145=CARTESIAN_POINT('Origin',(0.,-2.70502525316737,3.00000000000002));
#1146=CARTESIAN_POINT('Origin',(-2.65219972362114E-16,-3.19999999999333,
0.834314575053247));
#1147=CARTESIAN_POINT('Origin',(0.,-3.18682720163448,3.00000000000002));
#1148=CARTESIAN_POINT('',(-8.65956056235685E-17,-3.6686291501016,2.29289321881333));
#1149=CARTESIAN_POINT('',(-1.45599327024879E-16,-3.18682720163449,1.81109127034629));
#1150=CARTESIAN_POINT('Origin',(0.,-3.66862915010159,3.00000000000003));
#1151=CARTESIAN_POINT('Origin',(0.,-2.9615223689151,3.00000000000012));
#1152=CARTESIAN_POINT('Origin',(0.,2.49999999999975,6.00000000000005));
#1153=CARTESIAN_POINT('',(0.,2.49999999999964,6.00000000000005));
#1154=CARTESIAN_POINT('',(0.,-1.24999999999983,6.00000000000005));
#1155=CARTESIAN_POINT('',(-3.49253331742777,2.49999999999975,6.00000000000005));
#1156=CARTESIAN_POINT('',(-3.49253331742777,100.,6.00000000000005));
#1157=CARTESIAN_POINT('',(-0.391042622092033,2.49999999999975,6.00000000000005));
#1158=CARTESIAN_POINT('Origin',(0.,1.24999999999987,3.));
#1159=CARTESIAN_POINT('Origin',(0.,2.49999999999969,3.00000000000002));
#1160=CARTESIAN_POINT('Origin',(0.,2.49999999999976,5.16568542494673));
#1161=CARTESIAN_POINT('',(-3.49253331742777,2.49999999999976,5.58284271247263));
#1162=CARTESIAN_POINT('',(-2.65219972362107E-16,2.49999999999984,0.834314575053302));
#1163=CARTESIAN_POINT('Origin',(0.,2.49999999999981,3.00000000000002));
#1164=CARTESIAN_POINT('Origin',(0.,3.19999999999329,3.00000000000003));
#1165=CARTESIAN_POINT('',(-2.04603048426189E-16,2.70502525316739,1.32928932187926));
#1166=CARTESIAN_POINT('Origin',(0.,2.70502525316736,3.00000000000002));
#1167=CARTESIAN_POINT('Origin',(-2.65219972362114E-16,3.19999999999333,
0.834314575053251));
#1168=CARTESIAN_POINT('Origin',(0.,3.18682720163447,3.00000000000003));
#1169=CARTESIAN_POINT('',(-8.65956056235685E-17,3.6686291501016,2.29289321881333));
#1170=CARTESIAN_POINT('',(-1.45599327024879E-16,3.18682720163449,1.8110912703463));
#1171=CARTESIAN_POINT('Origin',(0.,3.66862915010158,3.00000000000003));
#1172=CARTESIAN_POINT('Origin',(0.,2.9615223689151,3.00000000000012));
#1173=CARTESIAN_POINT('Origin',(-3.49253331742777,100.,6.00000000000005));
#1174=CARTESIAN_POINT('',(-3.49253331742777,-100.,6.00000000000005));
#1175=CARTESIAN_POINT('',(-3.49253331742776,-100.,5.00000000000004));
#1176=CARTESIAN_POINT('',(-3.49253331742777,100.,6.00000000000005));
#1177=CARTESIAN_POINT('Origin',(-3.49253331742777,100.,6.00000000000005));
#1178=CARTESIAN_POINT('',(-3.49253331742777,100.,6.00000000000005));
#1179=CARTESIAN_POINT('Origin',(-5.49253331737329,100.,8.00000000000005));
#1180=CARTESIAN_POINT('',(-5.49253331737329,-100.,8.00000000000005));
#1181=CARTESIAN_POINT('',(-3.11939998806055,-100.,5.62686667062267));
#1182=CARTESIAN_POINT('',(-5.49253331737329,100.,8.00000000000005));
#1183=CARTESIAN_POINT('Origin',(5.4925333174278,100.,8.00000000000005));
#1184=CARTESIAN_POINT('',(5.4925333174278,-100.,8.00000000000005));
#1185=CARTESIAN_POINT('',(2.74626665872752,-100.,8.00000000000005));
#1186=CARTESIAN_POINT('',(5.4925333174278,100.,8.00000000000005));
#1187=CARTESIAN_POINT('Origin',(3.49253331742776,100.,6.00000000000005));
#1188=CARTESIAN_POINT('',(2.11939998807762,-100.,4.62686667064992));
#1189=CARTESIAN_POINT('Origin',(2.72526445854737E-11,-100.,4.00000000000002));
#1190=UNCERTAINTY_MEASURE_WITH_UNIT(LENGTH_MEASURE(0.01),#1194,
'DISTANCE_ACCURACY_VALUE',
'Maximum model space distance between geometric entities at asserted c
onnectivities');
#1191=UNCERTAINTY_MEASURE_WITH_UNIT(LENGTH_MEASURE(0.01),#1194,
'DISTANCE_ACCURACY_VALUE',
'Maximum model space distance between geometric entities at asserted c
onnectivities');
#1192=(
GEOMETRIC_REPRESENTATION_CONTEXT(3)
GLOBAL_UNCERTAINTY_ASSIGNED_CONTEXT((#1190))
GLOBAL_UNIT_ASSIGNED_CONTEXT((#1194,#1196,#1197))
REPRESENTATION_CONTEXT('','3D')
);
#1193=(
GEOMETRIC_REPRESENTATION_CONTEXT(3)
GLOBAL_UNCERTAINTY_ASSIGNED_CONTEXT((#1191))
GLOBAL_UNIT_ASSIGNED_CONTEXT((#1194,#1196,#1197))
REPRESENTATION_CONTEXT('','3D')
);
#1194=(
LENGTH_UNIT()
NAMED_UNIT(*)
SI_UNIT(.MILLI.,.METRE.)
);
#1195=(
LENGTH_UNIT()
NAMED_UNIT(*)
SI_UNIT($,.METRE.)
);
#1196=(
NAMED_UNIT(*)
PLANE_ANGLE_UNIT()
SI_UNIT($,.RADIAN.)
);
#1197=(
NAMED_UNIT(*)
SI_UNIT($,.STERADIAN.)
SOLID_ANGLE_UNIT()
);
#1198=SHAPE_DEFINITION_REPRESENTATION(#1199,#1200);
#1199=PRODUCT_DEFINITION_SHAPE('',$,#1202);
#1200=SHAPE_REPRESENTATION('',(#722),#1192);
#1201=PRODUCT_DEFINITION_CONTEXT('part definition',#1206,'design');
#1202=PRODUCT_DEFINITION('Flexify (REV 2)','Flexify (REV 2) v3',#1203,#1201);
#1203=PRODUCT_DEFINITION_FORMATION('',$,#1208);
#1204=PRODUCT_RELATED_PRODUCT_CATEGORY('Flexify (REV 2) v3',
'Flexify (REV 2) v3',(#1208));
#1205=APPLICATION_PROTOCOL_DEFINITION('international standard',
'automotive_design',2009,#1206);
#1206=APPLICATION_CONTEXT(
'Core Data for Automotive Mechanical Design Process');
#1207=PRODUCT_CONTEXT('part definition',#1206,'mechanical');
#1208=PRODUCT('Flexify (REV 2)','Flexify (REV 2) v3',$,(#1207));
#1209=PRESENTATION_STYLE_ASSIGNMENT((#1210));
#1210=SURFACE_STYLE_USAGE(.BOTH.,#1211);
#1211=SURFACE_SIDE_STYLE('',(#1212));
#1212=SURFACE_STYLE_FILL_AREA(#1213);
#1213=FILL_AREA_STYLE('Steel - Satin',(#1214));
#1214=FILL_AREA_STYLE_COLOUR('Steel - Satin',#1215);
#1215=COLOUR_RGB('Steel - Satin',0.627450980392157,0.627450980392157,0.627450980392157);
ENDSEC;
END-ISO-10303-21;
